<svg id="Layer_1" 
    xmlns="http://www.w3.org/2000/svg" viewBox="0 0 485.5 498.6">
    <style>
                    .st1 {
                        fill: #fa7b7b
                    }
    </style>
    <g id="big_heart" transform="rotate(5 25936.224 -1253.803)">
        <linearGradient id="main_heart_body_gradient" gradientUnits="userSpaceOnUse" x1="25.706" y1="3063.363" x2="25.794" y2="3062.499" gradientTransform="matrix(423.0517 -32.5487 -37.0124 -372.0308 102986.406 1142873)">
            <stop offset="0" stop-color="#fa7b7b" />
            <stop offset="1" stop-color="#fb6666" />
        </linearGradient>
        <path id="main_heart_body" d="M305.4 2725.1c51 68.9 458.9-80.1 406-259.3-32-108.4-130.9-102.6-206.8-91-156.6 23.9-250.1 281.4-199.2 350.3z" fill="url(#main_heart_body_gradient)" />
        <g id="heart_dots">
            <path id="dot_8" class="st1" d="M245.8 2648.2c-2.5-9.3 2.9-18.9 12.2-21.5l.2-.1c.4-.1.7-.2 1.1-.3.3-.1.6-.1.9-.2h.3l.5-.1c11-1.5 21.3 5.4 24.3 16l.1.4c2.5 9.3-2.9 18.9-12.2 21.5l-.2.1c-.4.1-.7.2-1.1.3-.3.1-.6.1-.9.2h-.3l-.4.1c-5.7.8-11.4-.8-16-4.2-4.3-2.9-7.3-7.3-8.5-12.2z" />
            <path id="dot_7" class="st1" d="M234.1 2554.4c-.3-9.7 7.4-17.8 17.1-18.1h2.4c11 .5 19.9 9.2 20.7 20.3.3 9.8-7.4 17.9-17.2 18.2H254.8c-4.3-.3-8.4-1.8-11.9-4.3-5.2-3.9-8.4-9.7-8.8-16.1z" />
            <path id="dot_6" class="st1" d="M238.8 2462.3c1.5-9.8 10.7-16.6 20.6-15.1.3 0 .6.1.9.2.2 0 .5.1.7.1l.1.1c10.8 2 18.4 11.8 17.5 22.8-1.5 9.9-10.8 16.7-20.7 15.2-.3 0-.6-.1-.9-.2-.2 0-.5-.1-.7-.1h-.1c-3.2-.7-6.3-2.1-8.9-4-6.1-4.4-9.3-11.6-8.5-19z" />
            <path id="dot_5" class="st1" d="M259.3 2372.9c3.6-9.6 14.3-14.4 23.9-11 .2.1.4.1.6.2.2.1.3.1.5.2l.1.1c10.3 3.7 16 14.7 13 25.3-3.8 9.6-14.6 14.4-24.3 10.8-.2-.1-.4-.1-.6-.2-.2-.1-.3-.1-.5-.2-1.9-.7-3.6-1.7-5.2-3-7-5-10-13.9-7.5-22.2z" />
            <path id="dot_4" class="st1" d="M307.5 2318c-8.8-6.8-10.6-18.9-4-27.2l.1-.1c7.1-7.9 19.6-8.5 28.1-1.4 8.9 6.6 10.8 18.8 4.4 27.1l-.2.2c-6.8 7.8-18.9 8.7-27.5 2.1l-.9-.7z" />
            <path id="dot_3" class="st1" d="M375.4 2262.8c-3-9.2 2-19.2 11.2-22.2l.3-.1c.3-.1.7-.2 1-.3.3-.1.5-.1.8-.2h.1c10.9-2 21.6 4.3 25 14.8 3.1 9.1-1.8 19-10.9 22.1l-.3.1c-.3.1-.7.2-1 .3-.3.1-.6.1-.8.2l-.3.1h-.2c-6 1.2-12.3-.2-17.2-3.9-3.5-2.7-6.3-6.5-7.7-10.9z" />
            <path id="dont_2" class="st1" d="M462.7 2297.7c-6.3-7.7-5.2-19.1 2.6-25.5.1-.1.2-.2.4-.3.2-.1.3-.3.5-.4.1-.1.3-.2.4-.3l.1-.1.3-.2c9.5-5.5 21.7-2.8 28 6.2l.2.2c6.2 7.8 5 19.1-2.7 25.3-.1.1-.2.2-.4.3-.2.1-.3.3-.5.4-.2.1-.3.2-.5.3l-.1.1-.1.1c-7.3 4.3-16.5 3.7-23.3-1.4-1.9-1.2-3.6-2.8-4.9-4.7z" />
            <path id="dot_1" class="st1" d="M484.6 2373.2c0-9.8 7.9-17.8 17.7-17.8h2.3c11 .8 19.7 9.7 20.3 20.8 0 9.8-7.9 17.8-17.7 17.8h-2.3c-4.2-.3-8.2-1.8-11.6-4.3-5.4-3.9-8.6-9.9-8.7-16.5z" />
        </g>
    </g>
</svg>