<svg xmlns="http://www.w3.org/2000/svg" viewBox="0 0 376.7 358.4">
    <g transform="translate(-370.2 -2030.912)">
        <linearGradient id="a" gradientUnits="userSpaceOnUse" x1="5.036" y1="2804.476" x2="5.428" y2="2803.768" gradientTransform="matrix(347.5818 73.9233 73.3962 -345.1033 -207110.5 969503.25)">
            <stop offset="0" stop-color="#1cc0d9"/>
            <stop offset="1" stop-color="#1ca5ba"/>
        </linearGradient>
        <path d="M735.3 2294.5l-99.2 82.3c-11 9.1-25.2 13.5-39.4 12.3l-19.5-1.7-176.7-15.6c-7.6-.6-14.7-3.9-20.1-9.1-9.4-8.8-12.6-22.4-8.3-34.5l102.4-285.9c3.6-9.1 13.4-13.6 22.2-10.3 2.1.8 4.1 1.9 5.8 3.4l233.6 209.9c12.9 11.2 14.5 31.2 3.5 44.7-.3.4-.6.8-.9 1.1l-.4.4c-.9 1-2 2-3 2.9v.1z" fill="url(#a)"/>
        <path d="M735.3 2294.5l-98.6 81.8c-11.4 9.4-26 13.9-40.7 12.6l-18.7-1.6-176.7-15.6c-3.8-.3-6.7-3.7-6.3-7.5.3-2.9 2.4-5.4 5.2-6.1l327.8-78.7c4.7-1.1 9.5 1.7 10.7 6.4.8 3.1-.2 6.4-2.6 8.5l-.1.2z" fill="#1a94a7"/>
    </g>
</svg>