<svg xmlns="http://www.w3.org/2000/svg" xmlns:xlink="http://www.w3.org/1999/xlink" width="355.517" height="262.856"><defs><linearGradient id="b" x1=".5" x2=".5" y2="1.734" gradientUnits="objectBoundingBox"><stop offset="0" stop-color="#ffeabd"/><stop offset="1" stop-color="#fa0"/></linearGradient><linearGradient id="a" x1="-288.099" y1="-1311.174" x2="-288" y2="-1311.661" gradientUnits="objectBoundingBox"><stop offset="0" stop-color="#663a14"/><stop offset="1" stop-color="#331d0a"/></linearGradient><linearGradient id="c" x1="-289.85" y1="-1332.683" x2="-289.749" y2="-1333.176" xlink:href="#a"/><linearGradient id="d" x1="-288.686" y1="-1326.766" x2="-288.585" y2="-1327.258" xlink:href="#a"/><linearGradient id="e" x1="-288.132" y1="-1322.657" x2="-288.031" y2="-1323.148" xlink:href="#a"/><linearGradient id="f" x1="-285.789" y1="-1319.507" x2="-285.689" y2="-1319.998" xlink:href="#a"/><linearGradient id="g" x1="-44.607" y1="-81.498" x2="-44.594" y2="-81.536" xlink:href="#a"/><linearGradient id="h" x1="-292.133" y1="-1318.012" x2="-292.033" y2="-1318.503" xlink:href="#a"/><linearGradient id="i" x1="-288.288" y1="-1318.457" x2="-288.187" y2="-1318.948" xlink:href="#a"/><linearGradient id="j" x1="-289.891" y1="-1314.389" x2="-289.791" y2="-1314.879" xlink:href="#a"/><linearGradient id="k" x1="-153.264" y1="-548.572" x2="-153.026" y2="-548.81" xlink:href="#a"/><linearGradient id="l" x1="-153.629" y1="-543.386" x2="-153.394" y2="-543.622" xlink:href="#a"/><linearGradient id="m" x1="-153.034" y1="-544.623" x2="-152.801" y2="-544.859" xlink:href="#a"/><linearGradient id="n" x1="-149.418" y1="-543.32" x2="-149.185" y2="-543.556" xlink:href="#a"/><linearGradient id="o" x1="-152.716" y1="-546.52" x2="-152.484" y2="-546.755" xlink:href="#a"/><linearGradient id="p" x1="-17.689" y1="-43.429" x2="-17.662" y2="-43.45" xlink:href="#a"/><linearGradient id="q" x1="-153.93" y1="-552.106" x2="-153.694" y2="-552.342" xlink:href="#a"/><linearGradient id="r" x1="-152.518" y1="-546.143" x2="-152.287" y2="-546.378" xlink:href="#a"/><linearGradient id="s" x1="-152.426" y1="-554.249" x2="-152.192" y2="-554.486" xlink:href="#a"/><linearGradient id="t" x1="-36.8" y1="-63.302" x2="-36.8" y2="-63.318" gradientUnits="objectBoundingBox"><stop offset="0" stop-color="#fca12a"/><stop offset="1" stop-color="#e58604"/></linearGradient><linearGradient id="u" x1="-63.16" y1="-62.92" x2="-63.151" y2="-62.974" xlink:href="#a"/><linearGradient id="v" x1="-259.379" y1="-834.983" x2="-259.337" y2="-835.586" xlink:href="#a"/><linearGradient id="w" x1="-255.804" y1="-836.451" x2="-255.763" y2="-837.056" xlink:href="#a"/><linearGradient id="x" x1="-260.546" y1="-842.801" x2="-260.504" y2="-843.408" xlink:href="#a"/><linearGradient id="y" x1="-256.917" y1="-822.249" x2="-256.875" y2="-822.841" xlink:href="#a"/><linearGradient id="z" x1="-259.51" y1="-849.346" x2="-259.468" y2="-849.954" xlink:href="#a"/><linearGradient id="A" x1="-261.2" y1="-839.417" x2="-261.157" y2="-840.021" xlink:href="#a"/><linearGradient id="B" x1=".585" x2=".699" y2=".401" gradientUnits="objectBoundingBox"><stop offset="0" stop-color="#fca12a"/><stop offset="1" stop-color="#eb8700"/></linearGradient><linearGradient id="C" x1=".301" y1=".184" x2=".357" y2=".889" gradientUnits="objectBoundingBox"><stop offset="0" stop-color="#fca12a"/><stop offset="1" stop-color="#ea8600"/></linearGradient><linearGradient id="D" x1="-30.662" y1="-71.581" x2="-30.624" y2="-71.647" xlink:href="#a"/><linearGradient id="E" x1="-28.496" y1="-39.194" x2="-28.462" y2="-39.229" xlink:href="#a"/><linearGradient id="F" x1="-50.328" y1="-103.397" x2="-50.264" y2="-103.488" xlink:href="#a"/><linearGradient id="G" x1="-258.457" y1="-147.971" x2="-258.127" y2="-148.102" xlink:href="#a"/><linearGradient id="H" x1=".5" x2="1.322" y2=".5" gradientUnits="objectBoundingBox"><stop offset="0" stop-color="#fca12a"/><stop offset="1" stop-color="#fa8f00"/></linearGradient></defs><path d="M1325.217 1143.724c21.6 57.058-50.962 87.915-143.478 90.135-98.7 2.355-157.306-13.234-177.188-54.554C985 1138.614 1024.694 1022.7 1197.3 1037.06c39.754 3.303 107.839 53.658 127.917 106.664z" transform="translate(-1000 -998.995)" fill="url(#b)"/><path data-name="Path 154" d="M1070.653 1119.008a1.688 1.688 0 0 1-.169-2.438l.017-.019.028-.03a1.878 1.878 0 0 1 2.569-.144l.03.026a1.689 1.689 0 0 1 .168 2.44l-.016.018-.028.029a1.854 1.854 0 0 1-1.352.572 1.851 1.851 0 0 1-1.247-.454z" fill="url(#a)" transform="translate(-997 -998.995)"/><path data-name="Path 155" d="M1064.785 1112.655a1.684 1.684 0 0 1 .367-2.409l.021-.015.009-.006a1.871 1.871 0 0 1 2.543.369 1.691 1.691 0 0 1-.376 2.419l-.015.011h-.006a1.886 1.886 0 0 1-1.071.336 1.866 1.866 0 0 1-1.472-.705z" fill="url(#c)" transform="translate(-997 -998.995)"/><path data-name="Path 156" d="M1060.152 1105.519a1.708 1.708 0 0 1 .768-2.34h.012a1.861 1.861 0 0 1 2.455.737 1.717 1.717 0 0 1-.768 2.353h-.006a2.015 2.015 0 0 1-.845.192 1.843 1.843 0 0 1-1.616-.942z" fill="url(#d)" transform="translate(-997 -998.995)"/><path data-name="Path 157" d="M1056.78 1097.7a1.727 1.727 0 0 1 1.189-2.17h.016a1.842 1.842 0 0 1 2.275 1.169 1.743 1.743 0 0 1-1.222 2.176 1.864 1.864 0 0 1-.526.067 1.808 1.808 0 0 1-1.732-1.242z" fill="url(#e)" transform="translate(-997 -998.995)"/><path data-name="Path 158" d="M1057.211 1090.936a1.78 1.78 0 0 1-1.748-1.817v-.006a1.8 1.8 0 0 1 1.9-1.665 1.775 1.775 0 0 1 1.768 1.785v.023a1.793 1.793 0 0 1-1.82 1.679h-.1z" fill="url(#f)" transform="translate(-997 -998.995)"/><path data-name="Path 159" d="M1078.983 1121.451c7.291 2.325 27.94-31.379 14.574-41.834-8.083-6.328-14.723-.416-19.435 4.651-9.713 10.453-2.43 34.858 4.861 37.183z" fill="url(#g)" transform="translate(-997 -998.995)"/><path data-name="Path 160" d="M1072.634 1085.261a1.693 1.693 0 0 1 .423-2.412l.019-.013a1.88 1.88 0 0 1 2.541.429 1.693 1.693 0 0 1-.429 2.41l-.02.013a1.836 1.836 0 0 1-1.047.323 1.84 1.84 0 0 1-1.487-.75z" fill="url(#h)" transform="translate(-997 -998.995)"/><path data-name="Path 161" d="M1059.015 1083.053a1.7 1.7 0 0 1-.288-2.439l.008-.01a1.876 1.876 0 0 1 2.557-.276 1.684 1.684 0 0 1 .306 2.417l-.017.02-.009.012a1.842 1.842 0 0 1-1.423.659 1.906 1.906 0 0 1-1.134-.383z" fill="url(#i)" transform="translate(-997 -998.995)"/><path data-name="Path 162" d="M1067.027 1080.834a1.724 1.724 0 0 1-1.152-2.188l.005-.015.01-.028a1.831 1.831 0 0 1 2.3-1.089l.022.007a1.717 1.717 0 0 1 1.133 2.188l-.005.014v.011a1.814 1.814 0 0 1-1.715 1.181 1.759 1.759 0 0 1-.598-.081z" fill="url(#j)" transform="translate(-997 -998.995)"/><g><path data-name="Path 163" d="M1078.625 1179.461h.338a3.909 3.909 0 1 0-.338 0z" fill="url(#k)" transform="translate(-997 -998.995)"/><path data-name="Path 164" d="M1091.576 1184.5a3.806 3.806 0 1 0-3.98-3.8 3.708 3.708 0 0 0 .913 2.421 4.033 4.033 0 0 0 3.067 1.379z" fill="url(#l)" transform="translate(-997 -998.995)"/><path data-name="Path 165" d="M1093.615 1194.224a4.031 4.031 0 0 0 4.792 2.809 3.8 3.8 0 0 0 2.95-4.56l-.005-.023a3.989 3.989 0 0 0-4.791-2.817 3.8 3.8 0 0 0-2.951 4.56l.006.023z" fill="url(#m)" transform="translate(-997 -998.995)"/><path data-name="Path 166" d="M1064.98 1184.079a3.806 3.806 0 1 0 .055-7.608 4.121 4.121 0 0 0-2 .5 3.711 3.711 0 0 0-1.511 5.138l.024.042a4.009 4.009 0 0 0 3.436 1.919z" fill="url(#n)" transform="translate(-997 -998.995)"/><path data-name="Path 167" d="M1098.99 1203.359a3.808 3.808 0 1 0-.241 7.608h.143a3.807 3.807 0 1 0 .162-7.608z" fill="url(#o)" transform="translate(-997 -998.995)"/><path data-name="Path 168" d="M1077.28 1254.219c1.95-15.292-4.243-51.594-14.99-62.784-11.82-12.264-26.089-20.681-40.767-9.945-36.051 26.406 41.312 85.025 52.995 79.43a2.235 2.235 0 0 0 .378-.236.3.3 0 0 0 .071.075 4.105 4.105 0 0 0 5.623-.044 3.688 3.688 0 0 0-.005-5.343l-.04-.038a1.773 1.773 0 0 0-.114-.1 4.1 4.1 0 0 0-3.151-1.015z" fill="url(#p)" transform="translate(-997 -998.995)"/><path data-name="Path 169" d="M1094.252 1230.769a4.03 4.03 0 0 0-5.113 2.24 3.767 3.767 0 0 0 2.345 4.873 3.972 3.972 0 0 0 5.042-2.266 3.762 3.762 0 0 0-2.274-4.847z" fill="url(#q)" transform="translate(-997 -998.995)"/><path data-name="Path 170" d="M1097.924 1217.267a4 4 0 0 0-4.753 2.912 3.822 3.822 0 0 0 3.021 4.544h.023a4.567 4.567 0 0 0 .857.087 3.792 3.792 0 0 0 .852-7.522z" fill="url(#r)" transform="translate(-997 -998.995)"/><path data-name="Path 171" d="M1088.417 1243.556a4.076 4.076 0 0 0-5.428 1.407 3.7 3.7 0 0 0 1.4 5.153 4 4 0 0 0 1.986.513 3.869 3.869 0 0 0 3.984-3.743 3.773 3.773 0 0 0-1.944-3.33z" fill="url(#s)" transform="translate(-997 -998.995)"/></g><g><path data-name="Path 172" d="M338.847 38.538c5.777 0 9.468 3.905 12.294 9.7 9.1 18.648-19.937 46.955-28.59 46.955a2.888 2.888 0 0 1-.533-.044c-10.539-1.678-18.557-38.037 3.977-51.98 5.2-3.232 9.422-4.63 12.885-4.63m0-2.537c-4.165 0-8.85 1.649-14.327 5.034a32.267 32.267 0 0 0-14.011 18.884 44.368 44.368 0 0 0-.65 21.415c1.572 7.236 5.458 15.33 11.664 16.317a6.047 6.047 0 0 0 .968.075c3.938 0 8.973-3.494 12.5-6.423a70.212 70.212 0 0 0 13.138-14.645c7.355-11.052 9.273-21.525 5.388-29.5-3.664-7.515-8.447-11.189-14.7-11.189z" fill="#fff"/><path data-name="Path 173" d="M1322.943 1042.163c13.938-8.634 20.663-4.2 25.179 5.067 9.279 19.021-21.209 48.181-29.156 46.913-10.519-1.679-18.538-38.037 3.977-51.98z" fill="url(#t)" transform="translate(-997 -998.995)"/><path data-name="Path 174" d="M329.712 39.588a4.869 4.869 0 0 0-1.144-.808 5.559 5.559 0 0 0-2.6-.622 5.153 5.153 0 0 0-5.3 4.985v.05a3.815 3.815 0 0 0 .052.622 4.8 4.8 0 0 0 1.085 2.486c.651-.566 1.3-1.128 2.015-1.649a2.357 2.357 0 0 1-.5-1.467 2.58 2.58 0 0 1 1.176-2.107 2.182 2.182 0 0 1 .454-.218 3 3 0 0 1 2.015 0 2.525 2.525 0 0 1 .871.535 2.109 2.109 0 0 1 .383.466c.4-.224.773-.417 1.156-.621s.781-.4 1.177-.585a4.535 4.535 0 0 0-.84-1.067z" fill="#fff"/><path data-name="Path 175" d="M315.6 89.429a2.515 2.515 0 0 1-1.5 2.574 2.7 2.7 0 0 1-3.806-2.2 2.478 2.478 0 0 1 .808-1.906 2.218 2.218 0 0 1 .65-.448 2.687 2.687 0 0 1 3.047.39 28.256 28.256 0 0 1-1.257-3.212h-.552a5.361 5.361 0 0 0-2.112.423 5.425 5.425 0 0 0-1.644 1.075 4.916 4.916 0 0 0-.038 7.119l.048.046a5.475 5.475 0 0 0 6.436.773 5.142 5.142 0 0 0 1.073-.814 4.185 4.185 0 0 0 .779-.976 16.84 16.84 0 0 1-1.932-2.844zm-4.283-10.381a5.211 5.211 0 0 0-2.155-2.027 5.318 5.318 0 0 0-2.527-.621 5.074 5.074 0 1 0 .157 10.14 5.407 5.407 0 0 0 2.442-.623 5.156 5.156 0 0 0 1.527-1.243 4.945 4.945 0 0 0 .558-5.626zm-3.392 4.637a1.58 1.58 0 1 0-.012 0zm-.318-13.147a5.327 5.327 0 0 0-6.555-3.509 5.1 5.1 0 0 0-3.631 6.335 5.413 5.413 0 0 0 6.658 3.49 5.046 5.046 0 0 0 3.532-6.306v-.01zm-4.295 3.892a2.63 2.63 0 0 1-.774.106 2.519 2.519 0 1 1 2.65-2.473 2.532 2.532 0 0 1-1.876 2.373zm-2.813-17.561a3.762 3.762 0 0 0-.475 0 5.062 5.062 0 1 0 .461 10.114q.273.014.546 0a5.123 5.123 0 0 0 4.755-5.505 5.184 5.184 0 0 0-5.287-4.615zm.214 7.6a1.451 1.451 0 0 1-.228 0 2.533 2.533 0 0 1-.221-5.06 1.542 1.542 0 0 1 .235 0 2.533 2.533 0 0 1 .214 5.06zm19.233-28.109a5.333 5.333 0 0 0-3.658-1.685h-.331a5.227 5.227 0 0 0-5.276 4.755 5.328 5.328 0 0 0 .064 1.129 4.413 4.413 0 0 0-.61-.883 5.433 5.433 0 0 0-7.412-.739l-.048.037a4.894 4.894 0 0 0-.82 7.036l.046.055.033.039a5.2 5.2 0 0 0 1.047.926 5.894 5.894 0 0 0-.864-.255 5.58 5.58 0 0 0-1.125-.106 5.166 5.166 0 0 0-5.316 5 5.112 5.112 0 0 0 4.173 5.031 5.653 5.653 0 0 0 1.131.112 5.153 5.153 0 0 0 5.31-4.979 5.008 5.008 0 0 0-2.263-4.239 5.381 5.381 0 0 0 6.9-2.791 4.867 4.867 0 0 0 .315-2.748 5.3 5.3 0 0 0 4.438 2.748h.305a5.16 5.16 0 0 0 5.3-5.011 4.972 4.972 0 0 0-1.334-3.431zm-16.345 15.9a2.645 2.645 0 0 1-2.6 1.989 2.757 2.757 0 0 1-.559-.049 2.518 2.518 0 0 1-.741-4.706 2.894 2.894 0 0 1 .832-.273 2.166 2.166 0 0 1 .454-.044 2.654 2.654 0 0 1 2.657 2.653 2.488 2.488 0 0 1-.044.426zm4.119-7.459a2.7 2.7 0 0 1-3.71-.325 2.489 2.489 0 0 1 .337-3.586 2.692 2.692 0 0 1 1.69-.59 2.592 2.592 0 0 1 2.726 2.438 2.509 2.509 0 0 1-1.019 2.107zm8.263-2.573h-.163a2.533 2.533 0 1 1 .12-5.061h.2a2.533 2.533 0 1 1-.156 5.06z" fill="#fff"/><path data-name="Path 176" d="M327.178 94.172a3.966 3.966 0 0 0-.1-.479 16.2 16.2 0 0 1-2.463 1.089v.366a2.484 2.484 0 0 1-.773 1.79 2.383 2.383 0 0 1-.41.317 3.817 3.817 0 0 1-.449.243 2.521 2.521 0 0 1-.506.137 2.155 2.155 0 0 1-.488.049h-.065a3.634 3.634 0 0 1-.4-.037.257.257 0 0 1-.1 0 .589.589 0 0 1-.143-.038l-.227-.049h-.052a.391.391 0 0 1-.149-.069 1.326 1.326 0 0 1-.319-.161.057.057 0 0 1-.052-.037 2.36 2.36 0 0 1-.4-.3 2.514 2.514 0 0 1-.319-.379 3.031 3.031 0 0 1-.253-.447 2.88 2.88 0 0 1-.143-.466 2.2 2.2 0 0 1-.052-.5 2.083 2.083 0 0 1 .052-.491 3.4 3.4 0 0 1 .143-.485v-.05a9.617 9.617 0 0 1-1.949-1.79l-.04.056a5.212 5.212 0 0 0-.46.808 7.571 7.571 0 0 0-.28.889 4.224 4.224 0 0 0-.117 1.026v-.013a4.694 4.694 0 0 0 .117 1.069 6.1 6.1 0 0 0 .269.845 5.512 5.512 0 0 0 .474.852 4.25 4.25 0 0 0 .689.808 5.372 5.372 0 0 0 3.756 1.5 4.652 4.652 0 0 0 1.02-.1 5.342 5.342 0 0 0 .956-.255h.038a5.655 5.655 0 0 0 .858-.454 4.165 4.165 0 0 0 .851-.665 4.927 4.927 0 0 0 1.339-2.188 4.553 4.553 0 0 0 .214-1.389 3.979 3.979 0 0 0-.067-1.002z" fill="#fff"/><path data-name="Path 177" d="M1325.542 1041.6a2.518 2.518 0 0 0-.318-.759 2.109 2.109 0 0 0-.383-.466 2.515 2.515 0 0 0-.872-.534 2.989 2.989 0 0 0-2.014 0 2.5 2.5 0 0 0-.864.534 2.433 2.433 0 0 0-.779 1.79 2.368 2.368 0 0 0 .5 1.468c-14.536 10.884-14.224 32.05-9.012 43.233a2.729 2.729 0 0 0-1.814-.7 2.7 2.7 0 0 0-1.234.305 2.217 2.217 0 0 0-.65.448 2.457 2.457 0 0 0-.088 3.558l.019.019a2.712 2.712 0 0 0 1.953.774 2.55 2.55 0 0 0 1.112-.242 2.3 2.3 0 0 0 .754-.5 2.423 2.423 0 0 0 .747-2.064 13.618 13.618 0 0 0 3.957 4.7v.037a3.543 3.543 0 0 0-.143.485 2.135 2.135 0 0 0-.052.491 2.187 2.187 0 0 0 .052.5 2.819 2.819 0 0 0 .143.466 3.1 3.1 0 0 0 .253.448 2.689 2.689 0 0 0 .319.38 2.444 2.444 0 0 0 .4.3l.052.038a1.779 1.779 0 0 0 .318.161.453.453 0 0 0 .15.069 1.165 1.165 0 0 0 .279.074.592.592 0 0 0 .143.037.262.262 0 0 0 .1 0 2.272 2.272 0 0 0 .4.038h.064a2.11 2.11 0 0 0 .488-.051 2.518 2.518 0 0 0 .506-.136 3.651 3.651 0 0 0 .449-.243 2.155 2.155 0 0 0 .41-.317 2.479 2.479 0 0 0 .754-1.8q.009-.183 0-.366a.907.907 0 0 1-.033-.125 2.286 2.286 0 0 0-.142-.485l-.066-.131c3.36-2.933 6.736-11.518 8.883-23.938 1.107-6.601 2.277-26.957-4.741-27.496z" fill="url(#u)" transform="translate(-997 -998.995)"/><path data-name="Path 178" d="M1303.04 1044.414a2.579 2.579 0 0 0 2.644-2.506 2.479 2.479 0 0 0-.609-1.646 2.709 2.709 0 0 0-2.035-.921 2.6 2.6 0 0 0-2.644 2.555 2.5 2.5 0 0 0 .564 1.578 2.687 2.687 0 0 0 2.08.94z" fill="url(#v)" transform="translate(-997 -998.995)"/><path data-name="Path 179" d="M1312.82 1041.262h.162a2.533 2.533 0 1 0 .155-5.06h-.179a2.533 2.533 0 1 0-.153 5.06h.015z" fill="url(#w)" transform="translate(-997 -998.995)"/><path data-name="Path 180" d="M1297.446 1053.2a2.829 2.829 0 0 0 .559.05 2.522 2.522 0 1 0-.014-5.041 2.093 2.093 0 0 0-.454.043 3.4 3.4 0 0 0-.832.273 2.5 2.5 0 0 0-1 3.462l.016.027a2.664 2.664 0 0 0 1.723 1.216z" fill="url(#x)" transform="translate(-997 -998.995)"/><path data-name="Path 181" d="M1302.072 1070.273a2.663 2.663 0 0 0-3.224-1.831 2.531 2.531 0 0 0-1.919 3.067l.005.018q.027.1.063.2a2.661 2.661 0 0 0 2.541 1.8 2.628 2.628 0 0 0 .773-.106 2.519 2.519 0 0 0 1.761-3.15z" fill="url(#y)" transform="translate(-997 -998.995)"/><path data-name="Path 182" d="M1303.638 1077.931a2.565 2.565 0 0 0-2.64 2.482 2.461 2.461 0 0 0 .333 1.267 2.7 2.7 0 0 0 3.621.948 2.52 2.52 0 0 0 1.049-3.379 2.669 2.669 0 0 0-2.35-1.315z" fill="url(#z)" transform="translate(-997 -998.995)"/><path data-name="Path 183" d="M1297.712 1063.46a2.561 2.561 0 0 0 2.376-2.753 2.59 2.59 0 0 0-2.59-2.307 1.528 1.528 0 0 0-.234 0 2.562 2.562 0 0 0-2.376 2.754 2.59 2.59 0 0 0 2.6 2.306 1.439 1.439 0 0 0 .224 0z" fill="url(#A)" transform="translate(-997 -998.995)"/></g><g><path data-name="Path 184" d="M345.805 114.027c.078 2.8-1.521 5.121-4.061 7.03-.351.268-.719.529-1.111.781s-.793.492-1.209.728a29.58 29.58 0 0 1-2.664 1.324c-.7.3-1.423.622-2.164.877a35.48 35.48 0 0 1-1.495.534c-.753.255-1.526.5-2.3.728-.253.08-.512.155-.773.223-.773.218-1.553.423-2.32.622l-1.54.366c-1.3.293-2.521.548-3.71.771l-.708.131-1.257.224c-2.268.385-4.221.621-5.614.8s-2.171.23-2.171.23a324.453 324.453 0 0 1-3.306 39.255q-.171 1.062-.352 2.107c-.058.347-.116.69-.179 1.041l-.254 1.411-.179.907c-.078.411-.163.821-.241 1.243-.179.847-.359 1.685-.546 2.487-.084.4-.179.8-.269 1.193a1.249 1.249 0 0 1-.066.268c-.1.434-.207.868-.318 1.293-.072.286-.143.566-.221.839a48.012 48.012 0 0 1-.487 1.765l-.1.336c-.09.317-.188.622-.28.939-.155.5-.311.988-.474 1.467l-.37 1.082c-.1.254-.188.5-.279.751-.131.342-.261.672-.39 1-2.171 5.381-4.9 9.031-8.343 9.56a13.859 13.859 0 0 1-4.965-.167 13.784 13.784 0 0 1-.962-.218 37.378 37.378 0 0 1-9.911-4.357c-.4-.236-.8-.479-1.2-.734-.194-.124-.4-.248-.6-.385-.546-.347-1.1-.714-1.664-1.094a86.224 86.224 0 0 1-6.1-4.606 97.645 97.645 0 0 1-3.554-3.058l-.78-.709c-.52-.479-1.046-.97-1.56-1.461l-.779-.746c-.52-.5-1.033-1.013-1.553-1.529a127.64 127.64 0 0 1-14.413-17.318.507.507 0 0 1-.045.1c0 .05-.058.118-.09.2l-.032.063a.432.432 0 0 1-.032.074l-.071.149-.059.137v.055c-.03.079-.07.166-.117.261-.085.192-.189.416-.3.672l-.123.267s-.058.142-.1.217a2.185 2.185 0 0 1-.1.23l-.227.534c-.072.174-.15.362-.234.554l-.26.622-.269.621c-.039.1-.079.206-.123.3s-.059.155-.09.23c-.078.205-.162.41-.247.621a.143.143 0 0 1-.051.125l-.066.156a.469.469 0 0 1-.052.142c-.2.51-.416 1.051-.649 1.623-.053.136-.111.279-.163.423-.116.3-.233.621-.351.938l-.1.255a1.207 1.207 0 0 1-.046.13c-.038.106-.084.218-.123.33q-.214.578-.429 1.187c-.494 1.361-1 2.829-1.514 4.388a1.334 1.334 0 0 1-.053.15c-.227.709-.467 1.436-.7 2.188a168.876 168.876 0 0 0-4.3 16.38 114.69 114.69 0 0 0-.338 1.672c-.221 1.112-.428 2.25-.649 3.394-2.313 13.327-2 23.112-1.3 29.076a363.218 363.218 0 0 1-36.2 3.773q-6.751.38-13.684.547-19.008.459-36.024 0v-.336l-.059-.7a2.8 2.8 0 0 0-.045-.621.308.308 0 0 0 0-.075c0-.429-.059-.868-.089-1.3-.1-1.405-.208-2.885-.312-4.426a3.917 3.917 0 0 0-.052-.781c-.156-2.344-.312-4.836-.468-7.46l-.078-1.43v-.322c-.052-.883-.1-1.785-.149-2.691q-.118-2.019-.215-4.109-.068-1.334-.123-2.685a5.3 5.3 0 0 0-.032-.7c-.034-.236 0-.622-.046-.977q-.069-1.562-.13-3.163a463.51 463.51 0 0 1-.143-3.732q-.1-2.817-.18-5.683l-.039-1.6v-.9a757.449 757.449 0 0 1-.111-5.651v-4.595a57.154 57.154 0 0 1-5.5 6.061c-4.548 4.253-8.746 6.216-12.729 6.216h-1.222l-.312-.037c-.227-.032-.449-.063-.649-.106l-.4-.081-.311-.075-.36-.086-.37-.112-.384-.124-.338-.118-.428-.169a16.837 16.837 0 0 1-2.32-1.168 23.522 23.522 0 0 1-4.087-3.2c-.18-.161-.345-.329-.52-.5a39.629 39.629 0 0 1-1.033-1.07q-1.033-1.117-2.054-2.4a43.394 43.394 0 0 1-1.533-2.009c-.179-.236-.345-.478-.514-.714-.337-.479-.649-.97-1.02-1.476s-.688-1.026-1.026-1.553c-.65-1.042-1.338-2.133-2.015-3.264-.35-.622-.707-1.206-1.065-1.865-.169-.3-.345-.621-.514-.914l-1.032-1.865q-.78-1.43-1.56-2.94l-1.046-2.038q-.793-1.555-1.58-3.19c-.35-.72-.707-1.454-1.058-2.194l-1.073-2.257q-.809-1.716-1.616-3.493a537.91 537.91 0 0 1-2.19-4.855q-2.535-.292-4.776-.622l-.735-.1-1.429-.217q-1.053-.162-2.027-.336a98.757 98.757 0 0 1-3.067-.584l-1.118-.243-1.059-.249-1.007-.255c-.808-.211-1.566-.429-2.261-.621l-.809-.268-.753-.267a20.527 20.527 0 0 1-1.657-.684l-.579-.279-.52-.28a9.181 9.181 0 0 1-.695-.422 4.665 4.665 0 0 1-.4-.287 6.014 6.014 0 0 1-.649-.565c-1.43-1.417-1.229-2.848.1-4.153l.179-.174a7.953 7.953 0 0 1 .858-.671 12.908 12.908 0 0 1 1.625-.952c.306-.15.649-.3.954-.447l.689-.286c.234-.093.474-.187.718-.273s.5-.181.761-.268l.786-.255c7.8-2.393 19.825-3.108 27.772.33l16.245 21.222 5.847 7.665.039-.082c.189-.4.878-1.864 1.949-4.083l.06-.124.135-.287a.327.327 0 0 0 .046-.086c.215-.448.449-.92.7-1.424 0-.056.059-.118.085-.18s.117-.242.179-.367c.364-.746.76-1.548 1.183-2.393l.175-.361.215-.416.4-.79c.312-.621.65-1.274.982-1.946 0-.049.052-.1.084-.161l.11-.217c.071-.143.15-.287.221-.434l.527-1.025a210.418 210.418 0 0 1 2.085-3.979l.429-.808.585-1.1.741-1.368.649-1.243c.235-.423.468-.852.709-1.274.305-.56.617-1.113.936-1.673l.474-.833c1.257-2.225 2.6-4.431 3.9-6.558l.6-.975c.948-1.512 1.9-2.978 2.84-4.352l.486-.708a63.469 63.469 0 0 1 5.361-6.888c.215-.236.429-.46.65-.678a34.5 34.5 0 0 1 1.059-1.032l.37-.329c.144-.131.287-.249.423-.361a33.1 33.1 0 0 1 3.671-2.486c.228-.137.461-.274.7-.4l.793-.441q.889-.486 1.832-.955 3.591-1.766 7.355-3.17l1.235-.46q2.6-.951 5.393-1.866l-.286-29.017a46.317 46.317 0 0 1-1.716-2.106l-.337-.448a.637.637 0 0 0-.065-.081c-.208-.273-.416-.548-.65-.833a.137.137 0 0 1-.032-.05c-.1-.137-.2-.267-.286-.4-.3-.423-.6-.851-.9-1.286q-.344-.5-.682-1.026a.88.88 0 0 0-.072-.112c-.1-.143-.188-.28-.269-.423-.175-.267-.35-.547-.52-.82-.065-.112-.143-.218-.207-.33-.28-.454-.559-.92-.832-1.389-.078-.124-.15-.255-.221-.379-.261-.448-.514-.895-.767-1.342-.1-.187-.207-.368-.305-.554l-.6-1.113a1.281 1.281 0 0 1-.1-.186q-.369-.695-.718-1.4c-.2-.385-.384-.77-.572-1.162s-.4-.827-.6-1.244a6.935 6.935 0 0 1-.2-.416.4.4 0 0 0-.065-.143c-.111-.23-.215-.46-.319-.694-.2-.416-.376-.839-.558-1.244s-.364-.839-.533-1.242l-.058-.138c-.157-.379-.306-.758-.456-1.128s-.291-.746-.435-1.12c-.26-.694-.513-1.38-.754-2.063l-.214-.622c-.1-.273-.188-.541-.27-.808a10.5 10.5 0 0 1-.144-.447c-.136-.417-.269-.827-.389-1.244s-.247-.826-.364-1.243c-.09-.31-.175-.621-.253-.92-.052-.186-.1-.373-.149-.553-.079-.29-.15-.575-.215-.858a46.962 46.962 0 0 1-.546-2.455 42 42 0 0 1-.65-4.532 30.634 30.634 0 0 1-.1-1.759v-2.313c0-.161.032-.317.045-.472a2.109 2.109 0 0 1 .045-.448 10.035 10.035 0 0 1 1.707-4.793 6.137 6.137 0 0 1 6.011-2.324 11.194 11.194 0 0 1 .3-1.79l.1-.392c.035-.136.079-.273.118-.416s.143-.429.221-.659.179-.454.279-.7.208-.473.332-.715.168-.323.259-.478.189-.324.286-.485l.156-.242c.11-.156.221-.318.338-.473l.179-.236c.123-.15.253-.3.39-.454 1.95-2.132 5.094-3.767 10.286-3.108 0 0 7.148-15.92 25.179-16.486H209c.269 0 .546.032.808.057l.808.081c.371.043.734.1 1.1.161q.3.043.6.112a1.956 1.956 0 0 1 .455.093l.6.143.227.056.748.211c.24.069.474.15.7.224l.331.118.683.255.7.355c.269.119.524.244.78.373h.045a18.588 18.588 0 0 1 1.541.853l.7.454c.241.162.474.323.719.5s.449.335.65.509h.038c.449.361.884.727 1.3 1.119.208.192.422.392.65.622.416.41.809.832 1.2 1.243.2.218.383.442.572.672l.449.546c.032.05.072.093.11.144a28.973 28.973 0 0 1 1.553 2.181l.423.659.111.18q.331.541.649 1.1c.078.13.149.267.227.4l.4.74.032.068c.143.273.28.547.416.82v.038c.13.267.26.534.383.8a.375.375 0 0 0 .033.062l.269.59c0 .069.058.13.085.193q.194.429.37.857c.162.38.318.765.468 1.15.078.2.156.4.227.623l.11.291c.1.261.189.521.287.79s.123.36.187.541c.15.434.293.868.436 1.311.032.112.072.224.1.342s.046.143.065.212l.117.378.078.268.136.454a1.149 1.149 0 0 0 .052.192c.15.511.293 1.02.423 1.536l.1.367a.132.132 0 0 1 0 .049 3.864 3.864 0 0 1 .1.374q.138.521.254 1.041c.045.181.085.361.123.541a1.867 1.867 0 0 1 .053.212l.233 1.075c.066.3.13.621.189.914.124.621.234 1.215.345 1.815l.155.9a104.229 104.229 0 0 1 .721 5.073l.1.868c.032.285.065.571.09.857.058.621.11 1.168.162 1.74s.085 1.032.124 1.536c0 .26.032.52.051.781.059.839.1 1.64.137 2.405a6.151 6.151 0 0 0 .033.79c.032.255 0 .54.032.808 0 .621.033 1.206.039 1.753.058 3.108-.032 5.034-.032 5.034a42.832 42.832 0 0 1-7.724 25.089l-.416.565c-.46.622-.942 1.2-1.437 1.765a25.456 25.456 0 0 1-1.245 1.368l-.35.36a31.158 31.158 0 0 1-2.75 2.443l-.4.3c-.173.137-.349.267-.526.391l-.539.38-.526.361c-.221.142-.442.285-.649.422s-.572.348-.865.51-.578.323-.877.478-.559.287-.845.417l-.149.074c-.269.125-.533.243-.808.355s-.571.236-.858.348l-.11.043c-.292.112-.585.211-.884.311s-.649.2-.942.3v7.646c1.086-.156 2.164-.3 3.249-.434l1.527-.193 1.651-.193 1.566-.173 1.546-.162 1.228-.118c.6-.062 1.2-.112 1.8-.161 13-1.12 23.249-.684 25.751 1.7a8.648 8.648 0 0 1 .968 1.05l.416.5.214.274a7.5 7.5 0 0 1 .461.621q.7.933 1.488 2.076l.27.392a129.458 129.458 0 0 1 4.477 7.13c.435.733.884 1.492 1.332 2.269l.689 1.206q.687 1.193 1.39 2.443c.195.347.39.694.578 1.041.521.933 1.053 1.9 1.586 2.872.246.448.487.9.734 1.355a1.127 1.127 0 0 1 .065.131l.364.665.565 1.05q1.15 2.157 2.336 4.414l.441.852 1.534 2.971c.286.554.565 1.113.852 1.672.39.759.773 1.524 1.163 2.294s.773 1.542 1.156 2.319c.2.391.39.776.578 1.169.391.781.773 1.562 1.157 2.343l1.15 2.362.9 1.865.293.621.936 1.958c.045.1.09.206.143.305l.572 1.244c.179.379.359.764.539 1.15s.371.781.552 1.181l.9 1.933.728 1.591c.179.392.359.781.532 1.169 2.82-20.421 9.34-41.406 12.484-44.483 1.683-1.66 5.815-3.227 11.013-4.414 13.145-3.015 33.139-3.624 37.688 2.754a4.925 4.925 0 0 1 .506.868 5.042 5.042 0 0 1 .477 1.971z" fill="#ffeabd"/><path data-name="Path 185" d="M213.31 98.651a221.2 221.2 0 0 1 12.547-1.437l-13.626 15.684-30.539 19.55-10.547-23.752c2.1-.8 4.321-1.562 6.628-2.3l-.234-24.38 49.091.1a28.208 28.208 0 0 1-13.346 8.865z" fill="#fcbb65"/><path data-name="Path 186" d="M236.238 54.743c0 17.678-9.79 32.467-22.924 36.284-24.315 3.325-30.755-13.583-32.86-26.68a7.035 7.035 0 0 1-2.495-.161c-1.871-.405-4.548-1.642-7.063-5.011a23.835 23.835 0 0 0-2.6 4.034 80.618 80.618 0 0 1-7.148-19.848 30.921 30.921 0 0 1-.649-9.542c16.848-6.216 51.254-18.157 68.876-18.58 4.477 9.125 6.082 20.513 6.622 28.713a102.27 102.27 0 0 1 .241 10.791z" fill="#fcbb65"/><path data-name="Path 187" d="M345.805 114.027c.351 12.585-33.1 15.354-33.1 15.354s-1.059 66.594-16.653 68.956c-11.515 1.97-33.49-15.3-48.039-36.371 0 0-2.04 4.289-4.548 11.326l-8.155-12.433 6.771-18.188 24.2-20.407c5.706 10.535 11.976 23.167 17.382 35.084 2.82-20.421 9.34-41.406 12.483-44.484 6.483-6.396 49.291-11.425 49.659 1.163z" fill="#fcbb65"/><path data-name="Path 188" d="M155.5 167.194l-2.306 19.152-6.752 2.71q-.084-4.047-.111-8.124c-21.15 26.611-34.587 7.229-51.891-31.64-51.846-5.816-8.447-21.72 10.884-13.434l22.093 28.887s2.9-6.3 7.095-14.441z" fill="#fcbb65"/><path data-name="Path 189" d="M1230.8 1027.151a44.023 44.023 0 0 0-8.9-2.728c-9.1-1.8-18.447-1.741-34.613 5.475 0 0-1.95 10.922-7.544 11.756-.189 3.194-.18 9.909-.18 9.909l-5.438-8.082c-8.779-2.94-11.879 6.278-6.849 13.769 4.743 7.055 10.182 6.049 10.182 6.049-1.228 7.136-1.235 12.612-2.93 13.053-7.414-8.571-14.146-22.838-16.362-34.058-1.949-9.821-.435-17.319 7.089-16.664 0 0 .735-11.724 13.256-10.138 0 0 7.148-15.921 25.179-16.486 16.536-.477 23.884 13.972 27.11 28.145z" fill="url(#B)" transform="translate(-997 -998.995)"/><path data-name="Path 190" d="M1268.511 1131.2c-3.379-.068-9.487 1.107-18.844 7.46-5.7 3.866-8.636 9.709-10.052 13.675-13.931 23.112-88.98 21.872-96.252 17.959a40.627 40.627 0 0 1-9.266-3.332c-4.99-3.021-7.005-5.52-7.661-7.391 5.016-10.394 18.411-37.03 27.392-44.4 4.678-3.655 12.19-6.95 20.982-9.741l.071 7.509s-.156 3.966 5.848 3.575c17.544-1.151 29.4-18.581 29.585-18.848 18.623-2.635 35.043-2.847 38.3.267 3.769 3.667 11.697 17.258 19.897 33.267z" fill="url(#C)" transform="translate(-997 -998.995)"/><path data-name="Path 191" d="M248.022 161.966a.521.521 0 0 1-.046.106c0 .049-.059.118-.09.2a.137.137 0 0 0 0 .049l-.032.062c0 .044-.04.087-.06.138l-.058.136a.269.269 0 0 0 0 .056l-.117.261c-.084.193-.188.416-.3.671 0 .044-.045.093-.064.144s-.041.1-.065.149l-.1.217a2.006 2.006 0 0 1-.1.23l-.228.535c-.071.173-.149.361-.233.553l-.09.217c-.059.137-.111.274-.17.417l-.269.621c-.04.1-.078.206-.124.3a2.4 2.4 0 0 0-.09.23l-.078.193c-.071.18-.149.367-.221.559l-.065.156c-.221.56-.449 1.144-.682 1.765-.053.137-.111.28-.163.423-.117.3-.233.621-.35.939a2.557 2.557 0 0 0-.1.254.751.751 0 0 1-.046.131 7.318 7.318 0 0 0-.123.329l-.435 1.181a183.6 183.6 0 0 0-1.507 4.4c-.015.05-.033.1-.053.149-.234.708-.467 1.442-.7 2.188a168.854 168.854 0 0 0-4.3 16.379c-.116.553-.227 1.107-.337 1.673-.222 1.113-.43 2.25-.651 3.393-2.313 13.328-2 23.112-1.3 29.08a363.178 363.178 0 0 1-36.2 3.773q-6.75.379-13.684.547-19.005.461-36.024 0v-.335l-.058-.7a2.814 2.814 0 0 0-.046-.622.3.3 0 0 0 0-.074c0-.429-.058-.864-.09-1.3-.1-1.405-.208-2.884-.312-4.427a3.922 3.922 0 0 0-.052-.781 1061.05 1061.05 0 0 1-.468-7.459l-.077-1.43v-.323c-.052-.883-.1-1.784-.15-2.69q-.118-2.021-.214-4.109c-.04-.89-.085-1.785-.124-2.685a5.32 5.32 0 0 0-.032-.7c-.033-.237 0-.622-.046-.976-.045-1.042-.09-2.1-.13-3.164q-.078-1.865-.143-3.733-.1-2.816-.175-5.681l-.039-1.6c0-1.007-.039-2.026-.059-3.038 0-.839-.033-1.678-.045-2.524v-15.434c-.058-2.927 0-5.774.207-8.516.033-.447.072-.9.111-1.342 0-.317.058-.622.09-.945a1.224 1.224 0 0 1 .044-.4l.157-1.293c.064-.466.13-.933.2-1.4 2.541-16.373 11.534-32.647 27.5-40.461q1.677-.82 3.45-1.511a3.45 3.45 0 0 0 1.631 1.8l.332.155c.116.05.24.1.37.144l.409.124.449.1a4.351 4.351 0 0 0 .591.08 2.568 2.568 0 0 1 .429.038 2.381 2.381 0 0 0 .585 0h.808l.819-.069.74-.081h.137l.6-.086a29.28 29.28 0 0 0 2.483-.479l.767-.192a31.27 31.27 0 0 0 2.245-.684l.727-.261a38.1 38.1 0 0 0 2.288-.954c.179-.082.359-.163.526-.249.332-.156.65-.317.981-.486s.592-.3.877-.466.527-.291.786-.441q1.3-.734 2.47-1.542.856-.578 1.657-1.174a36.4 36.4 0 0 1 8.694 3.68c11.508 6.658 20.481 19.021 25.991 28.1l.111.168a134.127 134.127 0 0 1 3.385 5.968c1.566 2.921 2.456 4.836 2.6 5.04.449.8.9 1.586 1.377 2.375a67.368 67.368 0 0 0 3.891 6.241z" fill="#fff7ed"/><path data-name="Path 192" d="M1210.31 1090v4.079c-5.017 3.861-11.637 8.56-16.758 10.786a47.845 47.845 0 0 1-18.714 3.8l-.039-3.251-.279-29.018a60.662 60.662 0 0 1-.735-.868l-.649-.8a9.138 9.138 0 0 1-.65-.882c-.149-.187-.292-.38-.429-.572s-.389-.521-.578-.8a70.108 70.108 0 0 1-3.49-5.39c-.11-.187-.221-.372-.324-.559s-.247-.423-.364-.622q-.312-.534-.6-1.082-.71-1.285-1.384-2.623a23.784 23.784 0 0 1 2.6-4.034c2.541 3.369 5.2 4.606 7.063 5.01a6.984 6.984 0 0 0 2.495.161c2.081 13.08 8.525 29.988 32.835 26.665z" fill="url(#D)" transform="translate(-997 -998.995)"/><path data-name="Path 193" d="M1245.022 1160.961a.521.521 0 0 1-.046.106c0 .049-.059.118-.09.2a.137.137 0 0 0 0 .049l-.032.062c0 .044-.04.087-.06.138l-.058.136a.269.269 0 0 0 0 .056l-.117.261c-.084.193-.188.416-.3.671 0 .044-.045.093-.064.144s-.041.1-.065.149l-.1.217a2.006 2.006 0 0 1-.1.23l-.228.535c-.071.173-.149.361-.233.553l-.09.217c-.059.137-.111.274-.17.417l-.269.621c-.04.1-.078.206-.124.3a2.4 2.4 0 0 0-.09.23l-.078.193c-.071.18-.149.367-.221.559l-.065.156c-.221.56-.449 1.144-.682 1.765-.053.137-.111.28-.163.423-.117.3-.233.621-.35.939a2.557 2.557 0 0 0-.1.254.751.751 0 0 1-.046.131 7.318 7.318 0 0 0-.123.329l-.435 1.181a183.6 183.6 0 0 0-1.507 4.4c-.015.05-.033.1-.053.149-.234.708-.467 1.442-.7 2.188a168.854 168.854 0 0 0-4.3 16.379c-.116.553-.227 1.107-.337 1.673-.222 1.113-.43 2.25-.651 3.393-2.313 13.328-2 23.112-1.3 29.08a363.178 363.178 0 0 1-36.2 3.773 99.209 99.209 0 0 0 14.847-35.218 215.749 215.749 0 0 1 9.221-32.6c6.8-18.1 13.2-25.655 13.2-25.655.279.423.552.846.808 1.243l.111.169c1.3 2.057 2.384 4.022 3.4 5.942.91 1.7 1.754 3.357 2.631 4.973.442.827.884 1.649 1.347 2.486a58.915 58.915 0 0 0 3.982 6.403z" fill="url(#E)" transform="translate(-997 -998.995)"/><path data-name="Path 194" d="M1143.565 1161.438a92.94 92.94 0 0 0-.209 8.516v.311a301.26 301.26 0 0 0 0 9.648c-9.7 12.208-17.782 14.738-25.341 10.155 6.329-3.829 17-16.828 26.193-34.04-.319 1.813-.508 3.627-.643 5.41z" fill="url(#F)" transform="translate(-997 -998.995)"/><path data-name="Path 195" d="M127.442 164.769l-3.683 6.043a66.424 66.424 0 0 0-2.183-13.707z" fill="#663a14"/><path data-name="Path 196" d="M1280.657 1156.337c-.649 4.916-1.137 9.79-1.3 14.39a186.31 186.31 0 0 0-3.9-25.487c1.794 3.7 3.535 7.432 5.2 11.097z" fill="url(#G)" transform="translate(-997 -998.995)"/></g><g><path data-name="Path 197" d="M1183.942 1148.255a1.855 1.855 0 0 0 .826-2.546l-.01-.019a2.024 2.024 0 0 0-2.505-.86 1.959 1.959 0 0 0-.65.41c-5.114-3.9-14.185-.578-15.842 8.653-1.715 9.536 9.591 22.379 13.418 20.445a3.459 3.459 0 0 0 .351-.211 1.484 1.484 0 0 0 .117.317 2.034 2.034 0 0 0 2.694.781 1.814 1.814 0 0 0 .869-2.465 1.908 1.908 0 0 0-1.554-1.023c3.339-5.542 4.988-17.521 2.286-23.482z" fill="url(#H)" transform="translate(-997 -998.995)"/><path data-name="Path 198" d="M189.164 168.63a1.843 1.843 0 0 0 .084 2.669l.023.021a2.032 2.032 0 0 0 1.347.507 2.063 2.063 0 0 0 1.468-.621 1.846 1.846 0 0 0-.091-2.673l-.019-.018a2.055 2.055 0 0 0-2.814.106z" fill="#fca12a"/><path data-name="Path 199" d="M193.725 147.936h.053a2.046 2.046 0 1 0-.053 0z" fill="#fca12a"/><path data-name="Path 200" d="M201.868 149.148a2 2 0 0 0-2.4-1.408 1.9 1.9 0 0 0-1.478 2.275 2 2 0 0 0 3.929-.42 1.9 1.9 0 0 0-.032-.36z" fill="#fca12a"/><path data-name="Path 201" d="M199.612 155.259a2.005 2.005 0 0 0-2.477 1.274 1.881 1.881 0 0 0 1.132 2.3 1.978 1.978 0 0 0 2.516-1.112l.006-.017a1.879 1.879 0 0 0-1.152-2.441l-.016-.005z" fill="#fca12a"/><path data-name="Path 202" d="M196.475 162.246a2.038 2.038 0 0 0-2.706.734 1.853 1.853 0 0 0 .607 2.492 2.074 2.074 0 0 0 1.052.292 1.935 1.935 0 0 0 1.987-1.877 1.888 1.888 0 0 0-.94-1.641z" fill="#fca12a"/></g></svg>