<svg id="Layer_1" 
    xmlns="http://www.w3.org/2000/svg" viewBox="0 0 258.6 233.2">
    <style>.st5{fill:#fcbb65}.st8{fill:#663a14}</style>
    <g id="character_1" transform="translate(-1421.998 -769)">
        <linearGradient id="background_ellipse_1_" gradientUnits="userSpaceOnUse" x1="1033.632" y1="1397.664" x2="1033.632" y2="1396.03" gradientTransform="matrix(258.6051 0 0 -170.5983 -265751.156 239270.781)">
            <stop offset="0" stop-color="#ffeabd"/>
            <stop offset="1" stop-color="#fa0"/>
        </linearGradient>
        <path id="background_ellipse" d="M1650.9 962.8c-3.3 3.3-6.9 6.4-10.6 9.2-6.8 5.2-14 9.6-21.7 13.4-.7.4-1.4.7-2.2 1-5.3 2.5-10.7 4.6-16.3 6.5-1.7.6-3.4 1.1-5.2 1.7-10.1 2.9-20.3 5.1-30.7 6.3-7.9 1-15.8 1.4-23.7 1.2-5.3-.1-10.6-.6-15.9-1.3-21.1-2.7-41.2-10.5-58.6-22.6-52.3-37-63.5-106.1-3.6-129.9 15.4-6 31.4-10.4 47.7-13 .2 0 .4-.1.6-.1l.7-.1c14.6-2.3 29.3-3.5 44-3.5 5.4 0 10.8.1 16 .5h.8c1.8.1 3.6.2 5.4.4.6 0 1.1.1 1.7.1l3.3.3c44.2 4.5 81.7 19.9 93.6 43.9 9.4 18.6 4.6 56.6-25.3 86z" fill="url(#background_ellipse_1_)"/>
        <linearGradient id="tunnel_1_" gradientUnits="userSpaceOnUse" x1="1033.791" y1="1396.346" x2="1035.226" y2="1397.303" gradientTransform="matrix(135.5049 0 0 -117.3181 -138597 164797)">
            <stop offset="0" stop-color="#998363"/>
            <stop offset="1" stop-color="#4d4232"/>
        </linearGradient>
        <path id="tunnel" d="M1602.1 967.8l-61.1 34.1c-5.3-.1-10.6-.6-15.9-1.3-21.1-2.7-41.2-10.5-58.6-22.6l48.7-10 6.7-1.4 2.5-.5 11-2.2c-5.5-55.5 13.5-83.7 32.7-78.8 4.1 1.1 8.3 3.7 12.2 7.9 3.8 4.3 7 9.1 9.3 14.3.3.7.6 1.3.9 2 .5 1 .9 2.1 1.3 3.2.3.7.6 1.5.9 2.2 1 2.7 1.9 5.6 2.8 8.7 3.5 12 5.8 26.7 6.6 44.4z" fill="url(#tunnel_1_)"/>
        <g id="small_person">
            <ellipse id="Ellipse_10" cx="1557" cy="972.4" rx="29.7" ry="6.8" opacity=".692" fill="#f2e3ce"/>
            <linearGradient id="Path_116_1_" gradientUnits="userSpaceOnUse" x1="1041.421" y1="1485.976" x2="1041.421" y2="1485.999" gradientTransform="matrix(17.413 0 0 -37.605 -16541.02 53303.25)">
                <stop offset="0" stop-color="#f4f4f4"/>
                <stop offset="1" stop-color="#f2e7c5"/>
            </linearGradient>
            <path id="Path_116" d="M1601.9 921.3l-15.6 5.4-1 1.7-.8-.5.8-1.7 1.3-35.5c6 6.5 11.3 16.6 15.3 30.6z" opacity=".797" fill="url(#Path_116_1_)"/>
            <linearGradient id="Path_117_1_" gradientUnits="userSpaceOnUse" x1="575.304" y1="3297.893" x2="575.214" y2="3298.242" gradientTransform="matrix(2.7899 0 0 -2.4507 -1441.62 4165.055)">
                <stop offset="0" stop-color="#fca12a"/>
                <stop offset="1" stop-color="#e58604"/>
            </linearGradient>
            <path id="Path_117" d="M1587.4 926.4l-1 .4-.6 1c-.4-.1-.8-.1-1.2 0l.7-1.4v-1c.9-.2 1.7.2 2.1 1z" fill="url(#Path_117_1_)"/>
            <path id="Path_118" class="st5" d="M1584.2 929.6s-3.5 3.8-5.5 3.5c-1.4-.2-4.6-2.4-6.3-3.7l2-2.2 2.4-.1c.7.8 1.4 1.6 2 2.4l4.1-1.5s2.9-.7 3.7.2c.7.7-2.4 1.4-2.4 1.4z"/>
            <linearGradient id="Path_119_1_" gradientUnits="userSpaceOnUse" x1="954.635" y1="1576.554" x2="954.624" y2="1576.578" gradientTransform="matrix(18.7611 0 0 -19.4641 -17959.488 27958.336)">
                <stop offset="0" stop-color="#fca12a"/>
                <stop offset="1" stop-color="#e58604"/>
            </linearGradient>
            <path id="Path_119" d="M1576.8 927.1c-.9 1.6-2.6 2.5-4.4 2.3-.6-.5-1.1-.8-1.1-.8-.9 3.6-2.1 7.2-3.5 10.7-.1.1-5.9 1.1-5.9 1.1l-3.9-3.3c.9-3 3-9.9 3-9.9l3.3-2.2 2.9-3.8 1.4-.3.5.7c3.2 1 6 3.5 7.7 5.5z" fill="url(#Path_119_1_)"/>
            <path id="Path_120" class="st5" d="M1572.4 919.4l-1.2.4-5.4-1.8 2.1-3.8 2.6-.5c.4.3.8.6 1.1 1 1.2 1.3 1.5 3.1.8 4.7z"/>
            <linearGradient id="Path_121_1_" gradientUnits="userSpaceOnUse" x1="926.649" y1="1343.061" x2="926.716" y2="1343.077" gradientTransform="matrix(6.5106 0 0 -7.8585 -5304.083 11716.713)">
                <stop offset="0" stop-color="#fca12a"/>
                <stop offset="1" stop-color="#e58604"/>
            </linearGradient>
            <path id="Path_121" d="M1569.7 917.3c1.8 2-2.7 3.3-2.7 3.3l-.8-.4.2-.3c-.9-.3-1.6-1-2-1.8-.8-1.6-.3-3.5 1.1-4.5 1.5-1.1 3.6-1 5.1.1-.2.4-.4.9-.8 1.2.7 1.5-.6.9-.6.9-1.2-.3-1 1 .5 1.5z" fill="url(#Path_121_1_)"/>
            <path id="Path_122" class="st8" d="M1580.2 931.1c-6 .9-4.6-5.3-11.3-9.1-.5-.3-1.1-.6-1.6-.8.7.1 1.3.2 1.9.4l.4-.9c.8.1 1.6-.1 2.2-.6.2-.2.4-.4.6-.7-1.8-.4-3.4-1.2-4.8-2.4-1.2-.9-1.7-2.5-1.1-4-.1 0-.2.1-.3.1-.1 0-.1.1-.2.1-.2.1-.3.2-.5.3-1.4 1.1-1.9 3-1.1 4.5.1.1.1.2.2.3 0 .1.1.1.1.2 0 0 0 .1.1.1 0 .1.1.1.1.2s.1.1.2.2l.2.2.2.2c.1.1.2.1.3.2.1.1.2.1.3.1.1 0 .2.1.3.1l-.7 1.2c-.5.1-1.1.2-1.6.3-.4.1-.7.2-1.1.4-.4.1-.7.3-1.1.5l-.3.1c-.1 0-.2.1-.3.2-.6.3-1.2.6-1.7 1-.2.1-.4.2-.6.4-1.9 1.3-3.6 2.8-5.2 4.4l-.9.9c-.5.6-.9 1.1-1.3 1.6-.1.2-.3.4-.4.6l-.9 1.5c-1.3.1-3.6 1.7-2.9 2.2s2.4.2 4.5-1.2 4.1-5.3 7.7-6.7c-.3 1.8-.7 3.6-1.4 5.3-.1.3-.2.6-.4.9-.2.6-.5 1.2-.7 1.7-.1.3-.2.6-.3.8-.1.1-.1.3-.2.4-.1.3-.2.6-.3.8-.6 1.4-.9 2.9-.9 4.5v.6c0 .1.1.2.1.3 0 0 0 .2.1.2.1.2.1.4.2.6 0 .1.1.2.2.3.1.3.3.5.4.8.1.1.2.2.2.4.1.1.2.3.3.4.2.3.5.6.8.9l.3.3.3.2-.3.7-.8 2-.2.6c-.4.9-.8 1.9-1.2 3-.1.3-.3.6-.4 1-.5 1.3-1.1 2.7-1.6 4l-1.2 3-.1.1c-.1.3-.2.6-.3.8l-1.5 3.5-.3.8c-.4 1.1-.8 2-1.2 2.7-.1.1-.1.3-.2.4-.1.3-.2.5-.3.7l-.1.2c-.1.3-.2.5-.2.5s.4 5.5 1.7 5.7.9-4.7.9-4.7l.1-.1s.1-.1.1-.2c.5-.9 2.1-4 4.1-7.9l.5-1c.2-.4.4-.7.6-1.1.3-.5.5-1 .8-1.5l.5-1 1.4-2.4c.1-.1.1-.2.2-.4l1.3-2.4c.5-.9.9-1.8 1.4-2.7.1.1.1.2.1.2.1.2.2.3.3.5.4.7.7 1.4 1 2.1.1.2.1.3.2.5l.2.5.3.9c.1.3.2.4.2.7s.1.3.2.5c.1.3.2.5.2.7.1.4.2.8.4 1.2v.1c0 .1.1.3.1.4s.1.3.1.5.1.3.1.4 0 .1.1.2.1.3.1.4.1.2.1.3c.1.2.1.4.2.6l.1.1c.1.1.1.2.2.3l.1.1h.1c.7 0 3-2.8 2.2-3.2-.5-.2-1.5.9-1.5.9v-.7c0-.3-.1-.7-.1-1.1v-.2-.3c-.1-.6-.2-1.3-.3-2-.1-.4-.1-.8-.2-1.2v-.1c-.3-1.7-.7-3.3-1.3-5-.1-.2-.1-.4-.2-.5-.1-.4-.3-.7-.4-1.1-.1-.4-.3-.7-.4-1 .6-1.2 1.2-2.3 1.7-3.3l.3-.6c.2-.5.4-.9.6-1.3l.4-.8c.1-.1.1-.3.2-.4l.3-.6.1-.3.1-.3c-.9-.9-2.8-2.1-6.2-2.2h-1.9l.6-.2c.5-.2.9-.4 1.3-.6 7-3.4 9.5-7.3 9.7-7.6 0 0 5.4 4.3 7.4 4.5h.5c.1 0 .2 0 .3-.1.1 0 .2 0 .3-.1 1.3-.6 2.5-1.4 3.5-2.4l.2-.2c-1.2.6-2.3.8-3.4 1z"/>
        </g>
        <g id="main_body">
            <path id="Path_123" class="st8" d="M1524.5 966.1l11-2.2c-5.5-55.5 13.5-83.7 32.7-78.8l1.7-5.6-14.9-26.3s-42.6 24.6-39.6 114.8l6.7-1.4 2.4-.5z"/>
            <linearGradient id="Path_124_1_" gradientUnits="userSpaceOnUse" x1="1033.903" y1="1397.337" x2="1034.213" y2="1396.82" gradientTransform="matrix(129.9177 0 0 -155.1298 -132772.953 217649.14)">
                <stop offset="0" stop-color="#fca12a"/>
                <stop offset="1" stop-color="#f58c00"/>
            </linearGradient>
            <path id="Path_124" d="M1613.5 862.6l-.2-.1c-.8-.6-1.6-1.3-2.5-1.9l-.8-.6c-1.2-.8-2.3-1.6-3.6-2.4l-1.2-.7c-.3-.2-.7-.4-1-.6l-.6-.3c-.4-.2-.7-.4-1.1-.6l-1.2-.6c-.6-.3-1.3-.7-2-1-.3-.2-.7-.4-1.1-.6l-1.2-.6c-.9-.4-1.9-.9-2.9-1.3l-.7-.3-.6-.3-.5-.2-1.5-.6c-.8-.3-1.6-.5-2.3-.8-5.1-1.8-10.4-2.6-15.8-2.5-.6 0-1.2.1-1.8.1-.2 0-.4 0-.6.1-5.7.8-11.1 2.9-15.7 6.2h-.1c-2 1.4-3.9 2.9-5.7 4.5l-.1.1c-25.5 23.2-29 70.8-27.1 108.8l2.5-.5 11-2.2c-5.5-55.5 13.5-83.7 32.7-78.8 4.1 1.1 8.3 3.7 12.2 7.9 3.8 4.3 7 9.1 9.3 14.3.3.7.6 1.3.9 2 .5 1 .9 2.1 1.3 3.2.3.7.6 1.5.9 2.2 1 2.7 1.9 5.6 2.8 8.7 3.4 12 5.7 26.7 6.5 44.3l-61.1 34.1c-4.1-.1-8.1-.4-12.1-.8 4 .4 8.1.7 12.1.8 7.9.2 15.9-.2 23.7-1.2 10.4-1.3 20.7-3.4 30.7-6.3 1.8-.5 3.5-1.1 5.2-1.7 5.5-1.8 11-4 16.3-6.5.7-.3 1.4-.7 2.2-1 7.7-3.7 14.9-8.2 21.7-13.4 3.7-2.9 7.3-5.9 10.6-9.2-1.2-58.1-21.1-86.2-37.5-99.7z" fill="url(#Path_124_1_)"/>
            <path id="Path_125" class="st5" d="M1651.4 961.4v1.2c-3.3 3.3-6.9 6.4-10.6 9.2-6.8 5.2-14 9.6-21.7 13.4-.7.4-1.4.7-2.2 1 .3-16.3-.4-36.9-3.9-56.5h.3c7.1 0 14.2-.8 21.1-2.6 4.3-1.1 8.4-2.8 12.3-5 .2.7.3 1.5.5 2.3.1.2.1.5.1.7l.3 1.5.3 1.5c0 .2.1.3.1.5l.1.3v.1l.1.5v.1l.3 1.5v.2l.2 1.5c0 .1 0 .3.1.4l.1.8c0 .1 0 .3.1.4l.1.9c0 .3.1.5.1.8v.1c0 .3.1.6.1.9.1.6.2 1.2.2 1.8v.1c0 .3.1.7.1 1l.1 1 .1.5v.4c0 .3.1.6.1.9 0 .4.1.8.1 1.2l.1.5v.5c0 .4.1.8.1 1.1v.9c0 .5.1 1 .1 1.4v.4c0 .4.1.8.1 1.3.1 1 .1 1.9.2 2.9.1.9.1 1.7.2 2.6 0 .4 0 .8.1 1.2s0 .9.1 1.4v.1c0 1 .1 2 .1 3.1.3-.2.3-.1.3 0z"/>
            <path id="Path_126" class="st5" d="M1589.2 850.9c-.7 1.7-1.8 3.3-3.1 4.6-2 2.1-4.4 3.9-6.9 5.3-10.2 5.9-23.9 8.1-23.9 2l-1.2-28.2 13.2-21.9.3-.5.9-1.5 7.8-12.9 2.1 8.8c.3 4.4.9 8.8 1.8 13.2 0 .3-.1.6-.1.9-2.1 13.8 2.7 22.9 8.2 27.4.3.7.4 1.1.5 1.2l.4 1.6z"/>
            <path id="Path_127" class="st5" d="M1568.2 851.7c-5.5 4.2-12.4 6.4-19.3 6.1h-1.6c-.3 0-.6 0-.8-.1h-.2c-.3 0-.5 0-.8-.1l-.5-.1c-.2 0-.3 0-.5-.1-.3 0-.6-.1-.9-.1l-1-.2-.3-.1-.7-.2c-.1 0-.3 0-.4-.1l-.9-.2h-.1c-.3-.1-.6-.2-.9-.2-.1 0-.2 0-.4-.1l-.9-.3c-.3-.1-.7-.2-1.1-.3h-.1c-.3-.1-.6-.2-1-.3l-.8-.3c-.3-.1-.6-.2-.9-.4l-.3-.1c-.3-.1-.6-.3-.9-.4h-.1c-.3-.2-.7-.3-1-.5l-.1-.1c-.2-.1-.5-.2-.7-.3l-.6-.3c-.7-.4-1.4-.7-2.1-1.1l-.5-.3c-.2-.1-.5-.3-.7-.4l-.9-.6-.9-.6c-1.1-.8-2.2-1.6-3.2-2.4-.3-.2-.5-.4-.8-.7-2.1-1.8-4.1-3.7-5.9-5.8-5.9-6.6-9.8-14.8-11.3-23.6 0 0-1.5-7 1.7-16.7 4.3-5.9 9-11.3 14.1-16.4 16.5-16.4 37.1-15.8 49.1.1 12.1 16 6.5 29.1 6.5 29.1 5.7 14.2 3.5 29.6-7.3 38.2z"/>
            <linearGradient id="Path_128_1_" gradientUnits="userSpaceOnUse" x1="1035.043" y1="1394.521" x2="1035.045" y2="1394.252" gradientTransform="matrix(73.5469 0 0 -50.2307 -74583.188 70845.398)">
                <stop offset="0" stop-color="#fca12a"/>
                <stop offset="1" stop-color="#f58c00"/>
            </linearGradient>
            <path id="Path_128" d="M1578 818.3c-4.5 5.8-1.7 6.9-5.1-2.9-9.2-27.1-12.8-11.4-8.6-.9-3.9-.9-7.1-3.5-8.6-7.2-14.4 11.2-44 15.1-51.2 13.6-.3-1.3 1.9-5.3 1.7-6.6 0 0-4.5-11 13.6-29 16.5-16.4 30.6-17.3 42.6-1.4 6.4 8.5 13.5 15.9 12.6 21.8l3 12.6z" fill="url(#Path_128_1_)"/>
            <path id="Path_129" class="st8" d="M1651.4 962.6c-2.6-93.4-52.1-109.3-58.9-112-5.1-2-11-8.1-12.6-18.2-.6-3.9-.5-7.9.2-11.8 2.7-17.3-3.2-42.5-23.6-49.7s-41.2 6.6-49.3 24.7-.3 32.1-.3 32.1-7.4-33.8 29-32.4c29.9 1.2 36 20.9 36.3 36.4 0 6.2-.7 12.4-2.2 18.4-.2 1.3-2.7 8 9.2 10.6 62.5 13.7 61.7 111 61.7 111 3.7-2.8 7.2-5.8 10.5-9.1z"/>
            <path id="Path_130" class="st8" d="M1555.2 862.8l-.2-5.5c-1.9.3-3.8.4-5.7.4l-.4.1c-11.6 10.6-36 41.2-33.7 110.1l9.2-1.9c-.1-92.4 30.8-103.2 30.8-103.2z"/>
            <path id="Path_131" class="st8" d="M1619.2 985.2c-.7.4-1.4.7-2.2 1-5.3 2.5-10.7 4.6-16.3 6.5-1.7.6-3.4 1.1-5.2 1.7-10.1 2.9-20.3 5.1-30.7 6.3-7.9 1-15.8 1.4-23.7 1.2l61.1-34.1c.2 6.7-.1 13.4-.8 20 20.1-27.5 6.1-72.9 5.9-73.7 2.5 5 4.6 10.2 6.2 15.6 3 9.9 4.8 20.2 5.4 30.5.4 9.6.4 17.9.3 25z"/>
        </g>
    </g>
</svg>