<svg id="Layer_1" 
    xmlns="http://www.w3.org/2000/svg" viewBox="0 0 335.3 251.1">
    <style>.st2{fill:#998363}.st3{fill:#664122}.st5{fill:#fcbb65}.st9{fill:#663a14}</style>
    <g id="character_3" transform="translate(-1342 -1336.775)">
        <linearGradient id="background_ellipse_1_" gradientUnits="userSpaceOnUse" x1="1052.155" y1="2006.715" x2="1052.155" y2="2005.151" gradientTransform="matrix(335.3462 0 0 -208.5602 -351326.344 419900.125)">
            <stop offset="0" stop-color="#ffeabd"/>
            <stop offset="1" stop-color="#fa0"/>
        </linearGradient>
        <path id="background_ellipse" d="M1399.7 1387.5c79.4-25.3 252.6 7.3 275.1 110 27.7 126.4-181.7 92.3-236.5 62.5-79.8-43.5-149.8-137.1-38.6-172.5z" fill="url(#background_ellipse_1_)"/>
        <linearGradient id="orange_circle_1_" gradientUnits="userSpaceOnUse" x1="1052.331" y1="2005.712" x2="1052.619" y2="2005.245" gradientTransform="matrix(115.386 0 0 -109.55 -120016.805 221106.578)">
            <stop offset="0" stop-color="#fca12a"/>
            <stop offset="1" stop-color="#eb8700"/>
        </linearGradient>
        <ellipse id="orange_circle" cx="1417.6" cy="1396.5" rx="57.7" ry="54.8" fill="url(#orange_circle_1_)" stroke="#fff" stroke-width="6.45" stroke-miterlimit="10"/>
        <g id="pyramid">
            <path id="Path_138" class="st2" d="M1555.7 1385.1l-12.5 15.2c-1.4 1.7-3.4 2.8-5.6 3l-3 .4-27.4 3.2c-1.2.1-2.4-.1-3.4-.7-1.7-1-2.6-2.9-2.4-4.8l6.3-45.1c.2-1.4 1.6-2.4 3-2.2.4 0 .7.2 1 .3l42.4 23.5c2.3 1.2 3.2 4.1 2 6.4 0 .1-.1.1-.1.2v.1c-.1.1-.2.3-.3.5z"/>
            <path id="Path_139" class="st3" d="M1555.7 1385.1l-12.4 15.1c-1.5 1.7-3.5 2.9-5.8 3.1l-2.9.4-27.4 3.2c-.6.1-1.1-.3-1.2-.9 0-.4.2-.9.6-1l47.4-21.8c.7-.3 1.5-.1 1.8.6.2.3.2.9-.1 1.3z"/>
        </g>
        <g id="box">
            <path id="Path_140" class="st3" d="M1455.5 1500.7l-2.1 37c-.2 2.2-1.5 4.2-3.5 5.1l-58 26.8c-2.6 1.2-5.6.7-7.7-1.2l-33.9-31.2c-1.1-1-1.8-2.4-1.8-3.9l-.5-40.8c0-2.8 2.1-5.1 4.8-5.5l52.1-8.2c4-.6 8-.1 11.8 1.4l35.1 14.8c2.3.8 3.8 3.2 3.7 5.7z"/>
            <path id="Path_141" class="st2" d="M1454.3 1496.9l-64.2 18.2c-1.2.3-2.4.1-3.5-.6l-37.3-25.9c.9-1 2.1-1.6 3.4-1.8l52.1-8.2c4-.6 8-.1 11.8 1.4l35.1 14.8c1.1.5 2 1.2 2.6 2.1z"/>
        </g>
        <g id="main_body">
            <path id="Path_142" d="M1637.1 1488.9c.1-10.6-3.7-20.9-14.9-26 0 0 1.5-20.7-2-39.5-2.4-12.8-7.1-24.7-16.3-28.6-12.5-5.5-26.9-4.9-38.9 1.7-4.1 2.2-7.6 5.3-10.2 9.2-7.6 12.1-4.5 24.4 3 28.5v.1c-.2 9.7 1.6 22.1 10.9 27.2 1.1 8.6 3.5 16.4 8.5 20.4h.1l-.2.1c-25.8 8.8-53.6 22.7-55.1 23.5h-.1l-19.3-40.3c-.9-2.3-2-4.5-3.4-6.5-3.3-4.9-7.7-9.1-12.7-12.2-24.6-15.1-16.1 19.6.6 22.5 9.3 30.9 4 54.5 32 61.5l.4.1.3.1c6.8 1.6 15.5 2.3 26.7 1.9v3.7c0 .3.1.6.1.9 0 .2 0 .4.1.5.1.4.1.9.2 1.3v.1c.1.4.2.9.3 1.3l.1.3c.1.3.2.7.3 1 0 .1.1.2.1.3s.1.3.1.4c1.5 4.5 5.4 7.7 10.1 8.5.1.2 1.3 3 3 12.5 1.5 7.9 1.6 16 .2 24 28 1 55.4-1.8 76.6-10.9-1.5-1.8-2.9-3.5-4.2-5.1 51.7-25.2 34.5-55.8 3.6-82.5zm-8.1 61.8c-.8.6-1.5 1.1-2.2 1.6.2-1.4.5-2.7.8-4.1.5-2.2 1.3-4.4 2-6.7 0-.1 0-.1.1-.2 2.1-5.5 3.8-11.1 5.1-16.8l.1-.4c3.5 3.8 6.9 7.9 10 12.1-1.8 3.4-10 10-15.9 14.5z" opacity=".45" fill="#8c2e5d"/>
            <path id="Path_143" class="st5" d="M1568.7 1461.6c-9.3-5.1-11.1-17.5-10.9-27.2l1.4-4.2 7.3-11.4s13.9 8.9 9.1 28.4c-1.2 4.6-7.5 9.7-6.9 14.4z"/>
            <path id="Path_144" class="st5" d="M1542.8 1532.8c-2.8 0-5.4 0-7.8-.1-5.2-.1-10.4-.8-15.5-1.9l-.3-.1-.4-.1c-28-7-22.7-30.6-32-61.5-16.7-2.9-25.2-37.6-.6-22.5 5.1 3.1 9.4 7.2 12.7 12.2 1.4 2 2.5 4.2 3.4 6.5l19.3 40.3h.1c.5-.3 4.1-2 9.6-4.6l9.7 10 1.8 21.8z"/>
            <path id="Path_145" class="st5" d="M1633.2 1571.6l-6.5-12.4-7.5-.6 7.6-6.4c.6-.5 1.4-1 2.2-1.6 5.9-4.4 14.2-11 15.9-14.5-3.1-4.2-6.5-8.2-10-12.1l-3.3-1.7 3.8-.7 6.5-8.7 11.3-8.2c.1 15.3 11.5 26.3 5.4 39.6-4.2 9.3-17.2 16.3-25.4 27.3z"/>
            <path id="Path_146" d="M1653.2 1504.9c-6 15.2-25.1 19.5-25.1 19.5l-53.7 27.3s-28.2-18.4-28.1-18.9c-4.1.1-7.8.1-11.3 0-10.3-7.7-9.1-24.5-3.5-31.8 14.9-7.1 30.1-13.4 45.6-18.9l.2-.1h-.1c-1.5-1.2 38.2-3.6 38.2-3.6s21.8 6 21.7 10.6c5.8 4.8 11.1 10.2 16.1 15.9z" opacity=".99" fill="#fff7ed"/>
            <path id="Path_147" d="M1636.4 1575.6c.3.4.6.8 1 1.2-12.1 5.2-26.4 8.3-41.5 9.9-11.6 1.1-23.3 1.5-35 1 1.4-7.9 1.3-16.1-.2-24-.9-5-1.7-8.2-2.2-10 0-.1-.1-.2-.1-.3s-.1-.2-.1-.3v-.1l-.1-.4c-.1-.3-.2-.6-.2-.8 0-.1 0-.1-.1-.2 0-.1-.1-.2-.1-.2v-.2c-.3-.1-.6-.1-.9-.2l-.3-.1c-.2 0-.4-.1-.5-.2-.1 0-.2-.1-.3-.1-.2-.1-.4-.1-.6-.2h-.1c-.5-.2-1-.4-1.5-.7l-.2-.1c-.2-.1-.4-.2-.6-.4-2.3-1.6-4.1-3.8-5-6.5 0-.1-.1-.1-.1-.2s0-.1-.1-.2c0-.1 0-.1-.1-.2-.2-.5-.3-1-.4-1.5-.1-.2-.1-.4-.2-.6s-.1-.4-.1-.7c-.2-1.1-.4-2.3-.4-3.5v-3.1c1.3 0 2.6-.1 4-.2 6.3 12.4 16.9 7.9 24.8-2.1.9-1.2 1.8-2.4 2.6-3.7 8.2-12.7 11.8-30.9.8-38.1-3.4-2-7.3-3.1-11.2-3l.2-.1 9.7-3.5h.1c5.6 1 9.6 3 12.2 6.2 1 1.2 1.9 2.5 2.5 4 .2.4.4.9.5 1.4.7 2.1 1.2 4.4 1.4 6.6.5 5.9-.3 12.9-1.9 21 4.1.3 7.9.4 11.3.3 1.1 0 2.1 0 3.1-.1 4-.1 7.9-.4 11.8-1 3.9-.4 7.7-1.3 11.3-2.5l-6.8-26.6c5.9 1 10.3 2.5 11.5 5.2.6 1.2 1.1 2.4 1.5 3.6 1 2.7 1.5 5.5 1.7 8.4v1.3c0 1-.1 2-.2 3 0 .3-.1.6-.1 1 0 .3-.1.6-.1.9l-.3 1.8c-.1.3-.1.6-.2.9s-.1.6-.2.8c-.3 1.2-.6 2.4-.9 3.5 0 .1 0 .1-.1.2-.2.7-.4 1.4-.5 2.2 0 .1 0 .3-.1.4-1.3 5.7-3.1 11.3-5.1 16.8 0 .1 0 .1-.1.2-.8 2.3-1.5 4.5-2 6.7-.2.7-.3 1.4-.5 2.1-.1.3-.1.7-.2 1s-.1.7-.2 1c0 .1 0 .3-.1.4-.2 1.7-.3 3.4-.2 5.1 0 .3 0 .5.1.8 0 .2 0 .5.1.7.2 1.2.4 2.3.8 3.4.7 2.2 2.8 5.3 5.7 8.9l.6.8 1.2 1.5c.7.6 1.1 1.2 1.5 1.7z" fill="#c48c44"/>
            <linearGradient id="Path_148_1_" gradientUnits="userSpaceOnUse" x1="1052.504" y1="2006.47" x2="1052.57" y2="2005.912" gradientTransform="matrix(86.6895 0 0 -154.6261 -89651.398 311643.094)">
                <stop offset="0" stop-color="#fca12a"/>
                <stop offset="1" stop-color="#eb8700"/>
            </linearGradient>
            <path id="Path_148" d="M1622.2 1463s4.4-58.4-18.3-68.1c-21.4-9.1-42.4.2-49.1 10.9-9.5 15-2.4 30.4 9.2 30-1.5-3.4-1.5-9.4.8-11.1 1.5-1 3.5-.9 4.9.3-1.8 12.6-5.2 46.7 7.4 57 2.2 1.8 4.6 3.6 7.1 5.5 14.8 11 34.1 24 34.9 37.7 1 16.1-1.7 20.6-1.7 20.6s19.2-15.2 12.2-30.1c8.3-13.9 14.2-42.9-7.4-52.7z" fill="url(#Path_148_1_)"/>
            <path id="Path_149" class="st9" d="M1514.5 1508.8s1.2-6.8-2.4-23.4l9.7 20.2-7.3 3.2z"/>
            <path id="Path_151" class="st9" d="M1558.5 1553.7c-.2-.8-.5-1.7-.8-2.5-4.6-.8-8.5-4-10.1-8.5-.1-.1-.1-.3-.1-.4s-.1-.2-.1-.3c-.1-.3-.2-.7-.3-1l-.1-.3c-.1-.4-.2-.9-.3-1.3v-.1c-.1-.4-.1-.9-.2-1.3 0-.2 0-.4-.1-.5 0-.3-.1-.6-.1-.9v-3.7c-11.3.4-19.9-.3-26.7-1.9l-.3-.1-.4-.1c-4.7-1-9.1-3-12.9-5.9 18.5 2 46.6 2.7 62.8-1.4 17-4.5 7.8 20.7-10.3 30.2z"/>
            <path id="Path_152" class="st9" d="M1653.2 1504.9l-.9-1-.9-1c-.4-.5-.9-1-1.4-1.5-.3-.3-.5-.6-.8-.8-.4-.5-.9-1-1.4-1.4l-1.2-1.3-1-1-1-1-1-1c-.3-.3-.6-.5-.8-.8-.8-.7-1.6-1.5-2.4-2.2s-1.5-1.3-2.2-2c-.4-.3-.7-.7-1.1-1v-.1c.1-3.4-.4-6.8-1.3-10.1-.1-.5-.3-1.1-.5-1.6-.7-1.9-1.5-3.7-2.6-5.4-1-1.5-2.1-2.9-3.5-4.2-2.1-1.9-4.4-3.5-7-4.7.4-6.8.5-13.7.1-20.5v-.9c-.1-1.4-.2-2.9-.3-4.4 0-.5-.1-1-.1-1.5v-.4c0-.3-.1-.6-.1-.9-.1-.7-.1-1.4-.2-2.1 0-.2 0-.5-.1-.7-.3-2.7-.7-5.4-1.2-8-.2-1.2-.5-2.4-.8-3.6-.1-.3-.1-.6-.2-.9s-.1-.4-.1-.6c-.2-.7-.3-1.4-.5-2.1-.5-1.7-1-3.4-1.6-5l-.3-.9c-.2-.5-.4-1.1-.6-1.6-.1-.3-.3-.7-.4-1-.5-1-.9-2-1.4-2.9-.2-.3-.3-.6-.5-.9-.2-.3-.3-.6-.5-.8v-.1c-.2-.3-.4-.6-.5-.8s-.3-.5-.5-.7l-.1-.2c-.2-.2-.4-.5-.6-.7s-.3-.3-.4-.5c-.5-.6-1-1.2-1.6-1.7-.2-.2-.4-.4-.6-.5l-.1-.1c-.2-.2-.4-.3-.6-.5h-.1c-.2-.2-.4-.3-.6-.5-.1 0-.1-.1-.2-.1-.2-.1-.3-.2-.5-.4s-.2-.1-.3-.2-.3-.2-.5-.3-.2-.1-.3-.2l-.5-.3c-.4-.2-.7-.4-1.1-.5l-1.1-.5c-.5-.2-.9-.4-1.4-.5l-.9-.3c-.3-.1-.8-.3-1.1-.4l-.9-.3-.5-.1-.9-.2c-.4-.1-.8-.2-1.1-.3l-.6-.1-.3-.1c-.2-.1-.5-.1-.7-.1l-.7-.1c-.5-.1-1-.2-1.5-.2-7.8.7-15.3 3-22.1 6.7-8.9 5.1-15.2 13.2-15.3 24.5 0 3.7 1.4 7.2 3.7 10 .8 1 1.7 1.9 2.6 2.7l.7.6c-.2 5.5.5 15.9 6.6 21.2-.3-4.2-.4-8.3-.2-12.5.7 3.5 1.7 7 2.8 10.4 2.8 8.3 7.2 16.9 15.2 23.9.4.4.9.8 1.3 1.2 7.2 7.1 12.5 18.3 12.6 18.7-2.6-2.4-5.3-4.7-8.1-6.9-2.4-1.8-4.9-3.4-7.7-4.7 3.6 3.9 6.8 8.2 9.6 12.7 4.1 6.6 7.3 13.8 9.3 21.3 1.3 5 .9 10.3-.4 15.7-2.3 9.4-7.1 18.9-9.5 26.8-2.3 7.6-1.4 15.8 2.6 22.6 15.2-1.5 29.4-4.7 41.5-9.9-.3-.4-.6-.8-1-1.2l-1.3-1.6-1.2-1.5c-.2-.3-.4-.5-.6-.7 41.4-20.5 38.4-44.3 19.5-66.7zm-89.7-70.5c0-.1-.1-.2-.1-.3v-.1c0-.1 0-.2-.1-.3 0-.1-.1-.3-.1-.5s0-.3-.1-.5v-.1-.2l-.1-.5v-.4-.6-1.5-.4c0-.3 0-.5.1-.8 0-.1 0-.3.1-.4 0-.1.1-.3.1-.4l.1-.4c0-.1.1-.2.1-.3 0-.1.1-.2.1-.3.2-.6.6-1.1 1-1.6.1-.1.2-.1.2-.2.1-.1.2-.1.3-.2l.6-.3c.1 0 .2-.1.4-.1s.2-.1.3-.1h.3c.5 0 .9 0 1.4.1.1 0 .2.1.3.1.1 0 .2.1.3.1.3.2.7.4 1 .6-.3 0-6.2-1.3-6.2 9.6zm63.2 124.9c0-.2-.1-.5-.1-.7s-.1-.5-.1-.8c-.1-1.7-.1-3.4.2-5.1 0-.1 0-.3.1-.4 0-.3.1-.7.2-1s.1-.7.2-1c.1-.7.3-1.4.5-2.1.5-2.2 1.3-4.4 2-6.7 0-.1 0-.1.1-.2 2.1-5.5 3.8-11.1 5.1-16.8l.1-.4c.2-.7.3-1.4.5-2.2v-.1-.1c.3-1.2.6-2.3.9-3.5.1-.3.1-.6.2-.8s.1-.6.2-.9l.3-1.8c.1-.3.1-.6.1-.9s.1-.6.1-1c.1-1 .2-2 .2-3v-1.3s1.6 2.2 3.8 5.5c.6 1 1.4 2.1 2.1 3.2 4.9 7.8 10.7 19 8.3 24.8-3.7 9-25 17.3-25 17.3zm26.5-54.4l-.9-1-.9-1c-.4-.5-.9-1-1.4-1.5-.3-.3-.5-.6-.8-.8-.4-.5-.9-1-1.4-1.4l-1.2-1.3-1-1-1-1-1-1c-.3-.3-.6-.5-.8-.8-.8-.7-1.6-1.5-2.4-2.2s-1.5-1.3-2.2-2c-.4-.3-.7-.7-1.1-1v-.1c.1-3.4-.4-6.8-1.3-10.1-.1-.5-.3-1.1-.5-1.6-.7-1.9-1.5-3.7-2.6-5.4-1-1.5-2.1-2.9-3.5-4.2-2.1-1.9-4.4-3.5-7-4.7.4-6.8.5-13.7.1-20.5v-.9c-.1-1.4-.2-2.9-.3-4.4 0-.5-.1-1-.1-1.5v-.4c0-.3-.1-.6-.1-.9-.1-.7-.1-1.4-.2-2.1 0-.2 0-.5-.1-.7-.3-2.7-.7-5.4-1.2-8-.2-1.2-.5-2.4-.8-3.6-.1-.3-.1-.6-.2-.9s-.1-.4-.1-.6c-.2-.7-.4-1.4-.5-2.1-.5-1.7-1-3.4-1.6-5l-.3-.9c-.2-.5-.4-1.1-.6-1.6-.1-.3-.3-.7-.4-1-.5-1-.9-2-1.4-2.9-.2-.3-.3-.6-.5-.9-.2-.3-.3-.6-.5-.8v-.1c-.2-.3-.4-.6-.5-.8s-.3-.5-.5-.7l-.1-.2c-.2-.2-.4-.5-.6-.7s-.3-.3-.4-.5c-.5-.6-1-1.2-1.6-1.7-.2-.2-.4-.4-.6-.5l-.1-.1c-.2-.2-.4-.3-.6-.5h-.1c-.2-.2-.4-.3-.6-.5-.1 0-.1-.1-.2-.1-.2-.1-.3-.2-.5-.4s-.2-.1-.3-.2-.3-.2-.5-.3-.2-.1-.3-.2l-.5-.3c-.4-.2-.7-.4-1.1-.5l-1.1-.5c-.5-.2-.9-.4-1.4-.5l-.9-.3c-.3-.1-.8-.3-1.1-.4l-.9-.3-.5-.1-.9-.2c-.4-.1-.8-.2-1.1-.3l-.6-.1-.3-.1c-.2-.1-.5-.1-.7-.1l-.7-.1c-.5-.1-1-.2-1.5-.2-7.8.7-15.3 3-22.1 6.7-8.9 5.1-15.2 13.2-15.3 24.5 0 3.7 1.4 7.2 3.7 10 .8 1 1.7 1.9 2.6 2.7l.7.6c-.2 5.5.5 15.9 6.6 21.2-.3-4.2-.4-8.3-.2-12.5.7 3.5 1.7 7 2.8 10.4 2.8 8.3 7.3 16.9 15.2 23.9.4.4.9.8 1.3 1.2 7.2 7.1 12.5 18.3 12.6 18.7-2.6-2.4-5.3-4.7-8.1-6.9-2.4-1.8-4.9-3.4-7.7-4.7 3.6 3.9 6.8 8.2 9.6 12.7 4.1 6.6 7.3 13.8 9.3 21.3 1.3 5 .9 10.3-.4 15.7-2.3 9.4-7.1 18.9-9.5 26.8-2.3 7.6-1.4 15.8 2.6 22.6 15.2-1.5 29.4-4.7 41.5-9.9-.3-.4-.6-.8-1-1.2l-1.3-1.6-1.2-1.5c-.2-.3-.4-.5-.6-.7 41.4-20.4 38.4-44.2 19.5-66.7zm-89.7-70.5c0-.1-.1-.2-.1-.3v-.1c0-.1 0-.2-.1-.3 0-.1-.1-.3-.1-.5s0-.3-.1-.5v-.1-.2l-.1-.5v-.4-.6-1.5-.4c0-.3 0-.5.1-.8 0-.1 0-.3.1-.4 0-.1.1-.3.1-.4l.1-.4c0-.1.1-.2.1-.3 0-.1.1-.2.1-.3.2-.6.6-1.1 1-1.6.1-.1.2-.1.2-.2.1-.1.2-.1.3-.2l.6-.3c.1 0 .2-.1.4-.1s.2-.1.3-.1h.3c.5 0 .9 0 1.4.1.1 0 .2.1.3.1.1 0 .2.1.3.1.3.2.7.4 1 .6-.3 0-6.2-1.3-6.2 9.6zm63.2 124.9c0-.2-.1-.5-.1-.7s-.1-.5-.1-.8c-.1-1.7-.1-3.4.2-5.1 0-.1 0-.3.1-.4 0-.3.1-.7.2-1s.1-.7.2-1c.1-.7.3-1.4.5-2.1.5-2.2 1.3-4.4 2-6.7 0-.1 0-.1.1-.2 2.1-5.5 3.8-11.1 5.1-16.8l.1-.4c.2-.7.3-1.4.5-2.2v-.1-.1c.3-1.2.6-2.3.9-3.5.1-.3.1-.6.2-.8s.1-.6.2-.9l.3-1.8c.1-.3.1-.6.1-.9s.1-.6.1-1c.1-1 .2-2 .2-3v-1.3s1.6 2.2 3.8 5.5c.6 1 1.4 2.1 2.1 3.2 4.9 7.8 10.7 19 8.3 24.8-3.7 9-25 17.3-25 17.3z"/>
        </g>
    </g>
</svg>