<svg id="Layer_1" 
    xmlns="http://www.w3.org/2000/svg" viewBox="0 0 356.5 262.8">
    <style>
                    .st5 {
                        fill: #fcbb65
                    }
    </style>
    <g id="character_2" transform="translate(-997 -998.995)">
        <linearGradient id="background_ellipse_1_" gradientUnits="userSpaceOnUse" x1="658.136" y1="1646.426" x2="658.136" y2="1644.691" gradientTransform="matrix(329.0529 0 0 -198.2527 -215400.063 327444.125)">
            <stop offset="0" stop-color="#ffeabd" />
            <stop offset="1" stop-color="#fa0" />
        </linearGradient>
        <path id="background_ellipse" d="M1322.2 1143.7c21.6 57.1-51 87.9-143.5 90.1-98.7 2.4-157.3-13.2-177.2-54.6-19.6-40.7 20.1-156.6 192.7-142.2 39.9 3.4 107.9 53.7 128 106.7z" fill="url(#background_ellipse_1_)" />
        <g id="left_side_heart_small">
            <path id="lshs_1" class="character_brown" d="M1070.7 1119c-.7-.6-.8-1.7-.2-2.4l.1-.1c.7-.7 1.8-.8 2.6-.1.7.6.8 1.7.2 2.4l-.1.1c-.4.4-.8.6-1.4.6-.5 0-.9-.2-1.2-.5z" />
            <path id="lshs_2" class="character_brown" d="M1064.8 1112.7c-.6-.7-.4-1.8.3-2.4h.1c.8-.6 1.9-.4 2.5.4.6.7.4 1.8-.3 2.4h-.1c-.3.2-.7.3-1.1.3-.5 0-1.1-.3-1.4-.7z" />
            <path id="lshs_3" class="character_brown" d="M1060.2 1105.5c-.4-.8-.1-1.9.7-2.3h.1c.9-.4 2-.1 2.5.7.4.8.1 1.9-.7 2.3h-.1c-.3.1-.6.2-.8.2-.8.1-1.4-.3-1.7-.9z" />
            <path id="lshs_4" class="character_brown" d="M1056.8 1097.7c-.3-.9.2-1.9 1.1-2.2.9-.3 2 .2 2.3 1.2.3.9-.3 1.9-1.2 2.2-.2 0-.3.1-.5.1-.8-.1-1.5-.6-1.7-1.3z" />
            <path id="lshs_5" class="character_brown" d="M1057.2 1090.9c-1 0-1.8-.8-1.7-1.8.1-1 .9-1.7 1.9-1.7 1 0 1.8.8 1.8 1.8-.1 1-.9 1.8-2 1.7z" />
            <path id="lshs_6" class="character_brown" d="M1059 1083.1c-.7-.6-.9-1.6-.3-2.4v-.1c.6-.8 1.8-.9 2.6-.3.7.6.9 1.6.4 2.4v.1c-.4.4-.9.7-1.4.7-.6-.1-1-.2-1.3-.4z" />
            <path id="lshs_7" class="character_brown" d="M1067 1080.8c-.9-.3-1.4-1.2-1.2-2.1.3-.9 1.4-1.4 2.3-1.1.9.3 1.4 1.2 1.1 2.1-.3.7-1 1.2-1.7 1.2-.1 0-.3 0-.5-.1z" />
            <path id="lshs_8" class="character_brown" d="M1072.6 1085.3c-.6-.8-.4-1.8.4-2.4h.1c.8-.6 1.9-.4 2.5.4.6.8.4 1.8-.4 2.4h-.1c-.3.2-.7.3-1 .3-.6 0-1.1-.3-1.5-.7z" />
            <path id="lshs_main" class="character_brown" d="M1079 1121.5c7.3 2.3 27.9-31.4 14.6-41.8-8.1-6.3-14.7-.4-19.4 4.7-9.8 10.3-2.5 34.7 4.8 37.1z" />
        </g>
        <g id="left_side_heart_large">
            <path id="lshl_1" class="character_brown" d="M1065 1184.1c2.1.1 3.9-1.6 4-3.7.1-2.1-1.6-3.9-3.7-4h-.2c-.7 0-1.4.2-2 .5-1.8.9-2.5 3.2-1.6 5 0 0 0 .1.1.1.7 1.3 2 2.1 3.4 2.1z" />
            <path id="lshl_2" class="character_brown" d="M1078.6 1179.5h.3c2.2-.1 3.8-1.9 3.7-4.1s-1.9-3.8-4.1-3.7c-2.2.1-3.8 1.9-3.7 4.1.2 2 1.8 3.6 3.8 3.7z" />
            <path id="lshl_3" class="character_brown" d="M1091.6 1184.5c2.1-.1 3.7-1.9 3.6-4-.1-2.1-1.9-3.7-4-3.6-2 .1-3.6 1.8-3.6 3.8 0 .9.3 1.7.9 2.4.8.9 1.9 1.4 3.1 1.4z" />
            <path id="lshl_4" class="character_brown" d="M1093.6 1194.2c.6 2.1 2.7 3.3 4.8 2.8 2.1-.4 3.4-2.4 3-4.5v-.1c-.6-2.1-2.7-3.3-4.8-2.8-2.1.4-3.4 2.4-3 4.5v.1z" />
            <path id="lshl_5" class="character_brown" d="M1099 1203.4c-2.1-.1-3.9 1.5-4 3.6-.1 2.1 1.5 3.9 3.6 4h.4c2.1.1 3.9-1.5 4-3.6.1-2.1-1.5-3.9-3.6-4h-.4z" />
            <path id="lshl_6" class="character_brown" d="M1097.9 1217.3c-2.1-.5-4.2.8-4.8 2.9-.4 2.1.9 4.1 2.9 4.5h.1c.3.1.6.1.9.1 2.1.1 3.9-1.5 4-3.6.2-1.9-1.2-3.6-3.1-3.9z" />
            <path id="lshl_7" class="character_brown" d="M1094.3 1230.8c-2-.7-4.3.2-5.1 2.2-.7 2 .3 4.1 2.2 4.8h.1c2 .7 4.2-.3 5-2.3.7-1.8-.3-4-2.2-4.7z" />
            <path id="lshl_8" class="character_brown" d="M1088.4 1243.6c-1.9-1-4.3-.4-5.4 1.4-1.1 1.8-.5 4 1.3 5.1l.1.1c.6.3 1.3.5 2 .5 2.1.1 3.9-1.6 4-3.7 0-1.5-.8-2.8-2-3.4z" />
            <path id="lshl_main" class="character_brown" d="M1077.3 1254.2c1.9-15.3-4.2-51.6-15-62.8-11.8-12.3-26.1-20.7-40.8-9.9-36.1 26.4 41.3 85 53 79.4.1-.1.3-.1.4-.2 0 0 0 .1.1.1 1.6 1.5 4.1 1.5 5.6 0 1.5-1.4 1.5-3.7.1-5.2l-.1-.1-.1-.1c-.9-.9-2.1-1.3-3.2-1.2z" />
        </g>
        <g id="right_side_heart">
            <!-- <path id="Path_172" class="st2" d="M1335.8 1037.5c5.8 0 9.5 3.9 12.3 9.7 9.1 18.6-19.9 47-28.6 47h-.5c-10.5-1.7-18.6-38 4-52 5.2-3.3 9.4-4.7 12.8-4.7m.1-2.5c-4.2 0-8.8 1.6-14.3 5-6.9 4.3-11.9 11.1-14 18.9-2 7-2.2 14.3-.7 21.4 1.6 7.2 5.5 15.3 11.7 16.3.3.1.6.1 1 .1 3.9 0 9-3.5 12.5-6.4 5-4.2 9.5-9.2 13.1-14.6 7.4-11.1 9.3-21.5 5.4-29.5-3.7-7.6-8.5-11.2-14.7-11.2z" />
                        <path id="Path_174" class="st2" d="M1326.7 1038.6c-.3-.3-.7-.6-1.1-.8-.8-.4-1.7-.6-2.6-.6-2.8-.1-5.2 2.1-5.3 5v.1c0 .2 0 .4.1.6.1.9.5 1.8 1.1 2.5.7-.6 1.3-1.1 2-1.6-.3-.4-.5-.9-.5-1.5 0-.9.5-1.6 1.2-2.1.1-.1.3-.2.5-.2.7-.2 1.4-.2 2 0 .3.1.6.3.9.5.1.1.3.3.4.5l1.2-.6 1.2-.6c-.5-.5-.8-.9-1.1-1.2z" />
                        <path id="Path_175" class="st2" d="M1312.6 1088.4c.1 1.1-.5 2.1-1.5 2.6-1.4.6-3 0-3.6-1.3-.1-.3-.2-.6-.2-.9 0-.7.3-1.4.8-1.9.2-.2.4-.3.7-.4 1-.5 2.2-.4 3 .4-.5-1-.9-2.1-1.3-3.2h-.6c-.7 0-1.4.1-2.1.4-.6.3-1.2.6-1.6 1.1-2 1.9-2.1 5-.2 6.9l.2.2c1.7 1.6 4.4 1.9 6.4.8.4-.2.8-.5 1.1-.8.3-.3.6-.6.8-1-.7-.9-1.4-1.9-1.9-2.9zm-4.3-10.4c-.5-.9-1.3-1.6-2.2-2-.8-.4-1.6-.6-2.5-.6-2.8-.1-5.1 2.2-5.2 5s2.2 5.1 5 5.2h.4c.9 0 1.7-.2 2.4-.6.6-.3 1.1-.7 1.5-1.2 1.4-1.7 1.6-3.9.6-5.8zm-3.4 4.7c.9 0 1.6-.7 1.6-1.6 0-.9-.7-1.6-1.6-1.6-.9 0-1.6.7-1.6 1.6 0 .9.7 1.6 1.6 1.6zm-.3-13.2c-.9-2.8-3.8-4.3-6.6-3.5-2.7.7-4.4 3.5-3.7 6.2v.1c.9 2.8 3.9 4.3 6.7 3.5 2.7-.7 4.3-3.5 3.6-6.2v-.1zm-4.3 3.9c-.3.1-.5.1-.8.1-1.4-.1-2.5-1.3-2.4-2.6.1-1.4 1.3-2.5 2.6-2.4 1.4.1 2.4 1.2 2.4 2.6.1 1.1-.7 2-1.8 2.3zm-2.8-17.5h-.5c-2.8.1-5 2.5-4.8 5.3.1 2.8 2.5 5 5.3 4.8h.5c2.8-.2 5-2.6 4.8-5.5-.3-2.7-2.6-4.7-5.3-4.6zm.2 7.6h-.2c-1.4 0-2.6-1.1-2.6-2.5s1-2.5 2.4-2.6h.2c1.4 0 2.6 1.1 2.6 2.5 0 1.3-1 2.5-2.4 2.6zm19.2-28.1c-1-1-2.3-1.6-3.7-1.7h-.3c-2.7 0-5 2-5.3 4.8 0 .4 0 .8.1 1.1l-.6-.9c-1.9-2.2-5.1-2.5-7.4-.7-2.2 1.6-2.6 4.7-1 6.9 0 .1.1.1.1.2v.1c.3.4.7.7 1 .9l-.9-.3c-.4-.1-.7-.1-1.1-.1-2.8-.1-5.2 2.2-5.3 5 0 2.5 1.8 4.6 4.2 5 .4.1.8.1 1.1.1 2.8.1 5.2-2.1 5.3-5 0-1.7-.8-3.3-2.3-4.2 2.7 1.1 5.7-.2 6.9-2.8.4-.9.5-1.8.3-2.7.9 1.6 2.6 2.7 4.4 2.7h.3c2.8.1 5.2-2.2 5.3-5 .3-1.3-.2-2.5-1.1-3.4zm-16.3 15.9c-.3 1.2-1.4 2-2.6 2h-.6c-1.4-.2-2.3-1.5-2-2.9.1-.8.6-1.4 1.3-1.8.3-.1.5-.2.8-.3h.5c1.5 0 2.7 1.2 2.7 2.7-.1 0-.1.1-.1.3zm4.1-7.5c-1.1.9-2.8.8-3.7-.3-.9-1-.8-2.6.2-3.5l.1-.1c.5-.4 1.1-.6 1.7-.6 1.4-.1 2.6 1 2.7 2.4.1.9-.3 1.6-1 2.1zm8.3-2.6h-.2c-1.4 0-2.5-1.1-2.6-2.5 0-1.4 1.1-2.5 2.5-2.6h.4c1.4 0 2.5 1.1 2.5 2.5s-1.1 2.5-2.5 2.5c0 .1-.1.1-.1.1z" />
                        <path id="Path_176" class="st2" d="M1324.2 1093.2c0-.2-.1-.3-.1-.5-.8.4-1.6.8-2.5 1.1v.4c0 .7-.3 1.3-.8 1.8-.1.1-.3.2-.4.3-.1.1-.3.2-.4.2-.2.1-.3.1-.5.1s-.3.1-.5 0h-.5-.1-.4c-.1 0-.1 0-.1-.1-.1 0-.2-.1-.3-.2h-.1c-.1-.1-.3-.2-.4-.3-.1-.1-.2-.2-.3-.4-.1-.1-.2-.3-.3-.4-.1-.2-.1-.3-.1-.5s-.1-.3-.1-.5 0-.3.1-.5c0-.2.1-.3.1-.5v-.1c-.7-.5-1.4-1.1-1.9-1.8v.1c-.2.3-.3.5-.5.8l-.3.9c-.1.3-.1.7-.1 1 0 .4 0 .7.1 1.1.1.3.2.6.3.8.1.3.3.6.5.9.2.3.4.6.7.8 1 1 2.4 1.5 3.8 1.5.3 0 .7 0 1-.1.3-.1.6-.1 1-.3.3-.1.6-.3.9-.5.3-.2.6-.4.9-.7.6-.6 1.1-1.4 1.3-2.2.1-.4.2-.9.2-1.4-.1-.2-.2-.5-.2-.8z" /> -->
            <path id="rsh_main_1" class="st3" d="M1322.9 1042.2c13.9-8.6 20.7-4.2 25.2 5.1 9.3 19-21.2 48.2-29.2 46.9-10.5-1.7-18.5-38.1 4-52z" fill="#fca12a"/>
            <path id="rsh_main_2" class="character_brown" d="M1325.5 1041.6c-.1-.3-.2-.5-.3-.8-.1-.2-.2-.3-.4-.5-.3-.2-.5-.4-.9-.5-.7-.2-1.4-.2-2 0-.3.1-.6.3-.9.5-.5.5-.8 1.1-.8 1.8 0 .5.2 1 .5 1.5-14.5 10.9-14.2 32.1-9 43.2-.5-.4-1.1-.7-1.8-.7-.4 0-.9.1-1.2.3-.2.1-.5.3-.7.4-1 .9-1.1 2.5-.2 3.5l.1.1c.5.5 1.2.8 2 .8.4 0 .8-.1 1.1-.2.3-.1.5-.3.8-.5.6-.5.8-1.3.7-2.1.9 1.8 2.3 3.5 4 4.7-.1.2-.1.3-.1.5s-.1.3-.1.5 0 .3.1.5c0 .2.1.3.1.5.1.2.2.3.3.4.1.1.2.3.3.4.1.1.3.2.4.3h.1c.1.1.2.1.3.2 0 0 .1.1.2.1s.2.1.3.1H1319.1c.2 0 .3 0 .5-.1.2 0 .3-.1.5-.1.2-.1.3-.2.4-.2.1-.1.3-.2.4-.3.5-.5.8-1.1.8-1.8v-.4-.1c0-.2-.1-.3-.1-.5l-.1-.1c3.4-2.9 6.7-11.5 8.9-23.9 1-6.6 2.2-27-4.9-27.5z" />
            <path id="rsh_1" class="character_brown" d="M1312.8 1041.3h.2c1.4.1 2.6-1 2.7-2.4.1-1.4-1-2.6-2.4-2.7h-.4c-1.4-.1-2.6 1-2.7 2.4-.1 1.4 1 2.6 2.4 2.7h.2z" />
            <path id="rsh_2" class="character_brown" d="M1303 1044.4c1.4 0 2.6-1.1 2.6-2.5 0-.6-.2-1.2-.6-1.6-.5-.6-1.3-.9-2-.9-1.4 0-2.6 1.1-2.6 2.6 0 .6.2 1.1.6 1.6.5.5 1.2.8 2 .8z" />
            <path id="rsh_3" class="character_brown" d="M1297.4 1053.2c.2 0 .4.1.6.1 1.4 0 2.6-1 2.6-2.4s-1-2.6-2.4-2.6h-.7c-.3.1-.6.1-.8.3-1.2.6-1.7 2.2-1 3.4v.1c.4.5 1 1 1.7 1.1z" />
            <path id="rsh_4" class="character_brown" d="M1297.7 1063.5c1.4-.1 2.5-1.3 2.4-2.7-.1-1.3-1.3-2.3-2.6-2.3h-.2c-1.4.1-2.5 1.3-2.4 2.7.1 1.3 1.3 2.3 2.6 2.3h.2z" />
            <path id="rsh_5" class="character_brown" d="M1302.1 1070.3c-.4-1.4-1.8-2.2-3.2-1.8-1.4.3-2.2 1.6-1.9 3v.1c0 .1 0 .1.1.2.4 1.1 1.4 1.8 2.5 1.8.3 0 .5 0 .8-.1 1.3-.4 2.1-1.8 1.7-3.2z" />
            <path id="rsh_6" class="character_brown" d="M1303.6 1077.9c-1.4 0-2.6 1.1-2.6 2.5 0 .4.1.9.3 1.3.8 1.2 2.4 1.7 3.6.9 1.2-.7 1.7-2.2 1-3.4-.4-.8-1.3-1.3-2.3-1.3z" />

        </g>
        <g id="main_body_2">
            <path id="body_2_outline" d="M1342.8 1113c.1 2.8-1.5 5.1-4.1 7-.4.3-.7.5-1.1.8s-.8.5-1.2.7c-.9.5-1.8.9-2.7 1.3-.7.3-1.4.6-2.2.9-.5.2-1 .4-1.5.5-.8.3-1.5.5-2.3.7-.3.1-.5.2-.8.2-.8.2-1.6.4-2.3.6l-1.5.4c-1.3.3-2.5.5-3.7.8l-.7.1-1.3.2c-2.3.4-4.2.6-5.6.8s-2.2.2-2.2.2c-.3 13.1-1.4 26.2-3.3 39.3-.1.7-.2 1.4-.4 2.1-.1.3-.1.7-.2 1l-.3 1.4-.2.9c-.1.4-.2.8-.2 1.2-.2.8-.4 1.7-.5 2.5l-.3 1.2c0 .1 0 .2-.1.3-.1.4-.2.9-.3 1.3-.1.3-.1.6-.2.8-.2.6-.3 1.2-.5 1.8l-.1.3-.3.9c-.2.5-.3 1-.5 1.5l-.4 1.1c-.1.3-.2.5-.3.8-.1.3-.3.7-.4 1-2.2 5.4-4.9 9-8.3 9.6-1.7.2-3.3.2-5-.2-.3-.1-.6-.1-1-.2-3.5-1-6.8-2.4-9.9-4.4-.4-.2-.8-.5-1.2-.7-.2-.1-.4-.2-.6-.4-.5-.3-1.1-.7-1.7-1.1-2-1.4-4-2.9-6.1-4.6-1.2-1-2.4-2-3.6-3.1l-.8-.7c-.5-.5-1-1-1.6-1.5l-.8-.7c-.5-.5-1-1-1.6-1.5-5.3-5.3-10.1-11.1-14.4-17.3v.1c0 .1-.1.1-.1.2v.2l-.1.1-.1.1v.1c0 .1-.1.2-.1.3-.1.2-.2.4-.3.7l-.1.3s-.1.1-.1.2-.1.2-.1.2l-.2.5c-.1.2-.2.4-.2.6l-.3.6-.3.6c0 .1-.1.2-.1.3s-.1.2-.1.2c-.1.2-.2.4-.2.6 0 0 0 .1-.1.1l-.1.2s0 .1-.1.1c-.2.5-.4 1.1-.6 1.6-.1.1-.1.3-.2.4-.1.3-.2.6-.4.9l-.1.3v.1c0 .1-.1.2-.1.3-.1.4-.3.8-.4 1.2-.5 1.4-1 2.8-1.5 4.4 0 .1 0 .1-.1.2-.2.7-.5 1.4-.7 2.2-1.7 5.4-3.1 10.9-4.3 16.4-.1.6-.2 1.1-.3 1.7-.2 1.1-.4 2.2-.6 3.4-2.3 13.3-2 23.1-1.3 29.1-12 1.9-24.1 3.1-36.2 3.8-4.5.3-9.1.4-13.7.5-12.7.3-24.7.3-36 0v-.3l-.1-.7v-.6-.1c0-.4-.1-.9-.1-1.3-.1-1.4-.2-2.9-.3-4.4 0-.3 0-.5-.1-.8-.2-2.3-.3-4.8-.5-7.5l-.1-1.4v-.3c-.1-.9-.1-1.8-.1-2.7-.1-1.3-.2-2.7-.2-4.1 0-.9-.1-1.8-.1-2.7v-.7-1c0-1-.1-2.1-.1-3.2-.1-1.2-.1-2.5-.1-3.7-.1-1.9-.1-3.8-.2-5.7v-2.5c0-1.9-.1-3.7-.1-5.7v-4.6c-1.7 2.1-3.5 4.2-5.5 6.1-4.5 4.3-8.7 6.2-12.7 6.2h-1.5c-.2 0-.4-.1-.6-.1l-.4-.1-.3-.1-.4-.1-.4-.1-.4-.1-.3-.1-.4-.2c-.8-.3-1.6-.7-2.3-1.2-1.5-.9-2.8-2-4.1-3.2l-.5-.5c-.3-.3-.7-.7-1-1.1-.7-.7-1.4-1.5-2.1-2.4-.5-.6-1-1.3-1.5-2-.2-.2-.3-.5-.5-.7-.3-.5-.6-1-1-1.5s-.7-1-1-1.6c-.7-1-1.3-2.1-2-3.3-.3-.6-.7-1.2-1.1-1.9-.2-.3-.3-.6-.5-.9l-1-1.9c-.5-1-1-1.9-1.6-2.9l-1-2c-.5-1-1.1-2.1-1.6-3.2-.3-.7-.7-1.5-1.1-2.2l-1.1-2.3c-.5-1.1-1.1-2.3-1.6-3.5-.7-1.6-1.5-3.2-2.2-4.9-1.7-.2-3.3-.4-4.8-.6l-.7-.1-1.4-.2c-.7-.1-1.4-.2-2-.3-1.1-.2-2.1-.4-3.1-.6l-1.1-.2-1.1-.2-1-.3c-.8-.2-1.6-.4-2.3-.6l-.8-.3-.8-.3c-.6-.2-1.2-.5-1.7-.7l-.6-.3-.5-.3c-.3-.1-.5-.3-.7-.4-.1-.1-.3-.2-.4-.3l-.6-.6c-1.4-1.4-1.2-2.8.1-4.2l.2-.2c.3-.2.6-.5.9-.7.2-.2.5-.3.8-.5s.6-.3.9-.5.6-.3 1-.4l.7-.3c.2-.1.5-.2.7-.3s.5-.2.8-.3l.8-.3c7.8-2.4 19.8-3.1 27.8.3l16.2 21.2 5.8 7.7v-.1c.2-.4.9-1.9 1.9-4.1l.1-.1.1-.3v-.1c.2-.4.4-.9.7-1.4 0-.1.1-.1.1-.2s.1-.2.2-.4c.4-.7.8-1.5 1.2-2.4l.2-.4.2-.4.4-.8c.3-.6.7-1.3 1-1.9 0 0 .1-.1.1-.2l.1-.2c.1-.1.2-.3.2-.4l.5-1c.6-1.3 1.4-2.6 2.1-4l.4-.8.6-1.1.7-1.4.6-1.2c.2-.4.5-.9.7-1.3.3-.6.6-1.1.9-1.7l.5-.8 3.9-6.6.6-1c.9-1.5 1.9-3 2.8-4.4l.5-.7c1.6-2.4 3.4-4.7 5.4-6.9.2-.2.4-.5.7-.7.4-.4.7-.7 1.1-1l.4-.3c.1-.1.3-.2.4-.4 1.2-.9 2.4-1.7 3.7-2.5.2-.1.5-.3.7-.4l.8-.4c.6-.3 1.2-.6 1.8-1 2.4-1.2 4.8-2.2 7.4-3.2l1.2-.5c1.7-.6 3.5-1.3 5.4-1.9l-.3-29c-.6-.7-1.2-1.4-1.7-2.1l-.3-.4s0-.1-.1-.1c-.2-.3-.4-.5-.7-.8v-.1c-.1-.1-.2-.3-.3-.4-.3-.4-.6-.9-.9-1.3-.2-.3-.5-.7-.7-1 0 0 0-.1-.1-.1-.1-.1-.2-.3-.3-.4-.2-.3-.3-.5-.5-.8-.1-.1-.1-.2-.2-.3-.3-.5-.6-.9-.8-1.4-.1-.1-.2-.3-.2-.4-.3-.4-.5-.9-.8-1.3l-.3-.6-.6-1.1c0-.1-.1-.1-.1-.2-.2-.5-.5-.9-.7-1.4l-.6-1.2-.6-1.2c-.1-.1-.1-.3-.2-.4 0-.1 0-.1-.1-.1-.1-.2-.2-.5-.3-.7l-.6-1.2c-.2-.4-.4-.8-.5-1.2l-.1-.1c-.2-.4-.3-.8-.5-1.1s-.3-.7-.4-1.1c-.3-.7-.5-1.4-.8-2.1l-.2-.6c-.1-.3-.2-.5-.3-.8-.1-.1-.1-.3-.1-.4-.1-.4-.3-.8-.4-1.2s-.2-.8-.4-1.2l-.3-.9c-.1-.2-.1-.4-.1-.6-.1-.3-.2-.6-.2-.9-.2-.8-.4-1.6-.5-2.5-.3-1.5-.5-3-.7-4.5-.1-.6-.1-1.2-.1-1.8v-2.3-.5-.4c.1-1.7.7-3.4 1.7-4.8 1.4-1.8 3.7-2.7 6-2.3l.3-1.8c0-.1.1-.3.1-.4s.1-.3.1-.4.1-.4.2-.7.2-.5.3-.7.2-.5.3-.7.2-.3.3-.5.2-.3.3-.5l.2-.2c.1-.2.2-.3.3-.5l.2-.2c.1-.2.3-.3.4-.5 1.9-2.1 5.1-3.8 10.3-3.1 0 0 7.1-15.9 25.2-16.5h2.2c.3 0 .5 0 .8.1l.8.1c.4 0 .7.1 1.1.2.2 0 .4.1.6.1.2 0 .3 0 .5.1l.6.1.2.1.7.2c.2.1.5.2.7.2l.3.1.7.3.7.4c.3.1.5.2.8.4l.6.3c.3.2.7.4 1 .6l.7.5c.2.2.5.3.7.5s.4.3.7.5c.4.4.9.7 1.3 1.1.2.2.4.4.7.6l1.2 1.2c.2.2.4.4.6.7l.4.5.1.1c.5.7 1.1 1.4 1.6 2.2l.4.7.1.2c.2.4.4.7.6 1.1.1.1.1.3.2.4l.4.7v.1c.1.3.3.5.4.8.1.3.3.5.4.8v.1l.3.6c0 .1.1.1.1.2.1.3.3.6.4.9.2.4.3.8.5 1.2.1.2.2.4.2.6l.1.3c.1.3.2.5.3.8s.1.4.2.5c.2.4.3.9.4 1.3 0 .1.1.2.1.3s0 .1.1.2l.1.4.1.3.1.5c0 .1 0 .1.1.2.2.5.3 1 .4 1.5l.1.4c0 .1.1.2.1.4.1.3.2.7.3 1 0 .2.1.4.1.5 0 .1 0 .1.1.2l.2 1.1c.1.3.1.6.2.9l.3 1.8.2.9c.2.9.3 1.8.4 2.7s.2 1.6.3 2.4l.1.9c0 .3.1.6.1.9.1.6.1 1.2.2 1.7s.1 1 .1 1.5c0 .3 0 .5.1.8.1.8.1 1.6.1 2.4V1048.2c.1 3.1 0 5 0 5 .1 9-2.6 17.7-7.7 25.1l-.4.6c-.5.6-.9 1.2-1.4 1.8l-.2.2c-.3.4-.7.8-1.1 1.2l-.3.4c-.9.9-1.8 1.7-2.8 2.4l-.4.3c-.2.1-.3.3-.5.4l-.5.4-.5.4c-.2.1-.4.3-.6.4s-.6.3-.9.5-.6.3-.9.5-.6.3-.8.4l-.1.1c-.3.1-.5.2-.8.4s-.6.2-.9.3h-.1l-.9.3-.9.3v7.6c1.1-.2 2.2-.3 3.2-.4l1.5-.2 1.7-.2 1.6-.2 1.5-.2 1.2-.1c.6-.1 1.2-.1 1.8-.2 13-1.1 23.2-.7 25.8 1.7.4.3.7.7 1 1.1l.4.5.2.3c.2.2.3.4.5.6.5.6 1 1.3 1.5 2.1l.3.4c1.3 2 2.8 4.4 4.5 7.1.4.7.9 1.5 1.3 2.3l.7 1.2c.5.8.9 1.6 1.4 2.4.2.3.4.7.6 1 .5.9 1.1 1.9 1.6 2.9.2.4.5.9.7 1.4 0 0 0 .1.1.1l.4.7.6 1.1c.8 1.4 1.5 2.9 2.3 4.4l.4.9 1.5 3c.3.6.6 1.1.9 1.7.4.8.8 1.5 1.2 2.3s.8 1.5 1.2 2.3l.6 1.2c.4.8.8 1.6 1.2 2.3l1.2 2.4.9 1.9.3.6.9 2c0 .1.1.2.1.3l.6 1.2c.2.4.4.8.5 1.2s.4.8.6 1.2l.9 1.9.7 1.6c.2.4.4.8.5 1.2 2.8-20.4 9.3-41.4 12.5-44.5 1.7-1.7 5.8-3.2 11-4.4 13.1-3 33.1-3.6 37.7 2.8.2.3.4.6.5.9.2.7.4 1.3.4 2z" fill="#ffeabd" />
            <path id="main_body_2_neck" class="character_skin" d="M1210.3 1097.6c4.3-.6 8.6-1.1 12.5-1.4l-13.6 15.7-30.5 19.6-10.5-23.8c2.1-.8 4.3-1.6 6.6-2.3l-.2-24.4 49.1.1c-3.5 4.2-8.1 7.3-13.3 8.9l-.1 7.6z" />
            <path id="main_body_2_head" class="character_skin" d="M1233.2 1053.7c0 17.7-9.8 32.5-22.9 36.3-24.3 3.3-30.8-13.6-32.9-26.7-.8.1-1.7 0-2.5-.2-1.9-.4-4.5-1.6-7.1-5-1 1.3-1.9 2.6-2.6 4-3.2-6.3-5.6-12.9-7.1-19.8-.7-3.1-.9-6.3-.6-9.5 16.8-6.2 51.3-18.2 68.9-18.6 4.5 9.1 6.1 20.5 6.6 28.7.3 3.6.3 7.2.2 10.8z" />
            <path id="main_body_2_left_arm" class="character_skin" d="M1342.8 1113c.4 12.6-33.1 15.4-33.1 15.4s-1.1 66.6-16.7 69c-11.5 2-33.5-15.3-48-36.4 0 0-2 4.3-4.5 11.3l-8.2-12.4 6.8-18.2 24.2-20.4c5.7 10.5 12 23.2 17.4 35.1 2.8-20.4 9.3-41.4 12.5-44.5 6.4-6.4 49.2-11.5 49.6 1.1z" />
            <path id="main_body_2_right_arm" class="character_skin" d="M1152.5 1166.2l-2.3 19.2-6.8 2.7c-.1-2.7-.1-5.4-.1-8.1-21.2 26.6-34.6 7.2-51.9-31.6-51.8-5.8-8.4-21.7 10.9-13.4l22.1 28.9s2.9-6.3 7.1-14.4l21 16.7z" />
            <linearGradient id="main_body_2_hair_gradient" gradientUnits="userSpaceOnUse" x1="659.038" y1="1645.032" x2="659.152" y2="1644.631" gradientTransform="matrix(73.4073 0 0 -77.3575 -47192.242 128258.836)">
                <stop offset="0" stop-color="#fca12a" />
                <stop offset="1" stop-color="#eb8700" />
            </linearGradient>
            <path id="main_body_2_hair" d="M1230.8 1027.2c-2.9-1.2-5.8-2.1-8.9-2.7-9.1-1.8-18.4-1.7-34.6 5.5 0 0-1.9 10.9-7.5 11.8-.2 3.2-.2 9.9-.2 9.9l-5.4-8.1c-8.8-2.9-11.9 6.3-6.8 13.8 4.7 7.1 10.2 6 10.2 6-1.2 7.1-1.2 12.6-2.9 13.1-7.4-8.6-14.1-22.8-16.4-34.1-1.9-9.8-.4-17.3 7.1-16.7 0 0 .7-11.7 13.3-10.1 0 0 7.1-15.9 25.2-16.5 16.3-.6 23.7 13.9 26.9 28.1z" fill="url(#main_body_2_hair_gradient)" />
            <linearGradient id="main_body_2_shirt_sleeves" gradientUnits="userSpaceOnUse" x1="658.481" y1="1644.903" x2="658.537" y2="1644.198" gradientTransform="matrix(142.075 0 0 -76.8755 -92361.531 127561.5)">
                <stop offset="0" stop-color="#fca12a" />
                <stop offset="1" stop-color="#ea8600" />
            </linearGradient>
            <path id="main_body_2_shirt_sleeves" d="M1268.5 1131.2c-3.4-.1-9.5 1.1-18.8 7.5-5.7 3.9-8.6 9.7-10.1 13.7-13.9 23.1-89 21.9-96.3 18-3.2-.7-6.3-1.8-9.3-3.3-5-3-7-5.5-7.7-7.4 5-10.4 18.4-37 27.4-44.4 4.7-3.7 12.2-6.9 21-9.7l.1 7.5s-.2 4 5.8 3.6c17.5-1.2 29.4-18.6 29.6-18.8 18.6-2.6 35-2.8 38.3.3 3.9 3.4 11.8 17 20 33z" fill="url(#main_body_2_shirt_sleeves)" />
            <path id="main_body_shirt" d="M1245 1161v.1s-.1.1-.1.2v.1s0 .1-.1.1l-.1.1v.1l-.1.3c-.1.2-.2.4-.3.7 0 0 0 .1-.1.1s0 .1-.1.1l-.1.2c0 .1-.1.2-.1.2l-.2.5c-.1.2-.1.4-.2.6l-.1.2c-.1.1-.1.3-.2.4l-.3.6c0 .1-.1.2-.1.3 0 .1-.1.2-.1.2l-.1.2c-.1.2-.1.4-.2.6l-.1.2c-.2.6-.4 1.1-.7 1.8-.1.1-.1.3-.2.4l-.3.9c0 .1-.1.2-.1.3v.1c0 .1-.1.2-.1.3l-.4 1.2c-.5 1.4-1 2.8-1.5 4.4 0 .1 0 .1-.1.1-.2.7-.5 1.4-.7 2.2-1.7 5.4-3.1 10.9-4.3 16.4-.1.6-.2 1.1-.3 1.7-.2 1.1-.4 2.2-.7 3.4-2.3 13.3-2 23.1-1.3 29.1-12 1.9-24.1 3.1-36.2 3.8-4.5.3-9.1.4-13.7.5-12.7.3-24.7.3-36 0v-.3l-.1-.7v-.6-.1c0-.4-.1-.9-.1-1.3-.1-1.4-.2-2.9-.3-4.4 0-.3 0-.5-.1-.8-.2-2.3-.3-4.8-.5-7.5l-.1-1.4v-.3c-.1-.9-.1-1.8-.2-2.7-.1-1.3-.2-2.7-.2-4.1 0-.9-.1-1.8-.1-2.7v-.7-1c0-1-.1-2.1-.1-3.2-.1-1.2-.1-2.5-.1-3.7-.1-1.9-.1-3.8-.2-5.7v-1.6c0-1 0-2-.1-3V1170c-.1-2.9 0-5.8.2-8.5 0-.4.1-.9.1-1.3 0-.3.1-.6.1-.9v-.4l.2-1.3c.1-.5.1-.9.2-1.4 2.5-16.4 11.5-32.6 27.5-40.5 1.1-.5 2.3-1.1 3.4-1.5.3.8.9 1.4 1.6 1.8l.3.2c.1.1.2.1.4.1l.4.1.4.1c.2 0 .4.1.6.1h1.8l.8-.1.7-.1h.1l.6-.1c.8-.1 1.7-.3 2.5-.5l.8-.2c.8-.2 1.5-.4 2.2-.7l.7-.3c.8-.3 1.5-.6 2.3-1 .2-.1.4-.2.5-.2.3-.2.7-.3 1-.5s.6-.3.9-.5.5-.3.8-.4c.9-.5 1.7-1 2.5-1.5.6-.4 1.1-.8 1.7-1.2 3 .8 6 2.1 8.7 3.7 11.5 6.7 20.5 19 26 28.1l.1.2c1.3 2.2 2.5 4.3 3.4 6 1.6 2.9 2.5 4.8 2.6 5 .4.8.9 1.6 1.4 2.4 1.3 2.2 2.6 4.3 4 6.3z" fill="#fff7ed" />
            <path id="main_body_2_shadow_1" class="character_brown" d="M1210.3 1090v4.1c-5 3.9-11.6 8.6-16.8 10.8-5.9 2.5-12.3 3.8-18.7 3.8v-3.3l-.3-29c-.2-.3-.5-.6-.7-.9l-.6-.8c-.2-.3-.5-.6-.7-.9-.1-.2-.3-.4-.4-.6s-.4-.5-.6-.8c-1.2-1.7-2.4-3.5-3.5-5.4l-.3-.6c-.1-.2-.2-.4-.4-.6-.2-.4-.4-.7-.6-1.1-.5-.9-.9-1.7-1.4-2.6.7-1.4 1.6-2.8 2.6-4 2.5 3.4 5.2 4.6 7.1 5 .8.2 1.7.3 2.5.2 2.1 13.1 8.5 30 32.8 26.7z" />
            <path id="main_body_2_shadow_2" class="character_brown" d="M1245 1161v.1s-.1.1-.1.2v.1s0 .1-.1.1l-.1.1v.1l-.1.3c-.1.2-.2.4-.3.7 0 0 0 .1-.1.1s0 .1-.1.1l-.1.2c0 .1-.1.2-.1.2l-.2.5c-.1.2-.1.4-.2.6l-.1.2c-.1.1-.1.3-.2.4l-.3.6c0 .1-.1.2-.1.3 0 .1-.1.2-.1.2l-.1.2c-.1.2-.1.4-.2.6l-.1.2c-.2.6-.4 1.1-.7 1.8-.1.1-.1.3-.2.4l-.3.9c0 .1-.1.2-.1.3v.1c0 .1-.1.2-.1.3l-.4 1.2c-.5 1.4-1 2.8-1.5 4.4 0 .1 0 .1-.1.1-.2.7-.5 1.4-.7 2.2-1.7 5.4-3.1 10.9-4.3 16.4-.1.6-.2 1.1-.3 1.7-.2 1.1-.4 2.2-.7 3.4-2.3 13.3-2 23.1-1.3 29.1-12 1.9-24.1 3.1-36.2 3.8a98.59 98.59 0 0 0 14.8-35.2c2.2-11.1 5.3-22 9.2-32.6 6.8-18.1 13.2-25.7 13.2-25.7.3.4.6.8.8 1.2l.1.2c1.3 2.1 2.4 4 3.4 5.9.9 1.7 1.8 3.4 2.6 5 .4.8.9 1.6 1.3 2.5 1.4 2.3 2.8 4.4 4.2 6.5z" />
            <path id="main_body_2_shadow_3" class="character_brown" d="M1143.6 1161.4c-.2 2.7-.3 5.6-.2 8.5v.3c0 3.2-.1 6.4 0 9.6-9.7 12.2-17.8 14.7-25.3 10.2 6.3-3.8 17-16.8 26.2-34-.4 1.8-.6 3.7-.7 5.4z" />
            <path id="main_body_2_shadow_4" class="character_brown" d="M1124.4 1163.8l-3.7 6c-.2-4.6-1-9.2-2.2-13.7l5.9 7.7z" />
            <path id="main_body_2_shadow_5" class="character_brown" d="M1280.7 1156.3c-.6 4.9-1.1 9.8-1.3 14.4-.7-8.6-2-17.1-3.9-25.5 1.8 3.7 3.5 7.5 5.2 11.1z" />
        </g>
        <g id="heart_shirt">
            <linearGradient id="heart_shirt_main_gradient" gradientUnits="userSpaceOnUse" x1="662.538" y1="1641.684" x2="663.36" y2="1641.184" gradientTransform="matrix(19.709 0 0 -31.8202 -11885.679 53390.734)">
                <stop offset="0" stop-color="#fca12a" />
                <stop offset="1" stop-color="#fa8f00" />
            </linearGradient>
            <path id="heart_shirt_main" d="M1183.9 1148.3c.9-.4 1.3-1.6.9-2.5v-.1c-.5-.9-1.6-1.2-2.5-.9-.2.1-.5.2-.7.4-5.1-3.9-14.2-.6-15.8 8.7-1.7 9.5 9.6 22.4 13.4 20.4.1-.1.2-.1.4-.2 0 .1.1.2.1.3.5.9 1.7 1.3 2.7.8.9-.4 1.3-1.5.9-2.4v-.1c-.3-.6-.9-1-1.6-1 3.3-5.5 4.9-17.5 2.2-23.4z" fill="url(#heart_shirt_main_gradient)" />
            <path id="shirt_dot_1" class="character_orange_1" d="M1190.7 1146.9c1.2 0 2.1-.9 2.1-2.1 0-1.1-.9-2-2.1-2s-2 .9-2 2.1c0 1.1.9 2 2 2z" />
            <path id="shirt_dot_2" class="character_orange_1" d="M1198.9 1148.1c-.3-1-1.4-1.7-2.4-1.4-1 .2-1.7 1.2-1.5 2.2.3 1.1 1.4 1.7 2.5 1.4.8-.2 1.4-1 1.5-1.8-.1 0-.1-.2-.1-.4z" />
            <path id="shirt_dot_3" class="character_orange_1" d="M1196.6 1154.3c-1-.3-2.1.3-2.5 1.3-.3.9.2 1.9 1.1 2.3 1 .4 2.1-.1 2.5-1.1.5-1.1 0-2.2-1.1-2.5.1 0 .1 0 0 0z" />
            <path id="shirt_dot_4" class="character_orange_1" d="M1193.5 1161.2c-1-.5-2.1-.2-2.7.7-.5.9-.2 2 .6 2.5.3.2.7.3 1.1.3 1.1 0 2-.8 2-1.9-.1-.6-.4-1.2-1-1.6z" />
            <path id="shirt_dot_5" class="character_orange_1" d="M1186.2 1167.6c-.7.7-.7 1.9 0 2.6l.1.1c.4.3.9.5 1.3.5.6 0 1.1-.2 1.5-.6.7-.7.7-1.9 0-2.6l-.1-.1c-.8-.7-2.1-.7-2.8.1z" />
        </g>
    </g>
</svg>