<svg xmlns="http://www.w3.org/2000/svg" xmlns:xlink="http://www.w3.org/1999/xlink" width="258.607" height="233.166"><defs><style>.cls-6{fill:#fcbb65}</style><linearGradient id="linear-gradient" x1=".5" x2=".5" y2="1.634" gradientUnits="objectBoundingBox"><stop offset="0" stop-color="#ffeabd"/><stop offset="1" stop-color="#fa0"/></linearGradient><linearGradient id="linear-gradient-2" x1=".186" y1=".874" x2="1.621" y2="-.083" gradientUnits="objectBoundingBox"><stop offset="0" stop-color="#998363"/><stop offset="1" stop-color="#4d4232"/></linearGradient><linearGradient id="linear-gradient-3" x1="-101.633" y1="-92.214" x2="-101.633" y2="-92.237" gradientUnits="objectBoundingBox"><stop offset="0" stop-color="#f4f4f4"/><stop offset="1" stop-color="#f2e7c5"/></linearGradient><linearGradient id="linear-gradient-4" x1="-544.162" y1="-1966.964" x2="-544.252" y2="-1967.313" gradientUnits="objectBoundingBox"><stop offset="0" stop-color="#fca12a"/><stop offset="1" stop-color="#e58604"/></linearGradient><linearGradient id="linear-gradient-5" x1="-93.089" y1="-184.064" x2="-93.1" y2="-184.088" xlink:href="#linear-gradient-4"/><linearGradient id="linear-gradient-6" x1="-254.526" y1="-488.356" x2="-254.46" y2="-488.372" xlink:href="#linear-gradient-4"/><linearGradient id="linear-gradient-7" x1="-48.493" y1="-54.452" x2="-48.493" y2="-54.466" gradientUnits="objectBoundingBox"><stop offset="0" stop-color="#663a14"/><stop offset="1" stop-color="#331d0a"/></linearGradient><linearGradient id="linear-gradient-8" x1=".368" y1=".125" x2=".678" y2=".642" gradientUnits="objectBoundingBox"><stop offset="0" stop-color="#fca12a"/><stop offset="1" stop-color="#f58c00"/></linearGradient><linearGradient id="linear-gradient-9" x1=".455" y1=".5" x2=".457" y2=".769" xlink:href="#linear-gradient-8"/><linearGradient id="linear-gradient-10" x1="-11.702" y1="-16.131" x2="-11.695" y2="-16.137" xlink:href="#linear-gradient-7"/><linearGradient id="linear-gradient-11" x1="-43.119" y1="-30.497" x2="-43.096" y2="-30.508" xlink:href="#linear-gradient-7"/><linearGradient id="linear-gradient-12" x1="-22.559" y1="-39.138" x2="-22.547" y2="-39.152" xlink:href="#linear-gradient-7"/></defs><g id="character_1" transform="translate(-1421.998 -769)"><path id="background_ellipse" d="M1650.9 962.821a113.978 113.978 0 0 1-10.625 9.219 127.976 127.976 0 0 1-21.7 13.368c-.715.352-1.436.694-2.165 1.035a149.476 149.476 0 0 1-16.282 6.474 402.81 402.81 0 0 1-5.187 1.654 191.245 191.245 0 0 1-30.727 6.336 158.733 158.733 0 0 1-23.744 1.213 146.6 146.6 0 0 1-15.858-1.285 131.578 131.578 0 0 1-58.558-22.64c-52.314-36.959-63.475-106.134-3.609-129.943a232.317 232.317 0 0 1 47.714-12.982c.2-.038.4-.071.577-.1l.7-.116a280 280 0 0 1 44.037-3.487c5.4 0 10.756.148 16.037.457l.761.044c1.818.11 3.637.237 5.436.385.577.045 1.107.086 1.654.144 1.113.094 2.226.2 3.327.309h.034c44.25 4.457 81.657 19.863 93.635 43.931 9.272 18.592 4.476 56.578-25.457 85.984z" fill="url(#linear-gradient)"/><path id="tunnel" d="M1602.136 967.769l-61.065 34.075a146.236 146.236 0 0 1-15.882-1.262 131.583 131.583 0 0 1-58.558-22.641l48.677-9.962 6.682-1.365 2.5-.512 10.953-2.238c-5.465-55.481 13.518-83.691 32.669-78.792 4.144 1.052 8.295 3.67 12.2 7.89a57.061 57.061 0 0 1 9.333 14.326c.317.667.628 1.345.934 2.039q.693 1.559 1.349 3.223c.294.733.576 1.476.866 2.243q1.494 4.038 2.808 8.65c3.372 11.95 5.713 26.657 6.534 44.326z" fill="url(#linear-gradient-2)"/><g id="small_person"><ellipse id="Ellipse_10" data-name="Ellipse 10" cx="29.734" cy="6.755" rx="29.734" ry="6.755" transform="translate(1527.256 965.665)" fill="#f2e3ce" opacity=".692"/><path id="Path_116" data-name="Path 116" d="M1601.915 921.277l-15.565 5.438-1 1.652-.848-.479.842-1.653 1.285-35.473c5.93 6.413 11.308 16.53 15.286 30.515z" opacity=".797" fill="url(#linear-gradient-3)"/><path id="Path_117" data-name="Path 117" d="M1587.381 926.356l-1.031.359-.606 1a4.838 4.838 0 0 0-1.153-.045l.732-1.438.034-.953a2 2 0 0 1 2.024 1.077z" fill="url(#linear-gradient-4)"/><path id="Path_118" data-name="Path 118" class="cls-6" d="M1584.217 929.626s-3.494 3.792-5.5 3.5c-1.436-.209-4.612-2.441-6.261-3.7v-.026l2.035-2.243 2.363-.077a26.273 26.273 0 0 1 1.954 2.414l4.093-1.549s2.882-.727 3.667.171c.687.784-2.351 1.51-2.351 1.51z"/><path id="Path_119" data-name="Path 119" d="M1576.848 927.072a4.656 4.656 0 0 1-4.4 2.32h-.035c-.645-.485-1.066-.815-1.066-.815a75.512 75.512 0 0 1-3.5 10.67c-.052.126-5.88 1.1-5.88 1.1l-3.88-3.306c.94-3 3-9.919 3-9.919l3.325-2.2 2.883-3.774 1.377-.265.473.667c3.179 1.01 5.955 3.583 7.703 5.522z" fill="url(#linear-gradient-5)"/><path id="Path_120" data-name="Path 120" class="cls-6" d="M1572.388 919.375l-1.213.353-5.369-1.763 2.11-3.8 2.6-.463a6.452 6.452 0 0 1 1.107 1.019 4.3 4.3 0 0 1 .765 4.654z"/><path id="Path_121" data-name="Path 121" d="M1569.667 917.3c1.818 2.016-2.727 3.344-2.727 3.344l-.779-.38.2-.314a3.65 3.65 0 0 1-1.983-1.84 3.689 3.689 0 0 1 1.095-4.54 4.181 4.181 0 0 1 5.05.132 4.5 4.5 0 0 1-.76 1.217c.668 1.51-.577.915-.577.915-1.145-.365-.999.966.481 1.466z" fill="url(#linear-gradient-6)"/><path id="Path_122" data-name="Path 122" d="M1580.225 931.057c-6.03.864-4.611-5.334-11.258-9.12a14.938 14.938 0 0 0-1.646-.81 8.832 8.832 0 0 1 1.914.427l.392-.925a3.086 3.086 0 0 0 2.191-.6 2.28 2.28 0 0 0 .576-.65 12.317 12.317 0 0 1-4.814-2.364 3.47 3.47 0 0 1-1.126-3.962 1.958 1.958 0 0 0-.287.121 1.8 1.8 0 0 0-.2.1 5.259 5.259 0 0 0-.484.3 3.688 3.688 0 0 0-1.1 4.54 3.127 3.127 0 0 0 .173.3 1.652 1.652 0 0 0 .138.21.788.788 0 0 0 .052.077 1.579 1.579 0 0 0 .145.182 1.6 1.6 0 0 0 .161.187 3.244 3.244 0 0 0 .236.232l.248.2c.087.061.173.121.26.171a2.228 2.228 0 0 0 .265.138 2.809 2.809 0 0 0 .276.121l-.749 1.163a8.9 8.9 0 0 0-1.574.33c-.373.107-.741.232-1.1.375h-.034c-.364.143-.733.3-1.1.485l-.26.132a25.982 25.982 0 0 0-2.067 1.171c-.19.121-.375.242-.577.374a32.739 32.739 0 0 0-5.188 4.439c-.3.314-.576.628-.858.947-.473.551-.911 1.1-1.3 1.609a6.97 6.97 0 0 0-.387.551 13.383 13.383 0 0 0-.905 1.471c-1.308.086-3.563 1.654-2.944 2.2s2.393.182 4.5-1.25 4.128-5.345 7.691-6.673a26.454 26.454 0 0 1-1.4 5.345c-.116.314-.231.623-.352.926-.242.606-.484 1.184-.715 1.74-.115.282-.231.552-.346.821a8.85 8.85 0 0 1-.167.4c-.1.264-.213.551-.311.782a10.235 10.235 0 0 0-.911 4.469 2.184 2.184 0 0 0 0 .256.582.582 0 0 0 .041.264 2.6 2.6 0 0 1 .069.325s.04.154.063.232a4.829 4.829 0 0 0 .224.649c.047.116.093.227.151.342a7.285 7.285 0 0 0 .45.8c.074.121.161.242.247.363.092.133.2.265.3.391a11.607 11.607 0 0 0 .784.876c.086.094.184.188.282.282l.254.236-.26.711-.773 2.049-.242.623c-.363.931-.755 1.923-1.153 2.953-.126.319-.26.645-.386.975-.525 1.306-1.072 2.65-1.614 3.984-.4 1-.813 1.994-1.213 2.959l-.063.148a23.45 23.45 0 0 1-.328.8l-1.473 3.537-.322.783a183.221 183.221 0 0 1-1.153 2.716c-.064.149-.121.287-.174.419l-.277.661-.1.232c-.12.3-.189.457-.189.457s.363 5.51 1.732 5.675.945-4.7.945-4.7l.069-.132c0-.038.052-.094.08-.154.486-.921 2.1-3.978 4.145-7.891l.542-1.046c.191-.353.375-.711.577-1.1.253-.48.507-.976.767-1.472l.507-.964 1.395-2.447c.069-.126.133-.247.2-.374l1.251-2.419c.467-.9.934-1.8 1.385-2.683a2.165 2.165 0 0 1 .138.231c.1.166.191.325.283.5a23.231 23.231 0 0 1 1.032 2.134c.069.166.139.325.2.485l.19.48c.115.3.225.6.329.886s.155.441.225.656.109.33.161.485c.086.256.162.5.236.738.121.4.243.788.352 1.158v.085c.041.127.075.256.115.386s.1.325.145.479.091.292.132.427.046.138.063.2.087.256.127.38.075.226.116.331a5.3 5.3 0 0 0 .242.579l.069.126a1.174 1.174 0 0 0 .23.32.411.411 0 0 0 .145.1.355.355 0 0 0 .1 0c.738.033 2.969-2.756 2.174-3.18-.473-.236-1.534.854-1.534.854l-.035-.353v-.336a38.541 38.541 0 0 0-.132-1.1v-.171c0-.055-.029-.215-.046-.325a59.01 59.01 0 0 0-.328-2.049c-.07-.369-.139-.755-.22-1.152a.259.259 0 0 0 0-.055 46.1 46.1 0 0 0-1.262-4.959 9.099 9.099 0 0 0-.185-.55q-.19-.552-.4-1.1a15.45 15.45 0 0 0-.433-1.048c.577-1.184 1.153-2.3 1.655-3.306l.265-.551c.23-.474.449-.914.645-1.322a.063.063 0 0 0 0-.027l.364-.761c.069-.143.126-.276.189-.4.093-.21.18-.4.26-.551l.116-.265.086-.286c-.922-.915-2.761-2.055-6.226-2.2h-1.862l.577-.237c.467-.2.916-.408 1.348-.622 6.97-3.362 9.49-7.329 9.657-7.6s5.361 4.254 7.366 4.546a1.8 1.8 0 0 0 .232 0 1.467 1.467 0 0 0 .265 0 1.6 1.6 0 0 0 .282-.056 1.86 1.86 0 0 0 .294-.085 11.891 11.891 0 0 0 3.459-2.369l.173-.165.04-.039a27.1 27.1 0 0 1-3.212.656z" fill="url(#linear-gradient-7)"/></g><g id="main_body"><path id="Path_123" data-name="Path 123" d="M1524.483 966.1l10.953-2.237c-5.464-55.474 13.51-83.679 32.656-78.8l1.708-5.557-14.873-26.316s-42.642 24.591-39.613 114.783l6.669-1.366z" fill="#663a14"/><path id="Path_124" data-name="Path 124" d="M1613.455 862.621l-.156-.132q-1.2-.959-2.455-1.885l-.8-.584q-1.731-1.244-3.568-2.408l-1.153-.711c-.334-.2-.668-.407-1.009-.606l-.576-.346-1.055-.6c-.386-.219-.767-.418-1.153-.627-.646-.341-1.3-.683-1.96-1.009a7.892 7.892 0 0 0-1.061-.551c-.409-.17-.818-.363-1.233-.551q-1.419-.652-2.883-1.256l-.675-.275-.639-.256-.548-.215a47.393 47.393 0 0 0-1.458-.551q-1.176-.422-2.306-.794a44.2 44.2 0 0 0-15.824-2.475c-.606.022-1.181.066-1.758.126q-.3.028-.577.067a34.6 34.6 0 0 0-15.691 6.243h-.063a52.212 52.212 0 0 0-5.708 4.513l-.063.054c-25.468 23.187-29.025 70.771-27.094 108.79v.027l2.494-.512 10.953-2.237c-5.465-55.482 13.518-83.692 32.668-78.793 4.145 1.053 8.3 3.67 12.2 7.89a57.065 57.065 0 0 1 9.334 14.327q.476 1 .933 2.038.693 1.56 1.35 3.223c.293.733.576 1.477.866 2.243q1.494 4.038 2.807 8.65c3.384 11.95 5.725 26.658 6.543 44.329l-61.065 34.074q-6.081-.152-12.125-.808 6.03.66 12.1.824a158.609 158.609 0 0 0 23.744-1.212 191.123 191.123 0 0 0 30.726-6.337c1.776-.55 3.5-1.1 5.188-1.652a149.585 149.585 0 0 0 16.282-6.475c.726-.341 1.447-.682 2.165-1.036a127.948 127.948 0 0 0 21.687-13.355 113.966 113.966 0 0 0 10.624-9.219c-1.627-58.354-21.584-86.455-38.008-99.95z" fill="url(#linear-gradient-8)"/><path id="Path_125" data-name="Path 125" class="cls-6" d="M1651.433 961.394c0 .392.029.783.04 1.174a113.545 113.545 0 0 1-10.624 9.218 127.909 127.909 0 0 1-21.7 13.368c-.715.353-1.435.694-2.166 1.035.254-16.342-.433-36.874-3.867-56.532h.265a81.974 81.974 0 0 0 21.1-2.634 52.726 52.726 0 0 0 12.291-4.959v.033q.25 1.124.484 2.254c.052.237.1.479.149.716l.3 1.5v.039c.093.49.191.98.282 1.471.03.165.064.331.093.5l.052.292a1.129 1.129 0 0 0 0 .115l.087.524a.248.248 0 0 1 0 .086c.086.485.173.963.253 1.451v.1a.417.417 0 0 0 0 .072l.242 1.451a2.974 2.974 0 0 0 .063.44l.122.768a2.8 2.8 0 0 0 .058.386l.137.893c.035.27.076.55.116.81a.239.239 0 0 1 0 .066c.04.292.087.584.121.876.081.589.162 1.174.236 1.758v.143c.046.336.087.678.128 1.019l.12.97.052.457.035.287v.138c.034.309.064.612.1.915.04.385.086.768.127 1.156l.052.518v.221l.035.341c.034.381.069.768.109 1.146v.408a4.951 4.951 0 0 0 .046.513c.04.479.086.953.121 1.427l.034.413c.035.419.07.837.1 1.256q.114 1.438.2 2.86c.057.947.1 1.725.15 2.578 0 .392.047.778.064 1.169s.046.931.063 1.394a.8.8 0 0 0 0 .121q.057 1.536.1 3.058c.23.056.23.12.23.221z"/><path id="Path_126" data-name="Path 126" class="cls-6" d="M1589.174 850.863a14.941 14.941 0 0 1-3.078 4.634 30.863 30.863 0 0 1-6.918 5.312c-10.163 5.9-23.911 8.067-23.911 2.028l-1.153-28.222 13.154-21.914.335-.55.9-1.5 7.8-12.927 2.122 8.792a105.673 105.673 0 0 0 1.786 13.169c-.04.3-.086.6-.132.9-2.133 13.775 2.721 22.888 8.214 27.407.271.71.438 1.135.473 1.228z"/><path id="Path_127" data-name="Path 127" class="cls-6" d="M1568.187 851.668a29.377 29.377 0 0 1-19.318 6.06h-1.126a2.584 2.584 0 0 1-.512-.033 6.972 6.972 0 0 1-.842-.066 1.49 1.49 0 0 1-.231 0 5.574 5.574 0 0 1-.795-.086l-.5-.06a2.67 2.67 0 0 1-.455-.061c-.311-.043-.623-.085-.934-.143l-1-.176-.317-.067-.738-.153a1.758 1.758 0 0 1-.4-.086l-.876-.209h-.1a19.421 19.421 0 0 1-.918-.242 1.265 1.265 0 0 1-.357-.1c-.3-.086-.606-.177-.916-.276s-.715-.226-1.073-.347l-.132-.044c-.317-.11-.64-.221-.963-.341l-.83-.314c-.312-.122-.623-.243-.934-.374l-.305-.133a15.379 15.379 0 0 1-.911-.4 1.053 1.053 0 0 1-.122-.049 48.362 48.362 0 0 1-1.014-.474l-.121-.06c-.23-.1-.462-.221-.693-.342l-.576-.292a48.015 48.015 0 0 1-2.07-1.146l-.542-.319a19.462 19.462 0 0 1-.7-.427l-.87-.552-.94-.628a53.282 53.282 0 0 1-3.234-2.4c-.271-.221-.542-.441-.807-.666a52.915 52.915 0 0 1-5.932-5.836 46.938 46.938 0 0 1-11.3-23.594s-1.516-7.047 1.654-16.7a130.394 130.394 0 0 1 14.147-16.415c16.5-16.4 37.061-15.759 49.074.122 12.106 15.978 6.515 29.082 6.515 29.082 6.04 14.417 3.792 29.79-6.986 38.347z"/><path id="Path_128" data-name="Path 128" d="M1578.043 818.311c-4.479 5.829-1.732 6.948-5.079-2.932-9.188-27.1-12.827-11.372-8.612-.931a12.456 12.456 0 0 1-8.647-7.163c-14.376 11.2-43.979 15.119-51.179 13.643-.311-1.257 1.914-5.307 1.732-6.557 0 0-4.537-11.021 13.61-29.038 16.5-16.4 30.553-17.257 42.561-1.377 6.382 8.45 13.49 15.89 12.55 21.808z" fill="url(#linear-gradient-9)"/><path id="Path_129" data-name="Path 129" d="M1651.451 962.59c-2.606-93.372-52.125-109.28-58.916-112-5.09-2.029-11.016-8.089-12.584-18.239a38.033 38.033 0 0 1 .156-11.758c2.691-17.318-3.16-42.508-23.636-49.667s-41.153 6.6-49.3 24.745-.3 32.074-.3 32.074-7.4-33.815 29.026-32.351c29.912 1.2 36.046 20.938 36.253 36.362a74.668 74.668 0 0 1-2.219 18.42c-.236 1.29-2.749 8 9.224 10.624 62.471 13.731 61.681 110.983 61.681 110.983a113.752 113.752 0 0 0 10.615-9.193z" fill="url(#linear-gradient-10)"/><path id="Path_130" data-name="Path 130" d="M1555.226 862.842l-.224-5.487a33.674 33.674 0 0 1-5.656.418l-.375.066c-11.61 10.591-35.971 41.2-33.665 110.14l9.18-1.878c-.153-92.519 30.74-103.259 30.74-103.259z" fill="url(#linear-gradient-11)"/><path id="Path_131" data-name="Path 131" d="M1619.154 985.151c-.719.358-1.438.7-2.165 1.041a150.24 150.24 0 0 1-16.282 6.47c-1.688.555-3.412 1.1-5.187 1.656a191.711 191.711 0 0 1-30.728 6.333 157.716 157.716 0 0 1-23.747 1.213l61.065-34.075a155.54 155.54 0 0 1-.771 19.991c20.093-27.494 6.106-72.886 5.855-73.723a90.139 90.139 0 0 1 6.158 15.62 129.8 129.8 0 0 1 5.395 30.507c.52 9.585.598 17.882.407 24.967z" fill="url(#linear-gradient-12)"/></g></g></svg>