<svg xmlns="http://www.w3.org/2000/svg" viewBox="0 0 1416 1133">
    <defs>
        <linearGradient id="light_gradient" x1=".043" y1=".5" x2=".717" y2=".5" gradientUnits="objectBoundingBox">
            <stop offset="0" stop-color="#fff3d0" />
            <stop offset="1" stop-color="#fcfcfc" />
        </linearGradient>
        <linearGradient id="flashlight_handle_gradient" x1="1" y1=".5" x2=".364" y2=".5" gradientUnits="objectBoundingBox">
            <stop offset="0" stop-color="#fca12a" />
            <stop offset="1" stop-color="#f48b00" />
        </linearGradient>
    </defs>
    <path id="light" d="M2086.813 534.181c-30.894-9.38-51.654-38.147-50.572-69.545 1.023-29.7 21.4-55.893 50.572-64.715L3266.5-98v1133z" transform="translate(-1850 98)" fill="url(#light_gradient)" />
    <path id="flashlight_handle" d="M2086.326 467.051a771.763 771.763 0 0 1-2.917 67.613h-36.957l-55.434-39.6H1850v-55.058h141.018l55.434-39.6h36.957a772.933 772.933 0 0 1 2.917 66.645z" transform="translate(-1850 98)" fill="url(#flashlight_handle_gradient)" />
    <g class="toggle">
        <g id="toggle_body">
            <path id="toggle_body_color" d="M124 575.5h-20c-5.238 0-9.5-4.262-9.5-9.5s4.262-9.5 9.5-9.5h20c5.238 0 9.5 4.262 9.5 9.5s-4.262 9.5-9.5 9.5z" fill="#747373" />
            <path id="toggle_body_outline" d="M104 557c-4.963 0-9 4.037-9 9s4.037 9 9 9h20c4.963 0 9-4.037 9-9s-4.037-9-9-9h-20m0-1h20c5.523 0 10 4.477 10 10s-4.477 10-10 10h-20c-5.523 0-10-4.477-10-10s4.477-10 10-10z" fill="#fffcfc" />
        </g>
        <g id="toggle_button">
            <path class="toggle_button_outer" d="M104 558a8 8 0 1 1-8 8 8 8 0 0 1 8-8z" fill="#dedbdb" />
            <g class="toggle_button_inner" transform="translate(99 561)" fill="none" stroke="#fff">
                <circle cx="5" cy="5" r="5" stroke="none" />
                <circle cx="5" cy="5" r="4.5" />
            </g>
        </g>
    </g>
</svg>