<svg xmlns="http://www.w3.org/2000/svg" width="32" height="38">
    <path d="M4.6 3.9c.3-.3.6-.5 1-.5.3 0 .6.1.9.4.3.3.5.7.5 1.2 0 .3-.1.6-.3.8-.2.3-.6.5-1 .5-.2 0-.5-.1-.8-.3v-.1c-.6-.5-.7-1.4-.3-2zM15.2 4.4c-.4-.6-.3-1.4.2-1.9.2-.1.5-.2.7-.2.4 0 .9.2 1.2.7.2.3.3.6.3.9 0 .4-.2.8-.4 1.1-.2.1-.5.2-.7.2-.3 0-.6-.1-.8-.3-.3-.2-.4-.4-.5-.5zM3.4 30.5v.4c0 .6-.3 1.1-.9 1.3h-.1H2.1c-.3 0-.6-.1-.9-.3-.1-.1-.3-.2-.4-.4-.1-.2-.2-.3-.2-.5-.2-.7.2-1.4.8-1.6h.4c.8-.2 1.4.3 1.6 1.1z"/>
    <path d="M4.7 36.7c-3.2-5 2.3-23.1 12-26.2 0-.1-.1-.3-.1-.4 0-.7.5-1.3 1.2-1.3h.2c.4 0 .7.2.9.5.2.2.3.5.4.8 4.8-.7 10.5-.4 12.4 7.1 3.5 13.4-23.6 24.7-27 19.5zM9.4 1.8c-.2-.7.1-1.4.7-1.7h.5c.6 0 1.2.5 1.4 1.2v.3c0 .6-.3 1.1-.8 1.2h-.1-.4c-.3 0-.6-.1-.9-.3 0 0-.1-.2-.2-.3-.1-.1-.2-.3-.2-.4zM1.4 25.3c-.3 0-.6-.1-.8-.3-.2-.1-.3-.3-.4-.5-.1-.2-.2-.5-.2-.7 0-.7.5-1.3 1.1-1.4h.2c.4 0 .7.2.9.5.2.3.4.6.4 1.1 0 .7-.5 1.3-1.1 1.3h-.1zM.3 17v-.2c.1-.7.7-1.3 1.4-1.1h.1c.7.2 1.2.9 1.2 1.7-.1.7-.6 1.2-1.2 1.2h-.2-.1l-.6-.3C.5 18 .3 17.5.3 17zM1.6 10.5c0-.1 0-.3.1-.4.2-.7.9-1.1 1.6-.9.7.3 1.1 1.1.9 1.9-.2.7-.7 1-1.2 1-.1 0-.3 0-.4-.1-.1-.1-.2-.1-.3-.2-.5-.3-.7-.8-.7-1.3z"/>
</svg>