<svg xmlns="http://www.w3.org/2000/svg" width="32" height="32">
    <path d="M14.708 15.847C14.252 14.864 14 13.742 14 12.5s.252-2.489.708-3.659a10.976 10.976 0 0 1 1.929-3.205c.814-.938 1.784-1.723 2.86-2.271C20.574 2.814 21.758 2.5 23 2.5s2.426.252 3.503.707a9.02 9.02 0 0 1 4.789 4.79c.457 1.076.708 2.261.708 3.503a8.96 8.96 0 0 1-2.637 6.364C28.55 18.678 17.077 29.044 16 29.5c-1.077-.456-12.55-10.822-13.364-11.636A8.978 8.978 0 0 1 0 11.5a8.978 8.978 0 0 1 2.636-6.364A8.974 8.974 0 0 1 9 2.5c1.243 0 2.427.314 3.503.863 1.077.55 2.046 1.334 2.861 2.272a11.02 11.02 0 0 1 1.929 3.205c.455 1.171.707 2.418.707 3.66s-.252 2.364-.707 3.347a7.315 7.315 0 0 1-1.929 2.518"/>
</svg>