<svg id="Layer_1" 
    xmlns="http://www.w3.org/2000/svg" viewBox="0 0 807 173.4">
    <style>.st0{fill:#8b6c5b}.st1{opacity:.507}.st2{fill:none;stroke:#fff}.st3{fill:#fff}.st4{font-family:&apos;TamilSangamMN-Bold&apos;}.st5{font-size:30px}.st6{fill:#695544}</style>
    <g id="job_boxes" transform="translate(-93 -2619.324)">
        <g id="job_box_4">
            <path id="job_box_4-2" class="st0" d="M726 2619.3h159c8.3 0 15 6.7 15 15v143.4c0 8.3-6.7 15-15 15H726c-8.3 0-15-6.7-15-15v-143.4c0-8.3 6.7-15 15-15z"/>
            <g id="job_box_shapes_4" transform="translate(685 1113)" class="st1">
                <path id="Rectangle_16" class="st2" d="M194.6 1528.5l-2.9-23.2 23.4-2.8 2.9 23.2-23.4 2.8z"/>
                <g id="Group_534">
                    <path id="Rectangle_16-2" class="st2" d="M179.7 1538.5l-2.9-23.2 23.4-2.8 2.9 23.2-23.4 2.8z"/>
                    <path id="Rectangle_16-3" class="st2" d="M189.5 1544.5l-2.9-23.2 23.4-2.8 2.9 23.2-23.4 2.8z"/>
                </g>
            </g>
            <text transform="translate(752.954 2684.437)" class="st3 st4 st5">Conduct</text>
            <text transform="translate(727.443 2715.437)" class="st3 st4 st5">International</text>
            <text transform="translate(742.685 2746.437)" class="st3 st4 st5">Interviews</text>
        </g>
        <g id="job_box_3">
            <path id="job_box_3-2" class="st6" d="M520 2619.3h159c8.3 0 15 6.7 15 15v143.4c0 8.3-6.7 15-15 15H520c-8.3 0-15-6.7-15-15v-143.4c0-8.3 6.7-15 15-15z"/>
            <g id="job_box_shapes_3" transform="rotate(-106 1022.455 2115.178)" class="st1">
                <path id="Polygon_2" class="st2" d="M609.3 1636.6l27.5 10.4-24.9 18.5-2.6-28.9z"/>
                <path id="Polygon_2-2" class="st2" d="M599.3 1628.6l27.5 10.4-24.9 18.5-2.6-28.9z"/>
                <path id="Polygon_2-3" class="st2" d="M611.3 1623.6l27.5 10.4-24.9 18.5-2.6-28.9z"/>
            </g>
            <text transform="translate(575.466 2684.437)" class="st3 st4 st5">Job</text>
            <text transform="translate(548.696 2715.437)" class="st3 st4 st5">Shadow</text>
        </g>
        <g id="job_box_2">
            <path id="job_box_2-2" class="st0" d="M314 2619.3h159c8.3 0 15 6.7 15 15v143.4c0 8.3-6.7 15-15 15H314c-8.3 0-15-6.7-15-15v-143.4c0-8.3 6.7-15 15-15z"/>
            <g id="job_box_shapes_2" transform="translate(79 1087)" class="st1">
                <g id="Group_378-2" transform="translate(-1827 288.938)">
                    <path id="Path_479-2" class="st2" d="M2211.7 1235.2l9-14 16.2 2.1 7.1 16-9.1 13.9-16.2-2-7-16z"/>
                </g>
                <g id="Group_378-2-2" transform="translate(-1843 296.938)">
                    <path id="Path_479-2-2" class="st2" d="M2211.7 1235.2l9-14 16.2 2.1 7.1 16-9.1 13.9-16.2-2-7-16z"/>
                </g>
                <g id="Group_378-2-3" transform="translate(-1827 310.938)">
                    <path id="Path_479-2-3" class="st2" d="M2211.7 1235.2l9-14 16.2 2.1 7.1 16-9.1 13.9-16.2-2-7-16z"/>
                </g>
            </g>
            <text transform="translate(365.451 2684.437)" class="st3 st4 st5">Join</text>
            <text transform="translate(356.471 2715.437)" class="st3 st4 st5">Clubs</text>
        </g>
        <g id="job_box_1">
            <path id="job_box_1-2" class="st6" d="M108 2619.3h159c8.3 0 15 6.7 15 15v143.4c0 8.3-6.7 15-15 15H108c-8.3 0-15-6.7-15-15v-143.4c0-8.3 6.7-15 15-15z"/>
            <g id="job_box_shapes_1" transform="translate(65 1106)" class="st1">
                <path id="Rectangle_16-4" class="st2" d="M194.6 1528.5l-2.9-23.2 23.4-2.8 2.9 23.2-23.4 2.8z"/>
                <g id="Group_534-2">
                    <path id="Rectangle_16-5" class="st2" d="M179.7 1538.5l-2.9-23.2 23.4-2.8 2.9 23.2-23.4 2.8z"/>
                    <path id="Rectangle_16-6" class="st2" d="M189.5 1544.5l-2.9-23.2 23.4-2.8 2.9 23.2-23.4 2.8z"/>
                </g>
            </g>
            <text transform="translate(153.716 2684.437)" class="st3 st4 st5">Read</text>
            <text transform="translate(151.013 2715.437)" class="st3 st4 st5">about</text>
            <text transform="translate(161.333 2746.437)" class="st3 st4 st5">jobs</text>
        </g>
    </g>
</svg>