<svg xmlns="http://www.w3.org/2000/svg" viewBox="0 0 488 122">
    <defs>
        <clipPath id="a">
            <path data-name="Rectangle 2" fill="none" d="M0 0h8.832v8.844H0z"/>
        </clipPath>
        <clipPath id="b">
            <path data-name="Path 87" d="M158.486 935.118a5.081 5.081 0 0 0-1.257.4 3.352 3.352 0 0 0-.951.534 5.034 5.034 0 0 0-1.072 1.1 6.189 6.189 0 0 0-.509.887 7.717 7.717 0 0 0-.442 1.392 3.514 3.514 0 0 1-.137 1.193 7.8 7.8 0 0 0 0 1.481s0 .108.12 0l2.508-.248c.21 0 .186 0 .186-.222v-.814a4.251 4.251 0 0 1 .185-1.326 3.355 3.355 0 0 1 .489-.995 2.747 2.747 0 0 1 1.533-.93 4.276 4.276 0 0 1 1.185 0 2.664 2.664 0 0 1 2.026.951 2.306 2.306 0 0 1 .3.618 2.213 2.213 0 0 1 0 .888 1.684 1.684 0 0 1-.394.971l-.6.618-.766.732a8.517 8.517 0 0 0-.72.888 6.865 6.865 0 0 0-.693 1.32 6.167 6.167 0 0 0-.323 1.457 5.647 5.647 0 0 0 0 1.1v1.44c0 .287 0 .107.161.107l1.347-.132 1.234-.109c.138 0 .138 0 .138-.157a12.2 12.2 0 0 0-.188-1.594 3.233 3.233 0 0 1 .742-2.3l1.184-1.284a11.907 11.907 0 0 0 1.138-1.259 2.269 2.269 0 0 0 .3-.462 3.176 3.176 0 0 0 .371-1.728 5.071 5.071 0 0 0-.186-1.037 2.028 2.028 0 0 0-.3-.731 3.294 3.294 0 0 0-.51-.84 3.969 3.969 0 0 0-.743-.772 4.934 4.934 0 0 0-.7-.48c-.282-.156-.6-.288-.9-.42a5.075 5.075 0 0 0-.791-.24 8.852 8.852 0 0 0-1.319-.156h.094a7.879 7.879 0 0 0-1.628.157" transform="translate(-154.083 -934.966)" fill="none"/>
        </clipPath>
        <clipPath id="c">
            <path data-name="Path 86" d="M148.467 946.134l7.986-15.414 14.468 7.518-7.986 15.414z" transform="translate(-148.467 -930.72)" fill="none"/>
        </clipPath>
        <clipPath id="d">
            <path data-name="Path 89" d="M161.962 950.057l-2.407.247a4.22 4.22 0 0 0 .156 1.374l.132 1.349s0 .108.108 0l2.383-.223c.108 0 .108 0 0-.132l-.223-2.52z" transform="translate(-159.549 -950.057)" fill="none"/>
        </clipPath>
        <clipPath id="e">
            <path data-name="Path 88" d="M158.183 952.554l1.91-3.689 3.566 1.853-1.91 3.689z" transform="translate(-158.183 -948.865)" fill="none"/>
        </clipPath>
    </defs>
    <g transform="translate(.001 1)">
        <ellipse data-name="Ellipse 212" cx="59.878" cy="59.961" rx="59.878" ry="59.961" fill="#fff"/>
        <g data-name="Group 329">
            <g data-name="Layer 1-2">
                <path data-name="Path 359" d="M12.969 60.066a46.272 46.272 0 1 0 0-.006v.006" fill="#fca12a"/>
                <path data-name="Path 360" d="M50.098 95.188l20.058 9.679a45.475 45.475 0 0 0 33.51-32.464L80.987 36.984z" fill="#cc7b1b"/>
                <path data-name="Path 361" d="M25.019 63.1v.684a1.159 1.159 0 0 0 0-.2q2.125-6.279 4.25-12.583c.914-2.716 1.68-5.469 2.774-8.12a28.559 28.559 0 0 1 31.342-17.214 29.14 29.14 0 0 1 24.313 26.484 27.768 27.768 0 0 1-1.138 10.494 28.754 28.754 0 0 1-11.835 15.884 2.24 2.24 0 0 0-1.094 2.063l.007 13.44-24.31.014V83.187a2.212 2.212 0 0 0-1.93-2.428 1.858 1.858 0 0 0-.521.025l-12.089.006c-.72 0-.929-.137-.929-.857l-.008-14.588a2.186 2.186 0 0 0-2.109-2.254.975.975 0 0 0-.132.006h-4.886a4.587 4.587 0 0 1-.575 0" fill="#fff"/>
                <g data-name="Group 283">
                    <g data-name="Group 12">
                        <g data-name="Group 11" clip-path="url(#a)" transform="translate(40.474 49.818)">
                            <g data-name="Group 282">
                                <g data-name="Group 281">
                                    <g data-name="Group 280">
                                        <g data-name="Group 10">
                                            <g data-name="Group 9">
                                                <g data-name="Group 279" clip-path="url(#a)">
                                                    <g data-name="Group 278">
                                                        <path data-name="Path 362" d="M-.002.002H8.83v8.845l-8.832.006z" fill="#d6d1c1"/>
                                                    </g>
                                                </g>
                                            </g>
                                        </g>
                                    </g>
                                </g>
                            </g>
                        </g>
                    </g>
                </g>
                <g data-name="Group 289">
                    <g data-name="Group 16">
                        <g data-name="Group 15" clip-path="url(#a)" transform="translate(53.715 29.904)">
                            <g data-name="Group 288">
                                <g data-name="Group 287">
                                    <g data-name="Group 286">
                                        <g data-name="Group 14">
                                            <g data-name="Group 13">
                                                <g data-name="Group 285" clip-path="url(#a)">
                                                    <g data-name="Group 284">
                                                        <path data-name="Path 363" d="M7.649-.367l.84 4.56.866 4.58-4.372-1.544L.61 5.678l3.508-3.006z" fill="#d6d1c1"/>
                                                    </g>
                                                </g>
                                            </g>
                                        </g>
                                    </g>
                                </g>
                            </g>
                        </g>
                    </g>
                </g>
                <g data-name="Group 295">
                    <g data-name="Group 20">
                        <g data-name="Group 19" clip-path="url(#a)" transform="translate(40.467 36.55)">
                            <g data-name="Group 294">
                                <g data-name="Group 293">
                                    <g data-name="Group 292">
                                        <g data-name="Group 18">
                                            <g data-name="Group 17">
                                                <g data-name="Group 291" clip-path="url(#a)">
                                                    <g data-name="Group 290">
                                                        <path data-name="Path 364" d="M1.979 9.301l-2.5-3.759 2.01-4.049 4.5-.266L8.47 4.986 6.46 9.034z" fill="#d6d1c1"/>
                                                    </g>
                                                </g>
                                            </g>
                                        </g>
                                    </g>
                                </g>
                            </g>
                        </g>
                    </g>
                </g>
                <g data-name="Group 301">
                    <g data-name="Group 24">
                        <g data-name="Group 23" clip-path="url(#a)" transform="translate(55.942 63.079)">
                            <g data-name="Group 300">
                                <g data-name="Group 299">
                                    <g data-name="Group 298">
                                        <g data-name="Group 22">
                                            <g data-name="Group 21">
                                                <g data-name="Group 297" clip-path="url(#a)">
                                                    <g data-name="Group 296">
                                                        <path data-name="Path 365" d="M8.182-1.249l.512 4.641.506 4.67-4.283-1.9L.653 4.287l3.777-2.76z" fill="#d6d1c1"/>
                                                    </g>
                                                </g>
                                            </g>
                                        </g>
                                    </g>
                                </g>
                            </g>
                        </g>
                    </g>
                </g>
                <g data-name="Group 307">
                    <g data-name="Group 28">
                        <g data-name="Group 27" clip-path="url(#a)" transform="translate(69.185 47.59)">
                            <g data-name="Group 306">
                                <g data-name="Group 305">
                                    <g data-name="Group 304">
                                        <g data-name="Group 26">
                                            <g data-name="Group 25">
                                                <g data-name="Group 303" clip-path="url(#a)">
                                                    <g data-name="Group 302">
                                                        <path data-name="Path 366" d="M2.032 8.851L-.509 4.44 2.028 0h5.113l2.535 4.44-2.531 4.414z" fill="#d6d1c1"/>
                                                    </g>
                                                </g>
                                            </g>
                                        </g>
                                    </g>
                                </g>
                            </g>
                        </g>
                    </g>
                </g>
                <g data-name="Group 314">
                    <g data-name="Group 313">
                        <g data-name="Group 32">
                            <g data-name="Group 31" clip-path="url(#a)" transform="translate(69.177 34.32)">
                                <g data-name="Group 312">
                                    <g data-name="Group 311">
                                        <g data-name="Group 310">
                                            <g data-name="Group 30">
                                                <g data-name="Group 29">
                                                    <g data-name="Group 309" clip-path="url(#a)">
                                                        <g data-name="Group 308">
                                                            <path data-name="Path 367" d="M-.344 8.292L1.076.433l7.847 1.421-1.418 7.86z" fill="#d6d1c1"/>
                                                        </g>
                                                    </g>
                                                </g>
                                            </g>
                                        </g>
                                    </g>
                                </g>
                            </g>
                        </g>
                    </g>
                </g>
                <path data-name="Path 368" d="M67.925 41.169l1.419-7.86 7.849 1.422-1.419 7.859z" fill="#fca12a"/>
                <path data-name="Path 369" d="M41.541 44.9l-2.5-3.759 2.009-4.048 4.5-.267 2.475 3.759-2 4.049z" fill="#ef5656"/>
                <path data-name="Path 370" d="M60.328 28.434l.84 4.56.865 4.574-4.372-1.544-4.395-1.548 3.531-3.03z" fill="#1cc0d9"/>
                <path data-name="Path 371" d="M40.472 49.82h8.832v8.845l-8.832.006z" fill="#fca12a"/>
                <path data-name="Path 372" d="M63.854 60.924l.494 4.666.506 4.64-4.268-1.9-4.283-1.875 3.778-2.76z" fill="#1cc0d9"/>
                <path data-name="Path 373" d="M70.643 56.442l-2.56-4.44 2.554-4.414h5.114L78.286 52l-2.53 4.44z" fill="#ef5656"/>
                <g data-name="Group 321">
                    <g data-name="Group 320">
                        <g data-name="Group 36">
                            <g data-name="Group 35" clip-path="url(#b)" transform="translate(53.081 40.966)">
                                <g data-name="Group 319">
                                    <g data-name="Group 318">
                                        <g data-name="Group 317">
                                            <g data-name="Group 34">
                                                <g data-name="Group 33" clip-path="url(#c)" transform="translate(-5.615 -4.246)">
                                                    <g data-name="Group 316">
                                                        <g data-name="Group 315" transform="translate(-.378 -.185)">
                                                            <path data-name="Path 374" d="M0 .012L22.089 0l.012 22.12-22.089.012z" fill="#b0afb0"/>
                                                            <ellipse data-name="Ellipse 213" cx="6.12" cy="6.128" rx="6.12" ry="6.128" transform="translate(5.077 4.99)" fill="#b0afb0"/>
                                                            <ellipse data-name="Ellipse 214" cx="5.167" cy="5.174" rx="5.167" ry="5.174" transform="translate(6.03 5.943)" fill="#b0afb0"/>
                                                            <ellipse data-name="Ellipse 215" cx="4.221" cy="4.228" rx="4.221" ry="4.228" transform="translate(6.976 6.889)" fill="#b0afb0"/>
                                                            <ellipse data-name="Ellipse 216" cx="4.107" cy="4.114" rx="4.107" ry="4.114" transform="translate(7.09 7.003)" fill="#aeaeae"/>
                                                            <ellipse data-name="Ellipse 217" cx="4.017" cy="4.024" rx="4.017" ry="4.024" transform="translate(7.18 7.093)" fill="#adadad"/>
                                                            <ellipse data-name="Ellipse 218" cx="3.909" cy="3.916" rx="3.909" ry="3.916" transform="translate(7.288 7.201)" fill="#acacac"/>
                                                            <ellipse data-name="Ellipse 219" cx="3.797" cy="3.802" rx="3.797" ry="3.802" transform="translate(7.4 7.315)" fill="#ababab"/>
                                                            <ellipse data-name="Ellipse 220" cx="3.713" cy="3.718" rx="3.713" ry="3.718" transform="translate(7.484 7.399)" fill="#aaa"/>
                                                            <ellipse data-name="Ellipse 221" cx="3.599" cy="3.604" rx="3.599" ry="3.604" transform="translate(7.598 7.513)" fill="#a9a9a9"/>
                                                            <ellipse data-name="Ellipse 222" cx="3.491" cy="3.496" rx="3.491" ry="3.496" transform="translate(7.706 7.621)" fill="#a8a7a8"/>
                                                            <circle data-name="Ellipse 223" cx="3.401" cy="3.401" r="3.401" transform="translate(7.796 7.716)" fill="#a7a6a7"/>
                                                            <circle data-name="Ellipse 224" cx="3.294" cy="3.294" r="3.294" transform="translate(7.904 7.824)" fill="#a6a5a5"/>
                                                            <circle data-name="Ellipse 225" cx="3.18" cy="3.18" r="3.18" transform="translate(8.017 7.938)" fill="#a5a4a4"/>
                                                            <circle data-name="Ellipse 226" cx="3.09" cy="3.09" r="3.09" transform="translate(8.107 8.027)" fill="#a4a3a3"/>
                                                            <circle data-name="Ellipse 227" cx="2.982" cy="2.982" r="2.982" transform="translate(8.215 8.135)" fill="#a3a2a2"/>
                                                            <circle data-name="Ellipse 228" cx="2.874" cy="2.874" r="2.874" transform="translate(8.323 8.243)" fill="#a2a1a1"/>
                                                            <circle data-name="Ellipse 229" cx="2.784" cy="2.784" r="2.784" transform="translate(8.413 8.333)" fill="#a1a0a0"/>
                                                            <circle data-name="Ellipse 230" cx="2.671" cy="2.671" r="2.671" transform="translate(8.527 8.447)" fill="#a09f9f"/>
                                                            <circle data-name="Ellipse 231" cx="2.563" cy="2.563" r="2.563" transform="translate(8.634 8.555)" fill="#9f9e9e"/>
                                                            <circle data-name="Ellipse 232" cx="2.473" cy="2.473" r="2.473" transform="translate(8.724 8.644)" fill="#9e9d9d"/>
                                                            <circle data-name="Ellipse 233" cx="2.365" cy="2.365" r="2.365" transform="translate(8.832 8.752)" fill="#9d9c9c"/>
                                                            <circle data-name="Ellipse 234" cx="2.251" cy="2.251" r="2.251" transform="translate(8.946 8.866)" fill="#9c9b9b"/>
                                                            <circle data-name="Ellipse 235" cx="2.161" cy="2.161" r="2.161" transform="translate(9.036 8.956)" fill="#9b9a9b"/>
                                                            <circle data-name="Ellipse 236" cx="2.054" cy="2.054" r="2.054" transform="translate(9.144 9.064)" fill="#9a999a"/>
                                                            <circle data-name="Ellipse 237" cx="1.946" cy="1.946" r="1.946" transform="translate(9.251 9.171)" fill="#999"/>
                                                            <circle data-name="Ellipse 238" cx="1.856" cy="1.856" r="1.856" transform="translate(9.341 9.261)" fill="#989898"/>
                                                            <circle data-name="Ellipse 239" cx="1.742" cy="1.742" r="1.742" transform="translate(9.455 9.375)" fill="#979797"/>
                                                            <circle data-name="Ellipse 240" cx="1.66" cy="1.66" r="1.66" transform="translate(9.538 9.457)" fill="#969696"/>
                                                            <circle data-name="Ellipse 241" cx="1.546" cy="1.546" r="1.546" transform="translate(9.652 9.571)" fill="#959595"/>
                                                            <circle data-name="Ellipse 242" cx="1.438" cy="1.438" r="1.438" transform="translate(9.76 9.679)" fill="#949494"/>
                                                            <circle data-name="Ellipse 243" cx="1.349" cy="1.349" r="1.349" transform="translate(9.85 9.769)" fill="#939393"/>
                                                            <circle data-name="Ellipse 244" cx="1.241" cy="1.241" r="1.241" transform="translate(9.956 9.877)" fill="#929292"/>
                                                            <circle data-name="Ellipse 245" cx="1.127" cy="1.127" r="1.127" transform="translate(10.07 9.99)" fill="#919191"/>
                                                            <circle data-name="Ellipse 246" cx="1.037" cy="1.037" r="1.037" transform="translate(10.16 10.08)" fill="#919090"/>
                                                            <circle data-name="Ellipse 247" cx=".929" cy=".929" r=".929" transform="translate(10.268 10.188)" fill="#909090"/>
                                                            <circle data-name="Ellipse 248" cx=".815" cy=".815" r=".815" transform="translate(10.382 10.302)" fill="#8f8f8f"/>
                                                            <circle data-name="Ellipse 249" cx=".731" cy=".731" r=".731" transform="translate(10.466 10.386)" fill="#8e8e8e"/>
                                                            <circle data-name="Ellipse 250" cx=".617" cy=".617" r=".617" transform="translate(10.58 10.5)" fill="#8d8d8d"/>
                                                            <circle data-name="Ellipse 251" cx=".509" cy=".509" r=".509" transform="translate(10.688 10.608)" fill="#8c8c8c"/>
                                                            <circle data-name="Ellipse 252" cx=".42" cy=".42" r=".42" transform="translate(10.778 10.698)" fill="#8b8b8b"/>
                                                            <circle data-name="Ellipse 253" cx=".312" cy=".312" r=".312" transform="translate(10.885 10.806)" fill="#8b8a8a"/>
                                                            <path data-name="Path 375" d="M11.371 11.207a.195.195 0 0 1-.27-.281v-.006a.216.216 0 0 1 .264 0 .2.2 0 0 1 0 .282z" fill="#8a8a8a"/>
                                                            <circle data-name="Ellipse 254" cx=".108" cy=".108" r=".108" transform="translate(11.089 11.009)" fill="#898989"/>
                                                        </g>
                                                    </g>
                                                </g>
                                            </g>
                                        </g>
                                    </g>
                                </g>
                            </g>
                        </g>
                    </g>
                </g>
                <g data-name="Group 328">
                    <g data-name="Group 327">
                        <g data-name="Group 40">
                            <g data-name="Group 39" clip-path="url(#d)" transform="translate(58.547 56.057)">
                                <g data-name="Group 326">
                                    <g data-name="Group 325">
                                        <g data-name="Group 324">
                                            <g data-name="Group 38">
                                                <g data-name="Group 37" clip-path="url(#e)" transform="translate(-1.366 -1.192)">
                                                    <g data-name="Group 323">
                                                        <g data-name="Group 322" transform="translate(.821 -.629)">
                                                            <path data-name="Path 378" d="M.142 0h4.419v6.638H.142z" fill="#b0afb0"/>
                                                            <circle data-name="Ellipse 255" cx="1.898" cy="1.898" r="1.898" transform="translate(0 1.518)" fill="#b0afb0"/>
                                                            <circle data-name="Ellipse 256" cx="1.594" cy="1.594" r="1.594" transform="translate(.305 1.823)" fill="#b0afb0"/>
                                                            <circle data-name="Ellipse 257" cx="1.307" cy="1.307" r="1.307" transform="translate(.593 2.111)" fill="#b0afb0"/>
                                                            <circle data-name="Ellipse 258" cx="1.283" cy="1.283" r="1.283" transform="translate(.616 2.134)" fill="#aeaeae"/>
                                                            <circle data-name="Ellipse 259" cx="1.241" cy="1.241" r="1.241" transform="translate(.658 2.176)" fill="#adadad"/>
                                                            <circle data-name="Ellipse 260" cx="1.217" cy="1.217" r="1.217" transform="translate(.682 2.2)" fill="#acacac"/>
                                                            <circle data-name="Ellipse 261" cx="1.175" cy="1.175" r="1.175" transform="translate(.724 2.242)" fill="#ababab"/>
                                                            <circle data-name="Ellipse 262" cx="1.151" cy="1.151" r="1.151" transform="translate(.748 2.266)" fill="#aaa"/>
                                                            <circle data-name="Ellipse 263" cx="1.103" cy="1.103" r="1.103" transform="translate(.796 2.314)" fill="#a9a9a9"/>
                                                            <circle data-name="Ellipse 264" cx="1.085" cy="1.085" r="1.085" transform="translate(.814 2.332)" fill="#a8a7a8"/>
                                                            <circle data-name="Ellipse 265" cx="1.061" cy="1.061" r="1.061" transform="translate(.838 2.356)" fill="#a7a6a7"/>
                                                            <circle data-name="Ellipse 266" cx="1.019" cy="1.019" r="1.019" transform="translate(.88 2.398)" fill="#a6a5a5"/>
                                                            <circle data-name="Ellipse 267" cx=".995" cy=".995" r=".995" transform="translate(.904 2.422)" fill="#a5a4a4"/>
                                                            <circle data-name="Ellipse 268" cx=".953" cy=".953" r=".953" transform="translate(.946 2.464)" fill="#a4a3a3"/>
                                                            <circle data-name="Ellipse 269" cx=".929" cy=".929" r=".929" transform="translate(.97 2.488)" fill="#a3a2a2"/>
                                                            <circle data-name="Ellipse 270" cx=".887" cy=".887" r=".887" transform="translate(1.012 2.53)" fill="#a2a1a1"/>
                                                            <circle data-name="Ellipse 271" cx=".863" cy=".863" r=".863" transform="translate(1.036 2.554)" fill="#a1a0a0"/>
                                                            <circle data-name="Ellipse 272" cx=".815" cy=".815" r=".815" transform="translate(1.084 2.602)" fill="#a09f9f"/>
                                                            <circle data-name="Ellipse 273" cx=".797" cy=".797" r=".797" transform="translate(1.102 2.62)" fill="#9f9e9e"/>
                                                            <circle data-name="Ellipse 274" cx=".773" cy=".773" r=".773" transform="translate(1.126 2.644)" fill="#9e9d9d"/>
                                                            <circle data-name="Ellipse 275" cx=".731" cy=".731" r=".731" transform="translate(1.168 2.686)" fill="#9d9c9c"/>
                                                            <circle data-name="Ellipse 276" cx=".707" cy=".707" r=".707" transform="translate(1.192 2.71)" fill="#9c9b9b"/>
                                                            <circle data-name="Ellipse 277" cx=".665" cy=".665" r=".665" transform="translate(1.234 2.752)" fill="#9b9a9b"/>
                                                            <circle data-name="Ellipse 278" cx=".641" cy=".641" r=".641" transform="translate(1.258 2.776)" fill="#9a999a"/>
                                                            <circle data-name="Ellipse 279" cx=".599" cy=".599" r=".599" transform="translate(1.3 2.818)" fill="#999"/>
                                                            <circle data-name="Ellipse 280" cx=".575" cy=".575" r=".575" transform="translate(1.324 2.842)" fill="#989898"/>
                                                            <circle data-name="Ellipse 281" cx=".533" cy=".533" r=".533" transform="translate(1.366 2.884)" fill="#979797"/>
                                                            <circle data-name="Ellipse 282" cx=".509" cy=".509" r=".509" transform="translate(1.39 2.908)" fill="#969696"/>
                                                            <circle data-name="Ellipse 283" cx=".485" cy=".485" r=".485" transform="translate(1.414 2.932)" fill="#959595"/>
                                                            <circle data-name="Ellipse 284" cx=".444" cy=".444" r=".444" transform="translate(1.456 2.973)" fill="#949494"/>
                                                            <circle data-name="Ellipse 285" cx=".42" cy=".42" r=".42" transform="translate(1.48 2.998)" fill="#939393"/>
                                                            <circle data-name="Ellipse 286" cx=".378" cy=".378" r=".378" transform="translate(1.52 3.039)" fill="#929292"/>
                                                            <circle data-name="Ellipse 287" cx=".354" cy=".354" r=".354" transform="translate(1.544 3.063)" fill="#919191"/>
                                                            <circle data-name="Ellipse 288" cx=".312" cy=".312" r=".312" transform="translate(1.586 3.105)" fill="#919090"/>
                                                            <circle data-name="Ellipse 289" cx=".288" cy=".288" r=".288" transform="translate(1.61 3.129)" fill="#909090"/>
                                                            <circle data-name="Ellipse 290" cx=".264" cy=".264" r=".264" transform="translate(1.634 3.153)" fill="#8f8f8f"/>
                                                            <circle data-name="Ellipse 291" cx=".222" cy=".222" r=".222" transform="translate(1.676 3.195)" fill="#8e8e8e"/>
                                                            <circle data-name="Ellipse 292" cx=".198" cy=".198" r=".198" transform="translate(1.7 3.219)" fill="#8d8d8d"/>
                                                            <circle data-name="Ellipse 293" cx=".156" cy=".156" r=".156" transform="translate(1.742 3.261)" fill="#8c8c8c"/>
                                                            <circle data-name="Ellipse 294" cx=".132" cy=".132" r=".132" transform="translate(1.766 3.285)" fill="#8b8b8b"/>
                                                            <circle data-name="Ellipse 295" cx=".09" cy=".09" r=".09" transform="translate(1.808 3.327)" fill="#8b8a8a"/>
                                                        </g>
                                                    </g>
                                                </g>
                                            </g>
                                        </g>
                                    </g>
                                </g>
                            </g>
                        </g>
                    </g>
                </g>
                <path data-name="Path 383" d="M60.106.077A59.961 59.961 0 1 0 119.998 60.1V60A59.932 59.932 0 0 0 60.104.071m-.919 113.088a53.081 53.081 0 1 1 52.98-53.179v.072a53.048 53.048 0 0 1-52.98 53.107" fill="#fca12a"/>
            </g>
        </g>
    </g>
    <g data-name="There are great options available to you and the CSUN Career Center can help you explore different opportunities. Check out CareerLink to get started" font-size="20">
        <text data-name="There are great options available to you" transform="translate(151.625 15)" font-family="TamilSangamMN-Bold, Tamil Sangam MN" font-weight="700">
            <tspan x="0" y="0">There are great options available to you</tspan>
        </text>
        <text data-name="and the CSUN Career Center can help" transform="translate(151.625 35)" font-family="TamilSangamMN-Bold, Tamil Sangam MN" font-weight="700">
            <tspan x="0" y="0">and the CSUN Career Center can help</tspan>
        </text>
        <text data-name="you explore different opportunities." transform="translate(151.625 55)" font-family="TamilSangamMN-Bold, Tamil Sangam MN" font-weight="700">
            <tspan x="0" y="0">you explore different opportunities.</tspan>
        </text>
        <text data-name="Check out CareerLink to get started in" transform="translate(151.625 95)" font-family="TamilSangamMN, Tamil Sangam MN">
            <tspan x="0" y="0">Check out CareerLink to get started in</tspan>
        </text>
        <text data-name="your Self-Knowledge path!" transform="translate(151.625 115)" font-family="TamilSangamMN, Tamil Sangam MN">
            <tspan x="0" y="0">your Self-Knowledge path!</tspan>
        </text>
    </g>
</svg>