<svg xmlns="http://www.w3.org/2000/svg" width="124.295" height="112.11" viewBox="0 0 124.295 112.11">
    <path data-name="Path 140" d="M118.974 43.907l-9.75 35.718a6 6 0 0 1-4.511 4.212L42.389 98.01a7.1 7.1 0 0 1-7.315-2.758L8.417 57.652a5.434 5.434 0 0 1-.927-4.205l8.01-39.965a5.632 5.632 0 0 1 5.876-4.401l52.688 2.812a21.624 21.624 0 0 1 11.198 3.83l31.27 21.736a5.991 5.991 0 0 1 2.451 6.45z" fill="#cc7b1b"/>
    <path data-name="Path 141" d="M118.67 40.02l-66.565 4.486a4.131 4.131 0 0 1-3.266-1.273l-31.14-33.081a5.882 5.882 0 0 1 3.693-1.074l52.687 2.812a21.631 21.631 0 0 1 11.2 3.831l31.27 21.736a6.121 6.121 0 0 1 2.122 2.563z" fill="#fca12a"/>
</svg>