<svg xmlns="http://www.w3.org/2000/svg" width="68.747" height="57.302">
    <defs>
        <clipPath id="a">
            <path fill="none" d="M0 0h68.747v57.302H0z"/>
        </clipPath>
    </defs>
    <g data-name="Group 567">
        <g data-name="Group 566">
            <g clip-path="url(#a)">
                <g data-name="shape_group_top">
                    <path d="M20.364 47.99L5.734 41.7l6.185-14.762 14.63 6.29z" fill="#fca12a"/>
                    <path d="M52.518 57.166l-3.604-18.587 18.553 7.218z" fill="#1cc0d9"/>
                    <path d="M40.241 34.652l7.86 8.327-3.877 10.706L32.501 56l-7.796-8.338 3.859-10.703z" fill="#ef5656"/>
                    <path d="M64.295 28.87l-13.308 8.72-8.67-13.471 13.308-8.72z" fill="#fca12a"/>
                    <path d="M23.848 12.263L18.993 22.64l-11.295.151-6.37-10.234L6.216 2.24l11.286-.167z" fill="#ef5656"/>
                    <path d="M39.585 29.298l-18.264-4.285 14.025-14.168z" fill="#1cc0d9"/>
                </g>
            </g>
            <g data-name="shape_group_top">
                <path data-name="square_bottom" d="M20.365 47.99L5.735 41.7l6.185-14.762 14.63 6.29z" fill="#fca12a"/>
                <path data-name="triangle_bottom" d="M52.519 57.166l-3.604-18.587 18.553 7.218z" fill="#1cc0d9"/>
                <path data-name="hex_bottom" d="M40.242 34.652l7.86 8.327-3.877 10.706L32.502 56l-7.796-8.338 3.859-10.703z" fill="#ef5656"/>
                <path data-name="square_top" d="M64.296 28.87l-13.308 8.72-8.67-13.471 13.308-8.72z" fill="#fca12a"/>
                <path data-name="hex_top" d="M23.85 12.263L18.993 22.64 7.7 22.79 1.33 12.557 6.217 2.24l11.286-.167z" fill="#ef5656"/>
                <path data-name="triangle_top" d="M39.586 29.298l-18.264-4.285 14.025-14.168z" fill="#1cc0d9"/>
            </g>
        </g>
    </g>
</svg>