<svg xmlns="http://www.w3.org/2000/svg" xmlns:xlink="http://www.w3.org/1999/xlink" width="68.747" height="57.302"><defs><linearGradient id="a" x1="-100.42" y1="-175.709" x2="-100.42" y2="-175.745" gradientUnits="objectBoundingBox"><stop offset="0" stop-color="#fca12a"/><stop offset="1" stop-color="#f28a00"/></linearGradient><linearGradient id="c" x1="-129.535" y1="-202.608" x2="-129.535" y2="-202.65" gradientUnits="objectBoundingBox"><stop offset="0" stop-color="#1cc0d9"/><stop offset="1" stop-color="#00a8c3"/></linearGradient><linearGradient id="b" x1="-97.356" y1="-193.627" x2="-97.356" y2="-193.678" gradientUnits="objectBoundingBox"><stop offset="0" stop-color="#ef5656"/><stop offset="1" stop-color="#d50101"/></linearGradient><linearGradient id="d" x1="-115.521" y1="-185.025" x2="-115.521" y2="-185.063" xlink:href="#a"/><linearGradient id="e" x1="-102.056" y1="-168.962" x2="-102.056" y2="-168.998" xlink:href="#b"/><linearGradient id="f" x1="-140.915" y1="-211.615" x2="-140.915" y2="-211.657" xlink:href="#c"/></defs><path data-name="Rectangle 15" d="M2170.164 1247.624l13.612 8.266-8.179 13.757-13.612-8.266z" transform="rotate(172 1137.208 572.643)" fill="url(#a)"/><path data-name="Polygon 1" d="M2194.6 1201.063l.982 18.908-17.368-9.73z" transform="rotate(172 1163.554 554.22)" fill="url(#c)"/><path data-name="Path 479" d="M2163.624 1240.066l-6.624-9.339 5.329-10.063 11.931-.661 6.56 9.342-5.311 10.062z" transform="rotate(172 1144.079 563.119)" fill="url(#b)"/><path data-name="Rectangle 16" d="M2206 1219.445l14.392-6.783 6.711 14.546-14.392 6.783z" transform="rotate(172 1176.774 549.276)" fill="url(#d)"/><path data-name="Path 479-2" d="M2211.741 1253.519l6.252-9.6 11.206 1.422 4.885 11.021-6.278 9.537-11.2-1.405z" transform="rotate(172 1161.194 556.395)" fill="url(#e)"/><path data-name="Polygon 2" d="M2191.528 1263.46l17.49 6.785-15.86 12.078z" transform="rotate(172 1158.708 571.14)" fill="url(#f)"/></svg>