<svg xmlns="http://www.w3.org/2000/svg" width="81.585" height="101.107" viewBox="0 0 81.585 101.107">
    <path d="M12.37 65.453L-.797 56.488 8.088 43.17l13.169 8.965z" fill="#fca12a"/>
    <path d="M47.65 84.58l1.658-18.861L65.153 77.77z" fill="#1cc0d9"/>
    <path d="M34.432 56.153l6.132 9.674-5.847 9.776-11.954.04-6.067-9.674 5.829-9.776z" fill="#ef5656"/>
    <path d="M8.156 87.16l5.235-18.014 13.414 14.747z" fill="#1cc0d9"/>
    <path d="M45.49 94.775L29.625 95.95 28.57 79.965l15.867-1.175zM59.138 55.087l-14.73 6.028-5.948-14.88 14.73-6.028z" fill="#fca12a"/>
    <path d="M22.59 31.058l-6.744 9.265L4.725 38.32.418 27.056l6.768-9.201L18.3 19.841z" fill="#ef5656"/>
    <path d="M34.792 50.772l-17.12-7.688 16.473-11.24z" fill="#1cc0d9"/>
    <path data-name="hex_middle_1" d="M73.853 53.078l7.41 8.725-4.432 10.486-11.826 1.697-7.347-8.734 4.415-10.484z" fill="#ef5656"/>
    <path d="M51.917 16.486l9.185 6.835-1.958 11.216-11.142 4.315-9.125-6.857 1.941-11.21z" fill="#ef5656"/>
    <path d="M42.63 11.74l-9.528 12.74-12.748-9.697 9.527-12.74z" fill="#fca12a"/>
    <path d="M60.149 34.491l18.887 1.33-11.774 16.052z" fill="#1cc0d9"/>
</svg>