<svg xmlns="http://www.w3.org/2000/svg" width="618.152" height="618.974">
    <g data-name="Group 595" fill="#ff8d00">
        <path data-name="Path 174" d="M408.144 18.579l-.995-.331q.2-1.05-.613-1.321a1.163 1.163 0 0 0-.875-.011 1.05 1.05 0 0 0-.514.667 1.133 1.133 0 0 0 .052.8l1.333 3.079a2.209 2.209 0 0 1 .118 1.609l-.164.492a2.123 2.123 0 0 1-2.667 1.336l-1-.331a1.864 1.864 0 0 1-1.336-2.667l1.007.335c-.024.072-.043.128-.055.168a.746.746 0 0 0 .1.726 1.229 1.229 0 0 0 .611.443 1.033 1.033 0 0 0 .847 0 1.133 1.133 0 0 0 .482-.671 1.1 1.1 0 0 0-.052-.8l-1.332-3.079a2.173 2.173 0 0 1-.117-1.609l.163-.491a2.125 2.125 0 0 1 2.667-1.337l.994.331a1.937 1.937 0 0 1 1.346 2.662z"/>
        <path data-name="Path 175" d="M414.74 25.4l-3.955-1.431-.356.986a1.024 1.024 0 0 0 .038.806.994.994 0 0 0 .587.548l1 .361a.933.933 0 0 0 1.347-.641l.985.356q-.944 1.9-2.69 1.271l-1.983-.718a2.124 2.124 0 0 1-1.266-2.7l1.075-2.969a2.011 2.011 0 0 1 1.09-1.177 2.04 2.04 0 0 1 1.607-.077l1.983.718a2.112 2.112 0 0 1 1.258 2.684zm-3.6-2.417l1.983.718.36-1a1.009 1.009 0 0 0-.039-.8 1.022 1.022 0 0 0-.6-.546 1.057 1.057 0 0 0-1.343.628z"/>
        <path data-name="Path 176" d="M415.597 29.114l3.409-8.838 1.968.759-3.409 8.838z"/>
        <path data-name="Path 177" d="M420.476 31.026l2.376-5.851-.983-.4.395-.972.982.4.038-.094a2.028 2.028 0 0 1 2.617-1.1l2.036.827-.4.971-1.064-.432a.97.97 0 0 0-1.251.528l-.038.093.983.4-.4.971-.983-.4-2.376 5.851z"/>
        <path data-name="Path 178" d="M428.178 34.238l3.852-8.653 4.811 2.143-.427.958-2.884-1.285-1.285 2.884 1.927.858-.432.969-1.926-.858-1.286 2.884 2.885 1.285-.427.958z"/>
        <path data-name="Path 179" d="M434.838 37.226l.68-1.425a1.955 1.955 0 0 1 1.107-1.087 2.621 2.621 0 0 1 1.705.092 2.551 2.551 0 0 1-1.147-1.261 1.964 1.964 0 0 1 .146-1.539l.681-1.425 1.9.908-.9 1.892a1.025 1.025 0 0 0-.045.812 1.012 1.012 0 0 0 .534.6 1.056 1.056 0 0 0 1.414-.5l.9-1.892 1.891.9-.68 1.425a1.975 1.975 0 0 1-1.1 1.085 2.522 2.522 0 0 1-1.7-.1 2.578 2.578 0 0 1 1.135 1.27 1.976 1.976 0 0 1-.152 1.537l-.68 1.424-1.892-.9.908-1.9a1 1 0 0 0 .039-.8 1.022 1.022 0 0 0-.545-.6 1.055 1.055 0 0 0-1.4.495l-.909 1.9z"/>
        <path data-name="Path 180" d="M445.72 34.296l1.878.961-.479.934a1.061 1.061 0 0 1 .6-.582 1.079 1.079 0 0 1 .815.126l.945.484a2.113 2.113 0 0 1 .91 2.822l-1.439 2.81a2.112 2.112 0 0 1-2.828.922l-1.877-.962-.962 1.878-1.877-.962zm-1 6.583l.933.477a1.057 1.057 0 0 0 1.428-.461l1.439-2.81a1 1 0 0 0 .061-.8 1.022 1.022 0 0 0-.527-.618 1.057 1.057 0 0 0-1.411.456z"/>
        <path data-name="Path 181" d="M449.802 44.708l4.493-8.339 1.856 1-4.493 8.339z"/>
        <path data-name="Path 182" d="M458.921 41.308l1.836 1.039a2.116 2.116 0 0 1 .791 2.858l-1.555 2.747a2.039 2.039 0 0 1-1.27.987 2.009 2.009 0 0 1-1.594-.184l-1.835-1.039a2.124 2.124 0 0 1-.8-2.875l1.556-2.748a2.009 2.009 0 0 1 1.272-.978 2.04 2.04 0 0 1 1.599.193zm-1.032 1.824l-1.559 2.753a1.027 1.027 0 0 0-.1.8 1 1 0 0 0 .488.639 1.014 1.014 0 0 0 .809.1 1.029 1.029 0 0 0 .636-.5l1.556-2.748a1 1 0 0 0 .094-.8 1.023 1.023 0 0 0-.5-.639 1.056 1.056 0 0 0-1.428.4z"/>
        <path data-name="Path 183" d="M462.544 51.923l-1.81-1.083 3.784-6.317 1.809 1.084-1.077 1.8a2.605 2.605 0 0 1 1.365-1.015 1.976 1.976 0 0 1 1.522.3l.9.539-1.077 1.8-1.809-1.083a1.011 1.011 0 0 0-.793-.114 1.023 1.023 0 0 0-.652.486z"/>
        <path data-name="Path 184" d="M471.918 52.771l.567-.9a1 1 0 0 0 .133-.79 1.023 1.023 0 0 0-.468-.663l-.887-.56a.994.994 0 0 0-1.446.325l-.9-.567a2.012 2.012 0 0 1 2.9-.644l1.783 1.127a2.111 2.111 0 0 1 .651 2.893l-2.815 4.451-1.772-1.121.561-.886a1.009 1.009 0 0 1-1.457.319l-.886-.56a2.123 2.123 0 0 1-.655-2.91 2 2 0 0 1 1.318-.915 2.039 2.039 0 0 1 1.585.27zm-.56.886l-.9-.568a1.057 1.057 0 0 0-1.446.326 1.03 1.03 0 0 0-.137.8 1 1 0 0 0 .456.661 1.01 1.01 0 0 0 .8.135 1.024 1.024 0 0 0 .659-.464z"/>
        <path data-name="Path 185" d="M479.294 51.285l1.744 1.164-1.171 1.755.883.589-.582.871-.883-.588-2.334 3.5a.951.951 0 0 0-.154.846 1.033 1.033 0 0 0 .364.569l.084.057-.582.872-.882-.589a2.116 2.116 0 0 1-.574-2.918l2.334-3.5-.882-.589.581-.872.883.589z"/>
        <path data-name="Path 186" d="M478.359 62.079l4.193-6.053 1.734 1.2-4.192 6.053zm4.8-6.925l.6-.862 1.734 1.2-.6.862z"/>
        <path data-name="Path 187" d="M487.798 59.713l1.709 1.237a2.114 2.114 0 0 1 .469 2.928l-1.852 2.557a2.038 2.038 0 0 1-1.371.84 2.006 2.006 0 0 1-1.563-.36l-1.709-1.237a2.124 2.124 0 0 1-.472-2.945l1.851-2.558a2.005 2.005 0 0 1 1.373-.831 2.044 2.044 0 0 1 1.565.369zm-1.23 1.7l-1.85 2.557a1.03 1.03 0 0 0-.187.786 1 1 0 0 0 .413.688 1.016 1.016 0 0 0 .794.186 1.032 1.032 0 0 0 .688-.423l1.851-2.558a1.008 1.008 0 0 0 .183-.78 1.022 1.022 0 0 0-.428-.691 1.056 1.056 0 0 0-1.464.235z"/>
        <path data-name="Path 188" d="M488.53 69.37l4.482-5.843 1.673 1.284-.638.831a1.279 1.279 0 0 1 .741-.426.991.991 0 0 1 .729.232l.841.646a2.114 2.114 0 0 1 .388 2.94l-3.205 4.179-1.664-1.276 3.206-4.179a1.014 1.014 0 0 0 .2-.775 1.031 1.031 0 0 0-.408-.7 1.057 1.057 0 0 0-1.47.194l-3.205 4.179z"/>
        <path data-name="Path 189" d="M497.598 76.465l4.661-5.7 1.633 1.336-4.661 5.7zm5.333-6.521l.663-.812 1.633 1.336-.663.811z"/>
        <path data-name="Path 190" d="M508.24 78.502l-.8-.679q.571-.89-.082-1.445a1.325 1.325 0 0 0-.778-.372.785.785 0 0 0-.633.316q-.294.346.338 1.962a3.338 3.338 0 0 1 .377 1.779 2.381 2.381 0 0 1-.469.844 2.113 2.113 0 0 1-2.973.242l-.8-.68a1.864 1.864 0 0 1-.241-2.973l.807.687q-.59.891.064 1.447a1.346 1.346 0 0 0 .788.379.8.8 0 0 0 .642-.325q.285-.336-.347-1.952a3.4 3.4 0 0 1-.382-1.783 2.313 2.313 0 0 1 .464-.849 2.125 2.125 0 0 1 2.973-.241l.8.679a1.931 1.931 0 0 1 .252 2.964z"/>
        <path data-name="Path 191" d="M514.667 85.672l.716-.783a1.057 1.057 0 0 0-.075-1.489l-.774-.708a1 1 0 0 0-1.48.066l-.783-.716a2.012 2.012 0 0 1 2.971-.123l1.556 1.423a2.114 2.114 0 0 1 .133 2.962l-3.555 3.887-1.548-1.415.708-.774a1.008 1.008 0 0 1-1.49.057l-.773-.707a2.123 2.123 0 0 1-.133-2.98 2 2 0 0 1 1.458-.668 2.036 2.036 0 0 1 1.513.545zm-.707.773l-.783-.715a1.055 1.055 0 0 0-1.481.066 1.03 1.03 0 0 0-.275.758 1 1 0 0 0 .332.732 1.015 1.015 0 0 0 .768.274 1.028 1.028 0 0 0 .731-.341z"/>
        <path data-name="Path 192" d="M524.576 93.703l-.747-.736a1.055 1.055 0 0 0-1.499-1.482l-2.214 2.251a1.031 1.031 0 0 0-.3.748 1 1 0 0 0 .3.744 1.015 1.015 0 0 0 1.5-.013l.748.735a1.936 1.936 0 0 1-2.983.025l-.747-.735a2.041 2.041 0 0 1-.624-1.482 2.018 2.018 0 0 1 .6-1.5l2.213-2.251a2.01 2.01 0 0 1 1.483-.615 2.036 2.036 0 0 1 1.492.6l.747.735a1.923 1.923 0 0 1 .031 2.976z"/>
        <path data-name="Path 193" d="M528.284 99.022l.764-.737a1 1 0 0 0 .316-.735 1.025 1.025 0 0 0-.3-.756l-.729-.754a.994.994 0 0 0-1.481-.027l-.738-.763a2.014 2.014 0 0 1 2.974.062l1.465 1.518a2.114 2.114 0 0 1-.053 2.964l-3.79 3.657-1.456-1.508.754-.728a1.007 1.007 0 0 1-1.49-.036l-.729-.754a2.123 2.123 0 0 1 .054-2.982 2.006 2.006 0 0 1 1.5-.577 2.035 2.035 0 0 1 1.475.639zm-.754.728l-.737-.763a1.055 1.055 0 0 0-1.482-.026 1.03 1.03 0 0 0-.322.739 1 1 0 0 0 .287.751 1.013 1.013 0 0 0 .749.322 1.032 1.032 0 0 0 .751-.295z"/>
        <path data-name="Path 194" d="M529.537 106.506l-1.428-1.553 5.421-4.983 1.428 1.553-1.543 1.419a2.59 2.59 0 0 1 1.6-.586 1.973 1.973 0 0 1 1.373.719l.709.772-1.543 1.419-1.428-1.553a1 1 0 0 0-.727-.334 1.021 1.021 0 0 0-.763.28z"/>
        <path data-name="Path 195" d="M538.873 112.239l-2.77-3.165-.789.691a1.027 1.027 0 0 0-.357.724 1 1 0 0 0 .249.764l.7.8a.933.933 0 0 0 1.49.09l.69.788q-1.744 1.209-2.968-.188l-1.389-1.587a2.124 2.124 0 0 1 .2-2.976l2.376-2.08a2.006 2.006 0 0 1 1.523-.5 2.041 2.041 0 0 1 1.444.709l1.389 1.587a2.112 2.112 0 0 1-.2 2.958zm-1.982-3.855l1.389 1.587.8-.7a1.01 1.01 0 0 0 .353-.72 1.03 1.03 0 0 0-.263-.769 1.056 1.056 0 0 0-1.479-.1z"/>
        <path data-name="Path 196" d="M538.502 116.704l4.851-4.044-.68-.815.806-.671.679.815.077-.065a2.027 2.027 0 0 1 2.829.257l1.407 1.688-.8.671-.736-.883a.97.97 0 0 0-1.352-.122l-.078.064.68.815-.806.672-.679-.815-4.85 4.043z"/>
        <path data-name="Path 197" d="M551.517 121.079l-5.769 4.576-1.3-1.643.822-.651a1.009 1.009 0 0 1-1.481-.18l-.652-.821a2.122 2.122 0 0 1 .342-2.963l4.116-3.266 1.31 1.653-4.115 3.265a1.027 1.027 0 0 0-.391.706.994.994 0 0 0 .212.775 1.016 1.016 0 0 0 .713.393 1.036 1.036 0 0 0 .777-.221l4.116-3.266z"/>
        <path data-name="Path 198" d="M547.002 127.306l7.543-5.731 1.275 1.68-7.542 5.73z"/>
        <path data-name="Path 199" d="M551.367 133.154l5.969-4.312 1.234 1.71-5.968 4.312zm6.828-4.933l.851-.613 1.234 1.71-.849.613z"/>
        <path data-name="Path 200" d="M553.814 136.541l6.057-4.186 1.2 1.735-.862.6a1.286 1.286 0 0 1 .836-.179.99.99 0 0 1 .622.445l.6.873a2.112 2.112 0 0 1-.534 2.917l-4.333 2.994-1.191-1.725 4.333-2.994a1.009 1.009 0 0 0 .432-.675 1.023 1.023 0 0 0-.173-.794 1.055 1.055 0 0 0-1.458-.266l-4.333 2.994z"/>
        <path data-name="Path 201" d="M567.04 139.135l1.15 1.753-1.76 1.157.582.887-.877.575-.582-.887-3.517 2.306a.946.946 0 0 0-.473.718 1.031 1.031 0 0 0 .112.666l.056.085-.877.574-.582-.887a2.114 2.114 0 0 1 .614-2.909l3.518-2.307-.583-.887.877-.575.582.888z"/>
        <path data-name="Path 202" d="M567.975 152.385l-2.22-3.572-.891.553a1.026 1.026 0 0 0-.469.656.992.992 0 0 0 .122.8l.559.9a.932.932 0 0 0 1.454.33l.554.891q-1.918.909-2.9-.668l-1.114-1.791a2.042 2.042 0 0 1-.256-1.588 2.018 2.018 0 0 1 .935-1.317l2.682-1.667a2.008 2.008 0 0 1 1.585-.249 2.042 2.042 0 0 1 1.309.934l1.114 1.792a2.115 2.115 0 0 1-.675 2.887zm-1.329-4.125l1.112 1.792.9-.561a1.009 1.009 0 0 0 .465-.652 1.023 1.023 0 0 0-.134-.8 1.057 1.057 0 0 0-1.444-.337z"/>
        <path data-name="Path 203" d="M567.418 157.638l-1.069-1.818 6.347-3.732 1.069 1.818-1.807 1.063a2.6 2.6 0 0 1 1.685-.236 1.969 1.969 0 0 1 1.191.991l.531.9-1.806 1.063-1.07-1.818a1.008 1.008 0 0 0-.641-.481 1.027 1.027 0 0 0-.8.114z"/>
        <path data-name="Path 204" d="M569.507 161.214l6.436-3.577 1.025 1.848-.916.509a1.278 1.278 0 0 1 .849-.1.991.991 0 0 1 .577.5l.514.927a2.113 2.113 0 0 1-.813 2.851l-4.605 2.559-1.017-1.833 4.6-2.559a1 1 0 0 0 .495-.629 1.024 1.024 0 0 0-.094-.807 1.055 1.055 0 0 0-1.425-.407l-4.6 2.558z"/>
        <path data-name="Path 205" d="M579.222 170.342l.941-.489a1.014 1.014 0 0 0 .514-.615 1.025 1.025 0 0 0-.072-.809l-.484-.931a1 1 0 0 0-1.414-.447l-.488-.941a2.012 2.012 0 0 1 2.832.9l.973 1.872a2.114 2.114 0 0 1-.894 2.827l-4.673 2.428-.967-1.86.93-.484a1.008 1.008 0 0 1-1.419-.458l-.483-.93a2.125 2.125 0 0 1 .9-2.844 2.007 2.007 0 0 1 1.6-.126 2.036 2.036 0 0 1 1.233 1.031zm-.93.484l-.489-.942a1.058 1.058 0 0 0-1.414-.446 1.031 1.031 0 0 0-.519.618 1 1 0 0 0 .061.8 1.016 1.016 0 0 0 .627.522 1.027 1.027 0 0 0 .8-.07z"/>
        <path data-name="Path 206" d="M577.373 175.998l8.495-4.19.933 1.891-8.495 4.191z"/>
        <path data-name="Path 207" d="M581.43 184.494l-.88-1.917 6.692-3.071.879 1.917-1.9.875a2.6 2.6 0 0 1 1.7-.065 1.971 1.971 0 0 1 1.085 1.107l.437.953-1.905.875-.88-1.917a1 1 0 0 0-.59-.543 1.022 1.022 0 0 0-.811.032z"/>
        <path data-name="Path 208" d="M588.538 192.812l-1.66-3.865-.963.414a1.022 1.022 0 0 0-.562.579.993.993 0 0 0 0 .8l.419.975a.932.932 0 0 0 1.388.544l.414.963q-2.032.612-2.765-1.094l-.833-1.938a2.125 2.125 0 0 1 1.105-2.77l2.9-1.246a2.006 2.006 0 0 1 1.6-.009 2.035 2.035 0 0 1 1.154 1.119l.833 1.938a2.113 2.113 0 0 1-1.1 2.754zm-.7-4.279l.833 1.938.975-.419a1.054 1.054 0 0 0-.833-1.937z"/>
        <path data-name="Path 209" d="M593.268 198.914l-.389-.973q.922-.519.6-1.316a1.322 1.322 0 0 0-.515-.692.783.783 0 0 0-.707-.017q-.422.168-.618 1.892a3.369 3.369 0 0 1-.5 1.749 2.4 2.4 0 0 1-.811.527 2.113 2.113 0 0 1-2.74-1.178l-.388-.974a1.863 1.863 0 0 1 1.178-2.74l.392.985q-.937.51-.62 1.308a1.34 1.34 0 0 0 .519.7.8.8 0 0 0 .719.013q.41-.165.607-1.887a3.413 3.413 0 0 1 .5-1.755 2.315 2.315 0 0 1 .808-.533 2.121 2.121 0 0 1 2.74 1.178l.389.973a1.932 1.932 0 0 1-1.164 2.74z"/>
        <path data-name="Path 210" d="M594.251 207.585l-1.455-3.946-.983.363a1.025 1.025 0 0 0-.592.548.99.99 0 0 0-.041.8l.367 1a.932.932 0 0 0 1.357.617l.364.983q-2.062.5-2.7-1.238l-.731-1.979a2.125 2.125 0 0 1 1.25-2.708l2.963-1.093a2.014 2.014 0 0 1 1.6.076 2.039 2.039 0 0 1 1.093 1.178l.73 1.979a2.115 2.115 0 0 1-1.242 2.693zm-.472-4.308l.73 1.979 1-.368a1 1 0 0 0 .586-.545 1.023 1.023 0 0 0 .03-.812 1.058 1.058 0 0 0-1.345-.622z"/>
        <path data-name="Path 211" d="M597.311 213.277l1-.339a1.011 1.011 0 0 0 .6-.53 1.022 1.022 0 0 0 .053-.811l-.334-.993a1 1 0 0 0-1.329-.659l-.338-1.005a2.012 2.012 0 0 1 2.66 1.329l.673 2a2.111 2.111 0 0 1-1.317 2.656l-4.991 1.682-.67-1.987.994-.334a1.01 1.01 0 0 1-1.333-.671l-.334-.993a2.125 2.125 0 0 1 1.326-2.673 2.009 2.009 0 0 1 1.6.121 2.043 2.043 0 0 1 1.061 1.208zm-.994.334l-.339-1.005a1.059 1.059 0 0 0-1.328-.659 1.03 1.03 0 0 0-.608.531 1 1 0 0 0-.062.8 1.009 1.009 0 0 0 .539.612 1.03 1.03 0 0 0 .8.055z"/>
        <path data-name="Path 212" d="M595.236 220.577l-.624-2.015 7.034-2.18.624 2.015-2 .621a2.591 2.591 0 0 1 1.695.156 1.969 1.969 0 0 1 .932 1.238l.31 1-2 .621-.624-2.015a1.012 1.012 0 0 0-.513-.614 1.026 1.026 0 0 0-.81-.073z"/>
        <path data-name="Path 213" d="M602.957 228.167l-.287-1.008a1.054 1.054 0 0 0-.578-2.028l-3.037.865a1.027 1.027 0 0 0-.632.5 1 1 0 0 0-.1.8 1.016 1.016 0 0 0 1.312.73l.287 1.008a1.935 1.935 0 0 1-2.606-1.451l-.289-1.008a2.127 2.127 0 0 1 1.451-2.607l3.037-.865a2 2 0 0 1 1.592.2 2.044 2.044 0 0 1 1 1.258l.287 1.008a1.924 1.924 0 0 1-1.437 2.598z"/>
        <path data-name="Path 214" d="M598.43 231.585l9.174-2.356.525 2.043-3.058.785a1.277 1.277 0 0 1 .846.122.988.988 0 0 1 .43.633l.263 1.027a2.113 2.113 0 0 1-1.508 2.553l-5.1 1.309-.521-2.03 5.1-1.31a1.01 1.01 0 0 0 .639-.483 1.025 1.025 0 0 0 .112-.806 1.056 1.056 0 0 0-1.275-.754l-5.1 1.31z"/>
        <path data-name="Path 215" d="M608.392 241.179l.445 2.062-1.024.221a1.057 1.057 0 0 1 .827.093 1.081 1.081 0 0 1 .419.71l.223 1.037a2.114 2.114 0 0 1-1.606 2.493l-3.086.667a2.115 2.115 0 0 1-2.505-1.6l-.445-2.062-2.062.445-.448-2.06zm-5.728 3.395l.222 1.025a1.057 1.057 0 0 0 1.261.813l3.086-.667a1.007 1.007 0 0 0 .657-.458 1.021 1.021 0 0 0 .143-.8 1.055 1.055 0 0 0-1.246-.8z"/>
        <path data-name="Path 216" d="M603.322 253.01l-.394-2.071 7.233-1.378.4 2.072-2.06.392a2.6 2.6 0 0 1 1.666.345 1.967 1.967 0 0 1 .788 1.335l.2 1.03-2.06.392-.395-2.072a1.008 1.008 0 0 0-.442-.668 1.024 1.024 0 0 0-.8-.163z"/>
        <path data-name="Path 217" d="M611.693 257.956l.345 2.081a2.113 2.113 0 0 1-1.727 2.41l-3.116.516a2.038 2.038 0 0 1-1.564-.369 2 2 0 0 1-.858-1.356l-.344-2.081a2.125 2.125 0 0 1 1.737-2.425l3.115-.515a2.123 2.123 0 0 1 2.412 1.739zm-2.068.342l-3.115.515a1.032 1.032 0 0 0-.685.427 1 1 0 0 0-.191.78 1.016 1.016 0 0 0 .434.69 1.03 1.03 0 0 0 .786.184l3.115-.515a1.009 1.009 0 0 0 .679-.426 1.022 1.022 0 0 0 .182-.792 1.057 1.057 0 0 0-1.205-.863z"/>
        <path data-name="Path 218" d="M611.354 269.824l-.144-1.038q1.021-.268.893-1.2a1.058 1.058 0 0 0-1.182-.895l-3.128.434a1.023 1.023 0 0 0-.7.409 1 1 0 0 0-.212.775q.129.926 1.2.9l.145 1.038a1.935 1.935 0 0 1-2.379-1.8l-.144-1.039a2.122 2.122 0 0 1 1.8-2.378l3.127-.434a2.124 2.124 0 0 1 2.366 1.8l.145 1.038a1.924 1.924 0 0 1-1.787 2.39z"/>
        <path data-name="Path 219" d="M610.239 278.494l-.468-4.179-1.042.116a1.03 1.03 0 0 0-.706.391 1 1 0 0 0-.232.769l.118 1.055a.932.932 0 0 0 1.171.923l.117 1.042q-2.123 0-2.33-1.849l-.234-2.1a2.124 2.124 0 0 1 1.861-2.33l3.136-.347a2 2 0 0 1 1.538.457 2.034 2.034 0 0 1 .78 1.4l.236 2.1a2.115 2.115 0 0 1-1.851 2.316zm.574-4.3l.234 2.1 1.055-.118a1.013 1.013 0 0 0 .7-.39 1.051 1.051 0 0 0-.166-1.481 1.01 1.01 0 0 0-.769-.225z"/>
        <path data-name="Path 220" d="M612.995 285.694l-.09-1.045q1.033-.228.959-1.083a1.321 1.321 0 0 0-.291-.812.779.779 0 0 0-.672-.221q-.452.039-1.14 1.631a3.331 3.331 0 0 1-.985 1.53 2.38 2.38 0 0 1-.927.27 2.116 2.116 0 0 1-2.282-1.922l-.089-1.044a1.864 1.864 0 0 1 1.922-2.282l.089 1.057q-1.046.216-.972 1.072a1.346 1.346 0 0 0 .293.825.8.8 0 0 0 .684.22q.439-.039 1.127-1.631a3.4 3.4 0 0 1 .985-1.536 2.315 2.315 0 0 1 .926-.276 2.127 2.127 0 0 1 2.283 1.922l.088 1.044a1.93 1.93 0 0 1-1.908 2.281z"/>
        <path data-name="Path 221" d="M613.477 293.121l-.065-1.046q1.039-.2.986-1.06a1.328 1.328 0 0 0-.272-.819.779.779 0 0 0-.666-.237q-.455.027-1.18 1.6a3.343 3.343 0 0 1-1.021 1.506 2.387 2.387 0 0 1-.934.247 2.114 2.114 0 0 1-2.234-1.976l-.065-1.047a1.865 1.865 0 0 1 1.977-2.234l.064 1.059q-1.05.191-1 1.048a1.342 1.342 0 0 0 .273.831.8.8 0 0 0 .679.237q.441-.027 1.167-1.6a3.407 3.407 0 0 1 1.02-1.512 2.326 2.326 0 0 1 .934-.253 2.125 2.125 0 0 1 2.234 1.976l.065 1.046a1.931 1.931 0 0 1-1.962 2.234z"/>
        <path data-name="Path 222" d="M615.868 300.532l.054 2.109a2.114 2.114 0 0 1-2.043 2.149l-3.157.079a2.037 2.037 0 0 1-1.5-.581 2 2 0 0 1-.662-1.461l-.053-2.109a2.124 2.124 0 0 1 2.055-2.162l3.156-.079a2 2 0 0 1 1.493.588 2.034 2.034 0 0 1 .657 1.467zm-2.095.053l-3.157.08a1.026 1.026 0 0 0-.737.328 1 1 0 0 0-.3.747 1.013 1.013 0 0 0 .334.743 1.032 1.032 0 0 0 .753.291l3.156-.08a1.055 1.055 0 0 0-.052-2.109z"/>
        <path data-name="Path 223" d="M608.613 308.043l6.315-.1-.018-1.06 1.048-.018.018 1.061h.1a2.025 2.025 0 0 1 2.041 1.975l.035 2.2-1.047.017-.019-1.149a.97.97 0 0 0-.976-.944h-.1l.016 1.06-1.047.017-.017-1.06-6.314.1z"/>
        <path data-name="Path 224" d="M608.36 322.698l.069-2.1 1.048.035q-1.044-.162-1.013-1.1l.034-1.048a2.124 2.124 0 0 1 2.178-2.038l3.156.1a2.006 2.006 0 0 1 1.456.673 2.037 2.037 0 0 1 .57 1.5l-.07 2.108 2.109.069-.07 2.1zm6.38-1.888l.036-1.06a1.059 1.059 0 0 0-1.013-1.082l-3.156-.1a1.024 1.024 0 0 0-.755.284 1.038 1.038 0 0 0-.049 1.49 1.03 1.03 0 0 0 .734.334z"/>
        <path data-name="Path 225" d="M608.251 324.738l7.353.394-.114 2.106-7.352-.394zm8.412.451l1.047.056-.113 2.106-1.047-.056z"/>
        <path data-name="Path 226" d="M612.896 334.533l.075-1.046q1.056-.063 1.118-.919a1.322 1.322 0 0 0-.16-.847.781.781 0 0 0-.629-.324q-.453-.033-1.383 1.431-.759 1.2-1.213 1.356a2.359 2.359 0 0 1-.958.12 2.114 2.114 0 0 1-1.951-2.256l.076-1.045a1.865 1.865 0 0 1 2.256-1.952l-.076 1.059q-1.068.048-1.13.9a1.345 1.345 0 0 0 .159.86.8.8 0 0 0 .642.325q.441.033 1.37-1.432.758-1.2 1.213-1.362a2.318 2.318 0 0 1 .959-.127 2.125 2.125 0 0 1 1.951 2.257l-.076 1.045a1.93 1.93 0 0 1-2.243 1.957z"/>
        <path data-name="Path 227" d="M612.201 341.958l.1-1.044c.7-.016 1.086-.334 1.145-.954a1.055 1.055 0 0 0-.942-1.145l-3.143-.3a1.026 1.026 0 0 0-.771.236 1 1 0 0 0-.386.705q-.088.93.954 1.158l-.1 1.043a1.935 1.935 0 0 1-1.9-2.3l.1-1.043a2.124 2.124 0 0 1 2.3-1.9l3.143.305a2.007 2.007 0 0 1 1.41.766 2.03 2.03 0 0 1 .473 1.536l-.1 1.044a1.924 1.924 0 0 1-2.283 1.893z"/>
        <path data-name="Path 228" d="M613.792 346.464l-.258 2.093a2.116 2.116 0 0 1-2.338 1.824l-3.133-.387a2.04 2.04 0 0 1-1.4-.8 2.012 2.012 0 0 1-.439-1.543l.258-2.093a2.124 2.124 0 0 1 2.352-1.835l3.134.386a2.005 2.005 0 0 1 1.389.8 2.036 2.036 0 0 1 .435 1.555zm-2.081-.257l-3.133-.387a1.031 1.031 0 0 0-.778.216 1.039 1.039 0 0 0-.182 1.479 1.028 1.028 0 0 0 .7.4l3.134.387a1.013 1.013 0 0 0 .772-.216 1.027 1.027 0 0 0 .4-.708 1.055 1.055 0 0 0-.912-1.169z"/>
        <path data-name="Path 229" d="M612.339 357.028l-.314 2.073-3.721-.564a3.612 3.612 0 0 1-3.021-4.087l.409-2.7 7.281 1.1-.318 2.085-6.243-.947-.157 1.036a1.013 1.013 0 0 0 .2.79 1.027 1.027 0 0 0 .691.418z"/>
        <path data-name="Path 230" d="M606.393 366.8l.747-4.139-1.031-.186a1.028 1.028 0 0 0-.789.172 1 1 0 0 0-.442.671l-.188 1.044a.933.933 0 0 0 .857 1.22l-.186 1.032q-2.033-.612-1.7-2.438l.375-2.076a2.124 2.124 0 0 1 2.451-1.7l3.107.561a2.013 2.013 0 0 1 1.343.878 2.036 2.036 0 0 1 .345 1.57l-.378 2.076a2.115 2.115 0 0 1-2.435 1.691zm1.779-3.953l-.375 2.076 1.044.188a1.006 1.006 0 0 0 .782-.173 1.022 1.022 0 0 0 .438-.684 1.057 1.057 0 0 0-.845-1.218z"/>
        <path data-name="Path 231" d="M602.459 370.318l.425-2.066 7.212 1.485-.425 2.066-2.054-.423a2.6 2.6 0 0 1 1.409.955 1.967 1.967 0 0 1 .219 1.534l-.211 1.027-2.053-.423.424-2.066a1 1 0 0 0-.153-.786 1.028 1.028 0 0 0-.674-.455z"/>
        <path data-name="Path 232" d="M601.592 374.391l7.184 1.611-.46 2.058-7.186-1.611zm8.22 1.843l1.023.23-.462 2.058-1.022-.23z"/>
        <path data-name="Path 233" d="M600.68 378.461l7.149 1.763-.505 2.048-1.017-.251a1.28 1.28 0 0 1 .687.507.986.986 0 0 1 .079.761l-.254 1.03a2.112 2.112 0 0 1-2.537 1.534l-5.114-1.26.5-2.036 5.114 1.261a1.01 1.01 0 0 0 .791-.124 1.027 1.027 0 0 0 .481-.655 1.057 1.057 0 0 0-.768-1.269l-5.113-1.261z"/>
        <path data-name="Path 234" d="M604.068 394.608l-8.107-2.241a2.043 2.043 0 0 1-1.266-.992 2.008 2.008 0 0 1-.208-1.591l.562-2.033q.5-1.789 2.595-1.471l-.283 1.022a.976.976 0 0 0-1.3.728l-.28 1.011a1.057 1.057 0 0 0 .74 1.3l2.021.558a1.009 1.009 0 0 1-.728-1.3l.279-1.011a2.126 2.126 0 0 1 2.6-1.471l3.043.842a2.005 2.005 0 0 1 1.257 1 2.039 2.039 0 0 1 .2 1.6zm-.451-2.3l.283-1.023a1.058 1.058 0 0 0-.731-1.289l-3.044-.842a1.031 1.031 0 0 0-.8.1 1.036 1.036 0 0 0-.4 1.437 1.026 1.026 0 0 0 .636.5z"/>
        <path data-name="Path 235" d="M594.168 398.325a.975.975 0 0 0-1.329.677l-.318 1a1.055 1.055 0 0 0 .688 1.333l2 .636a1.01 1.01 0 0 1-.677-1.329l.319-1a2.123 2.123 0 0 1 2.649-1.369l5.006 1.594-.64 2.01-5.006-1.6a1.028 1.028 0 0 0-.8.069 1 1 0 0 0-.526.608 1.069 1.069 0 0 0 .69 1.333l5.006 1.594-.637 2-8.015-2.553a2.037 2.037 0 0 1-1.225-1.04 2.007 2.007 0 0 1-.148-1.6l.641-2.01q.564-1.768 2.649-1.369z"/>
        <path data-name="Path 236" d="M599.185 409.992l-.7 1.991a2.114 2.114 0 0 1-2.671 1.287l-2.98-1.043a2.036 2.036 0 0 1-1.2-1.074 2.007 2.007 0 0 1-.1-1.6l.7-1.991a2.125 2.125 0 0 1 2.687-1.295l2.98 1.043a2.007 2.007 0 0 1 1.189 1.077 2.04 2.04 0 0 1 .095 1.605zm-1.98-.693l-2.98-1.042a1.034 1.034 0 0 0-.806.046 1 1 0 0 0-.541.594 1.01 1.01 0 0 0 .05.814 1.034 1.034 0 0 0 .6.538l2.981 1.042a1.014 1.014 0 0 0 .8-.048 1.025 1.025 0 0 0 .54-.608 1.057 1.057 0 0 0-.644-1.336z"/>
        <path data-name="Path 237" d="M594.767 421.985l-6.879-2.626.747-1.958.979.373a1.008 1.008 0 0 1-.6-1.364l.374-.98a2.123 2.123 0 0 1 2.722-1.219l4.91 1.874-.752 1.97-4.909-1.873a1.025 1.025 0 0 0-.807.024 1 1 0 0 0-.559.577 1.019 1.019 0 0 0 .028.815 1.031 1.031 0 0 0 .586.555l4.909 1.873z"/>
        <path data-name="Path 238" d="M586.317 423.228l.8-1.952 6.813 2.794-.8 1.951-1.94-.795a2.594 2.594 0 0 1 1.208 1.2 1.967 1.967 0 0 1-.069 1.548l-.4.971-1.94-.8.8-1.951a1.009 1.009 0 0 0-.006-.8 1.025 1.025 0 0 0-.578-.572z"/>
        <path data-name="Path 239" d="M587.441 434.004l.419-.961q1.017.293 1.361-.495a1.336 1.336 0 0 0 .131-.852.782.782 0 0 0-.486-.515q-.416-.183-1.78.89a3.346 3.346 0 0 1-1.595.874 2.374 2.374 0 0 1-.944-.206 2.111 2.111 0 0 1-1.088-2.776l.42-.961a1.863 1.863 0 0 1 2.776-1.089l-.424.972q-1.023-.309-1.367.478a1.343 1.343 0 0 0-.135.864.792.792 0 0 0 .5.521q.4.176 1.768-.9a3.415 3.415 0 0 1 1.6-.88 2.3 2.3 0 0 1 .946.2 2.122 2.122 0 0 1 1.087 2.782l-.42.96a1.93 1.93 0 0 1-2.769 1.094z"/>
        <path data-name="Path 240" d="M581.961 440.812l1.784-3.808-.949-.446a1.03 1.03 0 0 0-.806-.036 1 1 0 0 0-.6.535l-.45.961a.932.932 0 0 0 .515 1.4l-.444.949q-1.809-1.112-1.021-2.793l.895-1.91a2.126 2.126 0 0 1 2.8-1.016l2.859 1.34a2.01 2.01 0 0 1 1.073 1.193 2.042 2.042 0 0 1-.069 1.607l-.9 1.91a2.114 2.114 0 0 1-2.788 1.009zm2.733-3.364l-.894 1.91.96.45a1.056 1.056 0 0 0 .9-1.91z"/>
        <path data-name="Path 241" d="M578.192 441.309l8.493 4.2-.935 1.891-8.492-4.2z"/>
        <path data-name="Path 242" d="M575.85 445.985l5.611 2.9.487-.943.931.482-.486.942.09.047a2.028 2.028 0 0 1 .863 2.705l-1.009 1.953-.931-.481.527-1.021a.973.973 0 0 0-.412-1.294l-.09-.046-.487.943-.931-.481.486-.943-5.611-2.9z"/>
        <path data-name="Path 243" d="M579.705 458.907l-1.019 1.831-1.843-1.025-.517.926-.916-.509.517-.927-3.675-2.047a.95.95 0 0 0-.855-.086 1.026 1.026 0 0 0-.538.409l-.05.088-.916-.51.516-.926a2.112 2.112 0 0 1 2.863-.806l3.674 2.046.517-.927.915.51-.516.927z"/>
        <path data-name="Path 244" d="M568.895 458.826l8.161 4.808-1.071 1.818-2.72-1.6a1.281 1.281 0 0 1 .513.684.986.986 0 0 1-.142.752l-.538.914a2.113 2.113 0 0 1-2.871.742l-4.537-2.674 1.063-1.8 4.538 2.672a1.006 1.006 0 0 0 .794.109 1.024 1.024 0 0 0 .648-.49 1.058 1.058 0 0 0-.372-1.436l-4.537-2.673z"/>
        <path data-name="Path 245" d="M563.494 467.815l1.115-1.791 6.251 3.892-1.115 1.791-1.779-1.109a2.6 2.6 0 0 1 .991 1.384 1.977 1.977 0 0 1-.326 1.515l-.555.89-1.779-1.108 1.114-1.794a1 1 0 0 0 .128-.79 1.019 1.019 0 0 0-.474-.66z"/>
        <path data-name="Path 246" d="M566.287 477.137l-1.158 1.763a2.112 2.112 0 0 1-2.9.6l-2.639-1.734a2.038 2.038 0 0 1-.9-1.332 2.007 2.007 0 0 1 .289-1.578l1.158-1.764a2.124 2.124 0 0 1 2.921-.6l2.638 1.733a2.009 2.009 0 0 1 .893 1.334 2.039 2.039 0 0 1-.302 1.578zm-1.757-1.152l-2.638-1.733a1.031 1.031 0 0 0-.793-.151 1 1 0 0 0-.669.445 1.014 1.014 0 0 0-.15.8 1.036 1.036 0 0 0 .453.667l2.64 1.735a1.008 1.008 0 0 0 .787.146 1.054 1.054 0 0 0 .37-1.91z"/>
        <path data-name="Path 247" d="M559.109 487.685l-6.04-4.212 1.2-1.72.859.6a1.011 1.011 0 0 1-.253-1.47l.6-.86a2.124 2.124 0 0 1 2.937-.523l4.31 3.005-1.207 1.73-4.31-3.005a1.026 1.026 0 0 0-.788-.173 1 1 0 0 0-.682.426 1.012 1.012 0 0 0-.17.8 1.03 1.03 0 0 0 .434.68l4.31 3.005z"/>
        <path data-name="Path 248" d="M554.036 494.603l-6.763-5a2.042 2.042 0 0 1-.825-1.38 2.009 2.009 0 0 1 .376-1.559l1.254-1.7q1.1-1.492 2.95-.441l-.63.853a.976.976 0 0 0-1.477.212l-.623.842a1.058 1.058 0 0 0 .222 1.485l1.685 1.246a1.009 1.009 0 0 1-.212-1.476l.623-.843a2.126 2.126 0 0 1 2.951-.442l2.539 1.878a2.009 2.009 0 0 1 .816 1.381 2.038 2.038 0 0 1-.385 1.561zm.4-2.309l.63-.853a1 1 0 0 0 .191-.778 1.013 1.013 0 0 0-.409-.689l-2.539-1.877a1.032 1.032 0 0 0-.784-.194 1 1 0 0 0-.693.406 1.013 1.013 0 0 0-.192.792 1.024 1.024 0 0 0 .415.692z"/>
        <path data-name="Path 249" d="M546.873 491.857l7.457 5.842-1.3 1.66-2.486-1.947a1.273 1.273 0 0 1 .419.745.983.983 0 0 1-.24.726l-.655.835a2.11 2.11 0 0 1-2.943.358l-4.145-3.248 1.293-1.651 4.145 3.248a1.011 1.011 0 0 0 .773.213 1.026 1.026 0 0 0 .707-.4 1.057 1.057 0 0 0-.179-1.472l-4.146-3.248z"/>
        <path data-name="Path 250" d="M538.341 502.454l1.357-1.615 5.636 4.739-1.357 1.614-1.6-1.349a2.588 2.588 0 0 1 .784 1.51 1.967 1.967 0 0 1-.537 1.453l-.675.8-1.6-1.35 1.357-1.614a1 1 0 0 0 .239-.764 1.024 1.024 0 0 0-.376-.721z"/>
        <path data-name="Path 251" d="M533.848 512.446l2.782-3.152-.785-.7a1.03 1.03 0 0 0-.764-.26.988.988 0 0 0-.725.344l-.7.795a.932.932 0 0 0 .1 1.488l-.693.786q-1.423-1.577-.194-2.968l1.4-1.581a2.125 2.125 0 0 1 2.976-.185l2.367 2.091a2.005 2.005 0 0 1 .694 1.446 2.042 2.042 0 0 1-.519 1.523l-1.4 1.581a2.114 2.114 0 0 1-2.959.183zm3.57-2.459l-1.4 1.581.795.7a1.006 1.006 0 0 0 .758.258 1.033 1.033 0 0 0 .73-.358 1.057 1.057 0 0 0-.092-1.48z"/>
        <path data-name="Path 252" d="M529.354 512.669l4.63 4.294.721-.779.769.713-.721.778.074.069a2.029 2.029 0 0 1 .107 2.838l-1.494 1.611-.769-.713.781-.843a.97.97 0 0 0-.051-1.356l-.074-.068-.721.778-.769-.713.722-.778-4.631-4.294z"/>
        <path data-name="Path 253" d="M525.802 516.459l6.833 6.56-1.461 1.522-6.833-6.561z"/>
        <path data-name="Path 254" d="M520.686 526.158l2.974-2.973-.74-.742a1.033 1.033 0 0 0-.746-.309 1 1 0 0 0-.746.3l-.75.749a.933.933 0 0 0 .008 1.492l-.742.741q-1.32-1.662-.007-2.974l1.492-1.491a2.122 2.122 0 0 1 2.982 0l2.233 2.233a2 2 0 0 1 .6 1.487 2.038 2.038 0 0 1-.612 1.487l-1.491 1.491a2.116 2.116 0 0 1-2.966 0zm3.715-2.232l-1.492 1.492.75.75a1.01 1.01 0 0 0 .742.3 1.022 1.022 0 0 0 .75-.312 1.056 1.056 0 0 0 0-1.483z"/>
        <path data-name="Path 255" d="M516.776 532.802l.76-.721a1.055 1.055 0 0 0 1.531-1.451l-2.173-2.291a1.03 1.03 0 0 0-.738-.328 1 1 0 0 0-.754.28 1.015 1.015 0 0 0-.039 1.5l-.76.72a1.934 1.934 0 0 1 .078-2.981l.761-.722a2.125 2.125 0 0 1 2.982.079l2.173 2.29a2.011 2.011 0 0 1 .563 1.5 2.034 2.034 0 0 1-.651 1.47l-.76.722a1.922 1.922 0 0 1-2.973-.067z"/>
        <path data-name="Path 256" d="M517.23 538.085l-1.553 1.409-1.417-1.563-.786.713-.7-.776.786-.713-2.826-3.115a.951.951 0 0 0-.783-.356 1.029 1.029 0 0 0-.64.215l-.076.067-.7-.776.786-.713a2.114 2.114 0 0 1 2.97.154l2.825 3.116.787-.713.7.776-.786.713z"/>
        <path data-name="Path 257" d="M506.981 534.563l4.851 5.54-1.587 1.39-4.85-5.54zm5.55 6.338l.691.788-1.587 1.39-.691-.788z"/>
        <path data-name="Path 258" d="M506.968 544.302l-1.615 1.356a2.113 2.113 0 0 1-2.953-.257l-2.032-2.418a2.039 2.039 0 0 1-.479-1.535 2.009 2.009 0 0 1 .729-1.429l1.616-1.356a2.122 2.122 0 0 1 2.971.259l2.03 2.417a2.007 2.007 0 0 1 .472 1.535 2.046 2.046 0 0 1-.739 1.428zm-1.348-1.606l-2.03-2.418a1.03 1.03 0 0 0-.717-.371 1 1 0 0 0-.768.232 1.069 1.069 0 0 0-.13 1.495l2.03 2.418a1.008 1.008 0 0 0 .712.368 1.021 1.021 0 0 0 .774-.247 1.054 1.054 0 0 0 .129-1.477z"/>
        <path data-name="Path 259" d="M497.43 542.66l4.577 5.768-1.652 1.311-.652-.821a1.289 1.289 0 0 1 .234.823.99.99 0 0 1-.4.649l-.831.66a2.112 2.112 0 0 1-2.945-.339l-3.274-4.125 1.642-1.3 3.274 4.126a1.053 1.053 0 0 0 1.869-.54 1.009 1.009 0 0 0-.217-.772l-3.274-4.125z"/>
        <path data-name="Path 260" d="M491.019 556.911l-1.7 1.247a2.112 2.112 0 0 1-2.929-.452l-1.867-2.546a2.035 2.035 0 0 1-.378-1.563 2 2 0 0 1 .821-1.378l1.7-1.247a2.122 2.122 0 0 1 2.948.454l1.868 2.546a2.015 2.015 0 0 1 .369 1.562 2.039 2.039 0 0 1-.832 1.377zm-1.24-1.692l-1.867-2.546a1.025 1.025 0 0 0-.689-.418 1 1 0 0 0-.783.182 1.011 1.011 0 0 0-.419.7 1.031 1.031 0 0 0 .19.784l1.867 2.546a1.013 1.013 0 0 0 .687.414 1.03 1.03 0 0 0 .789-.2 1.056 1.056 0 0 0 .225-1.466z"/>
        <path data-name="Path 261" d="M481.598 554.653l4.186 6.058-1.735 1.2-.6-.862a1.283 1.283 0 0 1 .179.835.989.989 0 0 1-.445.623l-.873.6a2.113 2.113 0 0 1-2.916-.532l-3-4.333 1.725-1.193 2.995 4.333a1.008 1.008 0 0 0 .675.432 1.052 1.052 0 0 0 1.226-.848 1.008 1.008 0 0 0-.166-.783l-2.995-4.333z"/>
        <path data-name="Path 262" d="M476.044 567.315l-1.779 1.132-.564-.884a1.05 1.05 0 0 1 .2.808 1.069 1.069 0 0 1-.521.638l-.9.571a2.114 2.114 0 0 1-2.894-.645l-1.694-2.664a2.113 2.113 0 0 1 .636-2.905l1.781-1.132-1.132-1.779 1.779-1.132zm-5.169-4.2l-.885.562a1.059 1.059 0 0 0-.325 1.465l1.694 2.664a1.055 1.055 0 0 0 1.78-1.132z"/>
        <path data-name="Path 263" d="M463.554 571.342l.544.912a1 1 0 0 0 .644.475 1.025 1.025 0 0 0 .8-.12l.9-.537a1 1 0 0 0 .363-1.439l.91-.544a2.013 2.013 0 0 1-.735 2.882l-1.811 1.082a2.113 2.113 0 0 1-2.875-.724l-2.7-4.521 1.8-1.075.537.9a1.009 1.009 0 0 1 .373-1.444l.9-.537a2.123 2.123 0 0 1 2.892.729 2 2 0 0 1 .221 1.588 2.037 2.037 0 0 1-.956 1.293zm-.538-.9l.911-.544a1.011 1.011 0 0 0 .475-.644 1 1 0 0 0-.114-.793 1.023 1.023 0 0 0-.647-.482.993.993 0 0 0-.8.109 1.012 1.012 0 0 0-.484.656 1.031 1.031 0 0 0 .117.8z"/>
        <path data-name="Path 264" d="M455.808 577.006l.913-.514q.636.844 1.384.424a1.32 1.32 0 0 0 .618-.6.783.783 0 0 0-.077-.7q-.223-.4-1.957-.362a3.34 3.34 0 0 1-1.8-.263 2.354 2.354 0 0 1-.63-.732 2.111 2.111 0 0 1 .8-2.873l.913-.514a1.865 1.865 0 0 1 2.873.8l-.925.519q-.63-.863-1.379-.441a1.347 1.347 0 0 0-.629.607.8.8 0 0 0 .083.715q.218.386 1.951.351a3.412 3.412 0 0 1 1.8.259 2.336 2.336 0 0 1 .636.73 2.126 2.126 0 0 1-.805 2.873l-.913.513a1.93 1.93 0 0 1-2.856-.792z"/>
        <path data-name="Path 265" d="M454.963 582.243l-1.85.986-.993-1.86-.935.5-.493-.925.935-.5-1.978-3.711a.951.951 0 0 0-.672-.536 1.039 1.039 0 0 0-.675.052l-.089.048-.493-.926.936-.5a2.113 2.113 0 0 1 2.842.875l1.98 3.711.935-.5.493.924-.935.5z"/>
        <path data-name="Path 266" d="M438.809 583.365l3.778-1.848-.461-.941a1.025 1.025 0 0 0-.6-.534.994.994 0 0 0-.8.041l-.953.466a.932.932 0 0 0-.476 1.414l-.942.46q-.711-2 .957-2.816l1.894-.927a2.04 2.04 0 0 1 1.606-.1 2.02 2.02 0 0 1 1.216 1.064l1.38 2.841a2.012 2.012 0 0 1 .088 1.6 2.042 2.042 0 0 1-1.061 1.208l-1.9.926a2.114 2.114 0 0 1-2.8-.963zm4.238-.906l-1.9.926.466.954a1.057 1.057 0 0 0 1.9-.927z"/>
        <path data-name="Path 267" d="M435.593 581.39l.653 1.438a1.956 1.956 0 0 1 .121 1.548 2.626 2.626 0 0 1-1.167 1.245 2.562 2.562 0 0 1 1.7-.068 1.961 1.961 0 0 1 1.085 1.1l.654 1.437-1.92.873-.868-1.908a1.019 1.019 0 0 0-.593-.555 1.008 1.008 0 0 0-.8.023 1.056 1.056 0 0 0-.526 1.4l.868 1.908-1.908.869-.655-1.437a1.976 1.976 0 0 1-.124-1.539 2.52 2.52 0 0 1 1.165-1.237 2.583 2.583 0 0 1-1.7.053 1.979 1.979 0 0 1-1.078-1.1l-.653-1.437 1.908-.869.873 1.92a1.01 1.01 0 0 0 .588.545 1.024 1.024 0 0 0 .812-.03 1.057 1.057 0 0 0 .52-1.388l-.873-1.92z"/>
        <path data-name="Path 268" d="M430.811 591.622l-1.945.819-.406-.966a1.063 1.063 0 0 1 .062.83 1.078 1.078 0 0 1-.621.543l-.978.412a2.114 2.114 0 0 1-2.746-1.118l-1.227-2.91a2.114 2.114 0 0 1 1.114-2.758l1.943-.818-.818-1.944 1.943-.819zm-4.4-5l-.966.407a1.056 1.056 0 0 0-.565 1.39l1.226 2.909a1.054 1.054 0 0 0 1.945-.018 1.016 1.016 0 0 0 0-.8z"/>
        <path data-name="Path 269" d="M415.508 593.285l3.92-1.525-.38-.976a1.026 1.026 0 0 0-.559-.583 1 1 0 0 0-.8-.026l-.99.384a.931.931 0 0 0-.591 1.368l-.978.38q-.54-2.052 1.189-2.725l1.966-.764a2.125 2.125 0 0 1 2.731 1.2l1.144 2.944a2 2 0 0 1-.048 1.6 2.035 2.035 0 0 1-1.158 1.114l-1.966.765a2.114 2.114 0 0 1-2.713-1.194zm4.3-.547l-1.966.764.385.989a1 1 0 0 0 .555.576 1.03 1.03 0 0 0 .813.017 1.057 1.057 0 0 0 .6-1.358z"/>
        <path data-name="Path 270" d="M410.43 591.77l1.983-.716 2.5 6.927-1.984.716-.712-1.973a2.6 2.6 0 0 1-.078 1.7 1.974 1.974 0 0 1-1.2.989l-.986.355-.711-1.972 1.984-.716a1.01 1.01 0 0 0 .59-.541 1.026 1.026 0 0 0 .036-.813z"/>
        <path data-name="Path 271" d="M406.501 593.16l2.376 6.97-2 .68-2.376-6.97zm2.719 7.973l.338.993-2 .68-.338-.992z"/>
        <path data-name="Path 272" d="M397.498 599.426l4.008-1.273-.317-1a1.021 1.021 0 0 0-.521-.616.994.994 0 0 0-.8-.077l-1.01.321a.931.931 0 0 0-.678 1.328l-1 .317q-.411-2.082 1.359-2.644l2.01-.639a2.125 2.125 0 0 1 2.649 1.371l.956 3.01a2.011 2.011 0 0 1-.149 1.6 2.039 2.039 0 0 1-1.227 1.039l-2.009.638a2.113 2.113 0 0 1-2.634-1.363zm4.325-.274l-2.009.639.321 1.011a1.008 1.008 0 0 0 .518.611 1.025 1.025 0 0 0 .81.067 1.057 1.057 0 0 0 .682-1.316z"/>
        <path data-name="Path 273" d="M394.605 597.002l2.032 7.078-2.028.581-.29-1.007a1.276 1.276 0 0 1-.1.849.99.99 0 0 1-.62.448l-1.02.292a2.112 2.112 0 0 1-2.594-1.437l-1.453-5.062 2.015-.578 1.453 5.062a1.007 1.007 0 0 0 .5.625 1.026 1.026 0 0 0 .808.09 1.056 1.056 0 0 0 .717-1.3l-1.453-5.062z"/>
        <path data-name="Path 274" d="M382.768 605.696l1.014-.263a1.055 1.055 0 0 0 2.042-.528l-.791-3.057a1.024 1.024 0 0 0-.486-.643 1 1 0 0 0-.795-.121 1.016 1.016 0 0 0-.761 1.293l-1.014.262a1.934 1.934 0 0 1 1.513-2.57l1.015-.263a2.04 2.04 0 0 1 1.592.228 2.016 2.016 0 0 1 .978 1.286l.791 3.057a2 2 0 0 1-.235 1.587 2.041 2.041 0 0 1-1.281.971l-1.016.262a1.921 1.921 0 0 1-2.566-1.501z"/>
        <path data-name="Path 275" d="M374.02 605.585l4.1-.946-.236-1.021a1.032 1.032 0 0 0-.469-.657 1 1 0 0 0-.791-.141l-1.033.238a.932.932 0 0 0-.783 1.27l-1.022.235q-.24-2.109 1.569-2.526l2.055-.475a2.126 2.126 0 0 1 2.53 1.581l.71 3.076a2.012 2.012 0 0 1-.277 1.581 2.042 2.042 0 0 1-1.306.937l-2.056.474a2.113 2.113 0 0 1-2.515-1.571zm4.334.076l-2.055.473.238 1.035a1.015 1.015 0 0 0 .468.65 1.032 1.032 0 0 0 .8.133 1.058 1.058 0 0 0 .786-1.258z"/>
        <path data-name="Path 276" d="M367.187 609.151l1.026-.209q.345 1 1.188.829a1.326 1.326 0 0 0 .772-.383.784.784 0 0 0 .143-.692q-.091-.447-1.752-.946a3.343 3.343 0 0 1-1.632-.8 2.376 2.376 0 0 1-.375-.891 2.111 2.111 0 0 1 1.647-2.487l1.028-.209a1.864 1.864 0 0 1 2.486 1.646l-1.039.212q-.336-1.014-1.177-.843a1.351 1.351 0 0 0-.785.385.8.8 0 0 0-.141.705q.089.434 1.749.933a3.4 3.4 0 0 1 1.639.8 2.318 2.318 0 0 1 .381.888 2.126 2.126 0 0 1-1.647 2.488l-1.027.209a1.929 1.929 0 0 1-2.484-1.635z"/>
        <path data-name="Path 277" d="M357.592 609.773l.173 1.047a1.011 1.011 0 0 0 .426.679 1.026 1.026 0 0 0 .792.182l1.034-.172q.922-.152.863-1.205l1.047-.173q.091 2.11-1.739 2.414l-2.081.343a2.113 2.113 0 0 1-2.411-1.726l-.859-5.2 2.068-.341.171 1.034q-.045-1.055.876-1.207l1.034-.171a2.122 2.122 0 0 1 2.425 1.736 2 2 0 0 1-.375 1.56 2.039 2.039 0 0 1-1.363.853zm-.171-1.034l1.047-.173a1.056 1.056 0 0 0 .862-1.206 1.025 1.025 0 0 0-.427-.685 1.037 1.037 0 0 0-1.469.244 1.03 1.03 0 0 0-.184.786z"/>
        <path data-name="Path 278" d="M352.814 606.273l1 7.295-2.09.286-.143-1.039a1.275 1.275 0 0 1-.218.827.987.987 0 0 1-.678.354l-1.051.144a2.114 2.114 0 0 1-2.362-1.794l-.714-5.217 2.077-.285.715 5.218a1.008 1.008 0 0 0 .406.691 1.027 1.027 0 0 0 .787.205 1.06 1.06 0 0 0 .9-1.181l-.715-5.219z"/>
        <path data-name="Path 279" d="M338.237 608.059l2.084-.226.113 1.042q.013-1.056.942-1.157l1.042-.113a2.125 2.125 0 0 1 2.325 1.869l.341 3.139a2.011 2.011 0 0 1-.463 1.537 2.032 2.032 0 0 1-1.408.775l-2.1.228.227 2.1-2.084.226zm2.766 6.052l1.054-.114a1.058 1.058 0 0 0 .929-1.156l-.34-3.139a1.031 1.031 0 0 0-.388-.707 1 1 0 0 0-.769-.235 1.013 1.013 0 0 0-.713.395 1.03 1.03 0 0 0-.227.774z"/>
        <path data-name="Path 280" d="M327.297 616.306l-.516-7.345 2.092-.147.073 1.046q.053-1.055.985-1.12l1.046-.073a2.123 2.123 0 0 1 2.252 1.957l.367 5.241-2.1.147-.368-5.241a1.031 1.031 0 0 0-.36-.722 1 1 0 0 0-.759-.263 1.012 1.012 0 0 0-.728.367 1.031 1.031 0 0 0-.257.766l.368 5.241z"/>
        <path data-name="Path 281" d="M324.739 609.077l.313 7.356-2.108.089-.044-1.047a1.284 1.284 0 0 1-.294.8.989.989 0 0 1-.709.289l-1.06.045a2.116 2.116 0 0 1-2.184-2.006l-.223-5.262 2.1-.088.223 5.261a1.014 1.014 0 0 0 .34.726 1.025 1.025 0 0 0 .765.276 1.056 1.056 0 0 0 1-1.092l-.228-5.258z"/>
        <path data-name="Path 282" d="M310.052 609.503l2.1-.035.017 1.049q.109-1.05 1.044-1.065l1.048-.018a2.124 2.124 0 0 1 2.143 2.075l.051 3.158a2 2 0 0 1-.6 1.487 2.037 2.037 0 0 1-1.473.643l-2.109.034.034 2.109-2.1.034zm2.2 6.28l1.06-.017a1.057 1.057 0 0 0 1.031-1.065l-.051-3.157a1.026 1.026 0 0 0-.321-.741 1 1 0 0 0-.744-.3 1.012 1.012 0 0 0-.746.328 1.032 1.032 0 0 0-.3.75z"/>
        <path data-name="Path 283" d="M301.641 612.568l4.205.067.017-1.047a1.024 1.024 0 0 0-.3-.75 1 1 0 0 0-.733-.329l-1.061-.016a.932.932 0 0 0-1.065 1.044l-1.049-.018q.274-2.1 2.131-2.074l2.109.034a2.122 2.122 0 0 1 2.074 2.143l-.05 3.157a2.017 2.017 0 0 1-.65 1.468 2.04 2.04 0 0 1-1.494.594l-2.108-.034a2.114 2.114 0 0 1-2.063-2.131zm4.189 1.117l-2.109-.034-.018 1.061a1.013 1.013 0 0 0 .3.744 1.026 1.026 0 0 0 .746.321 1.057 1.057 0 0 0 1.065-1.031z"/>
        <path data-name="Path 284" d="M297.544 609.285l2.108.076-.268 7.358-2.108-.076.077-2.1a2.605 2.605 0 0 1-.707 1.547 1.968 1.968 0 0 1-1.477.471l-1.048-.038.076-2.1 2.108.076a1.01 1.01 0 0 0 .75-.282 1.022 1.022 0 0 0 .336-.739z"/>
        <path data-name="Path 285" d="M287.8 614.063l1.046.062q.078 1.055.935 1.1a1.32 1.32 0 0 0 .845-.172.783.783 0 0 0 .316-.633q.025-.453-1.451-1.363-1.209-.743-1.372-1.194a2.372 2.372 0 0 1-.134-.957 2.115 2.115 0 0 1 2.229-1.982l1.047.062a1.865 1.865 0 0 1 1.982 2.229l-1.059-.062q-.065-1.066-.921-1.116a1.337 1.337 0 0 0-.858.171.8.8 0 0 0-.317.645q-.026.441 1.452 1.351a3.413 3.413 0 0 1 1.379 1.194 2.325 2.325 0 0 1 .139.957 2.122 2.122 0 0 1-2.229 1.981l-1.047-.061a1.93 1.93 0 0 1-1.982-2.212z"/>
        <path data-name="Path 286" d="M284.249 618.013l-2.09-.17.171-2.1-1.057-.086.085-1.045 1.057.086.341-4.192a.95.95 0 0 0-.275-.814 1.032 1.032 0 0 0-.6-.321l-.1-.008.085-1.045 1.057.086a2.112 2.112 0 0 1 1.919 2.272l-.341 4.192 1.057.086-.085 1.045-1.057-.086z"/>
        <path data-name="Path 287" d="M275.196 611.876l-.112 1.055a1.011 1.011 0 0 0 .23.767 1.024 1.024 0 0 0 .715.387l1.042.11q.93.1 1.153-.932l1.055.112q-.471 2.058-2.318 1.863l-2.1-.223a2.112 2.112 0 0 1-1.864-2.3l.555-5.239 2.085.221-.111 1.043c.158-.687.546-1 1.165-.931l1.043.111a2.121 2.121 0 0 1 1.875 2.319 2.006 2.006 0 0 1-.776 1.4 2.033 2.033 0 0 1-1.541.459zm.11-1.042l1.055.111a1.056 1.056 0 0 0 1.153-.932 1.03 1.03 0 0 0-.229-.774 1.036 1.036 0 0 0-1.482-.156 1.027 1.027 0 0 0-.386.708z"/>
        <path data-name="Path 288" d="M271.535 607.231l-.978 7.3-2.09-.28.139-1.039a1.28 1.28 0 0 1-.431.738.987.987 0 0 1-.747.161l-1.052-.141a2.112 2.112 0 0 1-1.8-2.356l.7-5.221 2.078.28-.7 5.219a1.012 1.012 0 0 0 .208.774 1.028 1.028 0 0 0 .7.406 1.056 1.056 0 0 0 1.178-.9l.7-5.22z"/>
        <path data-name="Path 289" d="M257.014 605.079l2.07.337-.168 1.034a1.008 1.008 0 0 1 1.215-.864l1.035.168a2.034 2.034 0 0 1 1.365.849 2.014 2.014 0 0 1 .378 1.571l-.507 3.117a2 2 0 0 1-.854 1.358 2.033 2.033 0 0 1-1.564.372l-2.082-.338-.338 2.082-2.069-.337zm1.056 6.569l1.048.171a1.057 1.057 0 0 0 1.2-.867l.507-3.116a1.027 1.027 0 0 0-.186-.786 1 1 0 0 0-.678-.43 1.011 1.011 0 0 0-.792.191 1.032 1.032 0 0 0-.426.686z"/>
        <path data-name="Path 290" d="M251.068 602.907a.975.975 0 0 0-.816-1.247l-1.028-.208a1.056 1.056 0 0 0-1.25.829l-.416 2.055a1.009 1.009 0 0 1 1.248-.817l1.027.208a2.124 2.124 0 0 1 1.649 2.486l-1.042 5.149-2.067-.418 1.042-5.149a1.03 1.03 0 0 0-.156-.792.994.994 0 0 0-.661-.456 1.015 1.015 0 0 0-.8.16 1.032 1.032 0 0 0-.451.669l-1.042 5.149-2.055-.416 1.669-8.244a2.038 2.038 0 0 1 .9-1.332 2.007 2.007 0 0 1 1.572-.319l2.068.418q1.818.369 1.649 2.486z"/>
        <path data-name="Path 291" d="M240.018 609.163l-2.055-.477a2.112 2.112 0 0 1-1.569-2.515l.712-3.077a2.037 2.037 0 0 1 .938-1.3 2.008 2.008 0 0 1 1.581-.276l2.054.476a2.125 2.125 0 0 1 1.579 2.531l-.712 3.076a2 2 0 0 1-.943 1.3 2.033 2.033 0 0 1-1.585.262zm.473-2.043l.712-3.076a1.023 1.023 0 0 0-.133-.8 1 1 0 0 0-.648-.475 1.067 1.067 0 0 0-1.273.794l-.713 3.076a1.055 1.055 0 0 0 2.055.476z"/>
        <path data-name="Path 292" d="M227.622 606.076l1.862-7.124 2.029.53-.266 1.014a1.008 1.008 0 0 1 1.292-.745l1.014.264a2.043 2.043 0 0 1 1.28.975 2.022 2.022 0 0 1 .227 1.6l-1.328 5.084-2.041-.534 1.329-5.083a1.035 1.035 0 0 0-.111-.8 1.037 1.037 0 0 0-1.442-.376 1.028 1.028 0 0 0-.488.642l-1.329 5.084z"/>
        <path data-name="Path 293" d="M225.473 597.811l2.027.584-2.037 7.076-2.027-.584.58-2.014a2.6 2.6 0 0 1-1.06 1.331 1.974 1.974 0 0 1-1.547.1l-1.007-.29.58-2.014 2.027.583a1.009 1.009 0 0 0 .795-.093 1.027 1.027 0 0 0 .506-.637z"/>
        <path data-name="Path 294" d="M215.916 603.73l-.318 1-2.01-.64.318-1zm2.557-8.026l-2.235 7.015-2.01-.639 2.235-7.016z"/>
        <path data-name="Path 295" d="M214.507 594.441l-2.383 6.967-1.995-.683.339-.991a1.286 1.286 0 0 1-.567.641.99.99 0 0 1-.764.011l-1-.343a2.114 2.114 0 0 1-1.307-2.658l1.7-4.984 1.984.679-1.7 4.983a1 1 0 0 0 .054.8 1.017 1.017 0 0 0 .611.536 1.058 1.058 0 0 0 1.331-.652l1.7-4.984z"/>
        <path data-name="Path 296" d="M202.318 600.213l-1.966-.728.731-1.979-.995-.368.363-.982.995.367 1.458-3.944a.953.953 0 0 0-.045-.86 1.036 1.036 0 0 0-.487-.468l-.1-.036.364-.983 1 .368a2.114 2.114 0 0 1 1.235 2.7l-1.458 3.946 1 .367-.363.983-1-.368z"/>
        <path data-name="Path 297" d="M193.708 590.119l3.908 1.554.388-.974a1.029 1.029 0 0 0-.013-.807.991.991 0 0 0-.569-.566l-.986-.393a.933.933 0 0 0-1.367.6l-.974-.388q1-1.871 2.728-1.184l1.96.779a2.123 2.123 0 0 1 1.18 2.739l-1.166 2.934a2.008 2.008 0 0 1-1.128 1.142 2.032 2.032 0 0 1-1.607.027l-1.96-.78a2.113 2.113 0 0 1-1.174-2.723zm3.521 2.528l-1.96-.78-.392.986a1.01 1.01 0 0 0 .014.8 1.021 1.021 0 0 0 .584.565 1.056 1.056 0 0 0 1.362-.587z"/>
        <path data-name="Path 298" d="M191.043 585.563l1.94.827-2.889 6.774-1.94-.828.823-1.929a2.6 2.6 0 0 1-1.216 1.191 1.965 1.965 0 0 1-1.547-.09l-.964-.411.822-1.928 1.94.827a1.013 1.013 0 0 0 .8.006 1.027 1.027 0 0 0 .58-.571z"/>
        <path data-name="Path 299" d="M180.162 584.174l3.827 1.745.434-.955a1.023 1.023 0 0 0 .028-.8.991.991 0 0 0-.541-.594l-.966-.44a.932.932 0 0 0-1.394.53l-.953-.435q1.092-1.82 2.782-1.049l1.919.875a2.123 2.123 0 0 1 1.045 2.793l-1.31 2.874a2.006 2.006 0 0 1-1.181 1.085 2.04 2.04 0 0 1-1.608-.052l-1.919-.875a2.113 2.113 0 0 1-1.038-2.778zm3.392 2.7l-1.919-.875-.44.966a1 1 0 0 0-.025.8 1.021 1.021 0 0 0 .555.594 1.059 1.059 0 0 0 1.389-.519z"/>
        <path data-name="Path 300" d="M172.561 582.836l.942.46q-.334 1 .437 1.379a1.312 1.312 0 0 0 .846.166.78.78 0 0 0 .535-.461q.2-.41-.814-1.818a3.352 3.352 0 0 1-.807-1.63 2.376 2.376 0 0 1 .246-.934 2.113 2.113 0 0 1 2.82-.971l.942.46a1.864 1.864 0 0 1 .971 2.82l-.953-.465q.351-1.008-.421-1.385a1.34 1.34 0 0 0-.857-.172.8.8 0 0 0-.541.473q-.193.4.82 1.806a3.412 3.412 0 0 1 .812 1.633 2.317 2.317 0 0 1-.239.936 2.124 2.124 0 0 1-2.821.971l-.942-.459a1.93 1.93 0 0 1-.976-2.809z"/>
        <path data-name="Path 301" d="M167.782 585.122l-1.862-.962.967-1.874-.943-.487.481-.931.943.486 1.929-3.737a.951.951 0 0 0 .06-.858 1.04 1.04 0 0 0-.426-.525l-.09-.046.481-.932.943.487a2.113 2.113 0 0 1 .895 2.836l-1.929 3.737.942.487-.481.931-.942-.486z"/>
        <path data-name="Path 302" d="M160.35 576.396l.921.5q-.381.987.374 1.4a1.334 1.334 0 0 0 .837.205.783.783 0 0 0 .556-.439q.218-.4-.731-1.851a3.349 3.349 0 0 1-.732-1.665 2.37 2.37 0 0 1 .287-.922 2.112 2.112 0 0 1 2.862-.842l.92.5a1.864 1.864 0 0 1 .842 2.861l-.932-.508q.4-.992-.356-1.4a1.342 1.342 0 0 0-.849-.211.8.8 0 0 0-.562.449q-.21.389.738 1.84a3.414 3.414 0 0 1 .737 1.669 2.326 2.326 0 0 1-.282.925 2.016 2.016 0 0 1-1.263 1.009 2.037 2.037 0 0 1-1.6-.167l-.92-.5a1.931 1.931 0 0 1-.847-2.853z"/>
        <path data-name="Path 303" d="M160.03 572.585l-1.831-1.046 1.045-1.831q.926-1.625 2.877-.787l-.526.921a.969.969 0 0 0-1.441.385l.922.526z"/>
        <path data-name="Path 304" d="M147.546 568.853l.9.546q-.428.968.3 1.415a1.325 1.325 0 0 0 .827.245.78.78 0 0 0 .576-.41q.237-.388-.64-1.885a3.353 3.353 0 0 1-.65-1.7 2.39 2.39 0 0 1 .332-.907 2.114 2.114 0 0 1 2.9-.7l.9.546a1.864 1.864 0 0 1 .7 2.9l-.906-.553q.445-.971-.288-1.419a1.349 1.349 0 0 0-.838-.252.8.8 0 0 0-.582.421q-.229.378.646 1.874a3.416 3.416 0 0 1 .656 1.7 2.326 2.326 0 0 1-.327.912 2.124 2.124 0 0 1-2.9.7l-.9-.546a1.932 1.932 0 0 1-.706-2.887z"/>
        <path data-name="Path 305" d="M148.544 563.268l-5.145 7.953-1.769-1.145 2.573-3.977-4.078.49-1.771-1.145 5.7-.691-1.7-5.492 1.771 1.146 1.224 3.921 1.428-2.205z"/>
        <path data-name="Path 306" d="M136.814 565.659l-.588.868-1.746-1.183.587-.868zm4.722-6.977l-4.128 6.1-1.746-1.183 4.128-6.1z"/>
        <path data-name="Path 307" d="M138.088 556.331l-5.418 7.769-1.73-1.206 5.418-7.77z"/>
        <path data-name="Path 308" d="M134.673 553.932l-5.525 7.694-1.718-1.231 5.526-7.693z"/>
        <path data-name="Path 309" d="M123.918 552.561l.839.627q-.516.922.172 1.438a1.328 1.328 0 0 0 .8.322.785.785 0 0 0 .612-.355q.271-.364-.461-1.937a3.34 3.34 0 0 1-.487-1.752 2.375 2.375 0 0 1 .415-.872 2.114 2.114 0 0 1 2.952-.427l.84.628a1.864 1.864 0 0 1 .426 2.952l-.849-.635q.534-.926-.154-1.439a1.343 1.343 0 0 0-.81-.33.8.8 0 0 0-.62.364q-.264.354.468 1.927a3.4 3.4 0 0 1 .493 1.757 2.33 2.33 0 0 1-.41.875 2.017 2.017 0 0 1-1.393.819 2.039 2.039 0 0 1-1.559-.392l-.84-.628a1.93 1.93 0 0 1-.434-2.942z"/>
        <path data-name="Path 310" d="M124.149 548.748l-1.665-1.295 1.295-1.665q1.148-1.476 2.96-.37l-.651.838a.969.969 0 0 0-1.481.175l.837.652z"/>
        <path data-name="Path 311" d="M112.309 543.274l.808.667q-.559.9.1 1.444a1.329 1.329 0 0 0 .783.361.783.783 0 0 0 .628-.325q.291-.351-.365-1.957a3.355 3.355 0 0 1-.4-1.774 2.4 2.4 0 0 1 .458-.851 2.115 2.115 0 0 1 2.969-.283l.808.668a1.864 1.864 0 0 1 .283 2.97l-.817-.676q.577-.9-.084-1.445a1.354 1.354 0 0 0-.794-.369.8.8 0 0 0-.636.335q-.282.339.374 1.946a3.413 3.413 0 0 1 .407 1.778 2.316 2.316 0 0 1-.452.855 2.125 2.125 0 0 1-2.97.283l-.808-.668a1.93 1.93 0 0 1-.292-2.959z"/>
        <path data-name="Path 312" d="M107.112 544.365l-1.586-1.371 1.38-1.6-.8-.694.685-.793.8.694 2.75-3.182a.949.949 0 0 0 .259-.82 1.043 1.043 0 0 0-.291-.61l-.076-.066.686-.793.8.694a2.113 2.113 0 0 1 .206 2.967l-2.75 3.181.8.695-.685.793-.8-.7z"/>
        <path data-name="Path 313" d="M107.813 532.362l1.566 1.412-4.93 5.469-1.567-1.412 1.4-1.558a2.6 2.6 0 0 1-1.536.733 1.971 1.971 0 0 1-1.434-.587l-.779-.7 1.4-1.557 1.566 1.413a1.016 1.016 0 0 0 .756.265 1.028 1.028 0 0 0 .734-.351z"/>
        <path data-name="Path 314" d="M97.984 527.528l3.054 2.892.721-.762a1.029 1.029 0 0 0 .288-.754 1 1 0 0 0-.32-.737l-.771-.73a.932.932 0 0 0-1.49.05l-.762-.72q1.625-1.368 2.973-.091l1.532 1.45a2.125 2.125 0 0 1 .082 2.982l-2.171 2.293a2.008 2.008 0 0 1-1.469.644 2.039 2.039 0 0 1-1.5-.572l-1.532-1.449a2.112 2.112 0 0 1-.081-2.964zm2.334 3.652l-1.532-1.449-.729.771a1 1 0 0 0-.283.749 1.021 1.021 0 0 0 .333.741 1.056 1.056 0 0 0 1.481-.041z"/>
        <path data-name="Path 315" d="M98.675 523.796l-5.208 5.205-1.491-1.493.741-.741a1.274 1.274 0 0 1-.79.326.987.987 0 0 1-.692-.326l-.75-.75a2.114 2.114 0 0 1 0-2.966l3.725-3.722 1.482 1.482-3.725 3.724a1 1 0 0 0-.3.741 1.023 1.023 0 0 0 .312.75 1.058 1.058 0 0 0 1.483 0l3.725-3.724z"/>
        <path data-name="Path 316" d="M83.102 518.339l6.112-5.779a2.04 2.04 0 0 1 1.5-.57 2.008 2.008 0 0 1 1.47.644l1.449 1.533q1.275 1.348-.083 2.982l-.729-.771a.977.977 0 0 0 .051-1.491l-.721-.761a1.055 1.055 0 0 0-1.5-.042l-1.523 1.44a1.009 1.009 0 0 1 1.491.051l.72.762a2.04 2.04 0 0 1 .57 1.5 2.017 2.017 0 0 1-.654 1.479l-2.291 2.169a2 2 0 0 1-1.5.56 2.035 2.035 0 0 1-1.469-.653zm2.2.8l.729.772a1.057 1.057 0 0 0 1.482.041l2.294-2.169a1.031 1.031 0 0 0 .329-.738 1 1 0 0 0-.278-.753 1.018 1.018 0 0 0-.746-.33 1.033 1.033 0 0 0-.754.288z"/>
        <path data-name="Path 317" d="M79.322 517.316l-1.4-1.558 1.567-1.412-.71-.788.779-.7.71.788 3.125-2.814a.949.949 0 0 0 .358-.783 1.031 1.031 0 0 0-.212-.641l-.068-.075.779-.7.71.788a2.113 2.113 0 0 1-.164 2.969l-3.125 2.815.711.788-.78.7-.71-.788z"/>
        <path data-name="Path 318" d="M82.891 507.106l-7.19 6.168-1.373-1.6 2.4-2.056a1.277 1.277 0 0 1-.813.264.983.983 0 0 1-.665-.377l-.691-.8a2.114 2.114 0 0 1 .227-2.957l4-3.429 1.365 1.592-4 3.429a1 1 0 0 0-.359.715 1.02 1.02 0 0 0 .254.772 1.057 1.057 0 0 0 1.478.113l4-3.428z"/>
        <path data-name="Path 319" d="M70.05 499.961l.662.813q-.726.77-.184 1.436a1.32 1.32 0 0 0 .7.506.776.776 0 0 0 .679-.194q.354-.286.025-1.991a3.345 3.345 0 0 1-.046-1.817 2.37 2.37 0 0 1 .615-.746 2.111 2.111 0 0 1 2.967.305l.662.814a1.863 1.863 0 0 1-.3 2.966l-.67-.822q.744-.768.2-1.433a1.352 1.352 0 0 0-.706-.518.794.794 0 0 0-.689.2q-.343.279-.016 1.982a3.413 3.413 0 0 1 .051 1.824 2.311 2.311 0 0 1-.612.75 2.124 2.124 0 0 1-2.967-.306l-.661-.812a1.931 1.931 0 0 1 .29-2.957z"/>
        <path data-name="Path 320" d="M71.205 496.322l-1.3-1.661 1.662-1.3q1.471-1.154 2.96.361l-.835.654a.968.968 0 0 0-1.479-.19l.653.836z"/>
        <path data-name="Path 321" d="M62.468 493.599l-1.247-1.7.846-.62a.926.926 0 0 1-1.465-.226l-.628-.855a2.113 2.113 0 0 1 .451-2.931l2.547-1.866a2.111 2.111 0 0 1 2.94.443l1.247 1.7 1.7-1.248 1.248 1.7zm3.846-5.435l-.62-.845a1.055 1.055 0 0 0-1.483-.229l-2.546 1.868a1.007 1.007 0 0 0-.413.686 1.027 1.027 0 0 0 .195.789 1.059 1.059 0 0 0 1.465.226z"/>
        <path data-name="Path 322" d="M57.307 479.1l2.391 3.459.863-.595a1.031 1.031 0 0 0 .437-.679 1 1 0 0 0-.161-.787l-.6-.873a.932.932 0 0 0-1.469-.259l-.6-.862q1.872-1 2.927.525l1.2 1.735a2.125 2.125 0 0 1-.536 2.934l-2.6 1.8a2.005 2.005 0 0 1-1.571.326 2.038 2.038 0 0 1-1.353-.868l-1.2-1.736a2.112 2.112 0 0 1 .532-2.917zm1.53 4.056l-1.2-1.735-.873.6a1.014 1.014 0 0 0-.432.675 1.027 1.027 0 0 0 .173.794 1.058 1.058 0 0 0 1.458.266z"/>
        <path data-name="Path 323" d="M57.597 473.811l1.157 1.764-6.157 4.039-1.156-1.764 1.752-1.15a2.592 2.592 0 0 1-1.671.319 1.969 1.969 0 0 1-1.238-.932l-.575-.877 1.753-1.15 1.157 1.764a1.008 1.008 0 0 0 .663.448 1.029 1.029 0 0 0 .8-.153z"/>
        <path data-name="Path 324" d="M48.082 468.657l.555.889q-.816.674-.361 1.4a1.325 1.325 0 0 0 .629.591.778.778 0 0 0 .7-.11q.385-.24.273-1.971a3.351 3.351 0 0 1 .181-1.81 2.357 2.357 0 0 1 .7-.662 2.111 2.111 0 0 1 2.906.672l.555.89a1.865 1.865 0 0 1-.673 2.906l-.562-.9q.834-.668.379-1.4a1.346 1.346 0 0 0-.635-.6.794.794 0 0 0-.71.116q-.375.234-.263 1.964a3.4 3.4 0 0 1-.177 1.816 2.306 2.306 0 0 1-.7.668 2.123 2.123 0 0 1-2.906-.673l-.554-.889a1.929 1.929 0 0 1 .663-2.897z"/>
        <path data-name="Path 325" d="M44.074 466.048l-1.07-1.818a2.112 2.112 0 0 1 .744-2.87l2.721-1.6a2.037 2.037 0 0 1 1.593-.219 2.008 2.008 0 0 1 1.288.957l1.07 1.817a2.125 2.125 0 0 1-.748 2.888l-2.722 1.6a2 2 0 0 1-1.591.21 2.03 2.03 0 0 1-1.285-.965zm1.806-1.064l2.722-1.6a1.03 1.03 0 0 0 .486-.644 1.039 1.039 0 0 0-.756-1.285 1.032 1.032 0 0 0-.8.111l-2.721 1.6a1 1 0 0 0-.48.641 1.027 1.027 0 0 0 .114.8 1.013 1.013 0 0 0 .642.479 1 1 0 0 0 .793-.101z"/>
        <path data-name="Path 326" d="M47.264 456.894l-6.448 3.555-1.019-1.847.918-.506a1.282 1.282 0 0 1-.849.094.989.989 0 0 1-.575-.506l-.512-.928a2.115 2.115 0 0 1 .824-2.849l4.612-2.543 1.012 1.836-4.612 2.543a1.009 1.009 0 0 0-.5.628 1.027 1.027 0 0 0 .092.807 1.057 1.057 0 0 0 1.423.407l4.613-2.541z"/>
        <path data-name="Path 327" d="M37.591 447.758l-.942.487a1.008 1.008 0 0 0-.515.613 1.023 1.023 0 0 0 .069.81l.48.931a.994.994 0 0 0 1.412.452l.487.943a2.012 2.012 0 0 1-2.83-.914l-.967-1.874a2.114 2.114 0 0 1 .9-2.825l4.681-2.414.961 1.864-.932.48a1.01 1.01 0 0 1 1.418.463l.481.932a2.127 2.127 0 0 1-.909 2.842 2.014 2.014 0 0 1-1.6.121 2.041 2.041 0 0 1-1.23-1.036zm.933-.48l.485.943a1.058 1.058 0 0 0 1.413.452 1.028 1.028 0 0 0 .52-.617 1 1 0 0 0-.058-.8 1.013 1.013 0 0 0-.625-.524 1.03 1.03 0 0 0-.8.067z"/>
        <path data-name="Path 328" d="M39.459 442.106l-8.508 4.163-.927-1.894 8.508-4.163z"/>
        <path data-name="Path 329" d="M30.017 441.94l-.949.447-.9-1.907.948-.448zm7.618-3.6l-6.659 3.145-.9-1.907 6.658-3.144z"/>
        <path data-name="Path 330" d="M26.797 437.509l-.861-1.911 1.923-.867-.437-.967.956-.431.437.967 3.834-1.728a.956.956 0 0 0 .579-.636 1.041 1.041 0 0 0-.007-.676l-.041-.091.955-.432.436.968a2.114 2.114 0 0 1-1.061 2.78l-3.834 1.729.436.966-.956.431-.436-.967z"/>
        <path data-name="Path 331" d="M33.855 427.474a.976.976 0 0 0 .57-1.378l-.407-.966a1.055 1.055 0 0 0-1.389-.566l-1.933.816a1.009 1.009 0 0 1 1.379.57l.407.966a2.124 2.124 0 0 1-1.124 2.762l-4.842 2.041-.819-1.943 4.841-2.041a1.03 1.03 0 0 0 .567-.575 1 1 0 0 0 0-.8 1.066 1.066 0 0 0-1.39-.565l-4.841 2.041-.815-1.933 7.751-3.268a2.037 2.037 0 0 1 1.608 0 2 2 0 0 1 1.15 1.118l.819 1.944q.722 1.71-1.124 2.763z"/>
        <path data-name="Path 332" d="M28.13 421.91l-.778-1.96 1.96-.778q1.737-.69 2.739 1.181l-.986.392a.969.969 0 0 0-1.366-.6l.392.985z"/>
        <path data-name="Path 333" d="M22.05 411.777l-1 .36a1.057 1.057 0 0 0-.626 1.354l.356.986a1 1 0 0 0 1.342.63l.36 1a2.011 2.011 0 0 1-2.688-1.272l-.716-1.984a2.113 2.113 0 0 1 1.26-2.683l4.955-1.788.711 1.971-.986.357a1.008 1.008 0 0 1 1.346.641l.356.987a2.124 2.124 0 0 1-1.268 2.7 2.008 2.008 0 0 1-1.6-.087 2.04 2.04 0 0 1-1.086-1.186zm.986-.355l.36 1a1.057 1.057 0 0 0 1.342.629 1.03 1.03 0 0 0 .6-.543 1 1 0 0 0 .046-.8 1.015 1.015 0 0 0-.552-.6 1.032 1.032 0 0 0-.806-.038z"/>
        <path data-name="Path 334" d="M24.63 406.445l-6.993 2.3-.66-2 1-.328a1.282 1.282 0 0 1-.852-.066.979.979 0 0 1-.471-.6l-.332-1.008a2.112 2.112 0 0 1 1.335-2.647l5-1.649.656 1.992-5 1.648a1.006 1.006 0 0 0-.605.525 1.052 1.052 0 0 0 .466 1.416 1.009 1.009 0 0 0 .8.062l5-1.648z"/>
        <path data-name="Path 335" d="M20.23 392.448l.6 2.009-1.005.3a1.009 1.009 0 0 1 1.308.717l.3 1a2.126 2.126 0 0 1-1.418 2.625l-3.026.9a2.005 2.005 0 0 1-1.594-.176 2.039 2.039 0 0 1-1.018-1.245l-.6-2.021-2.021.6-.6-2.009zm-5.451 3.816l.3 1.017a1.055 1.055 0 0 0 1.3.7l3.026-.9a1.028 1.028 0 0 0 .625-.51 1 1 0 0 0 .091-.8 1.01 1.01 0 0 0-.518-.63 1.025 1.025 0 0 0-.8-.083z"/>
        <path data-name="Path 336" d="M10.666 385.216l-.522-2.03 3.645-.938a3.613 3.613 0 0 1 4.379 2.578l.679 2.642-7.131 1.833-.525-2.042 6.116-1.572-.261-1.016a1.012 1.012 0 0 0-.493-.649 1.03 1.03 0 0 0-.8-.114z"/>
        <path data-name="Path 337" d="M11.756 376.175l-1.034.235a1.057 1.057 0 0 0-.787 1.267l.232 1.022a1 1 0 0 0 1.255.79l.235 1.035a2.013 2.013 0 0 1-2.512-1.592l-.468-2.057a2.113 2.113 0 0 1 1.58-2.509l5.136-1.168.465 2.045-1.023.232a1.008 1.008 0 0 1 1.257.8l.233 1.022a2.125 2.125 0 0 1-1.589 2.525 2.008 2.008 0 0 1-1.58-.282 2.039 2.039 0 0 1-.932-1.31zm1.022-.232l.236 1.034a1.056 1.056 0 0 0 1.254.79 1.026 1.026 0 0 0 .658-.467.994.994 0 0 0 .144-.79 1.011 1.011 0 0 0-.474-.663 1.028 1.028 0 0 0-.8-.136z"/>
        <path data-name="Path 338" d="M14.978 371.179l-9.279 1.9-.424-2.066 9.278-1.9z"/>
        <path data-name="Path 339" d="M5.755 362.203l7.242-1.328.379 2.062-1.031.189a1.009 1.009 0 0 1 1.222.854l.189 1.031a2.121 2.121 0 0 1-1.693 2.455l-5.168.949-.381-2.075 5.168-.948a1.032 1.032 0 0 0 .677-.439 1 1 0 0 0 .177-.784 1.011 1.011 0 0 0-.446-.682 1.032 1.032 0 0 0-.789-.17l-5.168.948z"/>
        <path data-name="Path 340" d="M8.574 353.122l.643 4.156 1.036-.16a1.029 1.029 0 0 0 .689-.42.994.994 0 0 0 .2-.778l-.162-1.049a.932.932 0 0 0-1.209-.873l-.161-1.036q2.123-.085 2.406 1.749l.323 2.085a2.042 2.042 0 0 1-.385 1.561 2.021 2.021 0 0 1-1.377.845l-3.121.484a2.011 2.011 0 0 1-1.555-.392 2.038 2.038 0 0 1-.839-1.372l-.323-2.084a2.113 2.113 0 0 1 1.751-2.393zm-.393 4.317l-.322-2.085-1.049.163a1.007 1.007 0 0 0-.683.419 1.024 1.024 0 0 0-.191.79 1.057 1.057 0 0 0 1.2.875z"/>
        <path data-name="Path 341" d="M5.52 346.044l.133 1.04q-1.023.271-.913 1.123a1.322 1.322 0 0 0 .325.8.782.782 0 0 0 .68.193q.451-.059 1.072-1.678a3.343 3.343 0 0 1 .919-1.57 2.391 2.391 0 0 1 .915-.308 2.114 2.114 0 0 1 2.36 1.824l.134 1.04a1.865 1.865 0 0 1-1.824 2.36l-.135-1.052q1.037-.261.927-1.112a1.342 1.342 0 0 0-.327-.811.8.8 0 0 0-.693-.192q-.438.056-1.058 1.677a3.407 3.407 0 0 1-.919 1.575 2.318 2.318 0 0 1-.915.315 2.125 2.125 0 0 1-2.36-1.824l-.133-1.04a1.931 1.931 0 0 1 1.812-2.36z"/>
        <path data-name="Path 342" d="M10.517 343.332l-2.1.228-.228-2.1 2.1-.228z"/>
        <path data-name="Path 343" d="M9.776 336.078l-9.444.73-.326-4.206a2.009 2.009 0 0 1 .51-1.521 2.036 2.036 0 0 1 1.432-.732l.516-.04a1.973 1.973 0 0 1 1.495.41 2.6 2.6 0 0 1 .77 1.518 1.917 1.917 0 0 1 .514-1.617 2.253 2.253 0 0 1 1.427-.636l.516-.04a2.038 2.038 0 0 1 1.527.5 2 2 0 0 1 .738 1.425zm-5.414-1.7l-.081-1.045a1.055 1.055 0 0 0-1.127-.977l-1.045.081a1.057 1.057 0 0 0-.976 1.139l.081 1.045zm4.206-.325l-.081-1.045a1.067 1.067 0 0 0-1.139-.976l-1.045.08a.933.933 0 0 0-.964 1.139l.081 1.045z"/>
        <path data-name="Path 344" d="M10.153 326.611q1.056-.126 1.008-1.1l-.052-1.047a1.056 1.056 0 0 0-1.112-1.007l-2.094.1q1.055.074 1.1 1.007l.051 1.047a2.121 2.121 0 0 1-2 2.211l-5.248.26-.1-2.106 5.248-.26a1.031 1.031 0 0 0 .729-.346 1 1 0 0 0 .279-.754 1.014 1.014 0 0 0-.353-.735 1.031 1.031 0 0 0-.76-.272l-5.247.26-.1-2.094 8.4-.416a2.036 2.036 0 0 1 1.512.545 2.008 2.008 0 0 1 .7 1.445l.1 2.107q.092 1.852-2 2.211z"/>
        <path data-name="Path 345" d="M8.665 314.118l.034 2.109-7.362.12-.034-2.109 2.1-.034a2.594 2.594 0 0 1-1.582-.625 1.972 1.972 0 0 1-.548-1.45l-.017-1.048 2.1-.034.034 2.109a1.006 1.006 0 0 0 .322.733 1.022 1.022 0 0 0 .756.3z"/>
        <path data-name="Path 346" d="M5.536 303.615l-.069 4.2 1.049.018a1.032 1.032 0 0 0 .75-.3.992.992 0 0 0 .327-.733l.017-1.061a.931.931 0 0 0-1.043-1.065l.017-1.049q2.1.274 2.075 2.131l-.034 2.109a2.043 2.043 0 0 1-.643 1.474 2.019 2.019 0 0 1-1.5.6l-3.158-.05a2.009 2.009 0 0 1-1.467-.65 2.036 2.036 0 0 1-.6-1.493l.035-2.109a2.112 2.112 0 0 1 2.13-2.063zm-1.117 4.189l.035-2.109-1.061-.018a1.013 1.013 0 0 0-.744.3 1.027 1.027 0 0 0-.322.746 1.057 1.057 0 0 0 1.032 1.065z"/>
        <path data-name="Path 347" d="M3.637 296.158l-.036 1.048q-1.052.1-1.081.961a1.313 1.313 0 0 0 .192.841.782.782 0 0 0 .64.3q.455.015 1.328-1.484.711-1.225 1.16-1.4a2.392 2.392 0 0 1 .953-.157 2.115 2.115 0 0 1 2.036 2.181l-.036 1.047a1.865 1.865 0 0 1-2.181 2.036l.037-1.061q1.063-.088 1.094-.947a1.355 1.355 0 0 0-.192-.854.8.8 0 0 0-.653-.3q-.443-.015-1.315 1.483a3.4 3.4 0 0 1-1.161 1.407 2.311 2.311 0 0 1-.953.164 2.125 2.125 0 0 1-2.035-2.181l.035-1.048a1.931 1.931 0 0 1 2.168-2.036z"/>
        <path data-name="Path 348" d="M6.219 287.809l-.254 4.2 1.047.063a1.025 1.025 0 0 0 .763-.264 1 1 0 0 0 .359-.718l.064-1.059a.932.932 0 0 0-1-1.11l.063-1.047q2.091.367 1.979 2.22l-.127 2.105a2.123 2.123 0 0 1-2.232 1.979l-3.151-.19a2.009 2.009 0 0 1-1.438-.713 2.035 2.035 0 0 1-.528-1.519l.127-2.105a2.112 2.112 0 0 1 2.218-1.967zm-1.3 4.135l.127-2.105-1.059-.064a1.008 1.008 0 0 0-.756.265 1.024 1.024 0 0 0-.354.731 1.057 1.057 0 0 0 .983 1.11z"/>
        <path data-name="Path 349" d="M5.703 281.385l-1.057-.093a1.011 1.011 0 0 0-.763.243 1.023 1.023 0 0 0-.374.722l-.092 1.044q-.082.932.952 1.136l-.093 1.057q-2.065-.435-1.9-2.285l.185-2.1a2.113 2.113 0 0 1 2.272-1.9l5.247.463-.184 2.088-1.045-.092q1.034.219.951 1.149l-.091 1.044a2.125 2.125 0 0 1-2.287 1.916 2.008 2.008 0 0 1-1.417-.752 2.037 2.037 0 0 1-.486-1.533zm1.044.092l-.093 1.057a1.057 1.057 0 0 0 .953 1.136 1.03 1.03 0 0 0 .769-.243 1 1 0 0 0 .379-.708 1.013 1.013 0 0 0-.249-.777 1.029 1.029 0 0 0-.714-.373z"/>
        <path data-name="Path 350" d="M10.53 275.537l-.236 2.1-7.317-.824.236-2.1 2.084.235a2.6 2.6 0 0 1-1.49-.822 1.978 1.978 0 0 1-.358-1.509l.118-1.042 2.083.235-.236 2.1a1.008 1.008 0 0 0 .225.769 1.024 1.024 0 0 0 .712.392z"/>
        <path data-name="Path 351" d="M6.503 265.47l-.142 1.038q-1.054-.015-1.181.911a1.054 1.054 0 0 0 .9 1.179l3.129.425a1.031 1.031 0 0 0 .78-.206 1 1 0 0 0 .412-.69q.126-.927-.909-1.194l.141-1.039a1.937 1.937 0 0 1 1.807 2.374l-.141 1.038a2.126 2.126 0 0 1-2.374 1.807l-3.128-.424a2.01 2.01 0 0 1-1.381-.819 2.035 2.035 0 0 1-.413-1.553l.14-1.039a1.924 1.924 0 0 1 2.36-1.808z"/>
        <path data-name="Path 352" d="M12.014 264.161l-9.35-1.518.338-2.082 3.117.506a1.274 1.274 0 0 1-.727-.451.992.992 0 0 1-.14-.752l.17-1.047a2.114 2.114 0 0 1 2.408-1.732l5.2.844-.335 2.069-5.2-.844a1.055 1.055 0 0 0-.338 2.082l5.2.844z"/>
        <path data-name="Path 353" d="M5.117 254.365l-1.031-.19.381-2.074 1.031.189zm8.284 1.524l-7.241-1.332.382-2.075 7.241 1.333z"/>
        <path data-name="Path 354" d="M14.152 251.809l-7.212-1.484.425-2.066 1.026.211a1.273 1.273 0 0 1-.706-.481.983.983 0 0 1-.109-.757l.214-1.039a2.111 2.111 0 0 1 2.476-1.631l5.158 1.061-.422 2.054-5.159-1.062a1.055 1.055 0 0 0-.425 2.066l5.159 1.062z"/>
        <path data-name="Path 355" d="M10.143 235.791l8.188 1.925a2.041 2.041 0 0 1 1.3.942 2.009 2.009 0 0 1 .27 1.582l-.482 2.053q-.426 1.807-2.537 1.571l.244-1.033a.976.976 0 0 0 1.272-.778l.24-1.02a1.057 1.057 0 0 0-.79-1.276l-2.041-.48a1.009 1.009 0 0 1 .778 1.273l-.24 1.02a2.123 2.123 0 0 1-2.536 1.571l-3.074-.723a2.007 2.007 0 0 1-1.3-.947 2.038 2.038 0 0 1-.263-1.586zm.54 2.281l-.242 1.033a1.056 1.056 0 0 0 .78 1.26l3.074.723a1.03 1.03 0 0 0 .8-.131 1 1 0 0 0 .476-.647 1.01 1.01 0 0 0-.135-.8 1.03 1.03 0 0 0-.655-.472z"/>
        <path data-name="Path 356" d="M15.661 227.285l-1.023-.283a1.01 1.01 0 0 0-.795.1 1.021 1.021 0 0 0-.5.642l-.279 1.01a1 1 0 0 0 .731 1.29l-.282 1.022a2.013 2.013 0 0 1-1.46-2.591l.562-2.033a2.113 2.113 0 0 1 2.579-1.463l5.077 1.4-.559 2.021-1.01-.279a1.008 1.008 0 0 1 .728 1.3l-.279 1.011a2.125 2.125 0 0 1-2.6 1.471 2 2 0 0 1-1.258-1 2.037 2.037 0 0 1-.2-1.6zm1.01.279l-.283 1.023a1.057 1.057 0 0 0 .732 1.289 1.03 1.03 0 0 0 .8-.1 1 1 0 0 0 .5-.628 1.013 1.013 0 0 0-.1-.808 1.024 1.024 0 0 0-.636-.5z"/>
        <path data-name="Path 357" d="M20.849 224.401l-9.056-2.778.619-2.017 3.018.926a1.281 1.281 0 0 1-.658-.546.99.99 0 0 1-.037-.764l.312-1.014a2.113 2.113 0 0 1 2.619-1.389l3.019.926a2.034 2.034 0 0 1 1.237 1.027 2.012 2.012 0 0 1 .165 1.6zm-.384-2.324l.308-1a1.017 1.017 0 0 0-.081-.811 1.031 1.031 0 0 0-.622-.515l-3.019-.926a1.054 1.054 0 0 0-.618 2.016z"/>
        <path data-name="Path 358" d="M17.024 212.072l.675-2a2.114 2.114 0 0 1 2.657-1.316l2.992 1.011a2.039 2.039 0 0 1 1.208 1.061 2.007 2.007 0 0 1 .119 1.6l-.675 2a2.124 2.124 0 0 1-2.673 1.324l-2.991-1.011a2.007 2.007 0 0 1-1.2-1.065 2.04 2.04 0 0 1-.112-1.604zm1.986.671l2.992 1.011a1.032 1.032 0 0 0 .8-.055 1 1 0 0 0 .535-.6 1.012 1.012 0 0 0-.058-.813 1.025 1.025 0 0 0-.607-.531l-2.992-1.011a1.009 1.009 0 0 0-.8.057 1.019 1.019 0 0 0-.533.613 1.054 1.054 0 0 0 .657 1.328z"/>
        <path data-name="Path 359" d="M21.316 200.02l6.907 2.551-.727 1.967-.983-.364a1.011 1.011 0 0 1 .616 1.359l-.364.983a2.123 2.123 0 0 1-2.709 1.248l-4.929-1.821.731-1.979 4.929 1.821a1.032 1.032 0 0 0 .806-.031 1 1 0 0 0 .552-.584 1.012 1.012 0 0 0-.036-.814 1.025 1.025 0 0 0-.591-.549l-4.929-1.821z"/>
        <path data-name="Path 360" d="M20.555 196.185l.775-1.949 1.96.78.391-.986.974.387-.391.986 3.908 1.554a.948.948 0 0 0 .859-.026 1.028 1.028 0 0 0 .481-.474l.038-.094.974.387-.392.986a2.114 2.114 0 0 1-2.734 1.169l-3.909-1.554-.392.986-.974-.387.392-.986z"/>
        <path data-name="Path 361" d="M33.889 191.417a.976.976 0 0 0 1.393-.534l.421-.96a1.055 1.055 0 0 0-.545-1.4l-1.92-.843a1.01 1.01 0 0 1 .534 1.393l-.421.96a2.039 2.039 0 0 1-1.163 1.11 2.019 2.019 0 0 1-1.616-.026l-4.812-2.111.848-1.931 4.811 2.111a1.036 1.036 0 0 0 .807.016 1 1 0 0 0 .586-.55 1.014 1.014 0 0 0 .013-.815 1.032 1.032 0 0 0-.558-.583l-4.812-2.111.842-1.92 7.7 3.38a2.036 2.036 0 0 1 1.11 1.163 2.006 2.006 0 0 1-.022 1.6l-.847 1.931q-.746 1.7-2.779 1.085z"/>
        <path data-name="Path 362" d="M30.137 179.257l.9-1.907a2.113 2.113 0 0 1 2.791-1l2.855 1.349a2.031 2.031 0 0 1 1.077 1.194 2 2 0 0 1-.066 1.6l-.9 1.907a2.04 2.04 0 0 1-1.193 1.085 2.018 2.018 0 0 1-1.615-.072l-2.855-1.349a2 2 0 0 1-1.068-1.2 2.04 2.04 0 0 1 .074-1.607zm1.9.9l2.855 1.35a1.027 1.027 0 0 0 .8.038 1.036 1.036 0 0 0 .637-1.348 1.031 1.031 0 0 0-.541-.6l-2.855-1.349a1.007 1.007 0 0 0-.8-.035 1.05 1.05 0 0 0-.637 1.347 1 1 0 0 0 .534.593z"/>
        <path data-name="Path 363" d="M35.78 167.805l6.567 3.331-.948 1.87-.936-.475a1.011 1.011 0 0 1 .456 1.421l-.475.935a2.125 2.125 0 0 1-2.835.927l-4.686-2.377.955-1.881 4.685 2.377a1.032 1.032 0 0 0 .8.061 1 1 0 0 0 .616-.516 1.016 1.016 0 0 0 .058-.813 1.027 1.027 0 0 0-.525-.614l-4.685-2.377z"/>
        <path data-name="Path 364" d="M41.459 168.321l.993-1.86 1.861.993q1.648.881.867 2.854l-.936-.5a.968.968 0 0 0-.425-1.429l-.5.936z"/>
        <path data-name="Path 365" d="M48.236 162.503a.976.976 0 0 0 1.443-.38l.522-.909a1.055 1.055 0 0 0-.39-1.448l-1.818-1.045a1.008 1.008 0 0 1 .38 1.442l-.523.909a2.124 2.124 0 0 1-2.88.777l-4.554-2.619 1.051-1.828 4.555 2.619a1.031 1.031 0 0 0 .8.1 1 1 0 0 0 .642-.483 1.012 1.012 0 0 0 .1-.809 1.032 1.032 0 0 0-.492-.64l-4.554-2.619 1.045-1.817 7.292 4.192a2.042 2.042 0 0 1 .978 1.277 2.013 2.013 0 0 1-.2 1.593l-1.051 1.828q-.926 1.609-2.88.777z"/>
        <path data-name="Path 366" d="M45.822 150.01l1.1-1.8a2.114 2.114 0 0 1 2.883-.692l2.692 1.65a2.038 2.038 0 0 1 .942 1.3 2.006 2.006 0 0 1-.239 1.586l-1.1 1.8a2.123 2.123 0 0 1-2.9.7l-2.693-1.65a2.006 2.006 0 0 1-.933-1.3 2.04 2.04 0 0 1 .248-1.594zm1.787 1.1l2.693 1.65a1.031 1.031 0 0 0 .8.125 1 1 0 0 0 .655-.465 1.015 1.015 0 0 0 .124-.806 1.034 1.034 0 0 0-.474-.653l-2.692-1.65a1.012 1.012 0 0 0-.792-.122 1.027 1.027 0 0 0-.657.479 1.058 1.058 0 0 0 .346 1.442z"/>
        <path data-name="Path 367" d="M52.671 139.23l6.168 4.021-1.144 1.756-.878-.572a1.008 1.008 0 0 1 .3 1.461l-.572.879a2.125 2.125 0 0 1-2.919.615l-4.4-2.869 1.151-1.767 4.4 2.869a1.03 1.03 0 0 0 .793.147.991.991 0 0 0 .668-.446 1.011 1.011 0 0 0 .146-.8 1.028 1.028 0 0 0-.455-.666l-4.4-2.869z"/>
        <path data-name="Path 368" d="M55.73 134.678l1.231-1.713 5.129 3.683.611-.851a1.012 1.012 0 0 0 .182-.795 1.029 1.029 0 0 0-.424-.686l-4.268-3.064 1.223-1.7 5.129 3.684.619-.862a1 1 0 0 0 .174-.784 1.027 1.027 0 0 0-.425-.686l-4.267-3.065 1.23-1.713 3.057 2.2a3.61 3.61 0 0 1 .825 5.022l-1.584 2.207-.267-.192a3.1 3.1 0 0 1-.6 1.4l-1.591 2.216z"/>
        <path data-name="Path 369" d="M62.414 123.704l-.834-.635 1.277-1.679.834.636zm6.7 5.1l-5.859-4.46 1.277-1.678 5.86 4.459z"/>
        <path data-name="Path 370" d="M71.653 125.498l-7.458-5.841 1.3-1.66 7.457 5.84z"/>
        <path data-name="Path 371" d="M74.23 122.226l-7.377-5.943 1.324-1.643 7.376 5.943z"/>
        <path data-name="Path 372" d="M78.843 116.585l-7.188-6.17 1.374-1.6 2.4 2.056a1.278 1.278 0 0 1-.385-.763.989.989 0 0 1 .273-.715l.691-.8a2.113 2.113 0 0 1 2.956-.225l2.4 2.057a2.036 2.036 0 0 1 .723 1.436 2.01 2.01 0 0 1-.488 1.529zm.579-2.283l.682-.795a1.011 1.011 0 0 0 .25-.776 1.023 1.023 0 0 0-.364-.72l-2.4-2.057a1 1 0 0 0-.762-.247 1.026 1.026 0 0 0-.724.369 1.055 1.055 0 0 0 .113 1.478z"/>
        <path data-name="Path 373" d="M86.23 103.441l-2.827 3.114.776.7a1.024 1.024 0 0 0 .76.272 1 1 0 0 0 .73-.335l.713-.785a.932.932 0 0 0-.081-1.489l.705-.777q1.4 1.6.152 2.97l-1.417 1.562a2.124 2.124 0 0 1-2.98.144l-2.338-2.123a2.006 2.006 0 0 1-.673-1.456 2.033 2.033 0 0 1 .539-1.514l1.418-1.562a2.113 2.113 0 0 1 2.961-.143zm-3.6 2.409l1.418-1.562-.786-.713a1.009 1.009 0 0 0-.755-.267 1.021 1.021 0 0 0-.734.348 1.056 1.056 0 0 0 .071 1.481z"/>
        <path data-name="Path 374" d="M92.076 95.834l-.758-.743a1.013 1.013 0 0 0-.744-.3 1.024 1.024 0 0 0-.747.32l-.734.749a1 1 0 0 0 .015 1.482l-.742.758a2.012 2.012 0 0 1-.022-2.973l1.476-1.507a2.114 2.114 0 0 1 2.965-.03l3.762 3.686-1.467 1.5-.749-.733a1.009 1.009 0 0 1 .007 1.491l-.734.749a2.123 2.123 0 0 1-2.983.03 2 2 0 0 1-.618-1.48 2.038 2.038 0 0 1 .6-1.494zm.748.734l-.742.757a1.058 1.058 0 0 0 .015 1.483 1.026 1.026 0 0 0 .749.3.991.991 0 0 0 .742-.307 1.008 1.008 0 0 0 .3-.757 1.029 1.029 0 0 0-.316-.743z"/>
        <path data-name="Path 375" d="M97.991 95.846l-6.579-6.815 1.517-1.465 2.193 2.272a1.285 1.285 0 0 1-.312-.8.981.981 0 0 1 .339-.686l.763-.738a2.112 2.112 0 0 1 2.964.053l2.193 2.271a2.038 2.038 0 0 1 .586 1.5 2.007 2.007 0 0 1-.629 1.477zm.79-2.219l.754-.728a1.016 1.016 0 0 0 .321-.75 1.027 1.027 0 0 0-.3-.751l-2.193-2.271a1.054 1.054 0 0 0-1.517 1.465z"/>
        <path data-name="Path 376" d="M104.05 90.056l-6.436-6.949 1.547-1.434 6.437 6.95z"/>
        <path data-name="Path 377" d="M109.73 80.673l-3.144 2.793.7.784a1.027 1.027 0 0 0 .726.351.993.993 0 0 0 .762-.255l.793-.7a.932.932 0 0 0 .079-1.49l.784-.7q1.221 1.737-.167 2.97l-1.577 1.4a2.124 2.124 0 0 1-2.977-.175l-2.1-2.361a2.007 2.007 0 0 1-.514-1.52 2.043 2.043 0 0 1 .7-1.449l1.577-1.4a2.113 2.113 0 0 1 2.96.175zm-3.841 2.009l1.577-1.4-.705-.793a1.01 1.01 0 0 0-.721-.347 1.027 1.027 0 0 0-.768.268 1.056 1.056 0 0 0-.087 1.48z"/>
        <path data-name="Path 378" d="M110.54 71.705l1.615-1.338 1.345 1.625.817-.677.669.807-.817.677 2.683 3.239a.95.95 0 0 0 .766.391 1.042 1.042 0 0 0 .65-.186l.077-.065.669.808-.817.677a2.113 2.113 0 0 1-2.96-.287l-2.683-3.24-.817.677-.669-.807.818-.677z"/>
        <path data-name="Path 379" d="M117.695 68.602l1.657-1.305a2.114 2.114 0 0 1 2.945.348l1.954 2.48a2.037 2.037 0 0 1 .433 1.549 2.012 2.012 0 0 1-.774 1.4l-1.656 1.306a2.045 2.045 0 0 1-1.549.433 2.024 2.024 0 0 1-1.414-.784l-1.954-2.48a2.008 2.008 0 0 1-.424-1.548 2.038 2.038 0 0 1 .782-1.399zm1.3 1.647l1.955 2.48a1.029 1.029 0 0 0 .7.393 1 1 0 0 0 .776-.209 1.015 1.015 0 0 0 .395-.713 1.03 1.03 0 0 0-.218-.777l-1.955-2.48a1.011 1.011 0 0 0-.7-.389 1.021 1.021 0 0 0-.781.223 1.056 1.056 0 0 0-.175 1.472z"/>
        <path data-name="Path 380" d="M134.806 64.943l-1.7 1.223-3.07-4.28a1.007 1.007 0 0 0-.682-.42 1.029 1.029 0 0 0-.791.186 1.057 1.057 0 0 0-.241 1.463l3.07 4.28-1.714 1.23-4.292-5.984 1.714-1.229.612.852a1.283 1.283 0 0 1-.194-.833.989.989 0 0 1 .434-.63l.862-.618a1.769 1.769 0 0 1 1.717-.315 1.562 1.562 0 0 1 .2-.832 2.188 2.188 0 0 1 .653-.694l.852-.611a2.038 2.038 0 0 1 1.567-.362 2.006 2.006 0 0 1 1.369.836l3.058 4.28-1.714 1.229-3.07-4.279a1.011 1.011 0 0 0-.678-.415 1 1 0 0 0-.785.174 1.028 1.028 0 0 0-.425.686 1 1 0 0 0 .174.784z"/>
        <path data-name="Path 381" d="M141.084 55.535l-.588-.883a1.011 1.011 0 0 0-.667-.444 1.026 1.026 0 0 0-.8.159l-.872.581a1 1 0 0 0-.292 1.454l-.883.588a2.013 2.013 0 0 1 .593-2.914l1.756-1.169a2.114 2.114 0 0 1 2.907.582l2.92 4.384-1.745 1.162-.581-.872a1.009 1.009 0 0 1-.3 1.46l-.873.581a2.124 2.124 0 0 1-2.925-.586 2 2 0 0 1-.3-1.576 2.036 2.036 0 0 1 .892-1.338zm.581.872l-.883.588a1.057 1.057 0 0 0-.291 1.454 1.031 1.031 0 0 0 .671.449 1 1 0 0 0 .79-.147 1.013 1.013 0 0 0 .45-.68 1.034 1.034 0 0 0-.155-.792z"/>
        <path data-name="Path 382" d="M146.877 56.764l-5.03-8.027 1.787-1.12 2.515 4.014 1.281-3.9 1.787-1.12-1.783 5.455 5.693.784-1.788 1.12-4.07-.549 1.395 2.226z"/>
        <path data-name="Path 383" d="M157.83 46.421l-3.625 2.132.532.9a1.027 1.027 0 0 0 .644.486 1 1 0 0 0 .8-.1l.915-.538a.932.932 0 0 0 .365-1.446l.9-.532q.862 1.939-.737 2.881l-1.818 1.07a2.041 2.041 0 0 1-1.593.219 2.021 2.021 0 0 1-1.294-.967l-1.6-2.722a2.008 2.008 0 0 1-.21-1.591 2.035 2.035 0 0 1 .965-1.285l1.818-1.07a2.113 2.113 0 0 1 2.87.744zm-4.157 1.229l1.818-1.07-.538-.914a1.01 1.01 0 0 0-.641-.48 1.026 1.026 0 0 0-.8.114 1.057 1.057 0 0 0-.372 1.435z"/>
        <path data-name="Path 384" d="M163.943 46.599l-4.486-8.343 1.857-1 1.5 2.781a1.278 1.278 0 0 1-.085-.851.989.989 0 0 1 .511-.569l.935-.5a2.113 2.113 0 0 1 2.839.853l1.5 2.781a2.039 2.039 0 0 1 .158 1.6 2.007 2.007 0 0 1-1.006 1.251zm1.361-1.923l.924-.5a1.015 1.015 0 0 0 .512-.634 1.028 1.028 0 0 0-.081-.8l-1.495-2.781a1.055 1.055 0 0 0-1.858 1z"/>
        <path data-name="Path 385" d="M175.555 37.003l-3.758 1.888.471.936a1.03 1.03 0 0 0 .611.528 1 1 0 0 0 .8-.05l.949-.476a.933.933 0 0 0 .46-1.419l.937-.47q.732 1.992-.927 2.826l-1.885.946a2.123 2.123 0 0 1-2.831-.938l-1.418-2.821a2.008 2.008 0 0 1-.1-1.6 2.04 2.04 0 0 1 1.048-1.22l1.885-.946a2.113 2.113 0 0 1 2.815.932zm-4.229.951l1.886-.947-.477-.948a1.006 1.006 0 0 0-.608-.521 1.018 1.018 0 0 0-.81.061 1.056 1.056 0 0 0-.467 1.407z"/>
        <path data-name="Path 386" d="M175.73 29.921l1.9-.9.9 1.907.96-.452.447.947-.959.453 1.795 3.8a.952.952 0 0 0 .646.568 1.034 1.034 0 0 0 .675-.018l.092-.044.447.948-.959.453a2.114 2.114 0 0 1-2.8-1.012l-1.795-3.8-.959.453-.448-.948.959-.453z"/>
        <path data-name="Path 387" d="M181.596 27.204l1.915-.855.86 1.926.968-.433.428.957-.969.433 1.715 3.84a.951.951 0 0 0 .634.582 1.035 1.035 0 0 0 .675 0l.093-.042.427.957-.968.433a2.115 2.115 0 0 1-2.775-1.071l-1.715-3.84-.969.433-.427-.958.969-.432z"/>
        <path data-name="Path 388" d="M194.838 28.385l-3.882 1.62.4.968a1.03 1.03 0 0 0 .573.569 1 1 0 0 0 .8.006l.979-.408a.932.932 0 0 0 .559-1.383l.967-.4q.591 2.038-1.122 2.754l-1.947.812a2.123 2.123 0 0 1-2.758-1.133l-1.217-2.914a2.013 2.013 0 0 1 .008-1.6 2.037 2.037 0 0 1 1.131-1.142l1.947-.813a2.111 2.111 0 0 1 2.742 1.127zm-4.286.653l1.947-.812-.409-.979a1 1 0 0 0-.57-.563 1.019 1.019 0 0 0-.812 0 1.056 1.056 0 0 0-.564 1.371z"/>
        <path data-name="Path 389" d="M199.93 29.785l-1.966.765-2.669-6.863 1.966-.764.76 1.954a2.588 2.588 0 0 1 .037-1.7 1.966 1.966 0 0 1 1.169-1.018l.977-.379.76 1.954-1.966.764a1.006 1.006 0 0 0-.576.556 1.019 1.019 0 0 0-.016.812z"/>
        <path data-name="Path 390" d="M212.696 25.133l-1.979.691-.345-.989a1.008 1.008 0 0 1-.657 1.339l-.989.346a2.041 2.041 0 0 1-1.605-.1 2.018 2.018 0 0 1-1.082-1.2l-1.04-2.981a2 2 0 0 1 .1-1.6 2.032 2.032 0 0 1 1.2-1.073l1.991-.695-.7-1.992 1.98-.691zm-4.06-5.271l-1 .35a1.058 1.058 0 0 0-.644 1.335l1.041 2.981a1.03 1.03 0 0 0 .537.6 1 1 0 0 0 .8.054 1.015 1.015 0 0 0 .606-.546 1.031 1.031 0 0 0 .046-.8z"/>
        <path data-name="Path 391" d="M219.707 19.562l-4.009 1.274.318 1a1.027 1.027 0 0 0 .521.616 1 1 0 0 0 .8.077l1.011-.321a.932.932 0 0 0 .678-1.328l1-.318q.409 2.082-1.359 2.645l-2.01.639a2.123 2.123 0 0 1-2.649-1.371l-.957-3.01a2.008 2.008 0 0 1 .148-1.6 2.042 2.042 0 0 1 1.227-1.039l2.011-.639a2.112 2.112 0 0 1 2.632 1.363zm-4.326.275l2.01-.639-.322-1.011a1.008 1.008 0 0 0-.518-.611 1.029 1.029 0 0 0-.81-.067 1.055 1.055 0 0 0-.681 1.317z"/>
        <path data-name="Path 392" d="M226.23 15.457l-1.006.291a1.055 1.055 0 0 0-2.027.585l.877 3.034a1.033 1.033 0 0 0 .5.63 1 1 0 0 0 .8.1 1.016 1.016 0 0 0 .725-1.314l1.006-.291a1.936 1.936 0 0 1-1.44 2.612l-1.007.291a2.122 2.122 0 0 1-2.612-1.441l-.877-3.033a2.01 2.01 0 0 1 .19-1.593 2.04 2.04 0 0 1 1.254-1.007l1.007-.291a1.922 1.922 0 0 1 2.61 1.427z"/>
        <path data-name="Path 393" d="M227.483 11.847l-.272-1.012 2.037-.547.272 1.013zm2.183 8.137l-1.908-7.112 2.037-.547 1.908 7.112z"/>
        <path data-name="Path 394" d="M237.53 12.531l-1.018.252q-.387-.984-1.22-.777a1.311 1.311 0 0 0-.756.415.781.781 0 0 0-.114.7q.109.441 1.79.87a3.339 3.339 0 0 1 1.665.733 2.374 2.374 0 0 1 .412.874 2.114 2.114 0 0 1-1.54 2.555l-1.018.251a1.863 1.863 0 0 1-2.554-1.54l1.03-.255q.378 1 1.211.793a1.341 1.341 0 0 0 .768-.418.793.793 0 0 0 .11-.71q-.105-.431-1.787-.859a3.4 3.4 0 0 1-1.671-.731 2.336 2.336 0 0 1-.418-.872 2.126 2.126 0 0 1 1.54-2.555l1.018-.252a1.931 1.931 0 0 1 2.552 1.526z"/>
        <path data-name="Path 395" d="M238.948 8.965l-.233-1.022 2.057-.468.233 1.023zm1.867 8.215L239.183 10l2.057-.468 1.632 7.18z"/>
        <path data-name="Path 396" d="M245.455 8.62l2.066-.424a2.114 2.114 0 0 1 2.476 1.632l.635 3.093a2.04 2.04 0 0 1-.308 1.578 2 2 0 0 1-1.321.909l-2.067.425a2.124 2.124 0 0 1-2.49-1.642l-.635-3.093a2.008 2.008 0 0 1 .315-1.573 2.036 2.036 0 0 1 1.329-.905zm.422 2.054l.635 3.093a1.023 1.023 0 0 0 .453.667 1 1 0 0 0 .788.161 1.012 1.012 0 0 0 .672-.461 1.025 1.025 0 0 0 .153-.792l-.635-3.092a1.009 1.009 0 0 0-.452-.662 1.021 1.021 0 0 0-.8-.152 1.056 1.056 0 0 0-.816 1.238z"/>
        <path data-name="Path 397" d="M253.045 14.607l-1.279-7.251 2.077-.367.182 1.033a1.283 1.283 0 0 1 .186-.835.989.989 0 0 1 .664-.38l1.045-.184a2.114 2.114 0 0 1 2.429 1.7l.915 5.187-2.065.364-.915-5.186a1.009 1.009 0 0 0-.433-.674 1.022 1.022 0 0 0-.794-.175 1.057 1.057 0 0 0-.85 1.215l.915 5.187z"/>
        <path data-name="Path 398" d="M265.73 7.198l-1.037.156q-.293-1.017-1.142-.89a1.328 1.328 0 0 0-.792.342.783.783 0 0 0-.178.684q.067.45 1.7 1.036a3.333 3.333 0 0 1 1.588.887 2.348 2.348 0 0 1 .327.908 2.111 2.111 0 0 1-1.774 2.4l-1.036.155a1.864 1.864 0 0 1-2.4-1.774l1.049-.157q.282 1.03 1.131.9a1.344 1.344 0 0 0 .8-.344.793.793 0 0 0 .177-.7q-.064-.437-1.7-1.023a3.4 3.4 0 0 1-1.594-.885 2.31 2.31 0 0 1-.334-.909 2.123 2.123 0 0 1 1.774-2.4l1.037-.155a1.93 1.93 0 0 1 2.404 1.769z"/>
        <path data-name="Path 399" d="M275.349 7.077l-.118-1.054a1.013 1.013 0 0 0-.39-.7 1.025 1.025 0 0 0-.781-.223l-1.042.117q-.929.1-.925 1.159l-1.054.118q.016-2.111 1.862-2.319l2.1-.235a2.115 2.115 0 0 1 2.318 1.849l.587 5.234-2.083.234-.117-1.042q-.009 1.056-.937 1.161l-1.042.116a2.124 2.124 0 0 1-2.332-1.86 2.01 2.01 0 0 1 .457-1.539 2.038 2.038 0 0 1 1.406-.78zm.117 1.042l-1.054.118a1.06 1.06 0 0 0-.925 1.16 1.031 1.031 0 0 0 .391.7 1 1 0 0 0 .77.232 1.014 1.014 0 0 0 .711-.4 1.032 1.032 0 0 0 .225-.775z"/>
        <path data-name="Path 400" d="M279.958 10.82l-.795-9.439 2.1-.177.265 3.147a1.286 1.286 0 0 1 .262-.815.985.985 0 0 1 .7-.318l1.057-.089a2.114 2.114 0 0 1 2.265 1.913l.265 3.147a2.033 2.033 0 0 1-.492 1.53 2.005 2.005 0 0 1-1.42.747zm2.014-1.221l1.044-.088a1.013 1.013 0 0 0 .722-.378 1.029 1.029 0 0 0 .246-.769l-.265-3.146a1.007 1.007 0 0 0-.37-.71 1.024 1.024 0 0 0-.775-.246 1.059 1.059 0 0 0-.957 1.133z"/>
        <path data-name="Path 401" d="M289.988 2.676l2.105-.119a2.114 2.114 0 0 1 2.212 1.975l.178 3.153a2.037 2.037 0 0 1-.535 1.516 2 2 0 0 1-1.44.708l-2.106.119a2.125 2.125 0 0 1-2.224-1.987L288 4.888a2.007 2.007 0 0 1 .541-1.51 2.043 2.043 0 0 1 1.447-.702zm.118 2.094l.178 3.152a1.03 1.03 0 0 0 .351.727 1 1 0 0 0 .755.273 1.02 1.02 0 0 0 .733-.357 1.032 1.032 0 0 0 .267-.762l-.178-3.152a1.013 1.013 0 0 0-.351-.721 1.024 1.024 0 0 0-.768-.266 1.055 1.055 0 0 0-.987 1.106z"/>
        <path data-name="Path 402" d="M302.739 2.161l.213 7.36-2.1.061-.031-1.048q-.1 1.051-1.03 1.078l-1.048.031a2.124 2.124 0 0 1-2.169-2.048l-.152-5.252 2.108-.061.152 5.252a1.032 1.032 0 0 0 .331.737 1 1 0 0 0 .748.294 1.015 1.015 0 0 0 .742-.338 1.029 1.029 0 0 0 .288-.753l-.152-5.252z"/>
        <path data-name="Path 403" d="M305.942.034l2.1-.034.034 2.109 1.06-.017.018 1.048-1.061.017.068 4.205a.947.947 0 0 0 .354.784 1.032 1.032 0 0 0 .623.262h.1l.017 1.048-1.061.017a2.112 2.112 0 0 1-2.13-2.074l-.069-4.205-1.06.017-.017-1.049 1.061-.017z"/>
        <path data-name="Path 404" d="M315.446 10.602q.045 1.062 1.017 1.091l1.047.031a1.055 1.055 0 0 0 1.092-1.03l.061-2.1q-.156 1.044-1.091 1.016l-1.047-.03a2.123 2.123 0 0 1-2.047-2.17l.154-5.252 2.108.062-.154 5.252a1.029 1.029 0 0 0 .288.754 1.036 1.036 0 0 0 1.489.043 1.025 1.025 0 0 0 .331-.736l.154-5.252 2.1.062-.246 8.408a2.04 2.04 0 0 1-.662 1.465 2.011 2.011 0 0 1-1.5.582l-2.108-.062q-1.855-.054-2.047-2.17z"/>
        <path data-name="Path 405" d="M325.289 2.564l2.106.119a2.114 2.114 0 0 1 1.974 2.213l-.179 3.152a2.036 2.036 0 0 1-.7 1.446 2 2 0 0 1-1.51.541l-2.106-.12a2.123 2.123 0 0 1-1.986-2.225l.179-3.153a2 2 0 0 1 .708-1.44 2.037 2.037 0 0 1 1.514-.533zm-.119 2.093l-.18 3.152a1.032 1.032 0 0 0 .267.762 1 1 0 0 0 .72.357 1.01 1.01 0 0 0 .768-.273 1.026 1.026 0 0 0 .351-.726l.18-3.152a1.006 1.006 0 0 0-.268-.755 1.022 1.022 0 0 0-.732-.352 1.057 1.057 0 0 0-1.106.987z"/>
        <path data-name="Path 406" d="M338.03 3.494l-.621 7.337-2.089-.177.088-1.044q-.215 1.034-1.145.955l-1.045-.089a2.122 2.122 0 0 1-1.923-2.279l.442-5.235 2.1.177-.443 5.236a1.028 1.028 0 0 0 .246.768.993.993 0 0 0 .709.377 1.011 1.011 0 0 0 .776-.251 1.029 1.029 0 0 0 .371-.717l.443-5.235z"/>
        <path data-name="Path 407" d="M341.547 11.27l-2.1-.229.8-7.32 2.1.229-.227 2.084a2.594 2.594 0 0 1 .817-1.492 1.972 1.972 0 0 1 1.507-.363l1.042.114-.227 2.084-2.1-.229a1.008 1.008 0 0 0-.768.228 1.022 1.022 0 0 0-.389.713z"/>
        <path data-name="Path 408" d="M349.84 12.29l.882-6.253-1.05-.148.146-1.038 1.05.148.014-.1a2.028 2.028 0 0 1 2.269-1.708l2.176.306-.146 1.038-1.138-.16a.971.971 0 0 0-1.085.817l-.014.1 1.051.148-.146 1.038-1.051-.148-.881 6.253z"/>
        <path data-name="Path 409" d="M362.436 6.8l-1.206 7.264-2.069-.343.172-1.034a1.009 1.009 0 0 1-1.218.86l-1.034-.171a2.041 2.041 0 0 1-1.363-.854 2.016 2.016 0 0 1-.372-1.573l.86-5.183 2.08.345-.86 5.184a1.034 1.034 0 0 0 .183.786 1 1 0 0 0 .677.432 1.012 1.012 0 0 0 .793-.188 1.031 1.031 0 0 0 .428-.685l.86-5.183z"/>
        <path data-name="Path 410" d="M366.055 5.331l2.059.393-.4 2.072 1.042.2-.2 1.03-1.043-.2-.789 4.131a.946.946 0 0 0 .186.839 1.037 1.037 0 0 0 .557.383l.1.019-.2 1.03-1.042-.2a2.113 2.113 0 0 1-1.663-2.465l.79-4.131-1.042-.2.2-1.03 1.042.2z"/>
        <path data-name="Path 411" d="M377.13 9.767l-1.56 7.2-2.048-.445.221-1.024a1.009 1.009 0 0 1-1.258.8l-1.025-.223a2.123 2.123 0 0 1-1.614-2.508l1.113-5.135 2.061.447-1.114 5.135a1.037 1.037 0 0 0 .145.794 1.038 1.038 0 0 0 1.457.316 1.031 1.031 0 0 0 .46-.663l1.113-5.135z"/>
        <path data-name="Path 412" d="M379.607 17.93l-2.05-.5 1.736-7.156 2.05.5-.494 2.037a2.59 2.59 0 0 1 1-1.375 1.973 1.973 0 0 1 1.542-.165l1.018.247-.494 2.037-2.05-.5a1.006 1.006 0 0 0-.791.127 1.024 1.024 0 0 0-.478.657z"/>
        <path data-name="Path 413" d="M390.55 17.509l-4.062-1.092-.272 1.013a1.034 1.034 0 0 0 .1.8 1 1 0 0 0 .632.5l1.025.276a.933.933 0 0 0 1.288-.753l1.011.272q-.778 1.976-2.572 1.493l-2.037-.548a2.123 2.123 0 0 1-1.489-2.584l.819-3.049a2.012 2.012 0 0 1 .987-1.265 2.038 2.038 0 0 1 1.594-.212l2.037.547a2.113 2.113 0 0 1 1.481 2.569zm-3.79-2.1l2.037.547.275-1.024a1.009 1.009 0 0 0-.107-.794 1.019 1.019 0 0 0-.646-.494 1.056 1.056 0 0 0-1.284.741z"/>
        <path data-name="Path 414" d="M391.718 21.138l.59-2.025 2.024.59-.59 2.026z"/>
    </g>
</svg>