<svg xmlns="http://www.w3.org/2000/svg" width="670.297" height="670.398"><g data-name="Group 599" fill="#fb6666"><path data-name="Path 415" d="M386.316 3.746l2.27.355a2.187 2.187 0 0 1 1.485.923 2.218 2.218 0 0 1 .415 1.7l-.885 5.655a2.22 2.22 0 0 1-.917 1.493 2.184 2.184 0 0 1-1.7.424l-2.27-.356a2.223 2.223 0 0 1-1.493-.916 2.2 2.2 0 0 1-.421-1.71l.886-5.654a2.314 2.314 0 0 1 2.626-1.915zm-.356 2.27l-.887 5.655a1.129 1.129 0 0 0 .208.854 1.087 1.087 0 0 0 .743.465 1.108 1.108 0 0 0 .861-.213 1.12 1.12 0 0 0 .459-.75l.887-5.655a1.151 1.151 0 0 0-.963-1.321 1.1 1.1 0 0 0-.848.208 1.119 1.119 0 0 0-.46.757z"/><path data-name="Path 416" d="M391.431 15.024l1.464-7.887 2.26.419-.209 1.123a1.394 1.394 0 0 1 .508-.78 1.076 1.076 0 0 1 .823-.134l1.136.211a2.3 2.3 0 0 1 1.829 2.662l-1.046 5.642-2.247-.417 1.047-5.642a1.1 1.1 0 0 0-.184-.852 1.118 1.118 0 0 0-.743-.482 1.151 1.151 0 0 0-1.331.915l-1.048 5.642z"/><path data-name="Path 417" d="M407.831 14.801l-4.479-.963-.241 1.118a1.122 1.122 0 0 0 .16.864 1.094 1.094 0 0 0 .714.506l1.13.242a1.016 1.016 0 0 0 1.36-.89l1.117.24q-.74 2.191-2.717 1.767l-2.246-.483a2.315 2.315 0 0 1-1.764-2.73l.723-3.363a2.189 2.189 0 0 1 1-1.431 2.222 2.222 0 0 1 1.723-.319l2.247.483a2.3 2.3 0 0 1 1.753 2.713zm-4.239-2.079l2.246.483.243-1.13a1.1 1.1 0 0 0-.16-.858 1.122 1.122 0 0 0-.729-.5 1.151 1.151 0 0 0-1.357.877z"/><path data-name="Path 418" d="M421.274 13.396l-2.273 8.878a2.216 2.216 0 0 1-1.054 1.4 2.183 2.183 0 0 1-1.728.261l-2.227-.569q-1.959-.5-1.656-2.8l1.12.286a1.063 1.063 0 0 0 .82 1.4l1.106.283a1.151 1.151 0 0 0 1.406-.833l.567-2.212a1.1 1.1 0 0 1-1.4.819l-1.106-.283a2.223 2.223 0 0 1-1.4-1.054 2.2 2.2 0 0 1-.257-1.742l.853-3.332a2.181 2.181 0 0 1 1.059-1.391 2.222 2.222 0 0 1 1.733-.253zm-2.5.54l-1.12-.287a1.151 1.151 0 0 0-1.389.823l-.853 3.333a1.122 1.122 0 0 0 .125.87 1.133 1.133 0 0 0 1.573.4 1.123 1.123 0 0 0 .529-.7z"/><path data-name="Path 419" d="M423.652 22.385l-2.212-.624 2.18-7.72 2.212.624-.621 2.2a2.824 2.824 0 0 1 1.148-1.456 2.148 2.148 0 0 1 1.684-.118l1.1.311-.621 2.2-2.212-.624a1.094 1.094 0 0 0-.866.106 1.114 1.114 0 0 0-.547.7z"/><path data-name="Path 420" d="M435.596 22.377l-4.378-1.353-.337 1.091a1.117 1.117 0 0 0 .082.875 1.084 1.084 0 0 0 .667.566l1.1.342a1.015 1.015 0 0 0 1.432-.767l1.091.338q-.928 2.118-2.861 1.52l-2.2-.679a2.222 2.222 0 0 1-1.344-1.122 2.193 2.193 0 0 1-.171-1.752l1.016-3.287a2.184 2.184 0 0 1 1.126-1.336 2.215 2.215 0 0 1 1.744-.167l2.2.68a2.3 2.3 0 0 1 1.507 2.856zm-4.04-2.445l2.195.68.342-1.1a1.1 1.1 0 0 0-.085-.868 1.111 1.111 0 0 0-.683-.564 1.149 1.149 0 0 0-1.427.754z"/><path data-name="Path 421" d="M442.524 23.495l.372-1.095a1.1 1.1 0 0 0-.06-.87 1.114 1.114 0 0 0-.666-.583l-1.081-.368a1.082 1.082 0 0 0-1.449.712l-1.1-.373q1-2.071 2.912-1.42l2.175.74a2.3 2.3 0 0 1 1.426 2.9l-1.85 5.432-2.162-.737.368-1.081a1.1 1.1 0 0 1-1.462.709l-1.082-.368a2.315 2.315 0 0 1-1.433-2.916 2.185 2.185 0 0 1 1.163-1.3 2.218 2.218 0 0 1 1.748-.118zm-.369 1.081l-1.094-.373a1.152 1.152 0 0 0-1.45.712 1.123 1.123 0 0 0 .058.877 1.088 1.088 0 0 0 .651.586 1.1 1.1 0 0 0 .886-.062 1.122 1.122 0 0 0 .581-.659z"/><path data-name="Path 422" d="M449.955 20.041l2.143.79-.794 2.156 1.085.4-.4 1.071-1.085-.4-1.584 4.3a1.034 1.034 0 0 0 .052.935 1.122 1.122 0 0 0 .53.51l.1.038-.4 1.072-1.085-.4a2.3 2.3 0 0 1-1.349-2.946l1.584-4.3-1.085-.4.395-1.072 1.084.4z"/><path data-name="Path 423" d="M460.862 30.435l.438-1.07a1.1 1.1 0 0 0-.007-.872 1.114 1.114 0 0 0-.63-.622l-1.057-.433a1.085 1.085 0 0 0-1.49.625l-1.07-.438q1.119-2.008 2.992-1.244l2.127.869a2.3 2.3 0 0 1 1.249 2.98l-2.172 5.31-2.114-.864.433-1.057a1.1 1.1 0 0 1-1.5.62l-1.058-.433a2.313 2.313 0 0 1-1.257-3 2.186 2.186 0 0 1 1.241-1.232 2.213 2.213 0 0 1 1.75-.013zm-.431 1.057l-1.071-.438a1.153 1.153 0 0 0-1.489.625 1.122 1.122 0 0 0 .005.879 1.081 1.081 0 0 0 .615.623 1.1 1.1 0 0 0 .888-.008 1.119 1.119 0 0 0 .619-.624z"/><path data-name="Path 424" d="M469.596 39.201l-2.089-.924.462-1.045a1.1 1.1 0 0 1-1.52.577l-1.044-.462a2.313 2.313 0 0 1-1.172-3.031l1.391-3.147a2.186 2.186 0 0 1 1.275-1.2 2.222 2.222 0 0 1 1.751.037l2.1.93.93-2.1 2.089.924zm.693-7.217l-1.056-.467a1.151 1.151 0 0 0-1.507.582l-1.392 3.147a1.115 1.115 0 0 0-.019.878 1.083 1.083 0 0 0 .6.64 1.1 1.1 0 0 0 .888.017 1.118 1.118 0 0 0 .637-.606z"/><path data-name="Path 425" d="M479.212 34.86l2.063.981-1.764 3.7a3.936 3.936 0 0 1-5.214 1.861l-2.684-1.279 3.45-7.242 2.075.989-2.959 6.21 1.031.492a1.1 1.1 0 0 0 .887.041 1.116 1.116 0 0 0 .653-.588z"/><path data-name="Path 426" d="M479.839 44.095l3.6-7.168 2.053 1.032-3.6 7.168zm4.121-8.2l.513-1.021 2.054 1.032-.514 1.02z"/><path data-name="Path 427" d="M491.656 43.746l-1.01-.534a1.149 1.149 0 0 0-2.033-1.071l-1.6 3.044a1.117 1.117 0 0 0-.08.875 1.09 1.09 0 0 0 .552.68 1.106 1.106 0 0 0 1.561-.484l1.011.533a2.111 2.111 0 0 1-3.1.961l-1.01-.533a2.311 2.311 0 0 1-.961-3.1l1.6-3.044a2.19 2.19 0 0 1 1.354-1.107 2.222 2.222 0 0 1 1.744.158l1.011.532a2.1 2.1 0 0 1 .961 3.09z"/><path data-name="Path 428" d="M498.618 50.243l-4-2.243-.559 1a1.118 1.118 0 0 0-.1.873 1.086 1.086 0 0 0 .533.693l1.008.565a1.015 1.015 0 0 0 1.562-.449l1 .56q-1.353 1.876-3.116.885l-2-1.124a2.314 2.314 0 0 1-.88-3.128l1.683-3a2.19 2.19 0 0 1 1.382-1.071 2.22 2.22 0 0 1 1.74.2l2 1.124a2.3 2.3 0 0 1 .874 3.111zm-3.437-3.239l2 1.124.565-1.007a1.1 1.1 0 0 0 .1-.868 1.12 1.12 0 0 0-.55-.694 1.151 1.151 0 0 0-1.555.438z"/><path data-name="Path 429" d="M501.806 56.12l4.144-6.869 1.968 1.187-4.144 6.869zm4.742-7.859l.59-.977 1.967 1.187-.59.978z"/><path data-name="Path 430" d="M513.594 56.665l-.967-.608q.48-1.047-.31-1.546a1.446 1.446 0 0 0-.9-.28.853.853 0 0 0-.634.438q-.263.42.668 2.064a3.635 3.635 0 0 1 .683 1.86 2.617 2.617 0 0 1-.376.984 2.3 2.3 0 0 1-3.169.719l-.966-.609a2.031 2.031 0 0 1-.72-3.169l.978.616q-.5 1.052.292 1.55a1.464 1.464 0 0 0 .908.288.868.868 0 0 0 .642-.45q.257-.408-.676-2.052a3.722 3.722 0 0 1-.688-1.864 2.5 2.5 0 0 1 .371-.986 2.194 2.194 0 0 1 1.441-1.011 2.217 2.217 0 0 1 1.728.291l.965.608a2.1 2.1 0 0 1 .73 3.157z"/><path data-name="Path 431" d="M522.013 56.728l1.89 1.281-1.288 1.9.957.648-.64.945-.957-.648-2.571 3.794a1.039 1.039 0 0 0-.174.921 1.134 1.134 0 0 0 .392.623l.092.061-.641.946-.957-.649a2.3 2.3 0 0 1-.6-3.183l2.569-3.793-.957-.649.641-.945.957.647z"/><path data-name="Path 432" d="M527.417 63.249l1.87 1.335a2.3 2.3 0 0 1 .533 3.186l-2 2.8a2.224 2.224 0 0 1-1.488.925 2.19 2.19 0 0 1-1.706-.381l-1.871-1.335a2.223 2.223 0 0 1-.924-1.489 2.2 2.2 0 0 1 .389-1.716l2-2.8a2.178 2.178 0 0 1 1.489-.914 2.218 2.218 0 0 1 1.708.389zm-1.327 1.86l-2 2.8a1.119 1.119 0 0 0-.2.856 1.084 1.084 0 0 0 .456.747 1.1 1.1 0 0 0 .866.2 1.125 1.125 0 0 0 .746-.465l2-2.8a1.1 1.1 0 0 0 .192-.852 1.113 1.113 0 0 0-.47-.75 1.153 1.153 0 0 0-1.593.267z"/><path data-name="Path 433" d="M536.475 80.028l-1.807-1.4.7-.9a1.1 1.1 0 0 1-1.613.2l-.9-.7a2.313 2.313 0 0 1-.412-3.224l2.1-2.721a2.187 2.187 0 0 1 1.524-.857 2.223 2.223 0 0 1 1.692.455l1.817 1.407 1.406-1.819 1.807 1.4zm2.4-6.84l-.915-.707a1.15 1.15 0 0 0-1.6.2l-2.1 2.721a1.119 1.119 0 0 0-.229.848 1.081 1.081 0 0 0 .425.765 1.105 1.105 0 0 0 .859.228 1.122 1.122 0 0 0 .763-.435z"/><path data-name="Path 434" d="M539.997 82.873l-1.783-1.45 5.061-6.224 1.783 1.449-1.441 1.772a2.826 2.826 0 0 1 1.63-.882 2.152 2.152 0 0 1 1.594.559l.886.721-1.441 1.772-1.783-1.449a1.1 1.1 0 0 0-.837-.246 1.111 1.111 0 0 0-.778.422z"/><path data-name="Path 435" d="M550.977 87.601l-3.485-2.977-.741.869a1.114 1.114 0 0 0-.271.836 1.085 1.085 0 0 0 .388.785l.879.751a1.016 1.016 0 0 0 1.619-.138l.869.742q-1.692 1.578-3.23.264l-1.747-1.493a2.314 2.314 0 0 1-.254-3.24l2.234-2.616a2.192 2.192 0 0 1 1.564-.781 2.221 2.221 0 0 1 1.667.538l1.747 1.492a2.3 2.3 0 0 1 .253 3.221zm-2.742-3.845l1.747 1.492.751-.877a1.153 1.153 0 0 0-.137-1.62 1.154 1.154 0 0 0-1.611.126z"/><path data-name="Path 436" d="M556.902 91.372l.775-.858a1.094 1.094 0 0 0 .289-.823 1.117 1.117 0 0 0-.381-.8l-.848-.766a1.084 1.084 0 0 0-1.613.082l-.857-.775q1.735-1.511 3.236-.153l1.705 1.54a2.3 2.3 0 0 1 .163 3.226l-3.847 4.257-1.695-1.531.766-.848a1.1 1.1 0 0 1-1.623.073l-.848-.766a2.315 2.315 0 0 1-.164-3.246 2.191 2.191 0 0 1 1.585-.737 2.214 2.214 0 0 1 1.651.584zm-.766.846l-.858-.774a1.151 1.151 0 0 0-1.613.081 1.121 1.121 0 0 0-.294.828 1.089 1.089 0 0 0 .366.795 1.1 1.1 0 0 0 .838.294 1.125 1.125 0 0 0 .8-.376z"/><path data-name="Path 437" d="M562.092 102.559l-1.64-1.589 3.992-4.121a1.094 1.094 0 0 0 .319-.812 1.113 1.113 0 0 0-.354-.812 1.151 1.151 0 0 0-1.614.025l-3.993 4.121-1.65-1.6 5.582-5.761 1.65 1.6-.8.82a1.4 1.4 0 0 1 .855-.369 1.074 1.074 0 0 1 .76.344l.83.8a1.931 1.931 0 0 1 .67 1.781 1.686 1.686 0 0 1 .931.049 2.39 2.39 0 0 1 .87.565l.82.795a2.222 2.222 0 0 1 .692 1.609 2.191 2.191 0 0 1-.631 1.63l-3.993 4.12-1.651-1.6 3.993-4.121a1.1 1.1 0 0 0 .314-.808 1.088 1.088 0 0 0-.339-.807 1.122 1.122 0 0 0-.817-.323 1.089 1.089 0 0 0-.808.339z"/><path data-name="Path 438" d="M575.789 109.997l.841-.793a1.1 1.1 0 0 0 .355-.8 1.119 1.119 0 0 0-.317-.827l-.783-.832a1.084 1.084 0 0 0-1.614-.047l-.793-.841q1.849-1.367 3.238.105l1.576 1.672a2.3 2.3 0 0 1-.1 3.229l-4.174 3.936-1.568-1.662.831-.784a1.1 1.1 0 0 1-1.624-.058l-.783-.831a2.315 2.315 0 0 1 .1-3.248 2.183 2.183 0 0 1 1.638-.608 2.216 2.216 0 0 1 1.6.714zm-.831.783l-.793-.841a1.151 1.151 0 0 0-1.615-.048 1.12 1.12 0 0 0-.359.8 1.084 1.084 0 0 0 .3.821 1.109 1.109 0 0 0 .813.36 1.123 1.123 0 0 0 .822-.311z"/><path data-name="Path 439" d="M575.531 116.445l7.705-6.867 1.529 1.715-2.568 2.289a1.392 1.392 0 0 1 .879-.3 1.075 1.075 0 0 1 .733.4l.769.863a2.3 2.3 0 0 1-.185 3.225l-2.569 2.288a2.211 2.211 0 0 1-1.655.573 2.186 2.186 0 0 1-1.579-.749zm2.382.955l.76.852a1.1 1.1 0 0 0 .8.383 1.121 1.121 0 0 0 .83-.289l2.568-2.288a1.1 1.1 0 0 0 .376-.788 1.149 1.149 0 0 0-1.905-.928z"/><path data-name="Path 440" d="M589.183 119.857l1.48 1.758a2.3 2.3 0 0 1-.275 3.217l-2.631 2.217a2.221 2.221 0 0 1-1.671.527 2.19 2.19 0 0 1-1.558-.793l-1.48-1.757a2.315 2.315 0 0 1 .276-3.238l2.631-2.216a2.184 2.184 0 0 1 1.67-.517 2.22 2.22 0 0 1 1.558.802zm-1.747 1.472l-2.631 2.216a1.123 1.123 0 0 0-.4.781 1.085 1.085 0 0 0 .255.838 1.106 1.106 0 0 0 .79.4 1.121 1.121 0 0 0 .838-.266l2.631-2.216a1.148 1.148 0 0 0-.647-2.018 1.089 1.089 0 0 0-.836.265z"/><path data-name="Path 441" d="M597.979 130.646l-6.278 4.995-1.422-1.787.894-.711a1.1 1.1 0 0 1-1.613-.193l-.711-.894a2.312 2.312 0 0 1 .366-3.228l4.479-3.565 1.431 1.8-4.478 3.564a1.12 1.12 0 0 0-.426.77 1.129 1.129 0 0 0 1.012 1.27 1.116 1.116 0 0 0 .844-.242l4.479-3.564z"/><path data-name="Path 442" d="M601.985 132.107l1.378 1.821-1.832 1.387.7.922-.911.689-.7-.922-3.653 2.765a1.037 1.037 0 0 0-.462.815 1.127 1.127 0 0 0 .171.717l.066.087-.91.69-.7-.922a2.3 2.3 0 0 1 .454-3.208l3.654-2.765-.7-.922.911-.689.7.922z"/><path data-name="Path 443" d="M598.905 147.226a1.063 1.063 0 0 0-.288 1.6l.657.934a1.149 1.149 0 0 0 1.61.28l1.869-1.314a1.1 1.1 0 0 1-1.6-.288l-.657-.935a2.314 2.314 0 0 1 .559-3.2l4.681-3.293 1.323 1.88-4.683 3.293a1.122 1.122 0 0 0-.47.742 1.087 1.087 0 0 0 .182.857 1.1 1.1 0 0 0 .752.471 1.119 1.119 0 0 0 .858-.19l4.682-3.293 1.314 1.868-7.5 5.272a2.223 2.223 0 0 1-1.711.379 2.185 2.185 0 0 1-1.482-.926l-1.322-1.879q-1.164-1.656.557-3.2z"/><path data-name="Path 444" d="M612.346 150.577l1.268 1.916a2.3 2.3 0 0 1-.642 3.166l-2.868 1.9a2.224 2.224 0 0 1-1.721.33 2.188 2.188 0 0 1-1.457-.966l-1.269-1.916a2.311 2.311 0 0 1 .648-3.184l2.867-1.9a2.191 2.191 0 0 1 1.719-.321 2.222 2.222 0 0 1 1.455.975zm-1.9 1.261l-2.869 1.9a1.128 1.128 0 0 0-.491.728 1.094 1.094 0 0 0 .158.862 1.108 1.108 0 0 0 .739.493 1.122 1.122 0 0 0 .863-.168l2.868-1.9a1.1 1.1 0 0 0 .485-.725 1.118 1.118 0 0 0-.17-.868 1.107 1.107 0 0 0-.726-.486 1.094 1.094 0 0 0-.861.164z"/><path data-name="Path 445" d="M619.843 162.309l-6.81 4.24-1.207-1.938.97-.6a1.1 1.1 0 0 1-1.581-.378l-.6-.969a2.313 2.313 0 0 1 .737-3.165l4.858-3.026 1.215 1.95-4.859 3.026a1.12 1.12 0 0 0-.511.716 1.087 1.087 0 0 0 .134.865 1.107 1.107 0 0 0 .724.513 1.121 1.121 0 0 0 .868-.143l4.859-3.025z"/><path data-name="Path 446" d="M615.344 170.447l-1.166-1.98 6.911-4.072 1.167 1.979-1.969 1.16a2.825 2.825 0 0 1 1.836-.259 2.147 2.147 0 0 1 1.3 1.079l.58.984-1.968 1.16-1.167-1.98a1.093 1.093 0 0 0-.7-.522 1.107 1.107 0 0 0-.876.125z"/><path data-name="Path 447" d="M619.858 178.352l6.035-3.3-.556-1.013 1-.549.556 1.014.095-.052a2.208 2.208 0 0 1 2.97.868l1.15 2.1-1 .548-.6-1.1a1.057 1.057 0 0 0-1.419-.415l-.1.052.555 1.015-1 .548-.555-1.014-6.035 3.3z"/><path data-name="Path 448" d="M632.858 185.785l-7.129 3.677-1.048-2.03 1.015-.523a1.1 1.1 0 0 1-1.544-.5l-.524-1.015a2.313 2.313 0 0 1 .988-3.1l5.088-2.624 1.053 2.042-5.087 2.624a1.123 1.123 0 0 0-.567.672 1.09 1.09 0 0 0 .063.873 1.105 1.105 0 0 0 .682.571 1.125 1.125 0 0 0 .876-.074l5.087-2.624z"/><path data-name="Path 449" d="M636.507 188.003l1 2.056-2.067 1 .5 1.04-1.028.5-.505-1.04-4.122 2a1.031 1.031 0 0 0-.612.709 1.131 1.131 0 0 0 .028.736l.048.1-1.027.5-.5-1.04a2.3 2.3 0 0 1 1.07-3.059l4.123-2-.505-1.04 1.028-.5.505 1.04z"/><path data-name="Path 450" d="M639.826 200.536l-7.3 3.322-.947-2.079 1.04-.473a1.1 1.1 0 0 1-1.518-.579l-.473-1.04a2.313 2.313 0 0 1 1.14-3.043l5.21-2.371.952 2.092-5.21 2.371a1.122 1.122 0 0 0-.6.642 1.082 1.082 0 0 0 .021.875 1.1 1.1 0 0 0 .651.6 1.13 1.13 0 0 0 .879-.029l5.21-2.372z"/><path data-name="Path 451" d="M634.314 208.026l-.9-2.114 7.382-3.142.9 2.115-2.1.894a2.834 2.834 0 0 1 1.853-.019 2.149 2.149 0 0 1 1.148 1.239l.447 1.051-2.1.9-.9-2.114a1.1 1.1 0 0 0-.626-.61 1.116 1.116 0 0 0-.885.011z"/><path data-name="Path 452" d="M641.812 217.333l-1.69-4.258-1.061.421a1.12 1.12 0 0 0-.63.612 1.085 1.085 0 0 0-.024.875l.426 1.074a1.016 1.016 0 0 0 1.5.636l.421 1.061q-2.232.606-2.978-1.275l-.847-2.137a2.311 2.311 0 0 1 1.288-2.982l3.2-1.269a2.186 2.186 0 0 1 1.747.039 2.223 2.223 0 0 1 1.224 1.255l.847 2.136a2.3 2.3 0 0 1-1.282 2.965zm-.628-4.68l.847 2.136 1.075-.426a1.15 1.15 0 0 0-.848-2.136z"/><path data-name="Path 453" d="M639.396 220.703l2.153-.8.8 2.153-2.154.8z"/><path data-name="Path 454" d="M642.131 228.17l9.787-3.275.729 2.18-3.992 1.336 5.171 2.187.642 1.918-6.352-2.721-3.435 5.995-.729-2.178 2.719-4.537-3.81 1.274z"/><path data-name="Path 455" d="M650.619 243.493l-1.323-4.388-1.094.33a1.113 1.113 0 0 0-.679.558 1.076 1.076 0 0 0-.1.869l.333 1.107a1.016 1.016 0 0 0 1.436.76l.331 1.093q-2.277.413-2.86-1.524l-.664-2.2a2.222 2.222 0 0 1 .179-1.743 2.2 2.2 0 0 1 1.358-1.121l3.293-.993a2.185 2.185 0 0 1 1.738.187 2.222 2.222 0 0 1 1.113 1.354l.663 2.2a2.3 2.3 0 0 1-1.527 2.847zm-.23-4.717l.664 2.2 1.106-.333a1.1 1.1 0 0 0 .673-.556 1.108 1.108 0 0 0 .087-.88 1.151 1.151 0 0 0-1.423-.764z"/><path data-name="Path 456" d="M653.059 252.371l-1.2-4.423-1.1.3a1.115 1.115 0 0 0-.695.538 1.088 1.088 0 0 0-.122.867l.3 1.115a1.015 1.015 0 0 0 1.414.8l.3 1.1q-2.286.35-2.815-1.6l-.6-2.218a2.316 2.316 0 0 1 1.617-2.819l3.321-.9a2.183 2.183 0 0 1 1.732.237 2.217 2.217 0 0 1 1.073 1.383l.6 2.218a2.306 2.306 0 0 1-1.607 2.8zm-.1-4.721l.6 2.218 1.115-.3a1.094 1.094 0 0 0 .688-.536 1.111 1.111 0 0 0 .112-.878 1.149 1.149 0 0 0-1.4-.8z"/><path data-name="Path 457" d="M658.092 253.553l.538 2.234-1.11.267a1.156 1.156 0 0 1 .9.08 1.174 1.174 0 0 1 .474.763l.27 1.124a2.3 2.3 0 0 1-1.685 2.756l-3.344.8a2.3 2.3 0 0 1-2.77-1.682l-.538-2.234-2.234.539-.538-2.235zm-6.15 3.846l.267 1.11a1.152 1.152 0 0 0 1.4.853l3.343-.806a1.1 1.1 0 0 0 .7-.517 1.114 1.114 0 0 0 .135-.875 1.151 1.151 0 0 0-1.378-.842z"/><path data-name="Path 458" d="M652.379 264.296l7.837-1.714.491 2.246-7.837 1.713zm8.966-1.961l1.116-.244.49 2.245-1.115.245z"/><path data-name="Path 459" d="M653.349 268.725l7.871-1.549.443 2.255-1.12.221a1.4 1.4 0 0 1 .912.184 1.084 1.084 0 0 1 .429.715l.223 1.135a2.3 2.3 0 0 1-1.8 2.682l-5.631 1.107-.441-2.241 5.63-1.108a1.091 1.091 0 0 0 .725-.486 1.11 1.11 0 0 0 .173-.868 1.15 1.15 0 0 0-1.341-.9l-5.63 1.107z"/><path data-name="Path 460" d="M664.125 283.129l-9.038 1.515a2.22 2.22 0 0 1-1.706-.4 2.191 2.191 0 0 1-.938-1.476l-.38-2.267q-.335-1.993 1.886-2.645l.192 1.139a1.063 1.063 0 0 0-.951 1.318l.188 1.126a1.151 1.151 0 0 0 1.331.949l2.253-.378q-1.151.054-1.317-.951l-.19-1.126a2.318 2.318 0 0 1 1.887-2.647l3.393-.568a2.192 2.192 0 0 1 1.7.405 2.223 2.223 0 0 1 .932 1.484zm-1.505-2.064l-.19-1.14a1.151 1.151 0 0 0-1.316-.937l-3.392.568a1.121 1.121 0 0 0-.745.467 1.085 1.085 0 0 0-.206.85 1.1 1.1 0 0 0 .474.751 1.124 1.124 0 0 0 .857.2z"/><path data-name="Path 461" d="M665.031 289.072l.276 2.281-6.83.827.137 1.134a1.1 1.1 0 0 0 .44.771 1.117 1.117 0 0 0 .846.237l5.683-.688.274 2.268-6.83.827.139 1.147a1.087 1.087 0 0 0 .439.758 1.114 1.114 0 0 0 .846.237l5.683-.688.275 2.281-4.07.493a3.933 3.933 0 0 1-4.364-3.421l-.356-2.938.356-.043a3.367 3.367 0 0 1-.551-1.569l-.358-2.95z"/><path data-name="Path 462" d="M658.637 303.622l10.282-.881.2 2.289-3.427.294a1.39 1.39 0 0 1 .887.283 1.072 1.072 0 0 1 .348.757l.1 1.151a2.305 2.305 0 0 1-2.08 2.472l-5.717.49-.2-2.276 5.717-.491a1.1 1.1 0 0 0 .774-.4 1.114 1.114 0 0 0 .265-.845 1.15 1.15 0 0 0-1.235-1.04l-5.717.491z"/><path data-name="Path 463" d="M664.223 317.009l1.154-.066a1.152 1.152 0 0 0 1.073-1.221l-.065-1.14q-.059-1.016-1.206-1.074l-.068-1.154q2.3.144 2.414 2.162l.132 2.295a2.3 2.3 0 0 1-2.148 2.412l-5.729.331-.131-2.28 1.14-.067q-1.148-.07-1.207-1.087l-.066-1.14a2.315 2.315 0 0 1 2.162-2.427 2.184 2.184 0 0 1 1.646.587 2.219 2.219 0 0 1 .767 1.575zm-1.14.066l-.066-1.154a1.153 1.153 0 0 0-1.206-1.074 1.12 1.12 0 0 0-.791.383 1.087 1.087 0 0 0-.3.824 1.1 1.1 0 0 0 .39.8 1.126 1.126 0 0 0 .831.29z"/><path data-name="Path 464" d="M670.221 322.6l.076 2.283-2.3.077.039 1.156-1.141.038-.039-1.156-4.58.155a1.026 1.026 0 0 0-.846.4 1.126 1.126 0 0 0-.274.684v.11l-1.141.038-.039-1.155a2.3 2.3 0 0 1 2.22-2.359l4.579-.155-.039-1.154 1.142-.039.039 1.155z"/><path data-name="Path 465" d="M659.031 333.14q-1.158.063-1.175 1.123l-.019 1.142a1.153 1.153 0 0 0 1.137 1.175l2.284.037q-1.14-.157-1.123-1.175l.019-1.142a2.315 2.315 0 0 1 2.335-2.261l5.723.093-.038 2.3-5.723-.093a1.116 1.116 0 0 0-.817.325 1.081 1.081 0 0 0-.357.8 1.1 1.1 0 0 0 .331.825 1.121 1.121 0 0 0 .806.35l5.723.093-.037 2.284-9.162-.148a2.228 2.228 0 0 1-1.607-.7 2.187 2.187 0 0 1-.654-1.621l.037-2.3q.033-2.023 2.335-2.261z"/><path data-name="Path 466" d="M668.048 343.665l-.065 2.3a2.3 2.3 0 0 1-2.352 2.22l-3.439-.1a2.212 2.212 0 0 1-1.6-.719 2.182 2.182 0 0 1-.636-1.629l.065-2.3a2.315 2.315 0 0 1 2.363-2.232l3.438.1a2.187 2.187 0 0 1 1.59.727 2.215 2.215 0 0 1 .636 1.633zm-2.283-.064l-3.439-.1a1.126 1.126 0 0 0-.821.314 1.132 1.132 0 0 0-.046 1.623 1.123 1.123 0 0 0 .8.36l3.438.1a1.1 1.1 0 0 0 .815-.315 1.148 1.148 0 0 0-.749-1.982z"/><path data-name="Path 467" d="M667.431 357.571l-8.009-.449.128-2.282 1.14.065q-1.133-.2-1.076-1.218l.065-1.141a2.314 2.314 0 0 1 2.423-2.165l5.715.321-.129 2.294-5.715-.321a1.119 1.119 0 0 0-.829.291 1.13 1.13 0 0 0-.092 1.621 1.117 1.117 0 0 0 .792.382l5.715.321z"/><path data-name="Path 468" d="M667.012 363.549l-.233 2.286-6.844-.7-.116 1.136a1.163 1.163 0 0 0 1.034 1.266l5.694.58-.23 2.272-6.845-.695-.117 1.149a1.088 1.088 0 0 0 .26.836 1.117 1.117 0 0 0 .774.417l5.695.579-.232 2.286-4.08-.414a3.936 3.936 0 0 1-3.505-4.3l.3-2.942.355.036a3.374 3.374 0 0 1-.191-1.652l.3-2.957z"/><path data-name="Path 469" d="M661.484 381.511l1.145.156a1.1 1.1 0 0 0 .843-.224 1.108 1.108 0 0 0 .445-.765l.155-1.132q.14-1.009-.976-1.286l.157-1.145q2.225.582 1.951 2.587l-.312 2.276a2.3 2.3 0 0 1-2.573 1.953l-5.685-.78.31-2.263 1.131.155q-1.111-.291-.973-1.3l.154-1.132a2.226 2.226 0 0 1 .888-1.511 2.291 2.291 0 0 1 3.652 2.133zm-1.131-.155l.156-1.146a1.153 1.153 0 0 0-.976-1.286 1.117 1.117 0 0 0-.85.224 1.086 1.086 0 0 0-.45.75 1.108 1.108 0 0 0 .229.858 1.124 1.124 0 0 0 .759.445z"/><path data-name="Path 470" d="M656.299 385.369l7.913 1.312-.376 2.267-1.126-.187a1.4 1.4 0 0 1 .789.494 1.08 1.08 0 0 1 .151.82l-.19 1.14a2.3 2.3 0 0 1-2.627 1.879l-5.66-.938.373-2.254 5.661.939a1.093 1.093 0 0 0 .849-.2 1.111 1.111 0 0 0 .467-.752 1.151 1.151 0 0 0-.94-1.313l-5.66-.94z"/><path data-name="Path 471" d="M664.684 397.432l-.429 2.243-2.257-.431-.218 1.134-1.121-.214.217-1.135-4.5-.861a1.031 1.031 0 0 0-.915.2 1.129 1.129 0 0 0-.417.606l-.02.108-1.122-.214.216-1.136a2.3 2.3 0 0 1 2.687-1.812l4.5.862.217-1.136 1.122.215-.218 1.135z"/><path data-name="Path 472" d="M652.75 404.385l7.834 1.728-.495 2.244-7.834-1.728zm8.963 1.977l1.115.246-.495 2.244-1.115-.246z"/><path data-name="Path 473" d="M651.775 408.817l7.794 1.893-.542 2.234-1.109-.27a1.4 1.4 0 0 1 .751.551 1.073 1.073 0 0 1 .089.828l-.273 1.124a2.3 2.3 0 0 1-2.758 1.68l-5.576-1.354.539-2.219 5.576 1.353a1.1 1.1 0 0 0 .861-.137 1.119 1.119 0 0 0 .522-.716 1.151 1.151 0 0 0-.841-1.379l-5.575-1.355z"/><path data-name="Path 474" d="M646.815 427.571l.64-2.193 5.507 1.609a1.149 1.149 0 0 0 .645-2.2l-5.508-1.61.644-2.205 7.7 2.249-.645 2.206-1.1-.32a1.39 1.39 0 0 1 .725.584 1.08 1.08 0 0 1 .052.832l-.325 1.109a1.933 1.933 0 0 1-1.261 1.424 1.694 1.694 0 0 1 .39.845 2.389 2.389 0 0 1-.093 1.033l-.321 1.1a2.225 2.225 0 0 1-1.1 1.363 2.187 2.187 0 0 1-1.737.2l-5.507-1.609.644-2.2 5.508 1.608a1.105 1.105 0 0 0 .86-.1 1.089 1.089 0 0 0 .556-.676 1.116 1.116 0 0 0-.1-.874 1.086 1.086 0 0 0-.676-.556z"/><path data-name="Path 475" d="M644.818 434.069l7.633 2.465-.707 2.187-7.634-2.466zm8.733 2.82l1.087.352-.706 2.186-1.087-.351z"/><path data-name="Path 476" d="M643.417 438.404l7.58 2.627-.753 2.171-1.079-.374a1.4 1.4 0 0 1 .695.62 1.068 1.068 0 0 1 .01.833l-.379 1.092a2.3 2.3 0 0 1-2.906 1.411l-5.421-1.879.748-2.158 5.421 1.878a1.1 1.1 0 0 0 .871-.054 1.121 1.121 0 0 0 .587-.664 1.152 1.152 0 0 0-.705-1.453l-5.422-1.879z"/><path data-name="Path 477" d="M637.971 453.429l.808-2.137 1.069.4a1.1 1.1 0 0 1-.659-1.486l.4-1.068a2.314 2.314 0 0 1 2.963-1.335l3.217 1.218a2.188 2.188 0 0 1 1.264 1.207 2.218 2.218 0 0 1 .059 1.751l-.814 2.148 2.149.814-.809 2.136zm7.243.3l.409-1.081a1.15 1.15 0 0 0-.664-1.472l-3.217-1.219a1.124 1.124 0 0 0-.879.029 1.084 1.084 0 0 0-.606.631 1.1 1.1 0 0 0 .031.887 1.123 1.123 0 0 0 .641.6z"/><path data-name="Path 478" d="M638.92 466.191l.443-1.053a1.149 1.149 0 0 0 .893-2.117l-3.17-1.336a1.122 1.122 0 0 0-.879-.005 1.087 1.087 0 0 0-.63.609 1.106 1.106 0 0 0 .617 1.513l-.444 1.053a2.109 2.109 0 0 1-1.224-3.01l.443-1.053a2.314 2.314 0 0 1 3.01-1.224l3.17 1.336a2.181 2.181 0 0 1 1.218 1.253 2.208 2.208 0 0 1-.007 1.752l-.443 1.051a2.094 2.094 0 0 1-2.997 1.231z"/><path data-name="Path 479" d="M635.031 472.068l1.053.476a1.1 1.1 0 0 0 .872.026 1.122 1.122 0 0 0 .646-.607l.47-1.041a1.081 1.081 0 0 0-.569-1.51l.478-1.054q1.967 1.194 1.132 3.036l-.948 2.093a2.3 2.3 0 0 1-3.023 1.138l-5.227-2.367.943-2.081 1.04.472a1.1 1.1 0 0 1-.564-1.525l.472-1.04a2.314 2.314 0 0 1 3.041-1.145 2.185 2.185 0 0 1 1.185 1.285 2.227 2.227 0 0 1-.052 1.751zm-1.04-.471l.477-1.054a1.149 1.149 0 0 0-.569-1.51 1.122 1.122 0 0 0-.879-.029 1.1 1.1 0 0 0-.646.592 1.162 1.162 0 0 0 .576 1.529z"/><path data-name="Path 480" d="M628.974 474.262l7.211 3.515-1.006 2.065-1.027-.5a1.4 1.4 0 0 1 .617.7 1.077 1.077 0 0 1-.091.829l-.506 1.039a2.3 2.3 0 0 1-3.054 1.052l-5.158-2.512 1-2.054 5.158 2.514a1.15 1.15 0 0 0 1.007-2.067l-5.158-2.512z"/><path data-name="Path 481" d="M627.199 495.347l-8.076-4.33a2.216 2.216 0 0 1-1.106-1.358 2.185 2.185 0 0 1 .16-1.741l1.086-2.025q.956-1.782 3.111-.939l-.547 1.018a1.062 1.062 0 0 0-1.557.461l-.54 1.006a1.151 1.151 0 0 0 .472 1.565l2.013 1.079a1.1 1.1 0 0 1-.46-1.558l.54-1.006a2.313 2.313 0 0 1 3.11-.939l3.033 1.625a2.182 2.182 0 0 1 1.1 1.361 2.217 2.217 0 0 1-.17 1.743zm.074-2.553l.546-1.018a1.152 1.152 0 0 0-.467-1.546l-3.033-1.626a1.116 1.116 0 0 0-.874-.086 1.084 1.084 0 0 0-.683.547 1.1 1.1 0 0 0-.084.884 1.118 1.118 0 0 0 .557.68z"/><path data-name="Path 482" d="M619.031 493.503l6.989 3.939-1.128 2-6.989-3.939zm8 4.506l.995.561-1.128 2-.995-.561z"/><path data-name="Path 483" d="M621.367 505.498l-1.163 1.966-3.528-2.088a3.934 3.934 0 0 1-1.386-5.36l1.514-2.558 6.9 4.084-1.17 1.978-5.922-3.5-.581.983a1.1 1.1 0 0 0-.121.88 1.121 1.121 0 0 0 .528.7z"/><path data-name="Path 484" d="M611.39 512.927l2.442-3.877-.967-.608a1.116 1.116 0 0 0-.866-.148 1.093 1.093 0 0 0-.721.5l-.616.979a1.016 1.016 0 0 0 .369 1.582l-.608.967q-1.8-1.448-.727-3.158l1.225-1.945a2.227 2.227 0 0 1 1.433-1.008 2.2 2.2 0 0 1 1.736.29l2.911 1.833a2.194 2.194 0 0 1 1 1.434 2.225 2.225 0 0 1-.291 1.728l-1.225 1.944a2.3 2.3 0 0 1-3.151.715zm3.408-3.268l-1.225 1.944.978.616a1.106 1.106 0 0 0 .861.145 1.123 1.123 0 0 0 .722-.514 1.154 1.154 0 0 0-.357-1.575z"/><path data-name="Path 485" d="M603.776 516.128a1.064 1.064 0 0 0-1.6.289l-.646.943a1.152 1.152 0 0 0 .3 1.606l1.885 1.291a1.1 1.1 0 0 1-.289-1.6l.645-.943a2.226 2.226 0 0 1 1.47-.953 2.2 2.2 0 0 1 1.725.357l4.721 3.235-1.3 1.895-4.722-3.235a1.118 1.118 0 0 0-.86-.181 1.084 1.084 0 0 0-.739.47 1.1 1.1 0 0 0-.179.869 1.12 1.12 0 0 0 .479.738l4.722 3.235-1.291 1.885-7.56-5.181a2.219 2.219 0 0 1-.952-1.47 2.182 2.182 0 0 1 .348-1.713l1.3-1.9q1.143-1.668 3.194-.6z"/><path data-name="Path 486" d="M605.339 529.885l-1.352 1.859a2.3 2.3 0 0 1-3.19.5l-2.782-2.022a2.221 2.221 0 0 1-.912-1.5 2.186 2.186 0 0 1 .4-1.7l1.352-1.859a2.313 2.313 0 0 1 3.209-.507l2.783 2.023a2.187 2.187 0 0 1 .9 1.5 2.222 2.222 0 0 1-.408 1.706zm-1.848-1.344l-2.782-2.022a1.12 1.12 0 0 0-.855-.2 1.083 1.083 0 0 0-.751.449 1.1 1.1 0 0 0-.2.864 1.115 1.115 0 0 0 .458.75l2.782 2.024a1.1 1.1 0 0 0 .849.2 1.114 1.114 0 0 0 .754-.464 1.151 1.151 0 0 0-.252-1.6z"/><path data-name="Path 487" d="M596.962 541.021l-6.354-4.9 1.394-1.808.905.7a1.1 1.1 0 0 1-.2-1.613l.7-.9a2.311 2.311 0 0 1 3.223-.417l4.534 3.494-1.4 1.82-4.534-3.495a1.119 1.119 0 0 0-.849-.229 1.091 1.091 0 0 0-.764.428 1.107 1.107 0 0 0-.227.859 1.121 1.121 0 0 0 .437.762l4.535 3.494z"/><path data-name="Path 488" d="M594.283 547.992l-1.456 1.759-1.77-1.465-.738.89-.879-.728.737-.89-3.529-2.922a1.039 1.039 0 0 0-.9-.263 1.133 1.133 0 0 0-.658.332l-.07.084-.88-.728.737-.891a2.305 2.305 0 0 1 3.227-.294l3.53 2.922.736-.89.88.728-.737.891z"/><path data-name="Path 489" d="M582.701 545.779l7.787 6.773-1.507 1.734-2.6-2.258a1.4 1.4 0 0 1 .414.835 1.07 1.07 0 0 1-.3.776l-.759.872a2.3 2.3 0 0 1-3.222.225l-4.329-3.766 1.5-1.723 4.329 3.765a1.1 1.1 0 0 0 .829.275 1.119 1.119 0 0 0 .791-.4 1.151 1.151 0 0 0-.112-1.611l-4.329-3.766z"/><path data-name="Path 490" d="M574.573 560.024l3.1-3.372-.84-.773a1.114 1.114 0 0 0-.826-.3 1.083 1.083 0 0 0-.8.359l-.782.851a1.015 1.015 0 0 0 .077 1.623l-.773.84q-1.515-1.749-.145-3.237l1.556-1.691a2.312 2.312 0 0 1 3.247-.135l2.531 2.329a2.188 2.188 0 0 1 .724 1.591 2.218 2.218 0 0 1-.6 1.646l-1.556 1.692a2.3 2.3 0 0 1-3.227.135zm3.943-2.6l-1.556 1.692.851.782a1.1 1.1 0 0 0 .82.3 1.117 1.117 0 0 0 .8-.374 1.152 1.152 0 0 0-.068-1.615z"/><path data-name="Path 491" d="M563.31 566.617l1.621-1.61 4.043 4.072a1.1 1.1 0 0 0 .8.334 1.12 1.12 0 0 0 .82-.338 1.153 1.153 0 0 0 .005-1.616l-4.043-4.071 1.631-1.619 5.652 5.692-1.631 1.62-.805-.811a1.394 1.394 0 0 1 .353.862 1.073 1.073 0 0 1-.358.753l-.82.815a1.932 1.932 0 0 1-1.793.635 1.7 1.7 0 0 1-.066.929 2.394 2.394 0 0 1-.582.859l-.811.805a2.217 2.217 0 0 1-1.622.661 2.181 2.181 0 0 1-1.618-.663l-4.043-4.071 1.631-1.619 4.043 4.071a1.109 1.109 0 0 0 .8.329 1.089 1.089 0 0 0 .813-.323 1.122 1.122 0 0 0 .339-.811 1.094 1.094 0 0 0-.323-.814z"/><path data-name="Path 492" d="M562.193 578.802l-1.687 1.561a2.3 2.3 0 0 1-3.228-.123l-2.336-2.525a2.226 2.226 0 0 1-.6-1.644 2.189 2.189 0 0 1 .719-1.594l1.685-1.562a2.316 2.316 0 0 1 3.248.125l2.337 2.525a2.187 2.187 0 0 1 .6 1.643 2.221 2.221 0 0 1-.738 1.594zm-1.552-1.677l-2.338-2.523a1.114 1.114 0 0 0-.8-.366 1.081 1.081 0 0 0-.824.294 1.1 1.1 0 0 0-.367.808 1.125 1.125 0 0 0 .3.826l2.337 2.523a1.1 1.1 0 0 0 .8.362 1.117 1.117 0 0 0 .829-.309 1.153 1.153 0 0 0 .063-1.615z"/><path data-name="Path 493" d="M557.657 586.034l-1.713 1.51-1.52-1.723-.867.763-.755-.856.867-.765-3.03-3.436a1.038 1.038 0 0 0-.848-.4 1.13 1.13 0 0 0-.7.224l-.083.073-.755-.856.867-.765a2.3 2.3 0 0 1 3.233.213l3.03 3.438.867-.765.755.856-.866.765z"/><path data-name="Path 494" d="M546.568 582.014l5.2 6.109-1.749 1.489-5.2-6.109zm5.949 6.988l.74.871-1.75 1.489-.74-.869z"/><path data-name="Path 495" d="M544.631 594.073l-1.77 1.444-2.592-3.177a3.932 3.932 0 0 1 .549-5.509l2.3-1.879 5.072 6.215-1.781 1.454-4.349-5.332-.885.722a1.1 1.1 0 0 0-.417.784 1.124 1.124 0 0 0 .252.843z"/><path data-name="Path 496" d="M535.189 597.127l.7.915a1.1 1.1 0 0 0 .758.433 1.12 1.12 0 0 0 .855-.233l.9-.7a1.083 1.083 0 0 0 .208-1.6l.915-.706q1.178 1.977-.425 3.212l-1.821 1.4a2.3 2.3 0 0 1-3.2-.415l-3.5-4.546 1.809-1.393.7.9a1.1 1.1 0 0 1 .219-1.61l.905-.7a2.314 2.314 0 0 1 3.223.418 2.186 2.186 0 0 1 .442 1.691 2.221 2.221 0 0 1-.869 1.521zm-.7-.905l.916-.7a1.152 1.152 0 0 0 .208-1.6 1.12 1.12 0 0 0-.762-.437 1.084 1.084 0 0 0-.848.219 1.1 1.1 0 0 0-.438.772 1.119 1.119 0 0 0 .228.849z"/><path data-name="Path 497" d="M533.952 605.232l-1.843 1.349-1.358-1.854-.932.683-.675-.922.932-.683-2.707-3.7a1.033 1.033 0 0 0-.807-.474 1.129 1.129 0 0 0-.719.159l-.089.066-.675-.922.933-.683a2.3 2.3 0 0 1 3.2.505l2.707 3.7.933-.683.674.922-.933.682z"/><path data-name="Path 498" d="M523.231 600.25l4.626 6.555-1.877 1.325-4.625-6.554zm5.292 7.5l.659.934-1.877 1.324-.659-.932z"/><path data-name="Path 499" d="M522.131 610.785l-1.9 1.286a2.3 2.3 0 0 1-3.171-.617l-1.924-2.851a2.315 2.315 0 0 1 .607-3.183l1.906-1.285a2.314 2.314 0 0 1 3.19.62l1.924 2.852a2.184 2.184 0 0 1 .336 1.715 2.219 2.219 0 0 1-.968 1.463zm-1.277-1.893l-1.925-2.852a1.121 1.121 0 0 0-.733-.484 1.088 1.088 0 0 0-.86.165 1.1 1.1 0 0 0-.486.743 1.117 1.117 0 0 0 .175.862l1.923 2.851a1.1 1.1 0 0 0 .73.479 1.114 1.114 0 0 0 .867-.179 1.151 1.151 0 0 0 .309-1.585z"/><path data-name="Path 500" d="M511.976 607.927l4.3 6.773-1.941 1.231-.611-.964a1.4 1.4 0 0 1 .158.918 1.071 1.071 0 0 1-.511.658l-.975.62a2.3 2.3 0 0 1-3.154-.705l-3.074-4.844 1.928-1.224 3.075 4.844a1.1 1.1 0 0 0 .716.5 1.12 1.12 0 0 0 .872-.153 1.153 1.153 0 0 0 .352-1.578l-3.075-4.843z"/><path data-name="Path 501" d="M505.548 624.033l-1.971 1.155-1.163-1.982-1 .584-.578-.984 1-.585-2.318-3.952a1.033 1.033 0 0 0-.756-.554 1.13 1.13 0 0 0-.732.086l-.094.056-.578-.985 1-.585a2.3 2.3 0 0 1 3.132.826l2.319 3.952 1-.585.578.985-1 .585z"/><path data-name="Path 502" d="M497.306 626.121l-2.01 1.113a2.3 2.3 0 0 1-3.1-.891l-1.667-3.01a2.211 2.211 0 0 1-.194-1.74 2.184 2.184 0 0 1 1.078-1.376l2.01-1.114a2.315 2.315 0 0 1 3.123.9l1.668 3.009a2.194 2.194 0 0 1 .185 1.739 2.225 2.225 0 0 1-1.093 1.37zm-1.108-2l-1.667-3.01a1.114 1.114 0 0 0-.688-.546 1.081 1.081 0 0 0-.87.089 1.1 1.1 0 0 0-.55.7 1.121 1.121 0 0 0 .1.874l1.667 3.009a1.149 1.149 0 0 0 1.564.438 1.148 1.148 0 0 0 .445-1.551z"/><path data-name="Path 503" d="M478.295 627.055l2.04-1.029.514 1.019a1.1 1.1 0 0 1 .517-1.54l1.02-.514a2.316 2.316 0 0 1 3.087 1.016l1.55 3.071a2.186 2.186 0 0 1 .117 1.744 2.218 2.218 0 0 1-1.14 1.331l-2.051 1.035 1.036 2.052-2.04 1.028zm5.14 5.113l1.031-.52a1.151 1.151 0 0 0 .505-1.534l-1.55-3.072a1.124 1.124 0 0 0-.666-.573 1.088 1.088 0 0 0-.874.056 1.1 1.1 0 0 0-.576.676 1.127 1.127 0 0 0 .065.877z"/><path data-name="Path 504" d="M471.521 634.074l4.147-1.949-.486-1.033a1.117 1.117 0 0 0-.651-.592 1.085 1.085 0 0 0-.874.032l-1.047.491a1.015 1.015 0 0 0-.541 1.531l-1.034.486q-.741-2.19 1.09-3.051l2.08-.977a2.314 2.314 0 0 1 3.057 1.1l1.463 3.113a2.188 2.188 0 0 1 .068 1.747 2.222 2.222 0 0 1-1.177 1.3l-2.08.976a2.3 2.3 0 0 1-3.038-1.095zm4.632-.914l-2.08.976.493 1.046a1.094 1.094 0 0 0 .646.586 1.122 1.122 0 0 0 .885-.043 1.151 1.151 0 0 0 .548-1.519z"/><path data-name="Path 505" d="M465.652 637.914l.461 1.059a1.1 1.1 0 0 0 .63.6 1.119 1.119 0 0 0 .886-.019l1.047-.456a1.085 1.085 0 0 0 .591-1.5l1.059-.462q.662 2.2-1.194 3.013l-2.106.918a2.3 2.3 0 0 1-3.007-1.181l-2.292-5.261 2.093-.912.457 1.047a1.1 1.1 0 0 1 .6-1.509l1.047-.456a2.313 2.313 0 0 1 3.024 1.188 2.186 2.186 0 0 1 .019 1.748 2.222 2.222 0 0 1-1.212 1.265zm-.458-1.047l1.06-.462a1.15 1.15 0 0 0 .591-1.5 1.13 1.13 0 0 0-.634-.611 1.087 1.087 0 0 0-.875.007 1.1 1.1 0 0 0-.613.643 1.122 1.122 0 0 0 .015.879z"/><path data-name="Path 506" d="M459.644 635.485l3.923 9.545-2.125.873-3.923-9.545z"/><path data-name="Path 507" d="M455.052 646.013l-2.158.79-2.366-6.46-1.073.393a1.1 1.1 0 0 0-.65.6 1.119 1.119 0 0 0-.037.878l1.968 5.375-2.144.786-2.366-6.461-1.086.4a1.092 1.092 0 0 0-.638.6 1.123 1.123 0 0 0-.037.878l1.969 5.375-2.157.79-1.412-3.85a3.934 3.934 0 0 1 2.334-5.03l2.779-1.018.123.336a3.37 3.37 0 0 1 1.4-.9l2.791-1.022z"/><path data-name="Path 508" d="M439.394 643.103l2.545 7.607-2.18.73-2.545-7.608zm2.911 8.7l.363 1.083-2.18.729-.362-1.083z"/><path data-name="Path 509" d="M437.099 654.718l-2.178.687-.691-2.192-1.1.348-.344-1.09 1.1-.348-1.377-4.37a1.034 1.034 0 0 0-.613-.708 1.13 1.13 0 0 0-.732-.08l-.105.033-.343-1.088 1.1-.348a2.2 2.2 0 0 1 1.739.159 2.218 2.218 0 0 1 1.131 1.346l1.377 4.371 1.1-.348.343 1.089-1.1.348z"/><path data-name="Path 510" d="M428.59 646.566l2.857 9.916-2.208.637-.952-3.306a1.39 1.39 0 0 1-.106.926 1.083 1.083 0 0 1-.675.488l-1.111.319a2.3 2.3 0 0 1-2.827-1.562l-1.589-5.514 2.195-.632 1.589 5.514a1.1 1.1 0 0 0 .547.68 1.117 1.117 0 0 0 .88.1 1.153 1.153 0 0 0 .781-1.414l-1.589-5.513z"/><path data-name="Path 511" d="M416.492 649.92l2.541 10-2.227.567-2.54-10z"/><path data-name="Path 512" d="M412.099 651.019l1.865 7.8-2.235.535-1.866-7.8zm2.134 8.927l.265 1.11-2.235.534-.266-1.11z"/><path data-name="Path 513" d="M406.536 652.318l1.482 6.719 1.129-.249.246 1.115-1.129.249.023.107a2.21 2.21 0 0 1-1.665 2.608l-2.339.515-.245-1.115 1.223-.269a1.058 1.058 0 0 0 .8-1.248l-.024-.107-1.129.249-.246-1.115 1.129-.249-1.481-6.719z"/><path data-name="Path 514" d="M394.906 658.215l4.5-.876-.218-1.121a1.119 1.119 0 0 0-.487-.732 1.083 1.083 0 0 0-.855-.184l-1.135.221a1.014 1.014 0 0 0-.9 1.352l-1.121.219q-.183-2.306 1.8-2.692l2.255-.44a2.318 2.318 0 0 1 2.7 1.817l.657 3.377a2.186 2.186 0 0 1-.361 1.71 2.217 2.217 0 0 1-1.458.97l-2.255.44a2.3 2.3 0 0 1-2.679-1.8zm4.716.245l-2.255.44.221 1.134a1.1 1.1 0 0 0 .484.726 1.117 1.117 0 0 0 .869.174 1.152 1.152 0 0 0 .9-1.339z"/><path data-name="Path 515" d="M393.801 665.385l-2.265.392-.391-2.264q-.345-1.993 1.875-2.643l.194 1.125a1.064 1.064 0 0 0-.944 1.323l1.139-.2z"/><path data-name="Path 516" d="M382.769 662.53l1.129-.173q.321 1.106 1.247.965a1.447 1.447 0 0 0 .861-.376.848.848 0 0 0 .191-.746q-.074-.491-1.855-1.121a3.647 3.647 0 0 1-1.734-.96 2.594 2.594 0 0 1-.361-.99 2.3 2.3 0 0 1 1.924-2.619l1.129-.173a2.031 2.031 0 0 1 2.619 1.924l-1.142.175q-.312-1.122-1.236-.98a1.471 1.471 0 0 0-.875.377.871.871 0 0 0-.19.76q.074.477 1.854 1.109a3.677 3.677 0 0 1 1.74.959 2.51 2.51 0 0 1 .368.987 2.313 2.313 0 0 1-1.923 2.619l-1.129.173a2.1 2.1 0 0 1-2.617-1.91z"/><path data-name="Path 517" d="M371.29 663.985l1.134-.134q.272 1.119 1.281 1a1.15 1.15 0 0 0 1-1.267l-.4-3.417a1.119 1.119 0 0 0-.43-.767 1.086 1.086 0 0 0-.839-.248q-1.013.118-1.013 1.283l-1.134.133a2.108 2.108 0 0 1 2.013-2.55l1.135-.134a2.221 2.221 0 0 1 1.684.482 2.2 2.2 0 0 1 .866 1.532l.4 3.417a2.183 2.183 0 0 1-.488 1.679 2.22 2.22 0 0 1-1.527.858l-1.134.133a2.1 2.1 0 0 1-2.548-2z"/><path data-name="Path 518" d="M368.394 658.522l.935 10.277-2.288.208-.312-3.426a1.4 1.4 0 0 1-.279.89 1.076 1.076 0 0 1-.755.352l-1.151.1a2.3 2.3 0 0 1-2.481-2.067l-.521-5.715 2.276-.206.519 5.714a1.1 1.1 0 0 0 .409.771 1.116 1.116 0 0 0 .846.261 1.151 1.151 0 0 0 1.033-1.24l-.519-5.715z"/><path data-name="Path 519" d="M355.015 664.179l.072 1.153a1.1 1.1 0 0 0 .388.783 1.114 1.114 0 0 0 .838.285l1.139-.071q1.017-.065 1.069-1.212l1.153-.073q-.13 2.3-2.149 2.424l-2.294.145a2.3 2.3 0 0 1-2.423-2.137l-.361-5.727 2.28-.143.071 1.141q.066-1.15 1.082-1.213l1.14-.073a2.315 2.315 0 0 1 2.438 2.15 2.187 2.187 0 0 1-.579 1.649 2.215 2.215 0 0 1-1.571.775zm-.072-1.14l1.154-.072a1.149 1.149 0 0 0 1.067-1.212 1.118 1.118 0 0 0-.387-.789 1.089 1.089 0 0 0-.825-.293 1.109 1.109 0 0 0-.8.4 1.123 1.123 0 0 0-.285.832z"/><path data-name="Path 520" d="M350.209 659.843l.435 10.312-2.3.1-.435-10.311z"/><path data-name="Path 521" d="M345.681 660.018l.293 10.316-2.3.065-.293-10.316z"/><path data-name="Path 522" d="M334.282 663.67l4.581-.074-.018-1.141a1.118 1.118 0 0 0-.351-.807 1.083 1.083 0 0 0-.809-.331l-1.157.019a1.016 1.016 0 0 0-1.123 1.174l-1.141.019q.223-2.3 2.246-2.335l2.3-.037a2.315 2.315 0 0 1 2.335 2.26l.055 3.44a2.184 2.184 0 0 1-.655 1.62 2.22 2.22 0 0 1-1.6.7l-2.3.037a2.3 2.3 0 0 1-2.321-2.247zm4.6 1.069l-2.3.037.019 1.155a1.15 1.15 0 0 0 2.3-.037z"/><path data-name="Path 523" d="M332.021 660.185l-.16 8.02-2.3-.045.022-1.142a1.393 1.393 0 0 1-.375.852 1.07 1.07 0 0 1-.79.267l-1.155-.022a2.3 2.3 0 0 1-2.239-2.33l.114-5.737 2.284.046-.114 5.736a1.1 1.1 0 0 0 .321.812 1.115 1.115 0 0 0 .811.353 1.153 1.153 0 0 0 1.166-1.119l.113-5.737z"/><path data-name="Path 524" d="M315.668 667.665l.435-9.153a2.215 2.215 0 0 1 .75-1.583 2.184 2.184 0 0 1 1.64-.6l2.295.109q2.022.1 2.187 2.4l-1.155-.054q-.027-1.158-1.085-1.208l-1.141-.055a1.152 1.152 0 0 0-1.21 1.1l-.107 2.281c.126-.757.53-1.118 1.208-1.086l1.14.054a2.315 2.315 0 0 1 2.187 2.4l-.162 3.436a2.2 2.2 0 0 1-.757 1.576 2.224 2.224 0 0 1-1.648.6zm2.336-1.032l1.154.055a1.152 1.152 0 0 0 1.2-1.087l.163-3.436a1.124 1.124 0 0 0-.3-.827 1.086 1.086 0 0 0-.787-.382 1.1 1.1 0 0 0-.834.305 1.118 1.118 0 0 0-.375.795z"/><path data-name="Path 525" d="M306.701 662.429l4.57.344.086-1.139a1.122 1.122 0 0 0-.276-.835 1.088 1.088 0 0 0-.777-.4l-1.152-.087a1.016 1.016 0 0 0-1.226 1.066l-1.139-.085q.433-2.271 2.45-2.12l2.291.173a2.314 2.314 0 0 1 2.12 2.464l-.258 3.43a2.186 2.186 0 0 1-.8 1.554 2.213 2.213 0 0 1-1.662.551l-2.292-.173a2.3 2.3 0 0 1-2.107-2.449zm4.484 1.483l-2.291-.172-.087 1.152a1.1 1.1 0 0 0 .275.828 1.124 1.124 0 0 0 .791.4 1.152 1.152 0 0 0 1.225-1.053z"/><path data-name="Path 526" d="M298.431 663.922l1.135.116q.036 1.15.966 1.246a1.438 1.438 0 0 0 .929-.148.849.849 0 0 0 .372-.675q.049-.492-1.516-1.55-1.281-.864-1.438-1.364a2.584 2.584 0 0 1-.1-1.048 2.3 2.3 0 0 1 2.519-2.053l1.137.116a2.031 2.031 0 0 1 2.053 2.519l-1.15-.118q-.019-1.162-.951-1.258a1.47 1.47 0 0 0-.942.146.873.873 0 0 0-.374.688q-.048.48 1.518 1.538c.853.575 1.336 1.03 1.444 1.364a2.5 2.5 0 0 1 .109 1.048 2.312 2.312 0 0 1-2.519 2.053l-1.137-.115a2.1 2.1 0 0 1-2.055-2.505z"/><path data-name="Path 527" d="M296.787 657.949l-.276 2.281-2.281-.276.276-2.282z"/><path data-name="Path 528" d="M285.084 666.796l-2.271-.347a2.191 2.191 0 0 1-1.489-.917 2.222 2.222 0 0 1-.422-1.7l.868-5.658a2.218 2.218 0 0 1 .911-1.5 2.183 2.183 0 0 1 1.694-.429l2.272.348a2.313 2.313 0 0 1 1.923 2.619l-.867 5.658a2.313 2.313 0 0 1-2.619 1.923zm.348-2.271l.867-5.658a1.122 1.122 0 0 0-.211-.854 1.086 1.086 0 0 0-.743-.462 1.1 1.1 0 0 0-.861.217 1.117 1.117 0 0 0-.457.751l-.867 5.658a1.15 1.15 0 0 0 .968 1.318 1.1 1.1 0 0 0 .847-.211 1.121 1.121 0 0 0 .456-.759z"/><path data-name="Path 529" d="M279.931 655.536l-1.437 7.891-2.26-.411.2-1.124a1.393 1.393 0 0 1-.506.782 1.068 1.068 0 0 1-.822.137l-1.137-.207a2.3 2.3 0 0 1-1.838-2.656l1.027-5.645 2.247.409-1.027 5.645a1.1 1.1 0 0 0 .188.852 1.113 1.113 0 0 0 .745.479 1.152 1.152 0 0 0 1.328-.919l1.027-5.646z"/><path data-name="Path 530" d="M263.521 655.812l4.482.947.236-1.117a1.116 1.116 0 0 0-.162-.864 1.085 1.085 0 0 0-.716-.5l-1.13-.239a1.015 1.015 0 0 0-1.357.894l-1.118-.236q.731-2.195 2.71-1.776l2.249.476a2.311 2.311 0 0 1 1.772 2.723l-.71 3.366a2.181 2.181 0 0 1-1 1.433 2.22 2.22 0 0 1-1.721.327l-2.248-.476a2.3 2.3 0 0 1-1.763-2.707zm4.246 2.064l-2.248-.474-.24 1.131a1.15 1.15 0 0 0 2.249.474z"/><path data-name="Path 531" d="M250.11 657.272l2.242-8.886a2.218 2.218 0 0 1 1.049-1.4 2.181 2.181 0 0 1 1.727-.267l2.229.562q1.961.495 1.666 2.79l-1.121-.282a1.064 1.064 0 0 0-.825-1.4l-1.107-.279a1.151 1.151 0 0 0-1.4.838l-.559 2.215a1.1 1.1 0 0 1 1.4-.825l1.108.28a2.315 2.315 0 0 1 1.667 2.79l-.842 3.335a2.184 2.184 0 0 1-1.054 1.394 2.221 2.221 0 0 1-1.732.259zm2.495-.549l1.121.283a1.151 1.151 0 0 0 1.386-.828l.841-3.336a1.124 1.124 0 0 0-.128-.869 1.087 1.087 0 0 0-.7-.53 1.1 1.1 0 0 0-.878.133 1.121 1.121 0 0 0-.525.7z"/><path data-name="Path 532" d="M247.696 648.285l2.213.617-2.153 7.727-2.213-.616.612-2.2a2.82 2.82 0 0 1-1.141 1.46 2.153 2.153 0 0 1-1.685.124l-1.1-.307.613-2.2 2.214.616a1.1 1.1 0 0 0 .866-.108 1.115 1.115 0 0 0 .544-.7z"/><path data-name="Path 533" d="M235.75 648.338l4.382 1.339.334-1.093a1.123 1.123 0 0 0-.086-.875 1.08 1.08 0 0 0-.669-.563l-1.1-.338a1.015 1.015 0 0 0-1.43.772l-1.093-.334q.921-2.123 2.857-1.531l2.2.672a2.314 2.314 0 0 1 1.526 2.869l-1.005 3.29a2.185 2.185 0 0 1-1.122 1.34 2.213 2.213 0 0 1-1.743.173l-2.2-.672a2.3 2.3 0 0 1-1.518-2.851zm4.048 2.431l-2.2-.671-.338 1.1a1.1 1.1 0 0 0 .087.869 1.118 1.118 0 0 0 .684.561 1.153 1.153 0 0 0 1.426-.759z"/><path data-name="Path 534" d="M228.816 647.244l-.369 1.1a1.1 1.1 0 0 0 .063.87 1.111 1.111 0 0 0 .668.581l1.083.365a1.083 1.083 0 0 0 1.446-.718l1.1.368q-.99 2.078-2.907 1.432l-2.178-.734a2.3 2.3 0 0 1-1.436-2.893l1.831-5.438 2.164.729-.364 1.083a1.1 1.1 0 0 1 1.46-.714l1.083.364a2.315 2.315 0 0 1 1.445 2.911 2.191 2.191 0 0 1-1.16 1.309 2.226 2.226 0 0 1-1.748.123zm.365-1.082l1.095.368a1.152 1.152 0 0 0 1.447-.718 1.123 1.123 0 0 0-.061-.877 1.087 1.087 0 0 0-.653-.583 1.1 1.1 0 0 0-.886.065 1.126 1.126 0 0 0-.578.662z"/><path data-name="Path 535" d="M221.391 650.722l-2.147-.781.787-2.159-1.086-.4.391-1.072 1.086.395 1.569-4.3a1.034 1.034 0 0 0-.054-.935 1.127 1.127 0 0 0-.533-.509l-.1-.038.391-1.073 1.086.4a2.3 2.3 0 0 1 1.359 2.94l-1.568 4.306 1.085.4-.39 1.073-1.086-.4z"/><path data-name="Path 536" d="M210.444 640.366l-.433 1.071a1.1 1.1 0 0 0 .01.873 1.115 1.115 0 0 0 .632.619l1.059.429a1.083 1.083 0 0 0 1.487-.63l1.072.434q-1.113 2.013-2.988 1.254l-2.13-.862a2.3 2.3 0 0 1-1.259-2.974l2.153-5.319 2.117.858-.429 1.058a1.1 1.1 0 0 1 1.5-.625l1.059.429a2.315 2.315 0 0 1 1.268 2.992 2.191 2.191 0 0 1-1.236 1.236 2.218 2.218 0 0 1-1.752.019zm.429-1.059l1.071.434a1.151 1.151 0 0 0 1.488-.63 1.123 1.123 0 0 0-.008-.879 1.087 1.087 0 0 0-.617-.621 1.164 1.164 0 0 0-1.505.637z"/><path data-name="Path 537" d="M201.678 631.629l2.092.917-.458 1.046a1.1 1.1 0 0 1 1.516-.582l1.047.458a2.315 2.315 0 0 1 1.182 3.028l-1.38 3.15a2.188 2.188 0 0 1-1.271 1.2 2.214 2.214 0 0 1-1.751-.031l-2.1-.922-.923 2.1-2.092-.916zm-.669 7.219l1.059.464a1.15 1.15 0 0 0 1.5-.588l1.38-3.15a1.126 1.126 0 0 0 .018-.879 1.088 1.088 0 0 0-.6-.639 1.1 1.1 0 0 0-.887-.014 1.128 1.128 0 0 0-.635.609z"/><path data-name="Path 538" d="M192.074 636.001l-2.066-.975 1.751-3.708a3.934 3.934 0 0 1 5.208-1.878l2.687 1.269-3.424 7.254-2.078-.981 2.937-6.221-1.032-.488a1.1 1.1 0 0 0-.888-.038 1.119 1.119 0 0 0-.651.59z"/><path data-name="Path 539" d="M187.322 634.985l-.509 1.022-2.057-1.024.51-1.023zm4.093-8.215l-3.577 7.181-2.057-1.025 3.578-7.18z"/><path data-name="Path 540" d="M179.626 627.172l1.012.529a1.15 1.15 0 0 0 2.037 1.064l1.593-3.049a1.119 1.119 0 0 0 .077-.876 1.087 1.087 0 0 0-.554-.677 1.105 1.105 0 0 0-1.559.489l-1.013-.529a2.109 2.109 0 0 1 3.1-.972l1.013.529a2.314 2.314 0 0 1 .973 3.1l-1.594 3.049a2.187 2.187 0 0 1-1.349 1.111 2.219 2.219 0 0 1-1.745-.152l-1.012-.528a2.1 2.1 0 0 1-.979-3.088z"/><path data-name="Path 541" d="M172.639 620.698l4 2.228.555-1a1.119 1.119 0 0 0 .1-.873 1.083 1.083 0 0 0-.536-.692l-1.01-.562a1.014 1.014 0 0 0-1.559.454l-1-.555q1.347-1.881 3.114-.9l2.008 1.117a2.312 2.312 0 0 1 .89 3.125l-1.673 3.006a2.185 2.185 0 0 1-1.378 1.076 2.223 2.223 0 0 1-1.741-.2l-2.008-1.118a2.3 2.3 0 0 1-.884-3.106zm3.448 3.226l-2.008-1.118-.561 1.011a1.093 1.093 0 0 0-.1.867 1.118 1.118 0 0 0 .552.692 1.089 1.089 0 0 0 .867.1 1.1 1.1 0 0 0 .687-.539z"/><path data-name="Path 542" d="M164.689 622.69l-.587.979-1.971-1.184.587-.98zm4.714-7.875l-4.121 6.883-1.971-1.181 4.121-6.883z"/><path data-name="Path 543" d="M157.614 614.31l.968.6q-.476 1.05.317 1.545a1.44 1.44 0 0 0 .9.278.852.852 0 0 0 .633-.441q.263-.42-.675-2.06a3.637 3.637 0 0 1-.688-1.859 2.573 2.573 0 0 1 .372-.984 2.3 2.3 0 0 1 3.166-.73l.968.6a2.031 2.031 0 0 1 .731 3.166l-.981-.612q.5-1.053-.3-1.549a1.465 1.465 0 0 0-.91-.285.864.864 0 0 0-.639.452q-.257.408.681 2.05a3.71 3.71 0 0 1 .7 1.861 2.51 2.51 0 0 1-.367.988 2.313 2.313 0 0 1-3.166.731l-.968-.606a2.1 2.1 0 0 1-.742-3.145z"/><path data-name="Path 544" d="M149.218 614.292l-1.9-1.274 1.283-1.907-.959-.645.636-.948.959.646 2.557-3.8a1.033 1.033 0 0 0 .172-.921 1.13 1.13 0 0 0-.4-.622l-.091-.062.637-.947.959.645a2.3 2.3 0 0 1 .614 3.181l-2.557 3.8.96.644-.638.949-.959-.646z"/><path data-name="Path 545" d="M143.766 607.771l-1.875-1.329a2.3 2.3 0 0 1-.544-3.184l1.989-2.807a2.217 2.217 0 0 1 1.484-.929 2.187 2.187 0 0 1 1.708.374l1.875 1.329a2.217 2.217 0 0 1 .929 1.484 2.193 2.193 0 0 1-.383 1.719l-1.988 2.807a2.186 2.186 0 0 1-1.486.92 2.224 2.224 0 0 1-1.709-.384zm1.32-1.864l1.988-2.807a1.119 1.119 0 0 0 .2-.857 1.084 1.084 0 0 0-.458-.746 1.1 1.1 0 0 0-.867-.193 1.125 1.125 0 0 0-.745.467l-1.988 2.808a1.094 1.094 0 0 0-.19.851 1.113 1.113 0 0 0 .473.748 1.15 1.15 0 0 0 1.592-.271z"/><path data-name="Path 546" d="M134.671 591.04l1.812 1.391-.7.906a1.1 1.1 0 0 1 1.613-.2l.906.7a2.312 2.312 0 0 1 .423 3.221l-2.1 2.729a2.186 2.186 0 0 1-1.521.862 2.217 2.217 0 0 1-1.692-.449l-1.823-1.4-1.4 1.823-1.811-1.391zm-2.378 6.848l.917.7a1.151 1.151 0 0 0 1.6-.211l2.094-2.728a1.114 1.114 0 0 0 .227-.849 1.091 1.091 0 0 0-.429-.764 1.1 1.1 0 0 0-.858-.225 1.121 1.121 0 0 0-.762.438z"/><path data-name="Path 547" d="M131.117 588.185l1.788 1.443-5.039 6.242-1.788-1.443 1.435-1.777a2.83 2.83 0 0 1-1.627.887 2.148 2.148 0 0 1-1.6-.554l-.888-.717 1.434-1.777 1.788 1.443a1.1 1.1 0 0 0 .838.243 1.113 1.113 0 0 0 .777-.425z"/><path data-name="Path 548" d="M120.145 583.517l3.494 2.964.739-.871a1.124 1.124 0 0 0 .268-.837 1.091 1.091 0 0 0-.391-.783l-.882-.747a1.014 1.014 0 0 0-1.618.141l-.871-.738q1.686-1.584 3.228-.274l1.752 1.486a2.314 2.314 0 0 1 .266 3.239l-2.226 2.623a2.186 2.186 0 0 1-1.56.787 2.225 2.225 0 0 1-1.67-.532l-1.752-1.486a2.3 2.3 0 0 1-.264-3.22zm2.755 3.835l-1.752-1.486-.748.881a1.1 1.1 0 0 0-.264.832 1.12 1.12 0 0 0 .406.787 1.152 1.152 0 0 0 1.61-.133z"/><path data-name="Path 549" d="M114.207 579.767l-.771.86a1.1 1.1 0 0 0-.287.825 1.115 1.115 0 0 0 .383.8l.851.763a1.083 1.083 0 0 0 1.612-.087l.861.772q-1.731 1.515-3.237.165l-1.71-1.534a2.3 2.3 0 0 1-.174-3.226l3.833-4.271 1.7 1.526-.763.85a1.1 1.1 0 0 1 1.623-.078l.851.763a2.222 2.222 0 0 1 .752 1.582 2.291 2.291 0 0 1-3.814 1.828zm.763-.85l.86.772a1.151 1.151 0 0 0 1.613-.087 1.12 1.12 0 0 0 .292-.829 1.087 1.087 0 0 0-.37-.794 1.1 1.1 0 0 0-.838-.291 1.117 1.117 0 0 0-.793.379z"/><path data-name="Path 550" d="M108.955 568.576l1.646 1.584-3.98 4.134a1.1 1.1 0 0 0-.315.814 1.118 1.118 0 0 0 .356.81 1.15 1.15 0 0 0 1.615-.031l3.979-4.134 1.655 1.594-5.562 5.779-1.656-1.592.792-.824a1.385 1.385 0 0 1-.854.371 1.075 1.075 0 0 1-.761-.339l-.833-.8a1.934 1.934 0 0 1-.676-1.778 1.7 1.7 0 0 1-.93-.045 2.391 2.391 0 0 1-.872-.563l-.823-.792a2.216 2.216 0 0 1-.7-1.607 2.188 2.188 0 0 1 .625-1.632l3.98-4.134 1.655 1.594-3.979 4.134a1.1 1.1 0 0 0-.31.808 1.085 1.085 0 0 0 .341.806 1.118 1.118 0 0 0 .819.32 1.088 1.088 0 0 0 .806-.341z"/><path data-name="Path 551" d="M95.231 561.185l-.838.8a1.1 1.1 0 0 0-.352.8 1.119 1.119 0 0 0 .319.826l.787.828a1.083 1.083 0 0 0 1.614.043l.8.838q-1.847 1.372-3.239-.095l-1.582-1.666a2.3 2.3 0 0 1 .084-3.229l4.162-3.951 1.573 1.658-.828.786a1.1 1.1 0 0 1 1.624.053l.786.828a2.313 2.313 0 0 1-.085 3.248 2.184 2.184 0 0 1-1.637.614 2.218 2.218 0 0 1-1.6-.708zm.829-.786l.8.838a1.151 1.151 0 0 0 1.614.043 1.126 1.126 0 0 0 .357-.8 1.086 1.086 0 0 0-.3-.82 1.1 1.1 0 0 0-.814-.358 1.119 1.119 0 0 0-.82.315z"/><path data-name="Path 552" d="M95.474 554.735l-7.681 6.892-1.535-1.711 2.56-2.3a1.4 1.4 0 0 1-.878.307 1.073 1.073 0 0 1-.735-.395l-.771-.861a2.3 2.3 0 0 1 .175-3.225l2.559-2.3a2.218 2.218 0 0 1 1.654-.578 2.187 2.187 0 0 1 1.582.743zm-2.385-.948l-.763-.85a1.108 1.108 0 0 0-.8-.38 1.123 1.123 0 0 0-.831.292l-2.559 2.3a1.149 1.149 0 0 0 1.534 1.711z"/><path data-name="Path 553" d="M81.808 551.371l-1.487-1.753a2.3 2.3 0 0 1 .264-3.22l2.624-2.225a2.218 2.218 0 0 1 1.669-.532 2.193 2.193 0 0 1 1.561.787l1.486 1.753a2.312 2.312 0 0 1-.266 3.238l-2.623 2.226a2.191 2.191 0 0 1-1.669.522 2.22 2.22 0 0 1-1.559-.796zm1.742-1.478l2.623-2.226a1.118 1.118 0 0 0 .4-.782 1.087 1.087 0 0 0-.258-.837 1.165 1.165 0 0 0-1.629-.134l-2.624 2.226a1.1 1.1 0 0 0-.4.778 1.119 1.119 0 0 0 .273.842 1.149 1.149 0 0 0 1.61.133z"/><path data-name="Path 554" d="M72.995 540.633l6.259-5.017 1.429 1.782-.891.715a1.1 1.1 0 0 1 1.613.187l.715.891a2.312 2.312 0 0 1-.355 3.23l-4.467 3.58-1.438-1.793 4.467-3.58a1.122 1.122 0 0 0 .423-.77 1.092 1.092 0 0 0-.235-.844 1.11 1.11 0 0 0-.78-.424 1.126 1.126 0 0 0-.845.245l-4.466 3.58z"/><path data-name="Path 555" d="M68.965 539.164l-1.385-1.817 1.827-1.393-.7-.919.908-.693.7.919 3.643-2.777a1.032 1.032 0 0 0 .459-.817 1.13 1.13 0 0 0-.173-.715l-.067-.087.909-.693.7.919a2.3 2.3 0 0 1-.443 3.21l-3.645 2.778.7.919-.909.692-.7-.919z"/><path data-name="Path 556" d="M71.994 524.036a1.063 1.063 0 0 0 .283-1.6l-.66-.932a1.151 1.151 0 0 0-1.611-.275l-1.863 1.32a1.1 1.1 0 0 1 1.6.283l.66.932a2.316 2.316 0 0 1-.546 3.2l-4.671 3.309-1.328-1.875 4.67-3.309a1.121 1.121 0 0 0 .468-.745 1.093 1.093 0 0 0-.184-.855 1.107 1.107 0 0 0-.754-.469 1.122 1.122 0 0 0-.858.193l-4.672 3.309-1.319-1.863 7.478-5.3a2.21 2.21 0 0 1 1.709-.385 2.182 2.182 0 0 1 1.486.92l1.328 1.875q1.17 1.65-.547 3.2z"/><path data-name="Path 557" d="M58.543 520.73l-1.275-1.912a2.3 2.3 0 0 1 .632-3.168l2.862-1.909a2.219 2.219 0 0 1 1.719-.336 2.186 2.186 0 0 1 1.46.961l1.275 1.912a2.312 2.312 0 0 1-.636 3.186l-2.862 1.909a2.188 2.188 0 0 1-1.717.328 2.226 2.226 0 0 1-1.458-.971zm1.9-1.268l2.862-1.909a1.126 1.126 0 0 0 .488-.731 1.089 1.089 0 0 0-.161-.861 1.1 1.1 0 0 0-.74-.49 1.125 1.125 0 0 0-.863.17l-2.862 1.909a1.1 1.1 0 0 0-.482.728 1.117 1.117 0 0 0 .174.868 1.152 1.152 0 0 0 1.584.316z"/><path data-name="Path 558" d="M51.008 509.023l6.795-4.264 1.214 1.936-.967.606a1.1 1.1 0 0 1 1.581.372l.607.968a2.312 2.312 0 0 1-.725 3.168l-4.849 3.042-1.221-1.946 4.849-3.042a1.122 1.122 0 0 0 .508-.718 1.085 1.085 0 0 0-.136-.864 1.1 1.1 0 0 0-.726-.511 1.129 1.129 0 0 0-.868.145l-4.848 3.042z"/><path data-name="Path 559" d="M55.479 500.873l1.173 1.976-6.9 4.1-1.174-1.976 1.964-1.166a2.827 2.827 0 0 1-1.834.266 2.155 2.155 0 0 1-1.3-1.075l-.583-.983 1.964-1.166 1.173 1.976a1.1 1.1 0 0 0 .7.52 1.119 1.119 0 0 0 .876-.128z"/><path data-name="Path 560" d="M50.941 492.985l-6.024 3.324.559 1.012-1 .552-.559-1.012-.1.053a2.209 2.209 0 0 1-2.972-.859l-1.156-2.1 1-.551.6 1.095a1.059 1.059 0 0 0 1.421.411l.1-.053-.559-1.012 1-.552.559 1.012 6.023-3.324z"/><path data-name="Path 561" d="M37.931 485.629l7.117-3.7 1.054 2.027-1.013.526a1.1 1.1 0 0 1 1.546.5l.527 1.013a2.313 2.313 0 0 1-.977 3.1l-5.078 2.642-1.061-2.039 5.078-2.642a1.118 1.118 0 0 0 .565-.674 1.092 1.092 0 0 0-.067-.873 1.107 1.107 0 0 0-.682-.567 1.12 1.12 0 0 0-.876.076l-5.078 2.642z"/><path data-name="Path 562" d="M34.259 483.392l-1-2.052 2.064-1.01-.507-1.039 1.025-.5.509 1.04 4.115-2.015a1.032 1.032 0 0 0 .609-.711 1.123 1.123 0 0 0-.03-.736l-.049-.1 1.027-.5.508 1.038a2.3 2.3 0 0 1-1.061 3.062l-4.115 2.014.508 1.038-1.027.5-.508-1.039z"/><path data-name="Path 563" d="M30.899 470.874l7.29-3.346.953 2.075-1.038.477a1.1 1.1 0 0 1 1.52.574l.477 1.038a2.314 2.314 0 0 1-1.129 3.047l-5.2 2.388-.959-2.088 5.2-2.388a1.128 1.128 0 0 0 .6-.646 1.083 1.083 0 0 0-.024-.875 1.1 1.1 0 0 0-.654-.6 1.119 1.119 0 0 0-.878.032l-5.2 2.389z"/><path data-name="Path 564" d="M36.386 463.368l.907 2.11-7.37 3.167-.907-2.111 2.1-.9a2.833 2.833 0 0 1-1.853.026 2.155 2.155 0 0 1-1.152-1.236l-.452-1.049 2.1-.9.907 2.111a1.094 1.094 0 0 0 .628.607 1.117 1.117 0 0 0 .885-.013z"/><path data-name="Path 565" d="M28.857 454.085l1.7 4.253 1.06-.425a1.12 1.12 0 0 0 .628-.614 1.091 1.091 0 0 0 .02-.876l-.43-1.072a1.015 1.015 0 0 0-1.5-.631l-.425-1.059q2.229-.614 2.983 1.265l.854 2.133a2.313 2.313 0 0 1-1.278 2.988l-3.194 1.28a2.189 2.189 0 0 1-1.748-.035 2.215 2.215 0 0 1-1.226-1.25l-.856-2.132a2.3 2.3 0 0 1 1.272-2.97zm.643 4.678l-.854-2.133-1.073.43a1.1 1.1 0 0 0-.622.612 1.114 1.114 0 0 0-.008.886 1.152 1.152 0 0 0 1.485.635z"/><path data-name="Path 566" d="M31.263 450.713l-2.151.81-.809-2.15 2.15-.81z"/><path data-name="Path 567" d="M28.505 443.257l-9.775 3.31-.737-2.177 3.989-1.351-5.18-2.168-.649-1.916 6.362 2.7 3.414-6.008.736 2.177-2.7 4.547 3.807-1.289z"/><path data-name="Path 568" d="M19.962 427.969l1.338 4.382 1.093-.334a1.116 1.116 0 0 0 .677-.56 1.086 1.086 0 0 0 .094-.87l-.338-1.1a1.015 1.015 0 0 0-1.438-.755l-.334-1.092q2.274-.422 2.865 1.514l.671 2.2a2.315 2.315 0 0 1-1.526 2.869l-3.29 1.005a2.192 2.192 0 0 1-1.739-.181 2.219 2.219 0 0 1-1.117-1.349l-.672-2.2a2.3 2.3 0 0 1 1.518-2.852zm.246 4.716l-.672-2.2-1.105.338a1.092 1.092 0 0 0-.671.557 1.11 1.11 0 0 0-.083.881 1.151 1.151 0 0 0 1.426.759z"/><path data-name="Path 569" d="M17.491 419.103l1.214 4.419 1.1-.3a1.121 1.121 0 0 0 .693-.54 1.088 1.088 0 0 0 .118-.867l-.306-1.115a1.016 1.016 0 0 0-1.417-.795l-.3-1.1q2.286-.355 2.821 1.594l.61 2.216a2.228 2.228 0 0 1-.222 1.738 2.2 2.2 0 0 1-1.386 1.087l-3.316.911a2.189 2.189 0 0 1-1.734-.23 2.222 2.222 0 0 1-1.078-1.38l-.609-2.216a2.3 2.3 0 0 1 1.6-2.808zm.113 4.722l-.609-2.216-1.114.305a1.149 1.149 0 0 0 .608 2.216z"/><path data-name="Path 570" d="M12.456 417.942l-.546-2.232 1.11-.271a1.159 1.159 0 0 1-.9-.077 1.172 1.172 0 0 1-.476-.761l-.276-1.123a2.3 2.3 0 0 1 1.677-2.762l3.341-.817a2.3 2.3 0 0 1 2.775 1.673l.546 2.231 2.233-.546.546 2.233zm6.137-3.867l-.272-1.11a1.149 1.149 0 0 0-1.4-.847l-3.342.817a1.1 1.1 0 0 0-.7.519 1.117 1.117 0 0 0-.133.876 1.152 1.152 0 0 0 1.381.837z"/><path data-name="Path 571" d="M9.165 409.142l-1.115.248-.5-2.243 1.114-.248zm8.959-1.992l-7.831 1.741-.5-2.243 7.831-1.741z"/><path data-name="Path 572" d="M17.141 402.73l-7.865 1.575-.452-2.253 1.119-.224a1.394 1.394 0 0 1-.913-.182 1.076 1.076 0 0 1-.43-.714l-.227-1.133a2.3 2.3 0 0 1 1.791-2.688l5.626-1.127.448 2.24-5.626 1.126a1.152 1.152 0 0 0-.892 1.358 1.091 1.091 0 0 0 .488.723 1.1 1.1 0 0 0 .856.173l5.626-1.127z"/><path data-name="Path 573" d="M6.316 388.368l9.033-1.546a2.218 2.218 0 0 1 1.707.391 2.19 2.19 0 0 1 .943 1.472l.388 2.266q.34 1.993-1.878 2.652l-.194-1.14a1.062 1.062 0 0 0 .946-1.32l-.193-1.126a1.15 1.15 0 0 0-1.333-.944l-2.252.385q1.149-.057 1.32.947l.193 1.126a2.312 2.312 0 0 1-1.878 2.652l-3.39.58a2.179 2.179 0 0 1-1.7-.4 2.221 2.221 0 0 1-.938-1.48zm1.511 2.058l.2 1.14a1.15 1.15 0 0 0 1.318.932l3.391-.58a1.124 1.124 0 0 0 .744-.469 1.091 1.091 0 0 0 .2-.852 1.164 1.164 0 0 0-1.335-.943z"/><path data-name="Path 574" d="M5.386 382.437l-.284-2.28 6.827-.85-.141-1.134a1.1 1.1 0 0 0-.442-.769 1.125 1.125 0 0 0-.848-.235l-5.68.707-.283-2.266 6.827-.85-.142-1.147a1.086 1.086 0 0 0-.441-.756 1.121 1.121 0 0 0-.847-.234l-5.68.707-.284-2.281 4.069-.507a3.936 3.936 0 0 1 4.376 3.408l.365 2.935-.355.045a3.358 3.358 0 0 1 .556 1.567l.367 2.949z"/><path data-name="Path 575" d="M11.731 367.872l-10.279.917-.2-2.29 3.427-.3a1.394 1.394 0 0 1-.889-.28 1.074 1.074 0 0 1-.35-.756l-.1-1.151a2.3 2.3 0 0 1 2.072-2.478l5.715-.51.2 2.275-5.715.51a1.1 1.1 0 0 0-.772.407 1.119 1.119 0 0 0-.263.846 1.148 1.148 0 0 0 1.24 1.035l5.714-.51z"/><path data-name="Path 576" d="M6.104 354.479l-1.155.07a1.153 1.153 0 0 0-1.069 1.224l.07 1.14q.062 1.016 1.21 1.07l.071 1.154q-2.3-.137-2.42-2.154l-.141-2.294a2.3 2.3 0 0 1 2.141-2.419l5.726-.351.14 2.28-1.14.07q1.149.068 1.21 1.084l.071 1.14a2.313 2.313 0 0 1-2.154 2.433 2.183 2.183 0 0 1-1.648-.581 2.218 2.218 0 0 1-.772-1.572zm1.139-.069l.071 1.153a1.149 1.149 0 0 0 1.21 1.07 1.12 1.12 0 0 0 .79-.386 1.13 1.13 0 0 0-.1-1.621 1.126 1.126 0 0 0-.831-.287z"/><path data-name="Path 577" d="M.085 348.911L0 346.628l2.3-.085-.043-1.155 1.142-.042.043 1.155 4.578-.169a1.028 1.028 0 0 0 .845-.4 1.126 1.126 0 0 0 .272-.684v-.11l1.141-.043.043 1.156a2.3 2.3 0 0 1-2.212 2.367l-4.579.169.043 1.155-1.142.042-.043-1.154z"/><path data-name="Path 578" d="M11.311 338.245q1.153-.1 1.137-1.161l-.018-1.142a1.152 1.152 0 0 0-1.175-1.137l-2.284.037q1.146.118 1.161 1.138l.019 1.142a2.22 2.22 0 0 1-.649 1.626 2.2 2.2 0 0 1-1.612.708l-5.723.093-.038-2.3 5.724-.092a1.118 1.118 0 0 0 .806-.351 1.084 1.084 0 0 0 .331-.81 1.106 1.106 0 0 0-.357-.813 1.123 1.123 0 0 0-.817-.324l-5.724.093-.037-2.284 9.163-.148a2.218 2.218 0 0 1 1.628.647 2.189 2.189 0 0 1 .707 1.6l.037 2.3q.031 2.022-2.261 2.335z"/><path data-name="Path 579" d="M2.187 327.842l.057-2.3a2.3 2.3 0 0 1 2.341-2.226l3.439.086a2.214 2.214 0 0 1 1.6.715 2.188 2.188 0 0 1 .641 1.626l-.058 2.3a2.314 2.314 0 0 1-2.354 2.24l-3.44-.086a2.186 2.186 0 0 1-1.592-.722 2.221 2.221 0 0 1-.634-1.633zm2.283.057l3.439.087a1.122 1.122 0 0 0 .821-.318 1.087 1.087 0 0 0 .363-.8 1.1 1.1 0 0 0-.323-.828 1.125 1.125 0 0 0-.8-.357l-3.44-.086a1.1 1.1 0 0 0-.812.317 1.111 1.111 0 0 0-.357.81 1.149 1.149 0 0 0 1.112 1.17z"/><path data-name="Path 580" d="M2.76 313.928l8.011.423-.12 2.281-1.141-.06q1.134.2 1.079 1.214l-.06 1.14a2.314 2.314 0 0 1-2.416 2.174l-5.716-.3.121-2.3 5.717.3a1.117 1.117 0 0 0 .828-.294 1.078 1.078 0 0 0 .385-.785 1.1 1.1 0 0 0-.3-.836 1.122 1.122 0 0 0-.793-.379l-5.717-.3z"/><path data-name="Path 581" d="M3.156 307.971l.225-2.287 6.847.672.111-1.137a1.1 1.1 0 0 0-.262-.848 1.12 1.12 0 0 0-.775-.415l-5.7-.559.222-2.274 6.848.672.112-1.149a1.086 1.086 0 0 0-.263-.835 1.12 1.12 0 0 0-.775-.415l-5.7-.56.224-2.286 4.082.4a3.935 3.935 0 0 1 3.519 4.286l-.289 2.943-.356-.034a3.37 3.37 0 0 1 .2 1.65l-.291 2.958z"/><path data-name="Path 582" d="M8.622 289.985l-1.146-.153a1.1 1.1 0 0 0-.842.227 1.114 1.114 0 0 0-.443.767l-.151 1.132q-.137 1.009.981 1.283l-.154 1.146q-2.228-.576-1.96-2.581l.3-2.277a2.3 2.3 0 0 1 2.566-1.961l5.688.76-.3 2.263-1.132-.151q1.116.288.979 1.3l-.15 1.132a2.315 2.315 0 0 1-2.583 1.973 2.183 2.183 0 0 1-1.505-.888 2.216 2.216 0 0 1-.454-1.692zm1.132.151l-.153 1.146a1.151 1.151 0 0 0 .98 1.283 1.121 1.121 0 0 0 .85-.227 1.085 1.085 0 0 0 .447-.753 1.1 1.1 0 0 0-.232-.856 1.126 1.126 0 0 0-.76-.442z"/><path data-name="Path 583" d="M13.795 286.103l-7.918-1.286.368-2.269 1.127.184a1.4 1.4 0 0 1-.791-.491 1.074 1.074 0 0 1-.152-.82l.184-1.14a2.3 2.3 0 0 1 2.622-1.889l5.664.92-.367 2.254-5.664-.919a1.092 1.092 0 0 0-.848.2 1.12 1.12 0 0 0-.464.755 1.15 1.15 0 0 0 .944 1.309l5.664.92z"/><path data-name="Path 584" d="M5.368 274.063l.422-2.244 2.258.424.214-1.137 1.122.211-.213 1.137 4.5.844a1.032 1.032 0 0 0 .914-.206 1.131 1.131 0 0 0 .415-.608l.021-.109 1.122.211-.213 1.137a2.3 2.3 0 0 1-2.68 1.82l-4.5-.845-.213 1.136-1.123-.211.214-1.135z"/><path data-name="Path 585" d="M8.31 265.12l-1.117-.243.488-2.245 1.116.242zm8.968 1.946l-7.839-1.7.487-2.245 7.84 1.7z"/><path data-name="Path 586" d="M18.242 262.625l-7.8-1.867.535-2.235 1.11.266a1.394 1.394 0 0 1-.753-.548 1.073 1.073 0 0 1-.092-.828l.269-1.124a2.3 2.3 0 0 1 2.753-1.69l5.581 1.335-.532 2.222-5.58-1.336a1.1 1.1 0 0 0-.862.14 1.123 1.123 0 0 0-.518.718 1.152 1.152 0 0 0 .844 1.377l5.581 1.335z"/><path data-name="Path 587" d="M23.131 243.88l-.633 2.2-5.513-1.589a1.1 1.1 0 0 0-.868.1 1.119 1.119 0 0 0-.55.694 1.152 1.152 0 0 0 .781 1.414l5.513 1.589-.636 2.208-7.708-2.222.636-2.208 1.1.316a1.39 1.39 0 0 1-.726-.582 1.074 1.074 0 0 1-.054-.832l.32-1.11a1.932 1.932 0 0 1 1.256-1.428 1.706 1.706 0 0 1-.394-.844 2.422 2.422 0 0 1 .09-1.034l.317-1.1a2.226 2.226 0 0 1 1.1-1.367 2.19 2.19 0 0 1 1.736-.209l5.512 1.59-.635 2.208-5.514-1.59a1.111 1.111 0 0 0-.86.1 1.092 1.092 0 0 0-.554.679 1.12 1.12 0 0 0 .1.873 1.08 1.08 0 0 0 .677.553z"/><path data-name="Path 588" d="M16.373 234.551l-1.089-.347.7-2.189 1.087.347zm8.743 2.791l-7.642-2.439.7-2.19 7.642 2.44z"/><path data-name="Path 589" d="M26.491 233.031l-7.589-2.6.746-2.174 1.08.37a1.4 1.4 0 0 1-.7-.617 1.078 1.078 0 0 1-.012-.834l.375-1.093a2.3 2.3 0 0 1 2.9-1.42l5.428 1.86-.74 2.161-5.428-1.86a1.1 1.1 0 0 0-.871.057 1.115 1.115 0 0 0-.584.665 1.151 1.151 0 0 0 .71 1.452l5.427 1.86z"/><path data-name="Path 590" d="M31.888 217.985l-.8 2.14-1.069-.4a1.1 1.1 0 0 1 .664 1.484l-.4 1.069a2.316 2.316 0 0 1-2.958 1.346l-3.221-1.206a2.191 2.191 0 0 1-1.269-1.2 2.216 2.216 0 0 1-.064-1.75l.8-2.152-2.151-.806.8-2.139zm-7.244-.275l-.407 1.083a1.1 1.1 0 0 0 .035.873 1.09 1.09 0 0 0 .634.6l3.222 1.207a1.116 1.116 0 0 0 .879-.031 1.087 1.087 0 0 0 .6-.633 1.162 1.162 0 0 0-.677-1.488z"/><path data-name="Path 591" d="M30.895 205.219l-.441 1.054a1.15 1.15 0 0 0-.885 2.121l3.175 1.325a1.122 1.122 0 0 0 .879 0 1.089 1.089 0 0 0 .627-.61 1.106 1.106 0 0 0-.621-1.513l.44-1.054a2.11 2.11 0 0 1 1.236 3.006l-.441 1.054a2.313 2.313 0 0 1-3 1.235l-3.175-1.325a2.184 2.184 0 0 1-1.223-1.248 2.222 2.222 0 0 1 0-1.752l.441-1.054a2.1 2.1 0 0 1 2.988-1.239z"/><path data-name="Path 592" d="M34.763 199.327l-1.055-.473a1.1 1.1 0 0 0-.872-.023 1.119 1.119 0 0 0-.643.61l-.467 1.042a1.082 1.082 0 0 0 .574 1.509l-.474 1.054q-1.969-1.185-1.142-3.031l.94-2.1a2.3 2.3 0 0 1 3.02-1.148l5.234 2.35-.935 2.083-1.041-.467a1.1 1.1 0 0 1 .568 1.521l-.468 1.042a2.315 2.315 0 0 1-3.037 1.157 2.184 2.184 0 0 1-1.189-1.282 2.218 2.218 0 0 1 .046-1.751zm1.042.467l-.474 1.055a1.154 1.154 0 0 0 .575 1.51 1.115 1.115 0 0 0 .878.024 1.081 1.081 0 0 0 .644-.594 1.1 1.1 0 0 0 .021-.887 1.122 1.122 0 0 0-.6-.64z"/><path data-name="Path 593" d="M40.815 197.111l-7.224-3.489 1-2.07 1.028.5a1.391 1.391 0 0 1-.618-.7 1.071 1.071 0 0 1 .087-.829l.5-1.041a2.3 2.3 0 0 1 3.05-1.063l5.167 2.495-.993 2.057-5.167-2.495a1.1 1.1 0 0 0-.872-.047 1.119 1.119 0 0 0-.66.591 1.15 1.15 0 0 0 .532 1.525l5.167 2.495z"/><path data-name="Path 594" d="M42.505 176.044l8.092 4.3a2.212 2.212 0 0 1 1.11 1.354 2.183 2.183 0 0 1-.154 1.742l-1.078 2.028q-.949 1.786-3.108.95l.542-1.02a1.063 1.063 0 0 0 1.557-.466l.536-1.008a1.15 1.15 0 0 0-.477-1.563l-2.018-1.073a1.1 1.1 0 0 1 .467 1.557l-.536 1.009a2.318 2.318 0 0 1-3.109.95l-3.037-1.615a2.182 2.182 0 0 1-1.1-1.357 2.218 2.218 0 0 1 .163-1.744zm-.064 2.553l-.542 1.021a1.15 1.15 0 0 0 .472 1.545l3.037 1.614a1.123 1.123 0 0 0 .875.084 1.13 1.13 0 0 0 .762-1.435 1.121 1.121 0 0 0-.559-.678z"/><path data-name="Path 595" d="M42.682 173.353l-1-.557 1.122-2.006 1 .557zm8.011 4.478l-7-3.914 1.122-2.005 7 3.914z"/><path data-name="Path 596" d="M48.317 165.844l1.156-1.97 3.536 2.077a3.933 3.933 0 0 1 1.4 5.355l-1.505 2.563-6.918-4.061 1.163-1.981 5.934 3.482.578-.984a1.164 1.164 0 0 0-.412-1.582z"/><path data-name="Path 597" d="M58.272 158.385l-2.43 3.886.968.606a1.122 1.122 0 0 0 .867.144 1.086 1.086 0 0 0 .719-.5l.613-.98a1.016 1.016 0 0 0-.375-1.581l.6-.969q1.811 1.441.738 3.155l-1.218 1.948a2.315 2.315 0 0 1-3.167.731l-2.917-1.824a2.193 2.193 0 0 1-1-1.431 2.224 2.224 0 0 1 .286-1.729l1.218-1.948a2.3 2.3 0 0 1 3.147-.725zm-3.4 3.281l1.219-1.949-.981-.613a1.1 1.1 0 0 0-.861-.141 1.121 1.121 0 0 0-.72.515 1.153 1.153 0 0 0 .364 1.574z"/><path data-name="Path 598" d="M65.874 155.152a1.065 1.065 0 0 0 1.6-.294l.642-.944a1.151 1.151 0 0 0-.3-1.606l-1.889-1.285a1.1 1.1 0 0 1 .294 1.6l-.643.944a2.313 2.313 0 0 1-3.192.608l-4.732-3.219 1.292-1.9 4.733 3.22a1.117 1.117 0 0 0 .86.178 1.089 1.089 0 0 0 .738-.472 1.165 1.165 0 0 0-.306-1.606l-4.732-3.219 1.284-1.889 7.577 5.154a2.222 2.222 0 0 1 .958 1.467 2.184 2.184 0 0 1-.343 1.714l-1.292 1.9q-1.139 1.673-3.192.608z"/><path data-name="Path 599" d="M64.266 141.397l1.345-1.863a2.3 2.3 0 0 1 3.189-.516l2.789 2.014a2.22 2.22 0 0 1 .917 1.493 2.187 2.187 0 0 1-.391 1.7l-1.344 1.863a2.22 2.22 0 0 1-1.494.916 2.193 2.193 0 0 1-1.714-.4l-2.789-2.013a2.188 2.188 0 0 1-.908-1.495 2.223 2.223 0 0 1 .4-1.699zm1.852 1.337l2.789 2.014a1.12 1.12 0 0 0 .856.2 1.129 1.129 0 0 0 .95-1.317 1.12 1.12 0 0 0-.461-.748l-2.789-2.013a1.1 1.1 0 0 0-.85-.2 1.121 1.121 0 0 0-.753.467 1.153 1.153 0 0 0 .258 1.6z"/><path data-name="Path 600" d="M72.584 130.259l6.371 4.875-1.387 1.815-.908-.7a1.1 1.1 0 0 1 .2 1.613l-.693.907a2.315 2.315 0 0 1-3.222.428l-4.546-3.479 1.4-1.825 4.546 3.479a1.12 1.12 0 0 0 .849.226 1.089 1.089 0 0 0 .763-.431 1.105 1.105 0 0 0 .224-.859 1.121 1.121 0 0 0-.44-.761l-4.546-3.478z"/><path data-name="Path 601" d="M75.261 123.253l1.451-1.764 1.774 1.46.735-.894.882.726-.734.892 3.539 2.91a1.033 1.033 0 0 0 .9.26 1.133 1.133 0 0 0 .656-.333l.07-.085.882.725-.733.893a2.3 2.3 0 0 1-3.226.305l-3.54-2.91-.733.893-.883-.725.734-.893z"/><path data-name="Path 602" d="M86.831 125.452l-7.809-6.746 1.5-1.74 2.6 2.249a1.4 1.4 0 0 1-.417-.833 1.078 1.078 0 0 1 .3-.778l.755-.874a2.3 2.3 0 0 1 3.221-.235l4.343 3.75-1.493 1.729-4.343-3.751a1.1 1.1 0 0 0-.829-.271 1.113 1.113 0 0 0-.79.4 1.151 1.151 0 0 0 .117 1.61l4.343 3.751z"/><path data-name="Path 603" d="M94.911 111.177l-3.091 3.383.844.771a1.12 1.12 0 0 0 .826.3 1.078 1.078 0 0 0 .8-.362l.781-.853a1.017 1.017 0 0 0-.083-1.623l.77-.843q1.521 1.743.155 3.236l-1.55 1.7a2.311 2.311 0 0 1-3.246.147l-2.54-2.321a2.181 2.181 0 0 1-.728-1.588 2.213 2.213 0 0 1 .593-1.648l1.549-1.7a2.3 2.3 0 0 1 3.227-.146zm-3.933 2.613l1.549-1.7-.852-.779a1.1 1.1 0 0 0-.822-.294 1.115 1.115 0 0 0-.8.377 1.152 1.152 0 0 0 .072 1.613z"/><path data-name="Path 604" d="M106.173 104.525l-1.616 1.615-4.056-4.055a1.1 1.1 0 0 0-.808-.331 1.117 1.117 0 0 0-.817.34 1.152 1.152 0 0 0 0 1.615l4.057 4.059-1.625 1.624-5.671-5.673 1.625-1.625.807.808a1.4 1.4 0 0 1-.355-.861 1.079 1.079 0 0 1 .355-.754l.818-.818a1.931 1.931 0 0 1 1.79-.641 1.706 1.706 0 0 1 .063-.929 2.4 2.4 0 0 1 .579-.861l.808-.808a2.226 2.226 0 0 1 1.62-.666 2.184 2.184 0 0 1 1.62.657l4.057 4.058-1.625 1.625-4.057-4.059a1.1 1.1 0 0 0-.8-.325 1.087 1.087 0 0 0-.813.325 1.12 1.12 0 0 0-.336.813 1.089 1.089 0 0 0 .326.812z"/><path data-name="Path 605" d="M107.25 92.335l1.681-1.566a2.3 2.3 0 0 1 3.228.113l2.346 2.516a2.219 2.219 0 0 1 .609 1.642 2.185 2.185 0 0 1-.712 1.6l-1.681 1.568a2.314 2.314 0 0 1-3.248-.115l-2.342-2.519a2.188 2.188 0 0 1-.6-1.643 2.225 2.225 0 0 1 .719-1.596zm1.558 1.671l2.345 2.517a1.121 1.121 0 0 0 .8.363 1.084 1.084 0 0 0 .824-.3 1.1 1.1 0 0 0 .364-.809 1.115 1.115 0 0 0-.307-.824l-2.346-2.516a1.092 1.092 0 0 0-.795-.359 1.145 1.145 0 0 0-1.188 1.107 1.1 1.1 0 0 0 .303.821z"/><path data-name="Path 606" d="M111.731 85.109l1.709-1.517 1.526 1.719.864-.768.758.855-.864.766 3.042 3.427a1.033 1.033 0 0 0 .849.4 1.121 1.121 0 0 0 .7-.227l.083-.073.758.854-.864.768a2.3 2.3 0 0 1-3.234-.2l-3.042-3.427-.865.768-.757-.854.864-.767z"/><path data-name="Path 607" d="M116.892 82.102l-.743-.867 1.744-1.495.743.867zm5.972 6.969l-5.22-6.091 1.745-1.495 5.221 6.091z"/><path data-name="Path 608" d="M124.762 77.005l1.765-1.45 2.6 3.169a3.935 3.935 0 0 1-.53 5.511l-2.3 1.887-5.093-6.2 1.775-1.458 4.368 5.316.882-.725a1.1 1.1 0 0 0 .415-.785 1.123 1.123 0 0 0-.255-.842z"/><path data-name="Path 609" d="M134.19 73.92l-.708-.913a1.1 1.1 0 0 0-.76-.429 1.118 1.118 0 0 0-.854.236l-.9.7a1.085 1.085 0 0 0-.2 1.6l-.913.709q-1.183-1.974.415-3.214l1.815-1.408a2.3 2.3 0 0 1 3.205.4l3.517 4.534-1.8 1.4-.7-.9a1.1 1.1 0 0 1-.214 1.611l-.9.7a2.226 2.226 0 0 1-1.691.458 2.291 2.291 0 0 1-1.118-4.078zm.7.9l-.913.709a1.148 1.148 0 0 0-.2 1.6 1.119 1.119 0 0 0 .763.435 1.086 1.086 0 0 0 .847-.222 1.1 1.1 0 0 0 .436-.773 1.119 1.119 0 0 0-.231-.849z"/><path data-name="Path 610" d="M135.399 65.813l1.838-1.356 1.364 1.85.93-.686.678.919-.931.686 2.72 3.688a1.032 1.032 0 0 0 .81.471 1.127 1.127 0 0 0 .718-.161l.088-.065.678.919-.931.685a2.192 2.192 0 0 1-1.7.413 2.215 2.215 0 0 1-1.507-.906l-2.713-3.685-.931.687-.678-.92.931-.685z"/><path data-name="Path 611" d="M140.788 63.294l-.662-.93 1.873-1.331.662.93zm5.318 7.481l-4.648-6.538 1.873-1.331 4.648 6.538z"/><path data-name="Path 612" d="M147.201 60.215l1.9-1.292a2.3 2.3 0 0 1 3.173.606l1.933 2.844a2.224 2.224 0 0 1 .352 1.717 2.187 2.187 0 0 1-.95 1.468l-1.9 1.292a2.314 2.314 0 0 1-3.192-.609l-1.934-2.845a2.192 2.192 0 0 1-.342-1.714 2.223 2.223 0 0 1 .96-1.467zm1.284 1.889l1.934 2.846a1.117 1.117 0 0 0 .734.481 1.084 1.084 0 0 0 .86-.168 1.1 1.1 0 0 0 .483-.744 1.118 1.118 0 0 0-.177-.861l-1.934-2.845a1.1 1.1 0 0 0-.731-.477 1.116 1.116 0 0 0-.867.182 1.153 1.153 0 0 0-.3 1.586z"/><path data-name="Path 613" d="M157.364 63.045l-4.322-6.758 1.937-1.238.615.962a1.394 1.394 0 0 1-.162-.917 1.07 1.07 0 0 1 .509-.66l.973-.623a2.3 2.3 0 0 1 3.155.693l3.091 4.834-1.924 1.231-3.091-4.834a1.149 1.149 0 0 0-1.936 1.238l3.092 4.834z"/><path data-name="Path 614" d="M163.707 46.934l1.967-1.163 1.169 1.978.995-.588.581.983-.994.589 2.332 3.943a1.035 1.035 0 0 0 .758.552 1.123 1.123 0 0 0 .73-.089l.095-.056.582.983-.995.589a2.3 2.3 0 0 1-3.136-.816l-2.333-3.944-.994.589-.582-.984.995-.588z"/><path data-name="Path 615" d="M171.942 44.82l2.005-1.121a2.3 2.3 0 0 1 3.109.88l1.678 3a2.227 2.227 0 0 1 .2 1.741 2.187 2.187 0 0 1-1.073 1.38l-2.006 1.121a2.313 2.313 0 0 1-3.127-.886l-1.678-3a2.187 2.187 0 0 1-.19-1.737 2.212 2.212 0 0 1 1.082-1.378zm1.114 1.994l1.678 3a1.115 1.115 0 0 0 .689.544 1.091 1.091 0 0 0 .871-.092 1.108 1.108 0 0 0 .547-.7 1.119 1.119 0 0 0-.1-.873l-1.677-3a1.1 1.1 0 0 0-.688-.538 1.116 1.116 0 0 0-.879.1 1.152 1.152 0 0 0-.439 1.555z"/><path data-name="Path 616" d="M190.973 43.805l-2.036 1.036-.518-1.017a1.1 1.1 0 0 1-.512 1.542l-1.018.517a2.221 2.221 0 0 1-1.746.133 2.2 2.2 0 0 1-1.344-1.139l-1.561-3.065a2.183 2.183 0 0 1-.123-1.743 2.224 2.224 0 0 1 1.135-1.335l2.048-1.042-1.042-2.048 2.035-1.036zm-5.156-5.1l-1.031.525a1.153 1.153 0 0 0-.5 1.536l1.561 3.065a1.115 1.115 0 0 0 .669.571 1.087 1.087 0 0 0 .873-.059 1.1 1.1 0 0 0 .573-.678 1.12 1.12 0 0 0-.067-.876z"/><path data-name="Path 617" d="M197.722 36.764l-4.141 1.963.489 1.032a1.121 1.121 0 0 0 .653.589 1.087 1.087 0 0 0 .875-.034l1.044-.494a1.016 1.016 0 0 0 .537-1.534l1.032-.49q.749 2.188-1.08 3.055l-2.076.984a2.316 2.316 0 0 1-3.061-1.091l-1.473-3.109a2.192 2.192 0 0 1-.075-1.747 2.226 2.226 0 0 1 1.173-1.3l2.076-.984a2.3 2.3 0 0 1 3.042 1.086zm-4.63.931l2.077-.985-.495-1.044a1.106 1.106 0 0 0-.649-.583 1.122 1.122 0 0 0-.885.046 1.153 1.153 0 0 0-.543 1.522z"/><path data-name="Path 618" d="M203.576 32.904l-.465-1.058a1.1 1.1 0 0 0-.632-.6 1.11 1.11 0 0 0-.886.021l-1.045.46a1.084 1.084 0 0 0-.585 1.505l-1.059.466q-.667-2.2 1.184-3.017l2.1-.925a2.3 2.3 0 0 1 3.01 1.171l2.311 5.252-2.091.92-.46-1.046a1.1 1.1 0 0 1-.6 1.511l-1.045.46a2.314 2.314 0 0 1-3.029-1.178 2.185 2.185 0 0 1-.025-1.748 2.217 2.217 0 0 1 1.209-1.267zm.46 1.045l-1.057.465a1.151 1.151 0 0 0-.585 1.506 1.117 1.117 0 0 0 .634.607 1.086 1.086 0 0 0 .876-.009 1.1 1.1 0 0 0 .611-.645 1.12 1.12 0 0 0-.019-.878z"/><path data-name="Path 619" d="M209.591 35.317l-3.955-9.532 2.122-.881 3.956 9.532z"/><path data-name="Path 620" d="M214.141 24.772l2.155-.8 2.388 6.452 1.071-.4a1.1 1.1 0 0 0 .648-.607 1.125 1.125 0 0 0 .035-.879l-1.988-5.368 2.143-.793 2.389 6.452 1.084-.4a1.083 1.083 0 0 0 .634-.6 1.115 1.115 0 0 0 .035-.877l-1.987-5.369 2.154-.8 1.424 3.844a3.933 3.933 0 0 1-2.316 5.039l-2.775 1.028-.124-.335a3.375 3.375 0 0 1-1.4.9l-2.787 1.032z"/><path data-name="Path 621" d="M226.863 18.936l-.366-1.082 2.177-.736.366 1.082zm2.943 8.693l-2.571-7.6 2.176-.737 2.572 7.6z"/><path data-name="Path 622" d="M232.06 16.005l2.175-.694.7 2.189 1.1-.35.347 1.088-1.1.35 1.392 4.367a1.034 1.034 0 0 0 .615.706 1.13 1.13 0 0 0 .733.077l.1-.033.347 1.087-1.1.351a2.3 2.3 0 0 1-2.874-1.495l-1.392-4.365-1.1.351-.348-1.089 1.1-.35z"/><path data-name="Path 623" d="M240.594 24.129l-2.892-9.906 2.2-.643.964 3.3a1.4 1.4 0 0 1 .1-.925 1.073 1.073 0 0 1 .674-.491l1.11-.324a2.3 2.3 0 0 1 2.832 1.553l1.608 5.508-2.193.64-1.607-5.509a1.1 1.1 0 0 0-.549-.677 1.116 1.116 0 0 0-.881-.1 1.153 1.153 0 0 0-.776 1.417l1.607 5.508z"/><path data-name="Path 624" d="M252.675 20.736l-2.575-9.993 2.225-.574 2.576 9.994z"/><path data-name="Path 625" d="M254.931 10.694l-.27-1.11 2.234-.542.269 1.11zm2.164 8.919l-1.892-7.8 2.234-.542 1.891 7.8z"/><path data-name="Path 626" d="M262.618 18.302l-1.505-6.713-1.128.253-.25-1.114 1.128-.253-.023-.107a2.21 2.21 0 0 1 1.656-2.615l2.336-.523.25 1.114-1.222.275a1.054 1.054 0 0 0-.791 1.249l.024.107 1.128-.253.249 1.114-1.128.253 1.5 6.714z"/><path data-name="Path 627" d="M274.255 12.358l-4.494.891.223 1.121a1.115 1.115 0 0 0 .488.73 1.087 1.087 0 0 0 .856.181l1.134-.225a1.016 1.016 0 0 0 .9-1.356l1.12-.222q.19 2.305-1.794 2.7l-2.254.447a2.312 2.312 0 0 1-2.7-1.807l-.669-3.374a2.189 2.189 0 0 1 .355-1.712 2.224 2.224 0 0 1 1.454-.976l2.254-.447a2.3 2.3 0 0 1 2.686 1.8zm-4.716-.23l2.254-.446-.225-1.134a1.149 1.149 0 0 0-2.254.447z"/><path data-name="Path 628" d="M275.331 5.185l2.263-.4.4 2.262q.352 1.993-1.866 2.65l-.2-1.125a1.063 1.063 0 0 0 .939-1.326l-1.137.2z"/><path data-name="Path 629" d="M286.386 8.001l-1.128.177q-.327-1.1-1.251-.96a1.449 1.449 0 0 0-.86.378.856.856 0 0 0-.19.747q.078.489 1.861 1.115a3.645 3.645 0 0 1 1.737.955 2.6 2.6 0 0 1 .363.987 2.3 2.3 0 0 1-1.914 2.626l-1.129.177a2.031 2.031 0 0 1-2.626-1.915l1.143-.179q.313 1.121 1.239.975a1.469 1.469 0 0 0 .873-.379.87.87 0 0 0 .188-.761q-.075-.477-1.859-1.1a3.7 3.7 0 0 1-1.743-.953 2.542 2.542 0 0 1-.371-.986 2.316 2.316 0 0 1 1.915-2.626l1.128-.177a2.1 2.1 0 0 1 2.624 1.899z"/><path data-name="Path 630" d="M297.869 6.51l-1.134.138q-.273-1.117-1.285-.995a1.151 1.151 0 0 0-1 1.27l.413 3.415a1.117 1.117 0 0 0 .432.766 1.09 1.09 0 0 0 .841.245q1.011-.123 1.009-1.286l1.133-.138a2.11 2.11 0 0 1-2.005 2.558l-1.134.137a2.315 2.315 0 0 1-2.557-2.005l-.413-3.416a2.189 2.189 0 0 1 .482-1.68 2.224 2.224 0 0 1 1.525-.863l1.134-.137a2.093 2.093 0 0 1 2.559 1.991z"/><path data-name="Path 631" d="M300.745 11.964l-.97-10.274 2.288-.216.323 3.425a1.4 1.4 0 0 1 .275-.89 1.073 1.073 0 0 1 .755-.355l1.151-.109a2.3 2.3 0 0 1 2.488 2.06l.54 5.712-2.274.215-.54-5.712a1.1 1.1 0 0 0-.411-.77 1.113 1.113 0 0 0-.846-.259 1.152 1.152 0 0 0-1.031 1.245l.54 5.712z"/><path data-name="Path 632" d="M314.1 6.262l-.077-1.153a1.1 1.1 0 0 0-.39-.781 1.118 1.118 0 0 0-.839-.283l-1.14.077c-.677.044-1.032.45-1.064 1.214l-1.153.078q.123-2.3 2.141-2.432l2.293-.152a2.3 2.3 0 0 1 2.431 2.127l.381 5.725-2.28.151-.076-1.139q-.062 1.149-1.077 1.217l-1.14.075a2.314 2.314 0 0 1-2.445-2.14 2.193 2.193 0 0 1 .572-1.652 2.225 2.225 0 0 1 1.57-.78zm.075 1.14l-1.153.076a1.151 1.151 0 0 0-1.064 1.216 1.125 1.125 0 0 0 .39.787 1.088 1.088 0 0 0 .826.29 1.1 1.1 0 0 0 .794-.4 1.121 1.121 0 0 0 .283-.833z"/><path data-name="Path 633" d="M318.948 10.579L318.48.269l2.3-.1.469 10.31z"/><path data-name="Path 634" d="M323.473 10.385L323.145.071l2.3-.074.328 10.315z"/><path data-name="Path 635" d="M334.831 6.71l-4.581.075.019 1.141a1.123 1.123 0 0 0 .35.807 1.089 1.089 0 0 0 .81.331l1.156-.02a1.014 1.014 0 0 0 1.123-1.173l1.142-.019q-.225 2.3-2.246 2.335l-2.3.037a2.315 2.315 0 0 1-2.335-2.261l-.056-3.439a2.184 2.184 0 0 1 .655-1.62 2.221 2.221 0 0 1 1.606-.7l2.3-.038a2.3 2.3 0 0 1 2.32 2.248zm-4.6-1.068l2.3-.037-.018-1.155a1.15 1.15 0 0 0-2.3.037z"/><path data-name="Path 636" d="M337.131 10.172l.132-8.02 2.3.037-.019 1.142a1.4 1.4 0 0 1 .372-.854 1.074 1.074 0 0 1 .788-.269l1.157.019a2.3 2.3 0 0 1 2.246 2.321l-.094 5.738-2.284-.038.094-5.737a1.1 1.1 0 0 0-.324-.81 1.146 1.146 0 0 0-1.624-.027 1.1 1.1 0 0 0-.349.8l-.095 5.737z"/><path data-name="Path 637" d="M353.461 2.642l-.4 9.155a2.223 2.223 0 0 1-.744 1.585 2.188 2.188 0 0 1-1.639.611l-2.3-.1q-2.021-.09-2.194-2.4l1.154.05q.031 1.16 1.091 1.205l1.14.05a1.152 1.152 0 0 0 1.206-1.1l.1-2.283q-.187 1.136-1.2 1.09l-1.142-.049a2.316 2.316 0 0 1-2.194-2.4l.151-3.436a2.2 2.2 0 0 1 .751-1.58 2.228 2.228 0 0 1 1.646-.6zm-2.33 1.043l-1.154-.051a1.152 1.152 0 0 0-1.192 1.091l-.151 3.437a1.12 1.12 0 0 0 .3.826 1.089 1.089 0 0 0 .789.379 1.1 1.1 0 0 0 .833-.308 1.123 1.123 0 0 0 .372-.8z"/><path data-name="Path 638" d="M362.452 7.848l-4.57-.329-.082 1.14a1.12 1.12 0 0 0 .278.834 1.089 1.089 0 0 0 .779.4l1.152.083a1.016 1.016 0 0 0 1.223-1.071l1.138.082q-.424 2.273-2.443 2.128l-2.292-.164a2.315 2.315 0 0 1-2.127-2.457l.247-3.432a2.189 2.189 0 0 1 .795-1.557 2.221 2.221 0 0 1 1.661-.556l2.292.165a2.3 2.3 0 0 1 2.114 2.442zm-4.488-1.468l2.292.164.083-1.152a1.1 1.1 0 0 0-.278-.827 1.117 1.117 0 0 0-.793-.4 1.152 1.152 0 0 0-1.221 1.057z"/><path data-name="Path 639" d="M370.688 6.325l-1.136-.112q-.039-1.151-.971-1.243a1.441 1.441 0 0 0-.928.151.857.857 0 0 0-.37.675q-.048.493 1.522 1.546 1.284.859 1.442 1.359a2.58 2.58 0 0 1 .1 1.047 2.3 2.3 0 0 1-2.511 2.062l-1.137-.111a2.031 2.031 0 0 1-2.062-2.512l1.15.113q.024 1.166.955 1.255a1.462 1.462 0 0 0 .941-.149.869.869 0 0 0 .372-.69q.047-.479-1.523-1.532-1.284-.858-1.449-1.358a2.523 2.523 0 0 1-.111-1.048 2.313 2.313 0 0 1 2.51-2.063l1.137.112a2.1 2.1 0 0 1 2.069 2.498z"/><path data-name="Path 640" d="M372.36 12.292l.269-2.282 2.282.269-.268 2.282z"/></g></svg>